<svg width="70" height="70" viewBox="0 0 70 70" fill="none" xmlns="http://www.w3.org/2000/svg">
<path d="M1.55364 51.7957C0.396828 52.1807 -0.350644 50.5909 0.683814 49.9456L9.36243 44.5336C20.5689 37.5453 25.5268 23.7884 21.3551 11.2579L18.1243 1.55381C17.7392 0.396869 19.3291 -0.350604 19.9744 0.683986L25.3863 9.3626C32.3746 20.5689 46.1315 25.5269 58.662 21.3551L68.3661 18.1244C69.5231 17.7393 70.2705 19.3291 69.2359 19.9744L60.5573 25.3864C49.351 32.3747 44.393 46.1316 48.5648 58.6622L51.7956 68.3663C52.1806 69.5231 50.5908 70.2706 49.9456 69.2361L44.5336 60.5575C37.5453 49.3511 23.7884 44.3931 11.2578 48.5649L1.55364 51.7957Z" fill="#114F3C"/>
</svg>
