<svg width="70" height="70" viewBox="0 0 70 70" fill="none" xmlns="http://www.w3.org/2000/svg">
<path d="M67.5038 34.5659C67.5038 43.1082 64.2116 50.8827 58.8312 56.688C58.7547 56.7702 58.6782 56.8495 58.6017 56.9289C58.5196 57.0167 58.4402 57.1017 58.3552 57.1867C52.4422 63.3037 44.1464 67.1088 34.961 67.1088C29.9404 67.1088 25.1862 65.9726 20.942 63.944C16.9556 62.0372 13.4196 59.3428 10.5325 56.0647C9.85822 55.2997 9.2179 54.5036 8.61725 53.6734C4.71868 48.3072 2.4209 41.7057 2.4209 34.563C2.4209 16.5916 16.9895 2.02014 34.9638 2.02014C52.9352 2.02297 67.5038 16.5916 67.5038 34.5659Z" fill="#894AB3"/>
<path d="M28.3527 49.7408C28.3527 49.7408 28.1091 50.2054 27.6813 51.0271C27.5226 51.3245 27.3441 51.6702 27.1401 52.0584C26.4516 53.3787 25.511 55.1778 24.4315 57.2433C24.338 57.4218 24.2445 57.6003 24.151 57.7844C23.1537 59.694 22.0572 61.802 20.9409 63.9468C16.9545 62.04 13.4186 59.3455 10.5315 56.0674C9.85718 55.3025 9.21686 54.5063 8.61621 53.6762C9.0242 53.2795 9.46052 52.9452 9.93651 52.676C14.7446 49.9533 23.7997 49.7153 27.1033 49.7209C27.8881 49.7238 28.3527 49.7408 28.3527 49.7408Z" fill="#DCF4FF"/>
<path d="M10.5371 56.0649C12.0671 53.8492 13.9569 52.3136 16.2915 51.9906C18.8527 51.6365 22.927 51.3191 27.0919 51.0613C27.2902 51.05 27.4885 51.0386 27.6869 51.0245C33.6084 50.6675 39.5639 50.4266 41.4565 50.353C41.856 50.336 42.0742 50.3303 42.0742 50.3303C42.0742 50.3303 42.128 50.3445 42.2159 50.3672C42.7315 50.5003 44.4315 50.9253 43.76 50.6165C50.4607 51.8008 55.2262 54.2119 58.6091 56.929C58.527 57.0168 58.4476 57.1018 58.3626 57.1868C52.4496 63.3038 44.1538 67.1089 34.9684 67.1089C29.9478 67.1089 25.1936 65.9728 20.9494 63.9442C16.9601 62.0374 13.4242 59.3429 10.5371 56.0649Z" fill="#DCF4FF"/>
<path d="M35.4447 63.295C35.711 63.3233 35.9802 63.346 36.255 63.3658C36.4109 63.3772 36.5497 63.2581 36.5582 63.1023C36.5695 62.9465 36.4562 62.8105 36.2947 62.7992C24.4828 61.969 22.287 53.3219 22.27 53.2341C22.2417 53.0811 22.0944 52.9762 21.9414 53.0017C21.7884 53.0272 21.6835 53.1661 21.7062 53.3191C21.7204 53.4097 23.902 62.1022 35.4447 63.295Z" fill="#0D060E"/>
<path d="M42.1505 50.0154C49.908 51.1033 55.226 53.7978 58.8243 56.6877C58.7478 56.7699 58.6713 56.8492 58.5948 56.9285C58.5126 57.0164 58.4333 57.1013 58.3483 57.1863C54.8662 54.4041 49.7323 51.8003 42.2553 50.7237C42.0825 50.6982 41.9097 50.6755 41.7368 50.65C41.5782 50.6273 41.4592 50.5027 41.4422 50.3553C41.4365 50.327 41.4365 50.2959 41.4394 50.2675C41.4649 50.0805 41.6377 49.9474 41.8247 49.9729C41.9352 49.9842 42.0428 49.9984 42.1505 50.0154Z" fill="#0D060E"/>
<path d="M34.7505 58.7196C30.4099 58.7706 26.9109 53.9342 27.078 48.1119L27.5115 39.8047L41.216 39.7339L41.8592 48.1713C42.2615 54.0929 39.1789 58.6686 34.7505 58.7196Z" fill="#FE9F73"/>
<path d="M27.3535 45.5872C29.8071 51.5398 40.5055 50.9959 41.5907 45.1197L41.2252 39.7365L27.5207 39.8073L27.3535 45.5872Z" fill="#F07162"/>
<path d="M42.6426 30.9056C42.6539 32.988 44.3511 34.6682 46.4335 34.6568C48.516 34.6455 50.1961 32.9484 50.1848 30.8659C50.1734 28.7835 48.4763 27.1033 46.3939 27.1147C44.3142 27.126 42.6341 28.8231 42.6426 30.9056Z" fill="#FE9F73"/>
<path d="M46.7009 33.2117C47.4914 33.2088 48.0184 32.611 48.1884 32.016C48.3896 31.3105 48.1516 30.6306 47.5764 30.2792C46.7605 29.7777 46.021 30.0781 45.6215 30.3331C45.783 29.9307 46.0266 29.6361 46.3553 29.4548C47.0919 29.0468 48.0043 29.3358 48.0156 29.3414C48.0779 29.3613 48.1459 29.3273 48.1686 29.2649C48.1884 29.2026 48.1544 29.1346 48.0921 29.1119C48.0496 29.0978 47.0693 28.7833 46.2391 29.2451C45.7603 29.5114 45.4373 29.9789 45.2758 30.6334L45.1738 31.0527L45.4798 30.7467C45.5166 30.7099 46.4006 29.8401 47.4546 30.4861C48.0354 30.8431 48.0892 31.4975 47.9589 31.9509C47.8229 32.4269 47.4064 32.9765 46.6839 32.9737C46.6188 32.9737 46.5621 33.0275 46.5621 33.0927C46.5621 33.1607 46.616 33.2145 46.6811 33.2145C46.6868 33.2117 46.6953 33.2117 46.7009 33.2117Z" fill="#F07162"/>
<path d="M45.4275 28.2589C47.017 8.05486 15.5195 -0.37411 23.3564 34.6876C27.3881 49.8455 46.1415 47.9614 45.4275 28.2589Z" fill="#FE9F73"/>
<path d="M24.9075 30.9958C24.9188 33.0783 23.2387 34.7754 21.1562 34.7867C19.0738 34.798 17.3766 33.1179 17.3653 31.0355C17.354 28.953 19.0341 27.2559 21.1166 27.2446C23.199 27.2332 24.8961 28.9134 24.9075 30.9958Z" fill="#FE9F73"/>
<path d="M20.8687 33.3417C20.0782 33.3445 19.5456 32.7552 19.3671 32.1602C19.1574 31.4575 19.3897 30.7747 19.9592 30.4149C20.7695 29.9049 21.5119 30.1967 21.9142 30.4489C21.7499 30.0494 21.5005 29.7547 21.1719 29.5762C20.4324 29.1739 19.5201 29.4743 19.5116 29.4799C19.4492 29.5026 19.3784 29.4658 19.3586 29.4034C19.3359 29.3411 19.3699 29.2731 19.4351 29.2504C19.4776 29.2363 20.455 28.9133 21.288 29.3638C21.7697 29.6244 22.0983 30.0891 22.2655 30.7436L22.3732 31.1629L22.0643 30.8597C22.0275 30.8229 21.1322 29.9644 20.0896 30.6189C19.5116 30.9815 19.4634 31.6389 19.5994 32.0894C19.7411 32.5625 20.1632 33.1093 20.8857 33.098C20.9509 33.0952 21.0075 33.149 21.0075 33.217C21.0075 33.285 20.9565 33.3388 20.8885 33.3388C20.8857 33.3417 20.8772 33.3417 20.8687 33.3417Z" fill="#F07162"/>
<path d="M32.252 36.7133C32.3256 36.6991 36.9155 36.5745 36.9155 36.5745C36.9155 36.5745 36.346 38.4756 34.6404 38.5266C32.9348 38.5776 32.252 36.7133 32.252 36.7133Z" fill="#FBFDFA"/>
<path d="M45.4802 13.1945C42.8566 8.4261 25.466 6.20766 21.7091 13.0245C20.9016 14.4921 21.0291 26.4287 21.6411 27.4118C22.2531 28.395 23.6187 28.803 23.6187 28.803C23.6187 28.803 23.7292 19.1047 24.2987 17.8269C24.8682 16.5519 28.1831 13.9566 30.6452 16.0986C31.9315 17.2177 32.8637 17.3849 33.4643 17.2914C34.0423 17.4671 35.0453 17.4331 36.5186 16.1779C39.0005 14.0615 42.29 16.6908 42.8481 17.9714C43.4063 19.252 43.4204 28.9531 43.4204 28.9531C43.4204 28.9531 44.7889 28.5593 45.4094 27.5818C46.027 26.6043 46.2877 14.6621 45.4802 13.1945Z" fill="#2D0F28"/>
<path d="M36.1194 33.1688C36.1676 33.166 36.2101 33.132 36.2214 33.081C36.2356 33.0187 36.1987 32.9563 36.1364 32.9422L33.7593 32.3614L34.0539 26.8507C34.0568 26.7855 34.0086 26.7317 33.9435 26.7288C33.8783 26.7232 33.8244 26.7742 33.8216 26.8393L33.5156 32.5399L36.0797 33.166C36.0939 33.1688 36.1081 33.1688 36.1194 33.1688Z" fill="#F07162"/>
<path d="M39.8692 36.909C39.8408 35.43 38.8719 34.1097 37.4439 33.7215C36.0953 33.3561 34.4548 33.4042 33.0268 33.5232C27.0288 33.2427 29.1708 45.1424 33.4773 45.6779C39.991 46.5506 39.9513 41.1872 39.8692 36.909ZM31.3297 36.0307C31.766 35.1637 35.4719 34.8888 37.3617 35.5235C37.9085 35.7077 38.2967 36.2035 38.3307 36.7815C38.4639 39.0424 37.0416 43.519 35.302 39.4504L34.1205 39.4901C32.5225 44.9724 30.3862 37.4246 31.3297 36.0307Z" fill="#2D0F28"/>
<path d="M34.5658 69.1317C34.4724 69.1317 34.376 69.1317 34.2825 69.1289C32.9084 69.1175 31.5201 69.0269 30.1715 68.8512C29.8343 68.8115 29.4773 68.7605 29.0863 68.6982C20.3939 67.3127 12.6222 62.6945 7.20501 55.6907C2.49046 49.5963 0 42.2922 0 34.5658C0 25.3322 3.59543 16.6539 10.1233 10.1233C16.6511 3.59543 25.3322 0 34.5658 0C43.7966 0 52.4778 3.59543 59.0056 10.1233C65.5335 16.6511 69.1289 25.3322 69.1289 34.5658C69.1289 42.4962 66.5166 49.9533 61.5754 56.1327C55.957 63.162 47.9729 67.6726 39.0991 68.8314C37.6201 69.0297 36.0958 69.1317 34.5658 69.1317ZM34.5658 2.34028C16.7956 2.34028 2.33744 16.7984 2.33744 34.5687C2.33744 41.7708 4.66073 48.582 9.05513 54.2627C14.1068 60.7934 21.3515 65.1 29.4546 66.3919C29.8145 66.4486 30.1431 66.4968 30.4604 66.5336C31.7269 66.6951 33.0189 66.7829 34.3137 66.7914C34.4072 66.7942 34.4865 66.7942 34.5658 66.7942C35.991 66.7942 37.4133 66.7008 38.7931 66.5166C47.0691 65.4343 54.5092 61.2297 59.7508 54.6735C64.3577 48.9135 66.7914 41.9607 66.7914 34.5658C66.7914 16.7956 52.3361 2.34028 34.5658 2.34028Z" fill="white"/>
</svg>
