<svg width="1153" height="144" viewBox="0 0 1153 144" fill="none" xmlns="http://www.w3.org/2000/svg">
<path opacity="0.15" d="M86.9315 16.7821C86.9315 25.1025 64.9529 58.8555 55.2194 70.1588V116H46.271C39.9914 116 33.2408 111.29 33.2408 101.871V70.1588C20.6816 53.8318 7.18038 28.3993 0.429789 8.46155H10.4772C18.9547 8.46155 23.5074 12.7003 24.9203 15.9971C30.258 28.5563 38.7355 43.9414 45.486 53.5178C52.3936 43.9414 63.8539 24.6316 68.7206 8.46155H78.14C83.7917 8.46155 86.9315 11.7584 86.9315 16.7821ZM95.6114 75.1825C95.6114 49.75 110.211 29.3413 137.528 29.3413C162.96 29.3413 177.56 49.75 177.56 72.1997C177.56 97.6321 162.96 117.884 135.644 117.884C110.211 117.884 95.6114 97.6321 95.6114 75.1825ZM155.739 75.1825C155.739 58.2275 149.459 48.1801 135.644 48.1801C123.556 48.1801 117.433 58.2275 117.433 72.1997C117.433 88.9976 123.556 99.045 137.528 99.045C149.773 99.045 155.739 88.9976 155.739 75.1825ZM268.389 78.0083C268.389 104.383 255.987 117.884 231.339 117.884C210.46 117.884 193.976 104.069 193.976 79.4212V31.2252H197.9C209.989 31.2252 215.326 36.4059 215.326 46.2962V77.3804C215.326 92.9224 222.862 99.202 232.438 99.202C241.073 99.202 247.195 93.2364 247.195 78.7933V31.2252H250.963C263.208 31.2252 268.389 36.4059 268.389 46.2962V78.0083ZM363.292 116H357.641C348.221 116 342.256 110.034 342.256 102.185V68.5889C342.256 54.3028 335.976 48.0231 325.144 48.0231C316.038 48.0231 309.759 54.9307 309.759 67.019V116H303.479C294.53 116 288.722 110.034 288.722 102.185V65.6061C288.722 47.7092 300.496 29.3413 326.871 29.3413C346.808 29.3413 363.292 42.6855 363.292 66.705V116ZM457.874 80.8341C457.874 83.66 458.031 88.5267 458.188 92.2944C458.345 95.7482 458.502 100.301 458.502 103.127C458.502 124.32 444.373 143.316 417.057 143.316C399.631 143.316 387.699 134.839 387.699 124.791V115.215H388.641C393.665 120.553 403.398 124.32 415.487 124.32C430.715 124.32 437.622 117.099 437.622 104.854C437.622 103.598 437.622 101.871 437.465 100.458C437.465 99.202 437.308 97.0042 437.308 96.2192V94.1783C435.581 100.301 427.575 106.738 415.487 106.738C394.921 106.738 380.321 92.4514 380.321 72.5137C380.321 48.6511 396.02 29.3413 423.336 29.3413C444.373 29.3413 457.874 44.7263 457.874 66.391V80.8341ZM420.981 48.0231C410.149 48.0231 401.986 57.1286 401.986 69.8448C401.986 80.8341 408.736 88.9976 418.783 88.9976C429.302 88.9976 436.837 81.1481 436.837 67.6469C436.837 54.4598 430.244 48.0231 420.981 48.0231ZM606.25 106.11C606.25 113.959 603.267 118.041 595.888 118.041C591.179 118.041 585.527 117.099 580.032 111.761L574.538 106.424C570.142 111.29 561.507 117.884 545.337 117.884C521.632 117.884 509.387 104.54 509.387 86.6428C509.387 73.6126 519.748 62.4663 530.266 56.5006C525.086 50.535 520.219 42.9995 520.219 35.7779C520.219 21.6488 530.894 8.14758 551.303 8.14758C567.316 8.14758 578.305 17.567 578.305 32.9521C578.305 43.6274 569.2 53.3608 555.542 61.0534C560.094 66.862 569.043 77.3804 574.852 83.032C580.346 76.9094 585.527 65.4491 585.841 55.5587H590.08C594.789 55.5587 598.871 58.5415 598.871 66.548C598.871 75.3395 591.493 87.2708 586.155 94.4923L589.295 97.4751C596.359 104.226 600.912 105.796 606.25 106.11ZM560.408 33.423C560.408 26.8294 556.641 23.3756 550.361 23.3756C543.297 23.3756 539.529 27.3004 539.529 34.679C539.529 40.4876 543.611 44.8833 546.75 49.4361C556.013 44.0984 560.408 39.5457 560.408 33.423ZM563.548 95.1203C557.583 89.3116 545.023 75.6535 540.157 68.7459C534.819 71.8857 529.481 77.5373 529.481 84.4449C529.481 96.6902 536.232 101.243 548.006 101.243C553.501 101.243 559.938 98.888 563.548 95.1203ZM726.591 82.718C726.591 103.912 712.148 117.884 686.088 117.884C664.423 117.884 653.277 109.406 653.277 96.6902V87.1138H653.748C660.969 93.5504 670.703 98.7311 683.733 98.7311C699.903 98.7311 705.084 93.2364 705.084 84.6019C705.084 77.2234 702.258 73.9266 679.494 69.0599C661.283 65.1351 650.922 56.0297 650.922 41.4295C650.922 23.5326 665.993 6.57767 691.269 6.57767C716.387 6.57767 723.609 17.253 723.609 26.2015V36.0919H722.981C716.387 29.0273 706.811 25.5735 695.036 25.5735C678.395 25.5735 672.273 31.0682 672.273 39.3887C672.273 45.8253 677.296 49.75 697.391 53.9888C717.015 58.0705 726.591 68.2749 726.591 82.718ZM751.438 2.96689C761.642 2.96689 765.881 8.77554 765.881 16.939V67.49C774.044 56.8146 782.051 45.9823 791.784 36.7198C796.808 32.0101 801.832 31.2252 808.582 31.2252H820.67V32.0101C814.705 37.0338 795.081 59.3265 786.289 70.4728C793.04 78.7933 799.634 87.4277 807.169 95.1203C814.862 102.813 818.316 104.383 823.496 106.11C821.298 112.86 817.845 116.471 809.21 116.471C804.5 116.471 799.006 114.273 795.395 110.662C784.563 99.516 775.143 86.9568 765.881 74.5545V115.843L759.13 116C749.397 116.157 744.687 110.976 744.687 101.086V2.96689H751.438ZM859.175 12.8573C859.175 19.6079 853.523 25.2595 846.772 25.2595C840.022 25.2595 834.527 19.6079 834.527 12.8573C834.527 6.1067 840.022 0.612041 846.772 0.612041C853.523 0.612041 859.175 6.1067 859.175 12.8573ZM874.246 104.069C874.246 113.174 870.635 116.785 861.687 116.785C845.36 116.785 836.411 107.523 836.411 90.4106C836.411 85.5439 836.411 33.1091 836.411 33.1091H842.377C851.796 33.1091 857.448 38.1327 857.448 48.8081V88.3697C857.448 96.8472 861.059 99.516 870.321 99.516H874.246V104.069ZM927.781 104.069C927.781 113.174 922.914 116.785 913.652 116.785C896.226 116.785 886.806 107.523 886.806 90.4106V2.96689H892.772C903.29 2.96689 907.843 9.08952 907.843 17.096V88.3697C907.843 96.8472 912.239 99.516 922.129 99.516H927.781V104.069ZM978.987 104.069C978.987 113.174 974.12 116.785 964.857 116.785C947.432 116.785 938.012 107.523 938.012 90.4106V2.96689H943.978C954.496 2.96689 959.049 9.08952 959.049 17.096V88.3697C959.049 96.8472 963.445 99.516 973.335 99.516H978.987V104.069ZM1059.86 62.1523C1059.86 77.6943 1048.09 82.718 1020.15 82.718H1006.33C1007.9 93.3934 1017.63 100.144 1030.04 100.144C1038.83 100.144 1049.19 98.4171 1055.94 92.1375H1056.72V98.7311C1056.72 109.563 1049.35 117.884 1026.11 117.884C1005.07 117.884 984.508 101.243 984.508 75.3395C984.508 47.0812 1001.78 29.3413 1025.95 29.3413C1043.54 29.3413 1059.86 41.9005 1059.86 62.1523ZM1040.08 59.6404C1040.08 51.163 1033.8 46.9242 1024.07 46.9242C1013.87 46.9242 1006.8 55.2447 1006.33 64.9781L1006.17 67.8039H1015.59C1035.53 67.8039 1040.08 65.6061 1040.08 59.6404ZM1152.11 76.9094C1152.11 101.557 1140.5 117.884 1111.45 117.884C1089.16 117.884 1072.05 98.4171 1072.05 75.1825C1072.05 47.3952 1085.55 29.3413 1110.2 29.3413C1118.68 29.3413 1127.94 35.3069 1131.23 42.6855V2.96689H1137.67C1147.72 2.96689 1152.11 8.77554 1152.11 17.253V76.9094ZM1130.92 75.9674C1130.92 54.7737 1121.66 47.0812 1110.35 47.0812C1099.68 47.0812 1092.77 57.4426 1092.77 71.1007C1092.77 88.6837 1101.88 100.144 1113.97 100.144C1125.74 100.144 1130.92 91.3525 1130.92 75.9674Z" fill="white"/>
</svg>
