<svg width="70" height="70" viewBox="0 0 70 70" fill="none" xmlns="http://www.w3.org/2000/svg">
<path d="M1.55364 51.7956C0.396828 52.1806 -0.350644 50.5907 0.683814 49.9455L9.36243 44.5335C20.5689 37.5452 25.5268 23.7883 21.3551 11.2578L18.1243 1.55369C17.7392 0.396747 19.3291 -0.350726 19.9744 0.683864L25.3863 9.36248C32.3746 20.5688 46.1315 25.5268 58.662 21.355L68.3661 18.1242C69.5231 17.7392 70.2705 19.329 69.2359 19.9743L60.5573 25.3863C49.351 32.3745 44.393 46.1314 48.5648 58.6621L51.7956 68.3662C52.1806 69.523 50.5908 70.2705 49.9456 69.236L44.5336 60.5574C37.5453 49.3509 23.7884 44.393 11.2578 48.5648L1.55364 51.7956Z" fill="#98BC6D"/>
</svg>
