<svg width="50" height="50" viewBox="0 0 50 50" fill="none" xmlns="http://www.w3.org/2000/svg">
<rect width="50" height="50" rx="25" fill="#F6F6F6"/>
<path d="M27.2 15.875C25.9734 15.875 24.797 16.3623 23.9296 17.2296C23.0623 18.097 22.575 19.2734 22.575 20.5V23.075H20.1C19.9757 23.075 19.875 23.1757 19.875 23.3V26.7C19.875 26.8243 19.9757 26.925 20.1 26.925H22.575V33.9C22.575 34.0243 22.6757 34.125 22.8 34.125H26.2C26.3243 34.125 26.425 34.0243 26.425 33.9V26.925H28.9219C29.0252 26.925 29.1152 26.8547 29.1402 26.7546L29.9902 23.3546C30.0257 23.2126 29.9183 23.075 29.7719 23.075H26.425V20.5C26.425 20.2945 26.5067 20.0973 26.652 19.952C26.7973 19.8067 26.9945 19.725 27.2 19.725H29.8C29.9243 19.725 30.025 19.6243 30.025 19.5V16.1C30.025 15.9757 29.9243 15.875 29.8 15.875H27.2Z" fill="#98BC6D"/>
</svg>
