<svg width="235" height="138" viewBox="0 0 235 138" fill="none" xmlns="http://www.w3.org/2000/svg">
<rect x="108" y="96.7217" width="119.045" height="45.3739" rx="22.6869" transform="rotate(-26.8256 108 96.7217)" fill="#8E9BAE"/>
<path d="M37.0604 63.4249C37.7128 60.2237 42.2872 60.2237 42.9396 63.4249L45.5552 76.2599C46.0023 78.4541 48.6086 79.4027 50.3615 78.0093L60.6154 69.8584C63.1728 67.8254 66.677 70.7658 65.119 73.6375L58.8725 85.1509C57.8047 87.1191 59.1915 89.5211 61.4299 89.5805L74.5241 89.9275C77.7901 90.0141 78.5844 94.519 75.545 95.7174L63.3592 100.522C61.276 101.343 60.7944 104.075 62.471 105.559L72.2787 114.242C74.7249 116.407 72.4377 120.369 69.3391 119.333L56.9159 115.181C54.7921 114.471 52.6674 116.254 52.9977 118.469L54.9297 131.424C55.4116 134.656 51.113 136.22 49.4051 133.435L42.5574 122.269C41.3868 120.36 38.6132 120.36 37.4426 122.269L30.5949 133.435C28.887 136.22 24.5884 134.656 25.0703 131.424L27.0023 118.469C27.3326 116.254 25.2079 114.471 23.0841 115.181L10.6609 119.333C7.56231 120.369 5.27511 116.407 7.72131 114.242L17.529 105.559C19.2056 104.075 18.724 101.343 16.6408 100.522L4.45496 95.7174C1.4156 94.519 2.20995 90.0141 5.47588 89.9275L18.5701 89.5805C20.8085 89.5211 22.1953 87.1191 21.1275 85.1509L14.8809 73.6375C13.3229 70.7658 16.8272 67.8254 19.3847 69.8584L29.6385 78.0093C31.3914 79.4027 33.9977 78.4541 34.4448 76.2599L37.0604 63.4249Z" fill="#98BC6D"/>
<path d="M78.4068 70.5947C76.4424 59.5135 78.9605 48.1058 85.4071 38.8812C91.8536 29.6565 101.701 23.3706 112.782 21.4063C123.863 19.4419 135.271 21.9599 144.495 28.4065C153.72 34.8531 160.006 44.7 161.97 55.7812L78.4068 70.5947Z" fill="#EF4C0D"/>
</svg>
