<svg width="180" height="106" viewBox="0 0 180 106" fill="none" xmlns="http://www.w3.org/2000/svg">
<rect x="82.71" y="74.0664" width="91.0604" height="34.7075" rx="17.3537" transform="rotate(-26.8256 82.71 74.0664)" fill="#55534E"/>
<path d="M28.4468 48.5965C28.9458 46.1477 32.4449 46.1477 32.9439 48.5965L34.9446 58.4142C35.2866 60.0926 37.2802 60.8182 38.6211 59.7524L46.4645 53.5175C48.4207 51.9625 51.1012 54.2116 49.9094 56.4082L45.1313 65.2151C44.3145 66.7207 45.3753 68.558 47.0876 68.6034L57.1036 68.8689C59.6018 68.9351 60.2094 72.381 57.8845 73.2976L48.5633 76.9728C46.9698 77.6011 46.6014 79.6904 47.8839 80.8258L55.386 87.4674C57.2571 89.1239 55.5076 92.1542 53.1374 91.362L43.6347 88.1858C42.0101 87.6428 40.3849 89.0065 40.6375 90.7006L42.1154 100.611C42.484 103.082 39.1959 104.279 37.8895 102.149L32.6515 93.6073C31.7561 92.1471 29.6345 92.1471 28.7391 93.6073L23.5012 102.149C22.1947 104.279 18.9067 103.082 19.2753 100.611L20.7531 90.7006C21.0057 89.0065 19.3805 87.6428 17.756 88.1858L8.25318 91.362C5.88302 92.1542 4.13348 89.1239 6.00464 87.4674L13.5067 80.8258C14.7892 79.6904 14.4208 77.6011 12.8273 76.9728L3.50613 73.2976C1.18126 72.381 1.78887 68.9351 4.28704 68.8689L14.3031 68.6034C16.0153 68.558 17.0761 66.7207 16.2593 65.2151L11.4812 56.4082C10.2895 54.2116 12.9699 51.9625 14.9262 53.5175L22.7696 59.7524C24.1104 60.8182 26.104 60.0926 26.4461 58.4142L28.4468 48.5965Z" fill="#F2A300"/>
<path d="M60.0734 54.0801C58.5708 45.6039 60.497 36.8779 65.4281 29.8218C70.3592 22.7657 77.8914 17.9574 86.3676 16.4548C94.8439 14.9522 103.57 16.8784 110.626 21.8095C117.682 26.7406 122.49 34.2728 123.993 42.749L60.0734 54.0801Z" fill="white"/>
</svg>
