<svg width="181" height="105" viewBox="0 0 181 105" fill="none" xmlns="http://www.w3.org/2000/svg">
<rect x="83.3057" y="74.0078" width="91.0604" height="34.7075" rx="17.3537" transform="rotate(-26.8256 83.3057 74.0078)" fill="#8E9BAE"/>
<path d="M29.0425 48.5379C29.5415 46.0891 33.0406 46.0891 33.5396 48.5379L35.5403 58.3556C35.8823 60.034 37.8759 60.7596 39.2168 59.6938L47.0602 53.459C49.0164 51.9039 51.6969 54.153 50.5051 56.3496L45.727 65.1565C44.9102 66.6621 45.971 68.4994 47.6833 68.5448L57.6993 68.8103C60.1975 68.8765 60.8051 72.3224 58.4802 73.2391L49.159 76.9142C47.5655 77.5425 47.1971 79.6318 48.4796 80.7672L55.9817 87.4088C57.8529 89.0653 56.1033 92.0956 53.7331 91.3034L44.2304 88.1272C42.6058 87.5842 40.9806 88.9479 41.2332 90.642L42.7111 100.552C43.0797 103.024 39.7916 104.22 38.4852 102.09L33.2472 93.5487C32.3518 92.0885 30.2302 92.0885 29.3348 93.5487L24.0969 102.09C22.7904 104.22 19.5024 103.024 19.871 100.552L21.3488 90.642C21.6014 88.9479 19.9762 87.5842 18.3517 88.1272L8.84889 91.3034C6.47872 92.0956 4.72919 89.0653 6.60034 87.4088L14.1024 80.7672C15.3849 79.6318 15.0165 77.5425 13.423 76.9142L4.10183 73.2391C1.77696 72.3224 2.38457 68.8765 4.88275 68.8103L14.8988 68.5448C16.611 68.4994 17.6718 66.6621 16.855 65.1565L12.0769 56.3496C10.8852 54.153 13.5656 51.9039 15.5219 53.459L23.3653 59.6938C24.7061 60.7596 26.6997 60.034 27.0418 58.3556L29.0425 48.5379Z" fill="#1A1A1A"/>
<path d="M60.6691 54.0215C59.1665 45.5453 61.0927 36.8193 66.0238 29.7632C70.9549 22.7071 78.4871 17.8988 86.9633 16.3962C95.4396 14.8936 104.166 16.8198 111.222 21.7509C118.278 26.682 123.086 34.2142 124.589 42.6904L60.6691 54.0215Z" fill="#EF4C0D"/>
</svg>
