<svg width="50" height="50" viewBox="0 0 50 50" fill="none" xmlns="http://www.w3.org/2000/svg">
<rect width="50" height="50" rx="25" fill="#F6F6F6"/>
<path d="M25 21.8758C23.2797 21.8758 21.8758 23.2797 21.8758 25C21.8758 26.7203 23.2797 28.1242 25 28.1242C26.7203 28.1242 28.1242 26.7203 28.1242 25C28.1242 23.2797 26.7203 21.8758 25 21.8758ZM34.3703 25C34.3703 23.7063 34.382 22.4242 34.3094 21.1328C34.2367 19.6328 33.8945 18.3016 32.7976 17.2047C31.6984 16.1055 30.3695 15.7656 28.8695 15.693C27.5758 15.6203 26.2937 15.632 25.0023 15.632C23.7086 15.632 22.4266 15.6203 21.1351 15.693C19.6351 15.7656 18.3039 16.1078 17.207 17.2047C16.1078 18.3039 15.768 19.6328 15.6953 21.1328C15.6226 22.4266 15.6344 23.7086 15.6344 25C15.6344 26.2914 15.6226 27.5758 15.6953 28.8672C15.768 30.3672 16.1101 31.6985 17.207 32.7953C18.3062 33.8945 19.6351 34.2344 21.1351 34.307C22.4289 34.3797 23.7109 34.368 25.0023 34.368C26.2961 34.368 27.5781 34.3797 28.8695 34.307C30.3695 34.2344 31.7008 33.8922 32.7976 32.7953C33.8969 31.6961 34.2367 30.3672 34.3094 28.8672C34.3844 27.5758 34.3703 26.2938 34.3703 25ZM25 29.807C22.3398 29.807 20.193 27.6602 20.193 25C20.193 22.3399 22.3398 20.193 25 20.193C27.6601 20.193 29.807 22.3399 29.807 25C29.807 27.6602 27.6601 29.807 25 29.807ZM30.0039 21.1188C29.3828 21.1188 28.8812 20.6172 28.8812 19.9961C28.8812 19.375 29.3828 18.8735 30.0039 18.8735C30.625 18.8735 31.1266 19.375 31.1266 19.9961C31.1267 20.1436 31.0978 20.2897 31.0415 20.4259C30.9851 20.5622 30.9024 20.6861 30.7981 20.7904C30.6939 20.8946 30.57 20.9773 30.4337 21.0337C30.2974 21.09 30.1514 21.1189 30.0039 21.1188Z" fill="#98BC6D"/>
</svg>
