<svg width="50" height="50" viewBox="0 0 50 50" fill="none" xmlns="http://www.w3.org/2000/svg">
<rect width="50" height="50" rx="25" fill="#F6F6F6"/>
<path d="M18.8133 17C17.8119 17 17 17.8303 17 18.8545C17 19.8788 17.8119 20.7091 18.8133 20.7091C19.8148 20.7091 20.6267 19.8788 20.6267 18.8545C20.6267 17.8303 19.8148 17 18.8133 17Z" fill="#98BC6D"/>
<path d="M17.1067 22.2364C17.0478 22.2364 17 22.2852 17 22.3455V33.6909C17 33.7512 17.0478 33.8 17.1067 33.8H20.52C20.5789 33.8 20.6267 33.7512 20.6267 33.6909V22.3455C20.6267 22.2852 20.5789 22.2364 20.52 22.2364H17.1067Z" fill="#98BC6D"/>
<path d="M22.6533 22.2364C22.5944 22.2364 22.5467 22.2852 22.5467 22.3455V33.6909C22.5467 33.7512 22.5944 33.8 22.6533 33.8H26.0667C26.1256 33.8 26.1733 33.7512 26.1733 33.6909V27.5818C26.1733 27.1478 26.3419 26.7316 26.642 26.4247C26.942 26.1179 27.349 25.9455 27.7733 25.9455C28.1977 25.9455 28.6046 26.1179 28.9047 26.4247C29.2048 26.7316 29.3733 27.1478 29.3733 27.5818V33.6909C29.3733 33.7512 29.4211 33.8 29.48 33.8H32.8933C32.9522 33.8 33 33.7512 33 33.6909V26.1682C33 24.0503 31.1989 22.3934 29.1385 22.585C28.5031 22.6441 27.8748 22.8057 27.2882 23.0628L26.1733 23.5514V22.3455C26.1733 22.2852 26.1256 22.2364 26.0667 22.2364H22.6533Z" fill="#98BC6D"/>
</svg>
