<svg width="72" height="72" viewBox="0 0 72 72" fill="none" xmlns="http://www.w3.org/2000/svg">
<g clip-path="url(#clip0_683_1375)">
<rect width="74.4" height="74.3993" rx="1.2" fill="#114F3C"/>
<path d="M34.8533 20.3919C35.1423 18.9734 37.1693 18.9734 37.4584 20.3919L38.6174 26.0793C38.8156 27.0516 39.9705 27.472 40.7472 26.8545L45.2909 23.2427C46.4241 22.3419 47.9769 23.6448 47.2865 24.9173L44.5186 30.0191C44.0454 30.8912 44.6599 31.9556 45.6518 31.9819L51.4541 32.1357C52.9013 32.174 53.2532 34.1702 51.9064 34.7013L46.5067 36.8303C45.5836 37.1942 45.3702 38.4046 46.1131 39.0623L50.4591 42.9097C51.543 43.8694 50.5295 45.6248 49.1565 45.1659L43.6516 43.3259C42.7105 43.0113 41.769 43.8013 41.9153 44.7828L42.7714 50.5236C42.985 51.9554 41.0802 52.6487 40.3234 51.4146L37.2891 46.4666C36.7704 45.6207 35.5413 45.6207 35.0226 46.4666L31.9883 51.4146C31.2315 52.6487 29.3267 51.9554 29.5402 50.5236L30.3963 44.7828C30.5427 43.8013 29.6012 43.0113 28.6601 43.3259L23.1552 45.1659C21.7822 45.6248 20.7687 43.8693 21.8526 42.9097L26.1985 39.0623C26.9415 38.4046 26.7281 37.1942 25.805 36.8303L20.4052 34.7013C19.0584 34.1702 19.4104 32.174 20.8576 32.1357L26.6599 31.9819C27.6518 31.9556 28.2663 30.8912 27.7931 30.0191L25.0252 24.9173C24.3348 23.6448 25.8876 22.3419 27.0208 23.2427L31.5645 26.8545C32.3412 27.472 33.4961 27.0516 33.6943 26.0793L34.8533 20.3919Z" fill="#98BC6D"/>
</g>
<defs>
<clipPath id="clip0_683_1375">
<rect width="72" height="72" rx="36" fill="white"/>
</clipPath>
</defs>
</svg>
