<svg width="80" height="50" viewBox="0 0 80 50" fill="none" xmlns="http://www.w3.org/2000/svg">
<path fill-rule="evenodd" clip-rule="evenodd" d="M94.6785 6.75975C75.9099 41.6597 38.4175 55.8484 3.59528 36.2006C2.43603 35.5464 0.965988 35.9554 0.311743 37.1003C-0.342503 38.2657 0.0664445 39.7377 1.22569 40.392C38.5504 61.471 78.8049 46.4438 98.9229 9.0496C99.5526 7.88423 99.1131 6.41198 97.9416 5.77818C96.7701 5.16482 95.3082 5.59438 94.6785 6.75975Z" fill="#98BC6D"/>
<path d="M32.8993 21.2327C36.7763 21.2327 39.9192 18.0898 39.9192 14.2129C39.9192 10.3359 36.7763 7.19299 32.8993 7.19299C29.0223 7.19299 25.8794 10.3359 25.8794 14.2129C25.8794 18.0898 29.0223 21.2327 32.8993 21.2327Z" fill="#98BC6D"/>
<path d="M61.9604 13.7653C65.7616 13.7653 68.8432 10.6839 68.8432 6.88266C68.8432 3.08144 65.7616 0 61.9604 0C58.1592 0 55.0778 3.08144 55.0778 6.88266C55.0778 10.6839 58.1592 13.7653 61.9604 13.7653Z" fill="#98BC6D"/>
</svg>
