<svg width="110" height="110" viewBox="0 0 110 110" fill="none" xmlns="http://www.w3.org/2000/svg">
<path d="M2.44254 81.507C0.634034 82.1089 -0.534538 79.6234 1.08269 78.6146L14.6505 70.1538C32.1702 59.2285 39.9213 37.7215 33.3993 18.1318L28.3485 2.96076C27.7465 1.15204 30.232 -0.0165293 31.2408 1.60091L39.7017 15.1687C50.6268 32.6883 72.1338 40.4394 91.7236 33.9174L106.895 28.8665C108.703 28.2645 109.872 30.75 108.254 31.7588L94.6866 40.2197C77.1671 51.1449 69.416 72.6519 75.938 92.2418L80.9889 107.413C81.5908 109.221 79.1053 110.39 78.0966 108.773L69.6357 95.2048C58.7105 77.6851 37.2035 69.934 17.6136 76.4561L2.44254 81.507Z" fill="#F2994A"/>
</svg>
