<svg width="22" height="24" viewBox="0 0 22 24" fill="none" xmlns="http://www.w3.org/2000/svg">
<path d="M1.02776 21.4187C0.49558 22.1242 0.636023 23.1274 1.34145 23.6596C2.04688 24.1918 3.05016 24.0514 3.58234 23.3459L1.02776 21.4187ZM19.3761 1.63263C19.2536 0.757508 18.4448 0.147389 17.5697 0.269893L3.30875 2.26619C2.43363 2.3887 1.82351 3.19743 1.94601 4.07255C2.06852 4.94768 2.87725 5.5578 3.75237 5.43529L16.4288 3.6608L18.2033 16.3372C18.3258 17.2123 19.1345 17.8224 20.0096 17.6999C20.8848 17.5774 21.4949 16.7687 21.3724 15.8936L19.3761 1.63263ZM3.58234 23.3459L19.0688 2.81804L16.5142 0.890841L1.02776 21.4187L3.58234 23.3459Z" fill="white"/>
</svg>
