<svg width="420" height="501" viewBox="0 0 420 501" fill="none" xmlns="http://www.w3.org/2000/svg">
<g clip-path="url(#clip0_459_1746)">
<rect width="420" height="501" rx="20" fill="#FAFAFA"/>
<path d="M56.44 41.74C56.44 42.73 55.33 44.05 53.98 44.05H50.2V61H48.55C47.11 61 46.06 60.07 46.06 58.24V44.05H40.15V42.7C40.15 41.71 40.96 40.45 42.64 40.45H56.44V41.74ZM72.2806 55.48C72.2806 58.9 69.7606 61.27 66.1606 61.27H65.3506C61.5106 61.27 58.8706 59.11 58.8706 56.14C58.8706 53.26 60.9706 51.07 66.9106 51.07H68.3206V50.86C68.3206 48.58 67.2406 47.89 64.8406 47.89C61.9306 47.89 60.3106 49 59.7106 49.75H59.5606V48.46C59.5606 46.66 61.1806 44.5 65.4406 44.5C69.0406 44.5 72.2806 46.18 72.2806 51.76V55.48ZM68.3506 55.51V53.95H66.9106C63.8506 53.95 62.9806 54.67 62.9806 55.99C62.9806 57.25 64.0006 58 65.7706 58C67.5106 58 68.3506 57.16 68.3506 55.51ZM81.3295 41.29C81.3295 42.58 80.2495 43.66 78.9595 43.66C77.6695 43.66 76.6195 42.58 76.6195 41.29C76.6195 40 77.6695 38.95 78.9595 38.95C80.2495 38.95 81.3295 40 81.3295 41.29ZM84.2095 58.72C84.2095 60.46 83.5195 61.15 81.8095 61.15C78.6895 61.15 76.9795 59.38 76.9795 56.11C76.9795 55.18 76.9795 45.16 76.9795 45.16H78.1195C79.9195 45.16 80.9995 46.12 80.9995 48.16V55.72C80.9995 57.34 81.6895 57.85 83.4595 57.85H84.2095V58.72ZM95.4398 58.72C95.4398 60.46 94.5098 61.15 92.7398 61.15C89.4098 61.15 87.6098 59.38 87.6098 56.11V39.4H88.7498C90.7598 39.4 91.6298 40.57 91.6298 42.1V55.72C91.6298 57.34 92.4698 57.85 94.3598 57.85H95.4398V58.72ZM97.4949 53.2C97.4949 48.34 100.285 44.44 105.505 44.44C110.365 44.44 113.155 48.34 113.155 52.63C113.155 57.49 110.365 61.36 105.145 61.36C100.285 61.36 97.4949 57.49 97.4949 53.2ZM108.985 53.2C108.985 49.96 107.785 48.04 105.145 48.04C102.835 48.04 101.665 49.96 101.665 52.63C101.665 55.84 102.835 57.76 105.505 57.76C107.845 57.76 108.985 55.84 108.985 53.2ZM126.622 48.73H126.472C125.872 48.49 125.182 48.25 124.132 48.25C122.332 48.25 121.342 49.24 121.342 51.7V61H120.232C118.432 61 117.292 60.1 117.292 58.42V50.98C117.292 47.74 119.002 44.65 123.262 44.65C125.752 44.65 126.622 46.06 126.622 47.29V48.73ZM143.514 50.71C143.514 53.68 141.264 54.64 135.924 54.64H133.284C133.584 56.68 135.444 57.97 137.814 57.97C139.494 57.97 141.474 57.64 142.764 56.44H142.914V57.7C142.914 59.77 141.504 61.36 137.064 61.36C133.044 61.36 129.114 58.18 129.114 53.23C129.114 47.83 132.414 44.44 137.034 44.44C140.394 44.44 143.514 46.84 143.514 50.71ZM139.734 50.23C139.734 48.61 138.534 47.8 136.674 47.8C134.724 47.8 133.374 49.39 133.284 51.25L133.254 51.79H135.054C138.864 51.79 139.734 51.37 139.734 50.23ZM162.143 53.53C162.143 58.24 159.923 61.36 154.373 61.36C150.113 61.36 146.843 57.64 146.843 53.2C146.843 47.89 149.423 44.44 154.133 44.44C155.753 44.44 157.523 45.58 158.153 46.99V39.4H159.383C161.303 39.4 162.143 40.51 162.143 42.13V53.53ZM158.093 53.35C158.093 49.3 156.323 47.83 154.163 47.83C152.123 47.83 150.803 49.81 150.803 52.42C150.803 55.78 152.543 57.97 154.853 57.97C157.103 57.97 158.093 56.29 158.093 53.35ZM188.23 58.21C188.23 60.01 187.33 61.18 183.94 61.18H182.35C177.52 61.18 174.85 58.48 174.85 53.56V40.45H176.53C178.21 40.45 179.08 41.41 179.08 43.45V53.29C179.08 56.41 179.8 57.55 182.89 57.55H183.94C185.89 57.55 187.48 57.1 188.23 56.8V58.21ZM204.995 50.71C204.995 53.68 202.745 54.64 197.405 54.64H194.765C195.065 56.68 196.925 57.97 199.295 57.97C200.975 57.97 202.955 57.64 204.245 56.44H204.395V57.7C204.395 59.77 202.985 61.36 198.545 61.36C194.525 61.36 190.595 58.18 190.595 53.23C190.595 47.83 193.895 44.44 198.515 44.44C201.875 44.44 204.995 46.84 204.995 50.71ZM201.215 50.23C201.215 48.61 200.015 47.8 198.155 47.8C196.205 47.8 194.855 49.39 194.765 51.25L194.735 51.79H196.535C200.345 51.79 201.215 51.37 201.215 50.23ZM221.763 55.48C221.763 58.9 219.243 61.27 215.643 61.27H214.833C210.993 61.27 208.353 59.11 208.353 56.14C208.353 53.26 210.453 51.07 216.393 51.07H217.803V50.86C217.803 48.58 216.723 47.89 214.323 47.89C211.413 47.89 209.793 49 209.193 49.75H209.043V48.46C209.043 46.66 210.663 44.5 214.923 44.5C218.523 44.5 221.763 46.18 221.763 51.76V55.48ZM217.833 55.51V53.95H216.393C213.333 53.95 212.463 54.67 212.463 55.99C212.463 57.25 213.483 58 215.253 58C216.993 58 217.833 57.16 217.833 55.51ZM235.282 48.73H235.132C234.532 48.49 233.842 48.25 232.792 48.25C230.992 48.25 230.002 49.24 230.002 51.7V61H228.892C227.092 61 225.952 60.1 225.952 58.42V50.98C225.952 47.74 227.662 44.65 231.922 44.65C234.412 44.65 235.282 46.06 235.282 47.29V48.73ZM252.774 61H251.694C249.894 61 248.754 59.86 248.754 58.36V51.94C248.754 49.21 247.554 48.01 245.484 48.01C243.744 48.01 242.544 49.33 242.544 51.64V61H241.344C239.634 61 238.524 59.86 238.524 58.36V51.37C238.524 47.95 240.774 44.44 245.814 44.44C249.624 44.44 252.774 46.99 252.774 51.58V61ZM262.548 41.29C262.548 42.58 261.468 43.66 260.178 43.66C258.888 43.66 257.838 42.58 257.838 41.29C257.838 40 258.888 38.95 260.178 38.95C261.468 38.95 262.548 40 262.548 41.29ZM265.428 58.72C265.428 60.46 264.738 61.15 263.028 61.15C259.908 61.15 258.198 59.38 258.198 56.11C258.198 55.18 258.198 45.16 258.198 45.16H259.338C261.138 45.16 262.218 46.12 262.218 48.16V55.72C262.218 57.34 262.908 57.85 264.678 57.85H265.428V58.72ZM282.929 61H281.849C280.049 61 278.909 59.86 278.909 58.36V51.94C278.909 49.21 277.709 48.01 275.639 48.01C273.899 48.01 272.699 49.33 272.699 51.64V61H271.499C269.789 61 268.679 59.86 268.679 58.36V51.37C268.679 47.95 270.929 44.44 275.969 44.44C279.779 44.44 282.929 46.99 282.929 51.58V61ZM302.003 54.28C302.003 54.82 302.033 55.75 302.063 56.47C302.093 57.13 302.123 58 302.123 58.54C302.123 62.59 299.423 66.22 294.203 66.22C290.873 66.22 288.593 64.6 288.593 62.68V60.85H288.773C289.733 61.87 291.593 62.59 293.903 62.59C296.813 62.59 298.133 61.21 298.133 58.87C298.133 58.63 298.133 58.3 298.103 58.03C298.103 57.79 298.073 57.37 298.073 57.22V56.83C297.743 58 296.213 59.23 293.903 59.23C289.973 59.23 287.183 56.5 287.183 52.69C287.183 48.13 290.183 44.44 295.403 44.44C299.423 44.44 302.003 47.38 302.003 51.52V54.28ZM294.953 48.01C292.883 48.01 291.323 49.75 291.323 52.18C291.323 54.28 292.613 55.84 294.533 55.84C296.543 55.84 297.983 54.34 297.983 51.76C297.983 49.24 296.723 48.01 294.953 48.01ZM56.44 82.69C56.44 87.04 53.44 89.71 49.51 89.71C48.07 89.71 46.9 89.47 46.06 89.02V97H44.44C43.3 97 41.95 96.25 41.95 94.06V77.26C43.09 76.84 45.82 76.3 47.29 76.3H49.6C53.59 76.3 56.44 78.58 56.44 82.69ZM52.21 83.05C52.21 80.71 51.25 79.78 49.09 79.78H47.77C47.26 79.78 46.54 79.96 46.06 80.05V85.87C46.78 86.08 47.92 86.23 48.97 86.23C51.07 86.23 52.21 85.03 52.21 83.05ZM72.5443 91.48C72.5443 94.9 70.0243 97.27 66.4243 97.27H65.6143C61.7743 97.27 59.1343 95.11 59.1343 92.14C59.1343 89.26 61.2343 87.07 67.1743 87.07H68.5843V86.86C68.5843 84.58 67.5043 83.89 65.1043 83.89C62.1943 83.89 60.5743 85 59.9743 85.75H59.8243V84.46C59.8243 82.66 61.4443 80.5 65.7043 80.5C69.3043 80.5 72.5443 82.18 72.5443 87.76V91.48ZM68.6143 91.51V89.95H67.1743C64.1143 89.95 63.2443 90.67 63.2443 91.99C63.2443 93.25 64.2643 94 66.0343 94C67.7743 94 68.6143 93.16 68.6143 91.51ZM76.8832 81.46C76.8832 79.87 77.1832 79.27 78.0532 78.25C78.5932 77.62 79.3132 77.14 79.9432 77.14H80.8732V80.8H86.4832V82.45C86.4832 83.29 85.7332 84.37 84.0832 84.37H80.8732V90.7C80.8732 92.8 81.8032 93.61 83.4232 93.61C84.7132 93.61 85.7032 93.43 86.3332 93.04H86.4832V94.48C86.4832 96.13 85.2832 97.18 82.9432 97.18C78.8632 97.18 76.8832 94.96 76.8832 91.18V81.46ZM104.291 97H102.971C101.291 97 100.241 96.04 100.241 94.3V87.7C100.241 85.06 98.8014 84.01 97.0314 84.01C95.7714 84.01 94.1214 84.97 94.1214 87.82V97H92.8014C90.9114 97 90.0414 95.95 90.0414 94.3V75.4H91.3014C93.2214 75.4 94.1514 76.48 94.1514 77.98C94.1514 77.98 94.1514 81.16 94.1514 82.6C94.7514 81.64 96.1314 80.44 97.6614 80.44C101.831 80.44 104.291 82.93 104.291 87.52V97ZM120.842 91.9C120.842 95.32 118.442 97.36 114.092 97.36C111.122 97.36 108.902 95.83 108.902 94.18V92.35H109.052C109.922 93.16 111.992 93.88 113.912 93.88C115.892 93.88 116.852 93.31 116.852 92.11C116.852 91.18 116.282 90.73 113.492 90.34C110.072 89.86 108.422 88.51 108.422 86.05C108.422 83.02 111.152 80.44 115.292 80.44C118.952 80.44 120.452 82.33 120.452 83.89V85.42H120.302C119.462 84.58 117.602 83.92 115.682 83.92C113.222 83.92 112.442 84.67 112.442 85.72C112.442 86.53 112.922 86.86 115.682 87.31C119.042 87.85 120.842 89.32 120.842 91.9Z" fill="black"/>
<g clip-path="url(#clip1_459_1746)">
<path d="M82 173C82 164.716 88.7157 158 97 158H364C372.284 158 379 164.716 379 173V501H82V173Z" fill="#F2A300"/>
<path d="M121.537 605.055L121.99 605.266L122.201 604.813L262.885 302.99C265.335 297.734 263.06 291.487 257.804 289.037L217.017 270.026C211.761 267.576 205.514 269.851 203.064 275.107L62.3805 576.93L62.1693 577.383L62.6225 577.594L121.537 605.055Z" stroke="black"/>
<path d="M175.335 392.54L177.077 393.347L173.703 400.623L177.35 402.314L180.405 395.728L182.11 396.519L179.056 403.105L183.138 404.998L186.487 397.777L188.229 398.585L183.98 407.747L171.061 401.757L175.335 392.54ZM181.945 387.035C182.421 386.006 183.085 385.337 183.934 385.025C184.772 384.708 185.717 384.794 186.77 385.282L193.048 388.193L192.206 390.007L186.182 387.214C184.876 386.608 183.917 386.965 183.306 388.283C183.025 388.888 183.003 389.539 183.238 390.236C183.485 390.938 184.044 391.492 184.915 391.895L190.195 394.344L189.354 396.158L179.992 391.817L180.799 390.075L182.196 390.723C181.451 389.51 181.367 388.28 181.945 387.035ZM189.601 374.563L188.277 373.949L189.085 372.207L198.102 376.389C199.384 376.983 200.209 377.836 200.576 378.947C200.955 380.063 200.813 381.335 200.151 382.762C199.585 383.984 198.855 384.829 197.962 385.296C197.075 385.752 196.125 385.804 195.112 385.452L195.954 383.638C197.122 384.003 198.034 383.478 198.69 382.063C199.503 380.309 199.039 379.028 197.297 378.22L196.263 377.741C196.9 378.903 196.918 380.131 196.318 381.426C195.712 382.732 194.788 383.567 193.546 383.932C192.287 384.303 190.931 384.152 189.479 383.479C188.028 382.806 187.037 381.869 186.506 380.668C185.982 379.484 186.02 378.245 186.62 376.951C187.254 375.584 188.248 374.788 189.601 374.563ZM194.909 380.375C195.302 379.529 195.32 378.729 194.963 377.976C194.601 377.205 193.911 376.584 192.895 376.113C191.879 375.642 190.966 375.519 190.155 375.746C189.338 375.955 188.733 376.483 188.341 377.33C187.954 378.164 187.942 378.967 188.304 379.738C188.667 380.509 189.35 381.127 190.354 381.592C191.37 382.063 192.29 382.188 193.113 381.967C193.923 381.741 194.522 381.21 194.909 380.375ZM189.98 366.807L189.121 368.657L187.18 367.757L188.038 365.906L189.98 366.807ZM200.658 371.78L199.817 373.595L190.454 369.253L191.296 367.439L200.658 371.78ZM194.611 359.719C195.088 358.691 195.751 358.021 196.601 357.71C197.439 357.393 198.384 357.478 199.436 357.966L205.714 360.877L204.873 362.692L198.849 359.898C197.542 359.293 196.583 359.649 195.972 360.968C195.692 361.572 195.669 362.223 195.904 362.92C196.152 363.623 196.711 364.176 197.582 364.58L202.862 367.028L202.02 368.843L192.658 364.501L193.466 362.759L194.863 363.407C194.117 362.194 194.033 360.965 194.611 359.719ZM206.395 347.332L206.922 347.576L203.649 354.634C204.607 354.976 205.429 355.026 206.114 354.785C206.787 354.539 207.305 354.022 207.67 353.236C208.22 352.051 208.059 351.035 207.187 350.19L208.036 348.357C208.874 349.055 209.4 349.901 209.614 350.897C209.822 351.875 209.676 352.903 209.177 353.979C208.555 355.322 207.605 356.197 206.329 356.604C205.052 357.012 203.676 356.873 202.2 356.189C200.724 355.505 199.73 354.544 199.216 353.306C198.702 352.069 198.751 350.79 199.363 349.472C200.002 348.093 200.973 347.22 202.274 346.854C203.57 346.5 204.944 346.659 206.395 347.332ZM200.887 350.179C200.556 350.892 200.501 351.58 200.724 352.242C200.952 352.891 201.452 353.461 202.224 353.951L204.622 348.78C203.82 348.511 203.083 348.5 202.41 348.747C201.731 348.976 201.223 349.453 200.887 350.179ZM211.483 336.36L212.009 336.604L208.736 343.663C209.695 344.004 210.517 344.055 211.202 343.814C211.874 343.567 212.393 343.051 212.758 342.264C213.307 341.079 213.146 340.064 212.274 339.218L213.124 337.386C213.962 338.083 214.488 338.93 214.702 339.925C214.91 340.904 214.764 341.931 214.265 343.007C213.642 344.35 212.693 345.225 211.416 345.633C210.14 346.04 208.764 345.902 207.288 345.217C205.812 344.533 204.817 343.572 204.304 342.335C203.79 341.097 203.839 339.819 204.45 338.5C205.09 337.121 206.06 336.249 207.362 335.882C208.658 335.528 210.031 335.687 211.483 336.36ZM205.974 339.207C205.643 339.921 205.589 340.608 205.811 341.27C206.039 341.92 206.539 342.489 207.311 342.98L209.709 337.809C208.908 337.54 208.171 337.529 207.498 337.775C206.819 338.004 206.311 338.481 205.974 339.207ZM209.913 326.909C210.037 326.643 210.124 326.471 210.175 326.392L211.899 327.191L211.689 327.644C211.257 328.576 211.153 329.402 211.377 330.123C211.601 330.845 212.149 331.407 213.019 331.811L218.1 334.167L217.258 335.981L207.896 331.64L208.704 329.898L210.373 330.672C209.438 329.518 209.285 328.264 209.913 326.909ZM210.857 321.783L209.999 323.634L208.058 322.733L208.916 320.883L210.857 321.783ZM221.536 326.757L220.695 328.571L211.332 324.23L212.174 322.415L221.536 326.757ZM215.489 314.695C215.966 313.667 216.629 312.997 217.479 312.686C218.316 312.369 219.262 312.454 220.314 312.942L226.592 315.854L225.75 317.668L219.727 314.875C218.42 314.269 217.461 314.625 216.85 315.944C216.569 316.549 216.547 317.199 216.782 317.896C217.03 318.599 217.589 319.152 218.46 319.556L223.74 322.004L222.898 323.819L213.536 319.477L214.344 317.736L215.741 318.383C214.995 317.171 214.911 315.941 215.489 314.695ZM223.146 302.224L221.821 301.61L222.629 299.868L231.647 304.05C232.929 304.644 233.753 305.497 234.12 306.607C234.499 307.724 234.357 308.996 233.696 310.423C233.129 311.645 232.399 312.489 231.506 312.957C230.619 313.413 229.669 313.465 228.656 313.113L229.498 311.298C230.666 311.663 231.578 311.138 232.234 309.723C233.048 307.969 232.583 306.688 230.841 305.881L229.807 305.401C230.444 306.564 230.462 307.792 229.862 309.086C229.256 310.393 228.332 311.228 227.09 311.593C225.831 311.964 224.475 311.813 223.024 311.14C221.572 310.467 220.581 309.53 220.051 308.328C219.526 307.145 219.565 305.906 220.165 304.612C220.799 303.245 221.792 302.449 223.146 302.224ZM228.453 308.036C228.846 307.189 228.864 306.389 228.508 305.636C228.145 304.866 227.456 304.245 226.44 303.773C225.423 303.302 224.51 303.18 223.7 303.407C222.882 303.616 222.278 304.144 221.885 304.99C221.498 305.825 221.486 306.628 221.849 307.398C222.211 308.169 222.895 308.787 223.899 309.253C224.915 309.724 225.834 309.849 226.657 309.628C227.467 309.401 228.066 308.871 228.453 308.036Z" fill="black"/>
<path d="M-71.1135 554.894L-70.7669 555.254L-70.4066 554.907L169.583 324.053C173.763 320.033 173.892 313.386 169.871 309.206L138.675 276.775C134.655 272.596 128.008 272.467 123.828 276.487L-116.162 507.342L-116.522 507.688L-116.175 508.049L-71.1135 554.894Z" stroke="black"/>
<path d="M84.0236 348.635L87.6777 345.106C89.2602 343.578 90.947 342.829 92.7381 342.86C94.51 342.91 96.1647 343.731 97.7022 345.323C99.2398 346.915 100.003 348.597 99.9906 350.37C99.9594 352.161 99.1525 353.821 97.57 355.349L93.9159 358.878L84.0236 348.635ZM94.1492 356.039L96.2496 354.01C97.3718 352.927 97.9152 351.772 97.88 350.545C97.8544 349.31 97.258 348.087 96.091 346.879C94.9239 345.671 93.7233 345.032 92.4893 344.963C91.2648 344.885 90.0915 345.388 88.9694 346.472L86.8689 348.5L94.1492 356.039ZM107.881 338.328L108.284 338.745L102.688 344.15C103.459 344.814 104.208 345.157 104.933 345.179C105.65 345.192 106.32 344.897 106.943 344.295C107.883 343.387 108.098 342.382 107.59 341.279L109.043 339.876C109.573 340.828 109.759 341.807 109.6 342.814C109.441 343.801 108.935 344.707 108.081 345.531C107.017 346.559 105.816 347.033 104.478 346.954C103.14 346.874 101.907 346.249 100.777 345.079C99.6466 343.909 99.0649 342.654 99.0317 341.314C98.9985 339.975 99.5045 338.8 100.55 337.79C101.643 336.734 102.863 336.27 104.209 336.397C105.546 336.534 106.77 337.177 107.881 338.328ZM101.717 338.999C101.151 339.545 100.853 340.167 100.822 340.864C100.8 341.552 101.061 342.264 101.605 343L105.705 339.04C105.054 338.501 104.371 338.225 103.654 338.212C102.938 338.181 102.292 338.443 101.717 338.999ZM116.292 337.63C114.23 339.621 112.326 339.819 110.581 338.223L112.02 336.834C112.578 337.296 113.098 337.499 113.579 337.441C114.061 337.383 114.604 337.063 115.209 336.479C116.302 335.423 116.515 334.55 115.848 333.859C115.561 333.562 115.224 333.443 114.836 333.502C114.449 333.562 113.907 333.826 113.21 334.294L112.309 334.887C110.458 336.118 108.958 336.139 107.81 334.95C107.17 334.288 106.92 333.52 107.058 332.646C107.186 331.761 107.696 330.889 108.588 330.027C110.631 328.054 112.478 327.874 114.128 329.487L112.733 330.835C112.222 330.364 111.731 330.162 111.258 330.229C110.776 330.287 110.248 330.594 109.672 331.149C109.212 331.594 108.94 332.023 108.858 332.436C108.775 332.85 108.886 333.215 109.192 333.531C109.47 333.819 109.798 333.938 110.176 333.888C110.545 333.828 111.015 333.615 111.587 333.248L112.489 332.627C113.567 331.92 114.474 331.544 115.211 331.5C115.947 331.457 116.611 331.742 117.204 332.356C117.899 333.075 118.167 333.9 118.01 334.831C117.843 335.752 117.27 336.685 116.292 337.63ZM114.279 322.836L112.811 324.253L111.325 322.714L112.792 321.296L114.279 322.836ZM122.448 331.323L121.009 332.713L113.84 325.289L115.279 323.9L122.448 331.323ZM124.132 317.379L123.118 316.329L124.499 314.995L131.404 322.145C132.386 323.162 132.848 324.254 132.79 325.423C132.741 326.6 132.151 327.736 131.019 328.829C130.05 329.764 129.065 330.289 128.064 330.404C127.072 330.509 126.167 330.215 125.349 329.522L126.788 328.133C127.746 328.894 128.786 328.733 129.908 327.65C131.299 326.306 131.327 324.944 129.993 323.563L129.201 322.743C129.376 324.057 128.951 325.209 127.925 326.201C126.889 327.201 125.726 327.647 124.436 327.54C123.127 327.432 121.917 326.803 120.806 325.652C119.694 324.501 119.107 323.27 119.045 321.958C118.983 320.665 119.465 319.523 120.491 318.532C121.575 317.486 122.789 317.101 124.132 317.379ZM126.989 324.713C127.66 324.065 127.965 323.325 127.904 322.494C127.844 321.645 127.424 320.817 126.646 320.011C125.868 319.206 125.06 318.763 124.223 318.682C123.385 318.583 122.631 318.857 121.959 319.505C121.298 320.145 120.997 320.889 121.058 321.739C121.118 322.588 121.533 323.411 122.302 324.207C123.08 325.013 123.892 325.461 124.739 325.551C125.577 325.632 126.327 325.352 126.989 324.713ZM130.386 308.976C131.201 308.189 132.061 307.803 132.966 307.819C133.862 307.825 134.713 308.245 135.519 309.08L140.326 314.057L138.887 315.447L134.274 310.67C133.274 309.635 132.251 309.622 131.206 310.631C130.726 311.094 130.471 311.693 130.439 312.428C130.417 313.173 130.739 313.89 131.406 314.581L135.449 318.767L134.01 320.157L126.841 312.733L128.222 311.4L129.292 312.507C129.033 311.107 129.398 309.93 130.386 308.976Z" fill="black"/>
<path d="M297.253 598.049L297.747 598.124L297.821 597.629L347.454 268.349C348.318 262.615 344.371 257.266 338.636 256.401L294.139 249.694C288.405 248.83 283.056 252.778 282.191 258.512L232.559 587.792L232.484 588.287L232.979 588.361L297.253 598.049Z" stroke="black"/>
<path d="M298.787 361.923L291.902 358.049L292.34 355.101L306.425 357.196L306.122 359.233L301.711 358.577C298.532 358.105 296.156 357.724 294.581 357.436C295.384 357.839 296.413 358.396 297.668 359.108L305.484 363.526L305.219 365.306L296.451 367.298C295.225 367.561 294.099 367.791 293.072 367.989C294.649 368.17 297.014 368.494 300.166 368.963L304.578 369.619L304.275 371.657L290.189 369.562L290.625 366.634L298.552 364.861C300.196 364.499 301.593 364.215 302.743 364.008C301.502 363.379 300.183 362.684 298.787 361.923ZM306.686 344.969L306.769 344.415L308.292 344.641C308.288 344.937 308.26 345.264 308.207 345.62C308.113 346.253 307.93 346.711 307.659 346.994C307.377 347.262 306.98 347.392 306.469 347.383C307.448 348.23 307.824 349.418 307.597 350.948C307.43 352.069 307.034 352.92 306.408 353.501C305.772 354.067 304.978 354.279 304.029 354.138C302.182 353.863 301.318 352.427 301.434 349.829L301.5 348.302C301.512 347.765 301.437 347.363 301.275 347.096C301.101 346.814 300.823 346.645 300.44 346.588C299.926 346.511 299.532 346.621 299.259 346.918C298.974 347.199 298.776 347.715 298.665 348.467C298.543 349.285 298.594 349.892 298.818 350.289C299.029 350.685 299.473 350.96 300.151 351.114L299.86 353.073C297.6 352.589 296.674 350.975 297.082 348.232C297.482 345.541 298.684 344.345 300.689 344.643L306.09 345.446C306.433 345.497 306.631 345.338 306.686 344.969ZM306.098 350.422C306.223 349.578 306.09 348.843 305.698 348.219C305.305 347.594 304.674 347.217 303.803 347.088L302.735 346.929C302.909 347.211 302.984 347.654 302.962 348.257L302.909 349.705C302.887 350.483 302.99 351.058 303.218 351.429C303.433 351.798 303.784 352.019 304.272 352.091C304.76 352.164 305.166 352.062 305.49 351.787C305.803 351.497 306.006 351.041 306.098 350.422ZM299.023 335.719C299.067 335.429 299.102 335.239 299.129 335.149L301.008 335.428L300.934 335.923C300.783 336.938 300.917 337.76 301.336 338.389C301.755 339.017 302.439 339.402 303.389 339.543L308.928 340.367L308.633 342.345L298.426 340.827L298.708 338.928L300.528 339.199C299.305 338.356 298.804 337.197 299.023 335.719ZM311.2 325.087L310.862 327.362L305.216 329.838L306.625 331.787L310.126 332.307L309.835 334.266L295.75 332.171L296.041 330.213L304.35 331.448L300.586 326.299L300.954 323.826L304.139 328.243L311.2 325.087ZM307.762 313.671L308.335 313.756L307.191 321.452C308.207 321.508 309.009 321.324 309.598 320.9C310.174 320.473 310.526 319.831 310.653 318.974C310.845 317.681 310.404 316.753 309.328 316.189L309.625 314.191C310.626 314.623 311.37 315.286 311.857 316.181C312.333 317.06 312.483 318.087 312.309 319.26C312.091 320.724 311.428 321.832 310.318 322.584C309.209 323.336 307.85 323.592 306.241 323.352C304.632 323.113 303.406 322.473 302.564 321.431C301.721 320.389 301.407 319.149 301.62 317.711C301.844 316.208 302.528 315.097 303.673 314.377C304.816 313.671 306.179 313.435 307.762 313.671ZM303.282 317.959C303.167 318.737 303.309 319.412 303.709 319.983C304.111 320.542 304.752 320.947 305.631 321.199L306.47 315.561C305.625 315.53 304.915 315.728 304.339 316.154C303.752 316.566 303.4 317.167 303.282 317.959ZM303.624 305.87L305.246 306.111L304.94 308.169L311.073 309.081C311.376 309.126 311.613 309.073 311.784 308.923C311.943 308.758 312.054 308.465 312.117 308.043L312.249 307.153L313.832 307.388C313.807 307.829 313.767 308.234 313.712 308.604C313.569 309.566 313.278 310.251 312.84 310.658C312.402 311.064 311.774 311.207 310.957 311.085L304.646 310.147L304.402 311.789L302.78 311.548L303.024 309.906L300.096 309.47L300.39 307.492L303.318 307.927L303.624 305.87ZM302.86 301.082L302.56 303.099L300.443 302.785L300.743 300.767L302.86 301.082ZM314.509 302.834L314.215 304.812L304.007 303.294L304.301 301.316L314.509 302.834ZM305.299 292.974C305.466 291.853 305.913 291.023 306.64 290.484C307.354 289.943 308.285 289.758 309.432 289.929L316.277 290.947L315.983 292.925L309.415 291.948C307.99 291.736 307.171 292.349 306.958 293.787C306.86 294.446 307.022 295.077 307.445 295.679C307.88 296.283 308.573 296.656 309.523 296.797L315.279 297.653L314.985 299.631L304.778 298.113L305.06 296.214L306.583 296.441C305.525 295.488 305.097 294.332 305.299 292.974ZM309.119 278.847L307.674 278.632L307.957 276.733L317.789 278.195C319.187 278.403 320.219 278.988 320.884 279.95C321.563 280.913 321.787 282.173 321.556 283.729C321.358 285.061 320.896 286.078 320.172 286.779C319.45 287.467 318.553 287.785 317.482 287.734L317.777 285.756C319 285.776 319.727 285.014 319.956 283.471C320.241 281.559 319.433 280.462 317.534 280.179L316.407 280.012C317.346 280.947 317.711 282.12 317.501 283.531C317.289 284.955 316.639 286.018 315.551 286.719C314.447 287.431 313.104 287.669 311.522 287.434C309.939 287.198 308.724 286.58 307.875 285.577C307.038 284.59 306.724 283.391 306.934 281.98C307.156 280.489 307.884 279.445 309.119 278.847ZM315.853 282.922C315.99 281.999 315.781 281.226 315.227 280.604C314.661 279.968 313.824 279.567 312.716 279.402C311.608 279.237 310.698 279.378 309.984 279.825C309.26 280.256 308.829 280.934 308.691 281.857C308.556 282.767 308.771 283.54 309.337 284.177C309.903 284.814 310.733 285.214 311.828 285.376C312.935 285.541 313.853 285.401 314.579 284.957C315.293 284.51 315.717 283.832 315.853 282.922Z" fill="black"/>
</g>
<path d="M46.6655 512.291C45.1629 503.815 47.089 495.089 52.0201 488.032C56.9512 480.976 64.4834 476.168 72.9597 474.666C81.4359 473.163 90.1619 475.089 97.218 480.02C104.274 484.951 109.082 492.483 110.585 500.96L46.6655 512.291Z" fill="#98BC6D"/>
<rect x="350.151" y="128.94" width="67.8835" height="25.8736" rx="12.9368" transform="rotate(31.9065 350.151 128.94)" fill="#EF4C0D"/>
</g>
<defs>
<clipPath id="clip0_459_1746">
<rect width="420" height="501" fill="white"/>
</clipPath>
<clipPath id="clip1_459_1746">
<rect width="297" height="343" fill="white" transform="translate(82 158)"/>
</clipPath>
</defs>
</svg>
