<svg width="801" height="501" viewBox="0 0 801 501" fill="none" xmlns="http://www.w3.org/2000/svg">
<g clip-path="url(#clip0_459_1729)">
<rect width="801" height="501" rx="20" fill="#FAFAFA"/>
<path opacity="0.22" d="M743.8 456.9C743.8 352.02 658.78 267 553.9 267C449.02 267 364 352.02 364 456.9C364 477.82 367.39 497.95 373.64 516.78H734.16C740.41 497.95 743.8 477.82 743.8 456.9Z" fill="#F7CBAD"/>
<path d="M634.66 460.512H561.79C556.82 460.512 553.25 455.652 554.65 450.792L589.45 330.842C590.38 327.622 593.29 325.412 596.59 325.412H669.46C674.43 325.412 678 330.272 676.6 335.132L641.8 455.082C640.86 458.302 637.95 460.512 634.66 460.512Z" fill="#353434"/>
<path d="M624.63 460.512H561.16C556.19 460.512 552.62 455.652 554.02 450.792L588.82 330.842C589.75 327.622 592.66 325.412 595.96 325.412H659.43C664.4 325.412 667.97 330.272 666.57 335.132L631.77 455.082C630.83 458.302 627.93 460.512 624.63 460.512Z" fill="#FFA755"/>
<path d="M612.41 460.512H535.28C531.68 460.512 528.77 457.592 528.77 454.002C528.77 450.402 531.69 447.492 535.28 447.492H612.41C616.01 447.492 618.92 450.412 618.92 454.002C618.93 457.602 616.01 460.512 612.41 460.512Z" fill="#353434"/>
<path d="M593.99 459.502H587.43V550.372H593.99V459.502Z" fill="#353434"/>
<path d="M632.61 460.512H555.48C551.88 460.512 548.97 457.592 548.97 454.002C548.97 450.402 551.89 447.492 555.48 447.492H632.61C636.21 447.492 639.12 450.412 639.12 454.002C639.12 457.602 636.2 460.512 632.61 460.512Z" fill="#353434"/>
<path d="M554.69 301.832C555.1 305.042 553.95 307.832 552.11 308.072C550.27 308.312 548.44 305.902 548.03 302.692C547.62 299.482 548.77 296.692 550.61 296.452C552.45 296.212 554.28 298.622 554.69 301.832Z" stroke="#353434" stroke-width="0.5365" stroke-miterlimit="10"/>
<path d="M554.59 300.262L564.59 297.552" stroke="#353434" stroke-width="0.5365" stroke-miterlimit="10"/>
<path d="M558.94 284.222C558.94 284.222 542.3 290.372 553.88 317.602C555.29 320.922 559.55 321.922 562.49 319.832L574.44 311.322" fill="#FF7D7B"/>
<path d="M562.88 312.582C563.52 313.122 573.66 334.812 573.66 334.812L592.24 327.712L570.73 291.922L562.88 312.582Z" fill="#FF7D7B"/>
<path d="M550.23 303.502C550.24 303.922 549.36 307.172 548.82 309.102C548.65 309.722 549.23 310.292 549.85 310.112L553.53 309.042L550.23 303.502Z" fill="#FF7D7B"/>
<path d="M565.52 317.682L570.74 313.452L569.89 326.802L565.52 317.682Z" fill="#353434"/>
<path d="M570.02 302.022L579.06 306.212C579.06 306.212 593.53 293.462 583.19 282.062C572.85 270.662 555.53 284.912 555.53 284.912L567.61 299.012L570.02 302.022Z" fill="#353434"/>
<path d="M553.09 300.282C552.52 300.712 552.41 301.522 552.84 302.092C553.27 302.662 554.08 302.772 554.65 302.342C555.22 301.912 555.33 301.102 554.9 300.532C554.47 299.962 553.66 299.842 553.09 300.282Z" fill="#353434"/>
<path d="M552.58 311.852C552.58 311.852 554.21 311.982 555.13 309.342" stroke="#353434" stroke-width="0.6706" stroke-miterlimit="10" stroke-linecap="round" stroke-linejoin="round"/>
<path d="M552.72 294.442C552.72 294.442 554.14 293.092 555.97 294.162" stroke="#353434" stroke-width="0.6706" stroke-miterlimit="10" stroke-linecap="round" stroke-linejoin="round"/>
<path d="M556.81 301.282C557.22 304.492 556.07 307.282 554.23 307.522C552.39 307.762 550.56 305.352 550.15 302.142C549.74 298.932 550.89 296.142 552.73 295.902C554.57 295.662 556.4 298.072 556.81 301.282Z" stroke="#FDE6E3" stroke-width="0.5413" stroke-miterlimit="10"/>
<path d="M556.72 299.712L566.85 297.962" stroke="#FDE6E3" stroke-width="0.5413" stroke-miterlimit="10"/>
<path d="M566.88 297.922C566.45 301.042 568.64 303.922 571.76 304.352C574.88 304.782 577.76 302.592 578.19 299.472C578.62 296.352 576.43 293.472 573.31 293.042C570.19 292.612 567.31 294.802 566.88 297.922Z" fill="#FF7D7B"/>
<path d="M570.3 300.082C570.3 300.082 570.42 295.852 574.5 296.632" stroke="#353434" stroke-width="0.6706" stroke-miterlimit="10" stroke-linecap="round" stroke-linejoin="round"/>
<path d="M555.53 284.912C555.53 284.912 549.41 289.442 549.25 294.092L561.13 286.652L555.53 284.912Z" fill="#353434"/>
<path d="M595.433 285.599C602.483 285.009 607.72 278.815 607.13 271.765C606.54 264.715 600.346 259.478 593.296 260.068C586.246 260.658 581.01 266.852 581.6 273.902C582.19 280.952 588.383 286.189 595.433 285.599Z" fill="#353434"/>
<path d="M580.74 279.652L584.6 284.132L586.47 282.802L582.73 278.242L580.74 279.652Z" fill="#FFA755"/>
<path d="M503.6 433.602L519.16 523.642L554.91 524.102L545.22 467.092L503.6 433.602Z" fill="#C0C0BE"/>
<path d="M587.37 509.422L577.48 495.772L558.69 506.932L570.99 522.152L587.37 509.422Z" fill="#FF7D7B"/>
<path d="M621.13 409.332L620.02 409.382L620.74 404.352H584.32L583.2 410.982L512.63 414.062C512.63 414.062 491.43 415.012 491.89 435.622C492.03 441.872 494.3 447.892 498.03 452.912L553.55 518.932L585.28 496.282L543.21 448.072L597.8 447.852C618.05 447.752 625.14 429.182 621.13 409.332Z" fill="white"/>
<path d="M543.19 448.092C543.19 448.092 536.67 439.662 522.51 435.752" stroke="#C0C0BE" stroke-width="1.3872" stroke-miterlimit="10"/>
<path d="M583.19 410.992H606.38" stroke="#C0C0BE" stroke-width="1.3872" stroke-miterlimit="10"/>
<path d="M531.2 387.792L578.78 331.632L602.64 351.572L553.22 406.692C547.39 413.302 537.07 413.232 531.33 406.552C526.7 401.162 526.65 393.232 531.2 387.792Z" fill="#226792"/>
<path d="M518.81 346.572L526.28 356.722L510.37 367.592L494.76 351.072L516.75 342.442L518.81 346.572Z" fill="#FF7D7B"/>
<path d="M517.7 349.342L517.29 345.882L518.81 346.572L514.05 337.032C513.66 336.242 513.11 335.522 512.39 335.012C510.73 333.842 509.41 334.352 508.22 334.232C506.24 334.022 506.85 334.612 506.82 336.612C504.74 336.642 500.46 337.572 498.11 328.412C497.61 326.452 495.57 325.252 493.61 325.742C490.64 326.482 495.79 325.112 495.65 326.452C495.64 326.512 495.65 326.562 495.65 326.622C494.94 325.962 493.93 325.662 492.93 325.912C491.69 326.222 490.84 327.262 490.71 328.462C490.69 328.622 490.69 328.782 490.7 328.942C490.24 328.822 489.74 328.792 489.24 328.922C488 329.232 487.15 330.272 487.02 331.472C486.98 331.812 487.01 332.152 487.09 332.502C487.12 332.622 487.16 332.742 487.19 332.862C487.14 332.872 487.09 332.872 487.03 332.882C485.79 333.192 485.73 333.742 485.61 334.942C485.57 335.282 485.6 335.622 485.68 335.972C486.33 338.572 486.97 339.612 487.94 341.552H487.93C487.93 341.552 487.95 341.592 487.98 341.642C488.44 342.562 488.94 343.392 489.46 344.152C492.45 348.932 499.97 358.282 508.52 360.402C519.89 363.202 517.7 349.342 517.7 349.342Z" fill="#FF7D7B"/>
<path d="M481 321.522L481.06 323.232C481.07 323.772 481.27 324.282 481.61 324.692L502.99 350.352C503.6 351.082 504.76 352.022 505.71 352.002L515.09 351.762C516.12 351.742 517.23 350.762 517.71 349.502L489.56 322.442L481 321.522Z" fill="#03071E"/>
<path d="M481.24 322.172L504.61 349.602C505.08 350.162 505.78 350.472 506.51 350.462L516.71 350.342C517.5 350.332 517.92 349.412 517.4 348.812L494.07 321.672C493.44 320.932 492.51 320.512 491.54 320.522L481.93 320.632C481.15 320.652 480.73 321.572 481.24 322.172Z" fill="#050C39"/>
<path d="M485.38 323.102L506.57 347.972C506.91 348.372 507.4 348.592 507.92 348.582L513.73 348.512C514.43 348.502 514.8 347.682 514.35 347.152L493.63 323.052C493.07 322.402 492.24 322.022 491.38 322.032L485.84 322.092C485.32 322.112 485.04 322.712 485.38 323.102Z" fill="#F6F3EC"/>
<path d="M510.44 334.262L505.28 333.472C503.11 333.142 501.4 335.292 502.21 337.332C502.47 337.992 502.97 338.522 503.6 338.832L512.88 343.372L511.51 337.392L510.44 334.262Z" fill="#FF7D7B"/>
<path opacity="0.49" d="M485.38 322.322L526.87 265.292L569.86 338.072L513.72 348.522L485.38 322.322Z" fill="url(#paint0_linear_459_1729)"/>
<path d="M530.83 405.962L501.36 367.892L525.97 348.882L554.03 388.522C559.23 395.632 556.94 405.702 549.18 409.872C542.92 413.232 535.16 411.582 530.83 405.962Z" fill="#226792"/>
<path d="M569.86 338.072L567.44 332.472L589.42 317.972L594.92 329.762L569.86 338.072Z" fill="#226792"/>
<path d="M570.45 335.842C565.24 338.072 560.46 351.412 560.41 359.952C560.31 375.472 570.22 377.642 570.22 377.642L584.32 404.362H620.74L614.25 343.772C612.19 330.542 592.99 325.632 592.99 325.632L570.45 335.842Z" fill="#2C71A4"/>
<path d="M596.64 444.862C595.72 446.222 595.78 448.022 596.79 449.322C598.16 451.092 600.75 451.292 602.38 449.772L603.72 448.522C605.37 450.182 607.21 453.992 601.44 463.192C600.47 464.742 600.94 466.782 602.49 467.752C603.7 468.512 605.21 468.392 606.27 467.562C606.32 467.522 606.36 467.472 606.41 467.432C606.43 468.512 606.97 469.562 607.96 470.182C609.17 470.942 610.68 470.822 611.74 469.992C611.88 469.882 612.01 469.762 612.13 469.622C612.39 470.092 612.76 470.512 613.25 470.822C614.46 471.582 615.97 471.462 617.03 470.632C617.33 470.402 617.59 470.112 617.8 469.772C617.88 469.652 617.94 469.532 618.01 469.412C618.06 469.442 618.1 469.492 618.15 469.522C619.36 470.282 620.87 470.162 621.93 469.332C622.23 469.102 622.49 468.812 622.7 468.472C624.29 465.932 625.48 463.512 626.3 461.222H626.31C626.31 461.222 626.32 461.182 626.34 461.112C626.72 460.032 627.01 458.982 627.21 457.962C628.4 453.172 630.16 443.932 628.5 436.042L603.56 434.582L596.64 444.862Z" fill="#FF7D7B"/>
<path d="M640.24 392.852L631.62 440.212L601.03 434.612L611.77 387.242C613.58 378.622 622.6 373.592 630.89 376.582C637.56 378.992 641.52 385.872 640.24 392.852Z" fill="#2C71A4"/>
<path d="M613.04 397.122L586.64 345.052C582.83 337.542 585.8 328.352 593.29 324.492C601 320.512 610.47 323.722 614.18 331.572L639.02 384.162C642.85 392.102 638.78 401.592 630.39 404.282C623.62 406.462 616.29 403.432 613.04 397.122Z" fill="#2C71A4"/>
<path d="M589.86 351.402L610.18 391.482L607.97 403.992" stroke="#226792" stroke-width="1.5068" stroke-miterlimit="10"/>
<path d="M104 198.21H283.6" stroke="#FCFCF2" stroke-width="1.1319" stroke-miterlimit="10" stroke-linecap="round" stroke-linejoin="round"/>
<path d="M278.78 421.15H108.82C106.16 421.15 104 418.99 104 416.33V178.82C104 176.16 106.16 174 108.82 174H278.78C281.44 174 283.6 176.16 283.6 178.82V416.33C283.6 418.99 281.44 421.15 278.78 421.15Z" stroke="#FCFCF2" stroke-width="1.1319" stroke-miterlimit="10" stroke-linecap="round" stroke-linejoin="round"/>
<path d="M127.64 186.35C127.64 188.22 126.13 189.73 124.26 189.73C122.39 189.73 120.88 188.22 120.88 186.35C120.88 184.48 122.39 182.97 124.26 182.97C126.12 182.97 127.64 184.48 127.64 186.35Z" stroke="#FCFCF2" stroke-width="1.1319" stroke-miterlimit="10" stroke-linecap="round" stroke-linejoin="round"/>
<path d="M140.77 186.35C140.77 188.22 139.26 189.73 137.39 189.73C135.52 189.73 134.01 188.22 134.01 186.35C134.01 184.48 135.52 182.97 137.39 182.97C139.26 182.97 140.77 184.48 140.77 186.35Z" stroke="#FCFCF2" stroke-width="1.1319" stroke-miterlimit="10" stroke-linecap="round" stroke-linejoin="round"/>
<path d="M153.9 186.35C153.9 188.22 152.39 189.73 150.52 189.73C148.65 189.73 147.14 188.22 147.14 186.35C147.14 184.48 148.65 182.97 150.52 182.97C152.39 182.97 153.9 184.48 153.9 186.35Z" stroke="#FCFCF2" stroke-width="1.1319" stroke-miterlimit="10" stroke-linecap="round" stroke-linejoin="round"/>
<path d="M313.56 448.28H143.61C140.95 448.28 138.79 446.12 138.79 443.46V218.59C138.79 215.93 140.95 213.77 143.61 213.77H313.57C316.23 213.77 318.39 215.93 318.39 218.59V443.46C318.39 446.12 316.23 448.28 313.56 448.28Z" fill="#98BC6D"/>
<mask id="mask0_459_1729" style="mask-type:luminance" maskUnits="userSpaceOnUse" x="138" y="213" width="181" height="236">
<path d="M313.56 448.28H143.61C140.95 448.28 138.79 446.12 138.79 443.46V218.59C138.79 215.93 140.95 213.77 143.61 213.77H313.57C316.23 213.77 318.39 215.93 318.39 218.59V443.46C318.39 446.12 316.23 448.28 313.56 448.28Z" fill="white"/>
</mask>
<g mask="url(#mask0_459_1729)">
<path d="M240.64 354.7L269.38 412.44C272.59 418.89 280.03 422.25 287.1 420.44C295.71 418.23 300.44 409.29 297.34 401.1L274.67 341.21L240.64 354.7Z" fill="#FF7D7B"/>
<path d="M235.98 343.51L244.1 368.66L285.52 351.07L273.14 327.92C269.03 320.06 260.7 316.27 250.07 316.57L251.53 317.42C239.54 319.64 232.23 331.9 235.98 343.51Z" fill="white"/>
<path d="M250.07 316.57L193.26 316.55C184.88 316.55 191.84 322.89 190.96 331.22L182.19 446.36L274.99 438.71L266.38 331.51C265.63 323.05 258.55 316.57 250.07 316.57Z" fill="white"/>
<path d="M268.53 358.28L267.05 339.87" stroke="#C0C0BE" stroke-width="1.3872" stroke-miterlimit="10"/>
<path d="M167.14 340.6L152.34 403.37C150.69 410.38 154.26 417.73 160.85 420.84C168.88 424.64 178.24 420.79 181.09 412.51L201.93 351.96L167.14 340.6Z" fill="#FF7D7B"/>
<path d="M170.7 329.02L160.87 353.55L204.62 362.32L209.24 340.78C211.1 332.1 207.09 323.23 199.34 318.89C188.69 312.94 175.24 317.7 170.7 329.02Z" fill="white"/>
<path d="M198.77 361.15L204.95 342.61" stroke="#C0C0BE" stroke-width="1.3872" stroke-miterlimit="10"/>
<path d="M246.55 277.38C246.39 281.9 249.93 285.69 254.45 285.85C258.97 286.01 262.76 282.47 262.92 277.95C263.08 273.43 259.54 269.64 255.02 269.48C250.49 269.32 246.7 272.86 246.55 277.38Z" fill="#EB6462"/>
<path d="M244.74 290.05L244.15 319.24C243.93 327.45 238.28 327.87 230.21 327.59C223.32 327.35 217.49 325.13 216.87 318.26L216.43 286.68L244.74 290.05Z" fill="#FF7D7B"/>
<path d="M244.27 313.73L222.92 296.55L244.62 297.03L244.27 313.73Z" fill="#353434"/>
<path d="M230.71 301.23L242.16 301.63C250.75 301.93 257.89 295.05 257.9 286.45L257.94 265.34C257.96 254.56 249.42 245.71 238.65 245.34C227.62 244.96 216.44 253.52 216.06 264.55L216.43 286.68C216.55 294.56 222.83 300.96 230.71 301.23Z" fill="#FF7D7B"/>
<path d="M223.42 246.26C218.17 250.53 211 252.61 210.06 260.71C209.12 268.74 212.03 280.16 218.61 276.68C218.61 276.68 230.59 277.32 226.4 261.27C226.4 261.27 229.74 255.37 240.35 258.2" fill="#353434"/>
<path d="M247.85 284.62C247.84 284.62 247.84 284.62 247.83 284.62L245.21 284.53C244.92 284.52 244.69 284.27 244.7 283.98C244.71 283.69 244.98 283.49 245.25 283.47L247.28 283.54L247.02 279.84C247 279.55 247.22 279.29 247.51 279.27C247.77 279.25 248.06 279.47 248.08 279.76L248.38 284.05C248.39 284.2 248.34 284.35 248.23 284.46C248.14 284.56 248 284.62 247.85 284.62Z" fill="#353434"/>
<path d="M250.77 276.61C250.74 277.56 251.48 278.35 252.42 278.38C253.37 278.41 254.16 277.67 254.19 276.73C254.22 275.78 253.48 274.99 252.54 274.96C251.59 274.93 250.8 275.67 250.77 276.61Z" fill="#353434"/>
<path d="M236.92 276.14C236.89 277.09 237.63 277.88 238.57 277.91C239.52 277.94 240.31 277.2 240.34 276.26C240.37 275.31 239.63 274.52 238.69 274.49C237.75 274.46 236.95 275.19 236.92 276.14Z" fill="#353434"/>
<path d="M237.73 265.98C237.73 265.98 242.17 265.46 242.19 267.83C242.19 267.83 242.17 269.44 238.3 269.79C234.43 270.14 233.43 269.78 233.09 268.27C232.75 266.77 235.65 266.01 237.73 265.98Z" fill="#353434"/>
<path d="M253.68 266.4C253.68 266.4 250.02 265.93 249.7 268.16C249.7 268.16 249.51 269.67 252.71 269.98C255.91 270.29 256.96 269.75 257.27 268.53C257.64 267.15 255.42 266.42 253.68 266.4Z" fill="#353434"/>
<path d="M249.83 287.02H237.94C237.94 287.02 238.62 292.09 245.32 291.28C249.82 290.73 249.83 287.02 249.83 287.02Z" fill="white"/>
<path d="M247.98 316.55L211 316.56C211 316.56 213.4 333.05 236.39 331.71C239.39 331.53 242.4 330.99 245.09 329.67C249.27 327.63 253.1 323.86 247.98 316.55Z" fill="#FF7D7B"/>
<path d="M209.62 270.88C209.62 270.88 205.57 245.33 225.26 238.79C244.95 232.26 259.2 246.86 260.1 258.2C260.1 258.2 243.72 247.14 209.62 270.88Z" fill="#F2A300"/>
<path d="M209.62 270.88C209.62 270.88 244.38 247.65 268.01 247.85C268.01 247.85 277.5 248.62 270.87 254.38C264.24 260.14 257.37 260.59 257.37 260.59C257.37 260.59 254.19 255.52 237.63 259.72C222.36 263.6 209.62 270.88 209.62 270.88Z" fill="#353434"/>
<path d="M213.38 282.35L216.53 293.52L218.53 280.21L213.38 282.35Z" fill="#353434"/>
<path d="M205.77 276.39C205.61 280.91 209.15 284.7 213.67 284.86C218.19 285.02 221.98 281.48 222.14 276.96C222.3 272.44 218.76 268.65 214.24 268.49C209.72 268.33 205.93 271.87 205.77 276.39Z" fill="#FF7D7B"/>
<path d="M216.74 279.74C216.73 279.74 216.73 279.74 216.72 279.74C216.43 279.73 216.2 279.48 216.2 279.19C216.2 279.17 216.26 276.71 214.78 275.37C213.96 274.63 212.79 274.35 211.3 274.54C211.02 274.58 210.74 274.37 210.7 274.08C210.66 273.79 210.87 273.52 211.16 273.48C212.97 273.25 214.43 273.62 215.5 274.59C217.34 276.27 217.27 279.11 217.26 279.23C217.26 279.51 217.02 279.74 216.74 279.74Z" fill="#353434"/>
</g>
<mask id="mask1_459_1729" style="mask-type:luminance" maskUnits="userSpaceOnUse" x="138" y="213" width="181" height="236">
<path d="M313.56 448.28H143.61C140.95 448.28 138.79 446.12 138.79 443.46V218.59C138.79 215.93 140.95 213.77 143.61 213.77H313.57C316.23 213.77 318.39 215.93 318.39 218.59V443.46C318.39 446.12 316.23 448.28 313.56 448.28Z" fill="white"/>
</mask>
<g mask="url(#mask1_459_1729)">
<path d="M337.01 404.33H117.24V468.44H337.01V404.33Z" fill="#353434"/>
<path d="M232.64 439.85C240.427 439.85 246.74 433.537 246.74 425.75C246.74 417.963 240.427 411.65 232.64 411.65C224.853 411.65 218.54 417.963 218.54 425.75C218.54 433.537 224.853 439.85 232.64 439.85Z" fill="#FD565D"/>
<path d="M228.26 421.09L237.32 430.15" stroke="white" stroke-width="1.522" stroke-miterlimit="10"/>
<path d="M237.32 421.09L228.26 430.15" stroke="white" stroke-width="1.522" stroke-miterlimit="10"/>
</g>
<mask id="mask2_459_1729" style="mask-type:luminance" maskUnits="userSpaceOnUse" x="138" y="213" width="181" height="236">
<path d="M313.56 448.28H143.61C140.95 448.28 138.79 446.12 138.79 443.46V218.59C138.79 215.93 140.95 213.77 143.61 213.77H313.57C316.23 213.77 318.39 215.93 318.39 218.59V443.46C318.39 446.12 316.23 448.28 313.56 448.28Z" fill="white"/>
</mask>
<g mask="url(#mask2_459_1729)">
<circle cx="233" cy="426" r="10" fill="#FD565D"/>
</g>
<path d="M763.58 355.6H705.93C703.46 355.6 701.47 353.6 701.47 351.14V290.46C701.47 287.99 703.47 286 705.93 286H763.58C766.05 286 768.04 288 768.04 290.46V351.14C768.04 353.6 766.04 355.6 763.58 355.6Z" fill="#98BC6D"/>
<path d="M739.54 332.6H720.82C719.15 332.6 717.79 331.24 717.79 329.57V313.41C717.79 311.74 719.15 310.38 720.82 310.38H739.54C741.21 310.38 742.57 311.74 742.57 313.41V329.57C742.57 331.24 741.22 332.6 739.54 332.6Z" fill="#FDFDFD"/>
<path d="M744.84 317.62V324.36C744.84 324.72 745.04 325.06 745.36 325.23L753.29 329.5C753.95 329.85 754.75 329.38 754.75 328.63V314.47C754.75 313.77 754.04 313.29 753.39 313.55L745.46 316.7C745.09 316.85 744.84 317.21 744.84 317.62Z" fill="#FDFDFD"/>
<rect x="272" y="157" width="182" height="61" rx="5" fill="#F2A300"/>
<path d="M272.025 206.851C272.038 205.312 273.713 204.364 275.04 205.145L291.457 214.814C292.783 215.595 292.767 217.52 291.427 218.278L274.845 227.661C273.505 228.419 271.847 227.443 271.86 225.903L272.025 206.851Z" fill="#F2A300"/>
<path d="M294.702 194.24C293.876 194.24 293.129 194.099 292.462 193.816C291.801 193.528 291.254 193.12 290.822 192.592C290.396 192.059 290.118 191.427 289.99 190.696L291.734 190.432C291.91 191.136 292.278 191.685 292.838 192.08C293.398 192.469 294.052 192.664 294.798 192.664C295.262 192.664 295.689 192.592 296.078 192.448C296.468 192.299 296.78 192.088 297.014 191.816C297.254 191.539 297.374 191.208 297.374 190.824C297.374 190.616 297.337 190.432 297.262 190.272C297.193 190.112 297.094 189.973 296.966 189.856C296.844 189.733 296.692 189.629 296.51 189.544C296.334 189.453 296.14 189.376 295.926 189.312L292.974 188.44C292.686 188.355 292.393 188.245 292.094 188.112C291.796 187.973 291.521 187.795 291.27 187.576C291.025 187.352 290.825 187.077 290.67 186.752C290.516 186.421 290.438 186.021 290.438 185.552C290.438 184.843 290.62 184.243 290.982 183.752C291.35 183.256 291.846 182.883 292.47 182.632C293.094 182.376 293.793 182.248 294.566 182.248C295.345 182.259 296.041 182.397 296.654 182.664C297.273 182.931 297.785 183.315 298.19 183.816C298.601 184.312 298.884 184.915 299.038 185.624L297.246 185.928C297.166 185.496 296.996 185.125 296.734 184.816C296.473 184.501 296.153 184.261 295.774 184.096C295.396 183.925 294.985 183.837 294.542 183.832C294.116 183.821 293.724 183.885 293.366 184.024C293.014 184.163 292.732 184.357 292.518 184.608C292.31 184.859 292.206 185.147 292.206 185.472C292.206 185.792 292.3 186.051 292.486 186.248C292.673 186.445 292.902 186.603 293.174 186.72C293.452 186.832 293.726 186.925 293.998 187L296.126 187.6C296.393 187.675 296.694 187.776 297.03 187.904C297.372 188.027 297.7 188.2 298.014 188.424C298.334 188.648 298.598 188.947 298.806 189.32C299.014 189.688 299.118 190.152 299.118 190.712C299.118 191.293 299.001 191.805 298.766 192.248C298.532 192.685 298.209 193.053 297.798 193.352C297.393 193.645 296.924 193.867 296.39 194.016C295.857 194.165 295.294 194.24 294.702 194.24ZM304.263 194.24C303.623 194.24 303.087 194.123 302.655 193.888C302.223 193.648 301.895 193.333 301.671 192.944C301.452 192.549 301.343 192.117 301.343 191.648C301.343 191.211 301.42 190.827 301.575 190.496C301.73 190.165 301.959 189.885 302.263 189.656C302.567 189.421 302.94 189.232 303.383 189.088C303.767 188.976 304.202 188.877 304.687 188.792C305.172 188.707 305.682 188.627 306.215 188.552C306.754 188.477 307.287 188.403 307.815 188.328L307.207 188.664C307.218 187.987 307.074 187.485 306.775 187.16C306.482 186.829 305.975 186.664 305.255 186.664C304.802 186.664 304.386 186.771 304.007 186.984C303.628 187.192 303.364 187.539 303.215 188.024L301.655 187.544C301.868 186.803 302.274 186.213 302.871 185.776C303.474 185.339 304.274 185.12 305.271 185.12C306.044 185.12 306.716 185.253 307.287 185.52C307.863 185.781 308.284 186.197 308.551 186.768C308.69 187.051 308.775 187.349 308.807 187.664C308.839 187.979 308.855 188.317 308.855 188.68V194H307.375V192.024L307.663 192.28C307.306 192.941 306.85 193.435 306.295 193.76C305.746 194.08 305.068 194.24 304.263 194.24ZM304.559 192.872C305.034 192.872 305.442 192.789 305.783 192.624C306.124 192.453 306.399 192.237 306.607 191.976C306.815 191.715 306.951 191.443 307.015 191.16C307.106 190.904 307.156 190.616 307.167 190.296C307.183 189.976 307.191 189.72 307.191 189.528L307.735 189.728C307.207 189.808 306.727 189.88 306.295 189.944C305.863 190.008 305.471 190.072 305.119 190.136C304.772 190.195 304.463 190.267 304.191 190.352C303.962 190.432 303.756 190.528 303.575 190.64C303.399 190.752 303.258 190.888 303.151 191.048C303.05 191.208 302.999 191.403 302.999 191.632C302.999 191.856 303.055 192.064 303.167 192.256C303.279 192.443 303.45 192.592 303.679 192.704C303.908 192.816 304.202 192.872 304.559 192.872ZM312.616 197.84L314.288 193.288L314.312 194.632L310.544 185.36H312.288L315.104 192.52H314.592L317.28 185.36H318.976L314.208 197.84H312.616ZM329.825 182.44L329.729 183.184C329.494 183.168 329.313 183.211 329.185 183.312C329.057 183.413 328.971 183.555 328.929 183.736C328.886 183.917 328.878 184.123 328.905 184.352H329.825V186.28H328.057V184.192C328.057 183.563 328.206 183.088 328.505 182.768C328.809 182.443 329.249 182.333 329.825 182.44ZM327.361 182.44L327.265 183.184C327.03 183.168 326.849 183.211 326.721 183.312C326.593 183.413 326.507 183.555 326.465 183.736C326.422 183.917 326.414 184.123 326.441 184.352H327.361V186.28H325.593V184.192C325.593 183.563 325.742 183.088 326.041 182.768C326.345 182.443 326.785 182.333 327.361 182.44ZM333.229 194V182.48H334.901V187.448H340.661V182.48H342.341V194H340.661V189.024H334.901V194H333.229ZM349.421 194.24C348.562 194.24 347.807 194.053 347.157 193.68C346.511 193.301 346.007 192.776 345.645 192.104C345.287 191.427 345.109 190.643 345.109 189.752C345.109 188.808 345.285 187.989 345.637 187.296C345.994 186.603 346.49 186.067 347.125 185.688C347.759 185.309 348.498 185.12 349.341 185.12C350.221 185.12 350.97 185.325 351.589 185.736C352.207 186.141 352.669 186.72 352.973 187.472C353.282 188.224 353.405 189.117 353.341 190.152H351.669V189.544C351.658 188.541 351.466 187.8 351.093 187.32C350.725 186.84 350.162 186.6 349.405 186.6C348.567 186.6 347.938 186.864 347.517 187.392C347.095 187.92 346.885 188.683 346.885 189.68C346.885 190.629 347.095 191.365 347.517 191.888C347.938 192.405 348.546 192.664 349.341 192.664C349.863 192.664 350.314 192.547 350.693 192.312C351.077 192.072 351.375 191.731 351.589 191.288L353.229 191.808C352.893 192.581 352.383 193.181 351.701 193.608C351.018 194.029 350.258 194.24 349.421 194.24ZM346.341 190.152V188.848H352.509V190.152H346.341ZM356.296 194V182.24H357.968V194H356.296ZM361.53 194V182.24H363.202V194H361.53ZM370.356 194.24C369.492 194.24 368.743 194.045 368.108 193.656C367.474 193.267 366.983 192.731 366.636 192.048C366.295 191.36 366.124 190.568 366.124 189.672C366.124 188.771 366.3 187.979 366.652 187.296C367.004 186.608 367.498 186.075 368.132 185.696C368.767 185.312 369.508 185.12 370.356 185.12C371.22 185.12 371.97 185.315 372.604 185.704C373.239 186.093 373.73 186.629 374.076 187.312C374.423 187.995 374.596 188.781 374.596 189.672C374.596 190.573 374.42 191.368 374.068 192.056C373.722 192.739 373.231 193.275 372.596 193.664C371.962 194.048 371.215 194.24 370.356 194.24ZM370.356 192.664C371.183 192.664 371.799 192.387 372.204 191.832C372.615 191.272 372.82 190.552 372.82 189.672C372.82 188.771 372.612 188.051 372.196 187.512C371.786 186.968 371.172 186.696 370.356 186.696C369.796 186.696 369.335 186.824 368.972 187.08C368.61 187.331 368.34 187.68 368.164 188.128C367.988 188.571 367.9 189.085 367.9 189.672C367.9 190.579 368.108 191.304 368.524 191.848C368.94 192.392 369.551 192.664 370.356 192.664ZM383.998 194L380.654 182.48H382.406L384.83 191.192L387.254 182.488L389.014 182.48L391.438 191.192L393.862 182.48H395.622L392.27 194H390.606L388.134 185.384L385.662 194H383.998ZM400.763 194.24C399.899 194.24 399.149 194.045 398.515 193.656C397.88 193.267 397.389 192.731 397.043 192.048C396.701 191.36 396.531 190.568 396.531 189.672C396.531 188.771 396.707 187.979 397.059 187.296C397.411 186.608 397.904 186.075 398.539 185.696C399.173 185.312 399.915 185.12 400.763 185.12C401.627 185.12 402.376 185.315 403.011 185.704C403.645 186.093 404.136 186.629 404.483 187.312C404.829 187.995 405.003 188.781 405.003 189.672C405.003 190.573 404.827 191.368 404.475 192.056C404.128 192.739 403.637 193.275 403.003 193.664C402.368 194.048 401.621 194.24 400.763 194.24ZM400.763 192.664C401.589 192.664 402.205 192.387 402.611 191.832C403.021 191.272 403.227 190.552 403.227 189.672C403.227 188.771 403.019 188.051 402.603 187.512C402.192 186.968 401.579 186.696 400.763 186.696C400.203 186.696 399.741 186.824 399.379 187.08C399.016 187.331 398.747 187.68 398.571 188.128C398.395 188.571 398.307 189.085 398.307 189.672C398.307 190.579 398.515 191.304 398.931 191.848C399.347 192.392 399.957 192.664 400.763 192.664ZM407.761 194V185.36H409.249V187.456L409.041 187.184C409.147 186.907 409.286 186.653 409.457 186.424C409.627 186.189 409.825 185.997 410.049 185.848C410.267 185.688 410.51 185.565 410.777 185.48C411.049 185.389 411.326 185.336 411.609 185.32C411.891 185.299 412.163 185.312 412.425 185.36V186.928C412.142 186.853 411.827 186.832 411.481 186.864C411.139 186.896 410.825 187.005 410.537 187.192C410.265 187.368 410.049 187.581 409.889 187.832C409.734 188.083 409.622 188.363 409.553 188.672C409.483 188.976 409.449 189.299 409.449 189.64V194H407.761ZM415.108 194V182.24H416.78V194H415.108ZM423.615 194.24C422.809 194.24 422.113 194.04 421.527 193.64C420.945 193.24 420.495 192.696 420.175 192.008C419.86 191.315 419.703 190.536 419.703 189.672C419.703 188.803 419.863 188.027 420.183 187.344C420.503 186.656 420.956 186.115 421.543 185.72C422.135 185.32 422.836 185.12 423.647 185.12C424.463 185.12 425.148 185.32 425.703 185.72C426.263 186.115 426.684 186.656 426.967 187.344C427.255 188.032 427.399 188.808 427.399 189.672C427.399 190.536 427.255 191.312 426.967 192C426.679 192.688 426.255 193.235 425.695 193.64C425.135 194.04 424.441 194.24 423.615 194.24ZM423.847 192.728C424.396 192.728 424.844 192.597 425.191 192.336C425.537 192.075 425.791 191.715 425.951 191.256C426.111 190.797 426.191 190.269 426.191 189.672C426.191 189.075 426.108 188.547 425.943 188.088C425.783 187.629 425.532 187.272 425.191 187.016C424.855 186.76 424.425 186.632 423.903 186.632C423.348 186.632 422.892 186.768 422.535 187.04C422.177 187.312 421.911 187.677 421.735 188.136C421.564 188.595 421.479 189.107 421.479 189.672C421.479 190.243 421.564 190.76 421.735 191.224C421.911 191.683 422.172 192.048 422.519 192.32C422.871 192.592 423.313 192.728 423.847 192.728ZM426.191 194V187.784H425.999V182.48H427.679V194H426.191ZM431.077 186.272L431.181 185.528C431.41 185.544 431.589 185.501 431.717 185.4C431.845 185.299 431.93 185.157 431.973 184.976C432.016 184.795 432.024 184.589 431.997 184.36H431.077V182.432H432.845V184.52C432.845 185.149 432.693 185.624 432.389 185.944C432.09 186.264 431.653 186.373 431.077 186.272ZM433.541 186.272L433.645 185.528C433.874 185.544 434.053 185.501 434.181 185.4C434.309 185.299 434.394 185.157 434.437 184.976C434.48 184.795 434.488 184.589 434.461 184.36H433.541V182.432H435.309V184.52C435.309 185.149 435.157 185.624 434.853 185.944C434.554 186.264 434.117 186.373 433.541 186.272Z" fill="white"/>
<path d="M60.09 85H58.53C57.33 85 56.04 84.07 56.04 82.27V64.45H57.9C58.95 64.45 60.09 65.32 60.09 66.64V85ZM79.3738 85H78.2938C76.4938 85 75.3538 83.86 75.3538 82.36V75.94C75.3538 73.21 74.1538 72.01 72.0838 72.01C70.3438 72.01 69.1438 73.33 69.1438 75.64V85H67.9438C66.2338 85 65.1238 83.86 65.1238 82.36V75.37C65.1238 71.95 67.3738 68.44 72.4138 68.44C76.2238 68.44 79.3738 70.99 79.3738 75.58V85ZM84.4379 69.46C84.4379 67.87 84.7379 67.27 85.6079 66.25C86.1479 65.62 86.8679 65.14 87.4979 65.14H88.4279V68.8H94.0379V70.45C94.0379 71.29 93.2879 72.37 91.6379 72.37H88.4279V78.7C88.4279 80.8 89.3579 81.61 90.9779 81.61C92.2679 81.61 93.2579 81.43 93.8879 81.04H94.0379V82.48C94.0379 84.13 92.8379 85.18 90.4979 85.18C86.4179 85.18 84.4379 82.96 84.4379 79.18V69.46ZM111.096 74.71C111.096 77.68 108.846 78.64 103.506 78.64H100.866C101.166 80.68 103.026 81.97 105.396 81.97C107.076 81.97 109.056 81.64 110.346 80.44H110.496V81.7C110.496 83.77 109.086 85.36 104.646 85.36C100.626 85.36 96.6961 82.18 96.6961 77.23C96.6961 71.83 99.9961 68.44 104.616 68.44C107.976 68.44 111.096 70.84 111.096 74.71ZM107.316 74.23C107.316 72.61 106.116 71.8 104.256 71.8C102.306 71.8 100.956 73.39 100.866 75.25L100.836 75.79H102.636C106.446 75.79 107.316 75.37 107.316 74.23ZM124.505 72.73H124.355C123.755 72.49 123.065 72.25 122.015 72.25C120.215 72.25 119.225 73.24 119.225 75.7V85H118.115C116.315 85 115.175 84.1 115.175 82.42V74.98C115.175 71.74 116.885 68.65 121.145 68.65C123.635 68.65 124.505 70.06 124.505 71.29V72.73ZM140.437 79.48C140.437 82.9 137.917 85.27 134.317 85.27H133.507C129.667 85.27 127.027 83.11 127.027 80.14C127.027 77.26 129.127 75.07 135.067 75.07H136.477V74.86C136.477 72.58 135.397 71.89 132.997 71.89C130.087 71.89 128.467 73 127.867 73.75H127.717V72.46C127.717 70.66 129.337 68.5 133.597 68.5C137.197 68.5 140.437 70.18 140.437 75.76V79.48ZM136.507 79.51V77.95H135.067C132.007 77.95 131.137 78.67 131.137 79.99C131.137 81.25 132.157 82 133.927 82C135.667 82 136.507 81.16 136.507 79.51ZM157.016 74.02H156.866C156.326 73.09 154.796 72.34 152.486 72.34C150.146 72.34 148.076 74.23 148.076 76.63C148.076 79.57 149.816 81.58 152.546 81.58C154.856 81.58 156.236 80.83 156.806 80.08H156.956V81.94C156.956 83.89 155.066 85.3 152.156 85.3C147.716 85.3 143.876 81.85 143.876 77.23C143.876 72.61 147.086 68.65 152.606 68.65C155.186 68.65 157.016 70.21 157.016 72.13V74.02ZM161.069 69.46C161.069 67.87 161.369 67.27 162.239 66.25C162.779 65.62 163.499 65.14 164.129 65.14H165.059V68.8H170.669V70.45C170.669 71.29 169.919 72.37 168.269 72.37H165.059V78.7C165.059 80.8 165.989 81.61 167.609 81.61C168.899 81.61 169.889 81.43 170.519 81.04H170.669V82.48C170.669 84.13 169.469 85.18 167.129 85.18C163.049 85.18 161.069 82.96 161.069 79.18V69.46ZM178.937 65.29C178.937 66.58 177.857 67.66 176.567 67.66C175.277 67.66 174.227 66.58 174.227 65.29C174.227 64 175.277 62.95 176.567 62.95C177.857 62.95 178.937 64 178.937 65.29ZM181.817 82.72C181.817 84.46 181.127 85.15 179.417 85.15C176.297 85.15 174.587 83.38 174.587 80.11C174.587 79.18 174.587 69.16 174.587 69.16H175.727C177.527 69.16 178.607 70.12 178.607 72.16V79.72C178.607 81.34 179.297 81.85 181.067 81.85H181.817V82.72ZM198.177 70.72C198.177 71.2 197.787 73.15 196.797 75.85C195.717 78.82 193.917 82.72 192.117 85.18H191.337C190.137 85.18 189.507 84.76 188.697 83.56C186.507 80.23 183.747 73.18 183.387 68.8H185.547C186.927 68.8 187.797 69.85 187.947 70.72C188.517 73.72 189.327 76.84 191.037 80.17C192.567 77.14 193.977 72.85 194.577 68.8H196.287C197.667 68.8 198.177 69.4 198.177 70.72ZM215.215 74.71C215.215 77.68 212.965 78.64 207.625 78.64H204.985C205.285 80.68 207.145 81.97 209.515 81.97C211.195 81.97 213.175 81.64 214.465 80.44H214.615V81.7C214.615 83.77 213.205 85.36 208.765 85.36C204.745 85.36 200.815 82.18 200.815 77.23C200.815 71.83 204.115 68.44 208.735 68.44C212.095 68.44 215.215 70.84 215.215 74.71ZM211.435 74.23C211.435 72.61 210.235 71.8 208.375 71.8C206.425 71.8 205.075 73.39 204.985 75.25L204.955 75.79H206.755C210.565 75.79 211.435 75.37 211.435 74.23ZM240.474 82.21C240.474 84.01 239.574 85.18 236.184 85.18H234.594C229.764 85.18 227.094 82.48 227.094 77.56V64.45H228.774C230.454 64.45 231.324 65.41 231.324 67.45V77.29C231.324 80.41 232.044 81.55 235.134 81.55H236.184C238.134 81.55 239.724 81.1 240.474 80.8V82.21ZM257.239 74.71C257.239 77.68 254.989 78.64 249.649 78.64H247.009C247.309 80.68 249.169 81.97 251.539 81.97C253.219 81.97 255.199 81.64 256.489 80.44H256.639V81.7C256.639 83.77 255.229 85.36 250.789 85.36C246.769 85.36 242.839 82.18 242.839 77.23C242.839 71.83 246.139 68.44 250.759 68.44C254.119 68.44 257.239 70.84 257.239 74.71ZM253.459 74.23C253.459 72.61 252.259 71.8 250.399 71.8C248.449 71.8 247.099 73.39 247.009 75.25L246.979 75.79H248.779C252.589 75.79 253.459 75.37 253.459 74.23ZM274.007 79.48C274.007 82.9 271.487 85.27 267.887 85.27H267.077C263.237 85.27 260.597 83.11 260.597 80.14C260.597 77.26 262.697 75.07 268.637 75.07H270.047V74.86C270.047 72.58 268.967 71.89 266.567 71.89C263.657 71.89 262.037 73 261.437 73.75H261.287V72.46C261.287 70.66 262.907 68.5 267.167 68.5C270.767 68.5 274.007 70.18 274.007 75.76V79.48ZM270.077 79.51V77.95H268.637C265.577 77.95 264.707 78.67 264.707 79.99C264.707 81.25 265.727 82 267.497 82C269.237 82 270.077 81.16 270.077 79.51ZM287.526 72.73H287.376C286.776 72.49 286.086 72.25 285.036 72.25C283.236 72.25 282.246 73.24 282.246 75.7V85H281.136C279.336 85 278.196 84.1 278.196 82.42V74.98C278.196 71.74 279.906 68.65 284.166 68.65C286.656 68.65 287.526 70.06 287.526 71.29V72.73ZM305.018 85H303.938C302.138 85 300.998 83.86 300.998 82.36V75.94C300.998 73.21 299.798 72.01 297.728 72.01C295.988 72.01 294.788 73.33 294.788 75.64V85H293.588C291.878 85 290.768 83.86 290.768 82.36V75.37C290.768 71.95 293.018 68.44 298.058 68.44C301.868 68.44 305.018 70.99 305.018 75.58V85ZM314.792 65.29C314.792 66.58 313.712 67.66 312.422 67.66C311.132 67.66 310.082 66.58 310.082 65.29C310.082 64 311.132 62.95 312.422 62.95C313.712 62.95 314.792 64 314.792 65.29ZM317.672 82.72C317.672 84.46 316.982 85.15 315.272 85.15C312.152 85.15 310.442 83.38 310.442 80.11C310.442 79.18 310.442 69.16 310.442 69.16H311.582C313.382 69.16 314.462 70.12 314.462 72.16V79.72C314.462 81.34 315.152 81.85 316.922 81.85H317.672V82.72ZM335.173 85H334.093C332.293 85 331.153 83.86 331.153 82.36V75.94C331.153 73.21 329.953 72.01 327.883 72.01C326.143 72.01 324.943 73.33 324.943 75.64V85H323.743C322.033 85 320.923 83.86 320.923 82.36V75.37C320.923 71.95 323.173 68.44 328.213 68.44C332.023 68.44 335.173 70.99 335.173 75.58V85ZM354.247 78.28C354.247 78.82 354.277 79.75 354.307 80.47C354.337 81.13 354.367 82 354.367 82.54C354.367 86.59 351.667 90.22 346.447 90.22C343.117 90.22 340.837 88.6 340.837 86.68V84.85H341.017C341.977 85.87 343.837 86.59 346.147 86.59C349.057 86.59 350.377 85.21 350.377 82.87C350.377 82.63 350.377 82.3 350.347 82.03C350.347 81.79 350.317 81.37 350.317 81.22V80.83C349.987 82 348.457 83.23 346.147 83.23C342.217 83.23 339.427 80.5 339.427 76.69C339.427 72.13 342.427 68.44 347.647 68.44C351.667 68.44 354.247 71.38 354.247 75.52V78.28ZM347.197 72.01C345.127 72.01 343.567 73.75 343.567 76.18C343.567 78.28 344.857 79.84 346.777 79.84C348.787 79.84 350.227 78.34 350.227 75.76C350.227 73.24 348.967 72.01 347.197 72.01ZM70.14 117.16L70.11 118.6C70.08 120.25 69.24 121.15 65.64 121.15H63.45C58.44 121.15 55.8 118.39 55.8 113.14V109.33C55.8 107.38 55.95 105.19 56.19 103.54C56.52 101.08 57.66 100.45 59.34 100.45H70.08V101.83C70.08 103.27 69.21 103.99 67.32 103.99H60.27C60.06 105.49 59.97 107.5 59.97 108.79H67.89V110.26C67.89 111.61 67.05 112.15 65.4 112.15H59.97V113.35C59.97 116.92 61.14 117.61 64.32 117.61H65.64C67.14 117.61 68.67 117.49 70.14 117.16ZM88.0471 119.23C88.0471 120.37 87.1771 121.24 85.4071 121.24C83.6971 121.24 82.5271 120.28 81.1171 118.15L79.3471 115.48C78.3271 116.65 77.6671 117.55 77.2171 118.33C76.6771 119.26 76.4671 120.07 76.3171 121.06H74.4871C73.5571 121.06 72.8371 120.43 72.8371 119.62C72.8371 117.7 73.9471 116.11 75.9571 113.95L77.2771 112.54L75.5671 110.08C73.7671 107.47 72.7471 106.03 72.6871 104.8H75.0871C75.8671 104.8 76.8571 105.31 78.6571 107.86L80.3071 110.2C82.8871 107.29 83.3071 106.45 83.5771 104.83H85.1071C86.2771 104.83 86.7571 105.64 86.7571 106.54C86.7571 107.26 86.1571 108.52 84.8671 110.2C84.2071 111.07 83.3671 112.06 82.4071 113.14L84.1771 115.72C85.9171 118.27 86.6371 118.93 88.0471 119.23ZM106.798 112.42C106.798 117.61 104.218 121.36 99.5084 121.36C97.7084 121.36 96.2384 120.34 95.4284 118.96C95.4284 121.21 95.4284 126.1 95.4284 126.1H94.1684C92.7284 126.1 91.3484 125.05 91.3484 123.31V113.53C91.3484 108.16 93.7484 104.44 99.4484 104.44C103.738 104.44 106.798 108.34 106.798 112.42ZM102.658 113.47C102.658 109.66 101.398 108.01 98.8184 108.01C96.5984 108.01 95.3684 109.93 95.3684 112.72C95.3684 115.96 96.9584 117.79 99.3584 117.79C101.308 117.79 102.658 116.05 102.658 113.47ZM124.602 110.71C124.602 113.68 122.352 114.64 117.012 114.64H114.372C114.672 116.68 116.532 117.97 118.902 117.97C120.582 117.97 122.562 117.64 123.852 116.44H124.002V117.7C124.002 119.77 122.592 121.36 118.152 121.36C114.132 121.36 110.202 118.18 110.202 113.23C110.202 107.83 113.502 104.44 118.122 104.44C121.482 104.44 124.602 106.84 124.602 110.71ZM120.822 110.23C120.822 108.61 119.622 107.8 117.762 107.8C115.812 107.8 114.462 109.39 114.372 111.25L114.342 111.79H116.142C119.952 111.79 120.822 111.37 120.822 110.23ZM138.01 108.73H137.86C137.26 108.49 136.57 108.25 135.52 108.25C133.72 108.25 132.73 109.24 132.73 111.7V121H131.62C129.82 121 128.68 120.1 128.68 118.42V110.98C128.68 107.74 130.39 104.65 134.65 104.65C137.14 104.65 138.01 106.06 138.01 107.29V108.73ZM146.113 101.29C146.113 102.58 145.033 103.66 143.743 103.66C142.453 103.66 141.403 102.58 141.403 101.29C141.403 100 142.453 98.95 143.743 98.95C145.033 98.95 146.113 100 146.113 101.29ZM148.993 118.72C148.993 120.46 148.303 121.15 146.593 121.15C143.473 121.15 141.763 119.38 141.763 116.11C141.763 115.18 141.763 105.16 141.763 105.16H142.903C144.703 105.16 145.783 106.12 145.783 108.16V115.72C145.783 117.34 146.473 117.85 148.243 117.85H148.993V118.72ZM165.893 110.71C165.893 113.68 163.643 114.64 158.303 114.64H155.663C155.963 116.68 157.823 117.97 160.193 117.97C161.873 117.97 163.853 117.64 165.143 116.44H165.293V117.7C165.293 119.77 163.883 121.36 159.443 121.36C155.423 121.36 151.493 118.18 151.493 113.23C151.493 107.83 154.793 104.44 159.413 104.44C162.773 104.44 165.893 106.84 165.893 110.71ZM162.113 110.23C162.113 108.61 160.913 107.8 159.053 107.8C157.103 107.8 155.753 109.39 155.663 111.25L155.633 111.79H157.433C161.243 111.79 162.113 111.37 162.113 110.23ZM184.221 121H183.141C181.341 121 180.201 119.86 180.201 118.36V111.94C180.201 109.21 179.001 108.01 176.931 108.01C175.191 108.01 173.991 109.33 173.991 111.64V121H172.791C171.081 121 169.971 119.86 169.971 118.36V111.37C169.971 107.95 172.221 104.44 177.261 104.44C181.071 104.44 184.221 106.99 184.221 111.58V121ZM201.526 110.02H201.376C200.836 109.09 199.306 108.34 196.996 108.34C194.656 108.34 192.586 110.23 192.586 112.63C192.586 115.57 194.326 117.58 197.056 117.58C199.366 117.58 200.746 116.83 201.316 116.08H201.466V117.94C201.466 119.89 199.576 121.3 196.666 121.3C192.226 121.3 188.386 117.85 188.386 113.23C188.386 108.61 191.596 104.65 197.116 104.65C199.696 104.65 201.526 106.21 201.526 108.13V110.02ZM219.079 110.71C219.079 113.68 216.829 114.64 211.489 114.64H208.849C209.149 116.68 211.009 117.97 213.379 117.97C215.059 117.97 217.039 117.64 218.329 116.44H218.479V117.7C218.479 119.77 217.069 121.36 212.629 121.36C208.609 121.36 204.679 118.18 204.679 113.23C204.679 107.83 207.979 104.44 212.599 104.44C215.959 104.44 219.079 106.84 219.079 110.71ZM215.299 110.23C215.299 108.61 214.099 107.8 212.239 107.8C210.289 107.8 208.939 109.39 208.849 111.25L208.819 111.79H210.619C214.429 111.79 215.299 111.37 215.299 110.23Z" fill="black"/>
<rect x="432" y="110" width="70" height="70" rx="35" fill="#FFC244"/>
<rect x="437" y="115" width="60" height="60" rx="30" fill="#F2A300"/>
<path d="M471.083 137.417C471.083 135.162 469.255 133.333 467 133.333C464.745 133.333 462.917 135.162 462.917 137.417V145C462.917 147.255 464.745 149.083 467 149.083C469.255 149.083 471.083 147.255 471.083 145V137.417Z" stroke="black" stroke-width="1.5" stroke-linejoin="round"/>
<path d="M458.25 144.417C458.25 149.249 462.168 153.167 467 153.167M467 153.167C471.832 153.167 475.75 149.249 475.75 144.417M467 153.167V156.667" stroke="black" stroke-width="1.5" stroke-linecap="round" stroke-linejoin="round"/>
<path d="M72.6481 191.088C73.0591 189.071 75.9409 189.071 76.3519 191.088L77.9997 199.174C78.2814 200.556 79.9234 201.154 81.0278 200.276L87.4877 195.141C89.0989 193.86 91.3065 195.712 90.325 197.522L86.3897 204.775C85.7169 206.015 86.5906 207.528 88.0009 207.566L96.2502 207.784C98.3077 207.839 98.8082 210.677 96.8934 211.432L89.2163 214.459C87.9039 214.976 87.6005 216.697 88.6568 217.632L94.8356 223.102C96.3767 224.467 94.9357 226.962 92.9836 226.31L85.157 223.694C83.819 223.247 82.4805 224.37 82.6885 225.765L83.9057 233.927C84.2093 235.963 81.5012 236.949 80.4252 235.194L76.1112 228.159C75.3737 226.957 73.6263 226.957 72.8888 228.159L68.5748 235.194C67.4988 236.949 64.7907 235.963 65.0943 233.927L66.3115 225.765C66.5195 224.37 65.181 223.247 63.843 223.694L56.0164 226.31C54.0643 226.962 52.6233 224.467 54.1644 223.102L60.3432 217.632C61.3995 216.697 61.0961 214.976 59.7837 214.459L52.1066 211.432C50.1918 210.677 50.6923 207.839 52.7498 207.784L60.9991 207.566C62.4094 207.528 63.2831 206.015 62.6103 204.775L58.675 197.522C57.6935 195.712 59.9011 193.86 61.5123 195.141L67.9722 200.276C69.0766 201.154 70.7186 200.556 71.0003 199.174L72.6481 191.088Z" fill="#F2994A"/>
<rect x="45" y="501.634" width="67.8835" height="25.8736" rx="12.9368" transform="rotate(-26.8256 45 501.634)" fill="#F6DEAE"/>
<g clip-path="url(#clip1_459_1729)">
<path d="M492.507 177.931H492.508H500.788C503.662 177.931 504.916 174.292 502.642 172.526L486.314 159.826C486.314 159.826 486.314 159.826 486.313 159.826C484.33 158.28 481.437 159.694 481.437 162.207V182.76C481.437 185.624 485.052 186.88 486.828 184.633L491.891 178.229C491.964 178.136 492.058 178.061 492.165 178.01C492.272 177.958 492.389 177.931 492.507 177.931Z" fill="#114F3C" stroke="white" stroke-width="2.41667"/>
</g>
<rect x="497" y="182" width="44" height="26" rx="13" fill="#114F3C"/>
<path d="M513.604 191.824L514.696 190.032H516.782L513.044 196.066V200H511.154V196.066L507.388 190.032H509.53L510.636 191.838C511.532 193.331 512.031 194.171 512.134 194.358C512.386 193.91 512.876 193.065 513.604 191.824ZM522.552 196.388C522.552 197.527 522.216 198.441 521.544 199.132C520.872 199.823 519.985 200.168 518.884 200.168C517.782 200.168 516.896 199.823 516.224 199.132C515.542 198.451 515.202 197.536 515.202 196.388C515.202 195.24 515.542 194.325 516.224 193.644C516.896 192.953 517.782 192.608 518.884 192.608C519.985 192.608 520.872 192.949 521.544 193.63C522.216 194.311 522.552 195.231 522.552 196.388ZM517.498 198.11C517.834 198.511 518.296 198.712 518.884 198.712C519.472 198.712 519.929 198.511 520.256 198.11C520.592 197.699 520.76 197.125 520.76 196.388C520.76 195.651 520.592 195.081 520.256 194.68C519.929 194.269 519.472 194.064 518.884 194.064C518.296 194.064 517.834 194.265 517.498 194.666C517.171 195.067 517.008 195.641 517.008 196.388C517.008 197.135 517.171 197.709 517.498 198.11ZM528.213 196.822V192.776H529.977V200H528.269V198.95C527.718 199.762 526.962 200.168 526.001 200.168C525.226 200.168 524.61 199.944 524.153 199.496C523.705 199.039 523.481 198.395 523.481 197.564V192.776H525.245V197.27C525.245 198.185 525.697 198.642 526.603 198.642C527.051 198.642 527.429 198.483 527.737 198.166C528.054 197.839 528.213 197.391 528.213 196.822Z" fill="white"/>
<path d="M239 424.268C240.333 425.038 240.333 426.962 239 427.732L231.5 432.062C230.167 432.832 228.5 431.87 228.5 430.33V421.67C228.5 420.13 230.167 419.168 231.5 419.938L239 424.268Z" fill="white"/>
<path d="M397.326 346.307C405.068 342.908 408.59 333.877 405.192 326.134C401.794 318.392 392.762 314.87 385.019 318.268C377.277 321.666 373.755 330.698 377.153 338.44C380.551 346.183 389.583 349.705 397.326 346.307Z" stroke="#F6DEAE" stroke-width="3" stroke-miterlimit="10"/>
<path d="M436.26 0.380005C436.26 4.73201 432.732 8.25999 428.38 8.25999C424.028 8.25999 420.5 4.73201 420.5 0.380005C420.5 -3.972 424.028 -7.5 428.38 -7.5C432.732 -7.5 436.26 -3.972 436.26 0.380005Z" fill="#F6DEAE" stroke="#F6DEAE"/>
<path d="M590.239 452.01C590.239 456.362 586.711 459.89 582.359 459.89C578.007 459.89 574.479 456.362 574.479 452.01C574.479 447.658 578.007 444.13 582.359 444.13C586.711 444.13 590.239 447.658 590.239 452.01Z" fill="#F6DEAE" stroke="#F6DEAE"/>
<path d="M745.12 69.31C745.12 77.4893 738.489 84.12 730.31 84.12C722.131 84.12 715.5 77.4893 715.5 69.31C715.5 61.1307 722.131 54.5 730.31 54.5C738.489 54.5 745.12 61.1307 745.12 69.31Z" fill="#F6DEAE" stroke="#F6DEAE"/>
<path d="M80.99 357.98C86.5073 357.98 90.98 353.507 90.98 347.99C90.98 342.473 86.5073 338 80.99 338C75.4727 338 71 342.473 71 347.99C71 353.507 75.4727 357.98 80.99 357.98Z" stroke="#F6DEAE" stroke-width="2" stroke-miterlimit="10"/>
<path d="M637.579 133C641.721 133 645.079 129.642 645.079 125.5C645.079 121.358 641.721 118 637.579 118C633.437 118 630.079 121.358 630.079 125.5C630.079 129.642 633.437 133 637.579 133Z" stroke="#F6DEAE" stroke-width="2" stroke-miterlimit="10"/>
</g>
<defs>
<linearGradient id="paint0_linear_459_1729" x1="492.186" y1="334.116" x2="548.731" y2="301.47" gradientUnits="userSpaceOnUse">
<stop stop-color="white"/>
<stop offset="0.7533" stop-color="white" stop-opacity="0"/>
</linearGradient>
<clipPath id="clip0_459_1729">
<rect width="801" height="501" fill="white"/>
</clipPath>
<clipPath id="clip1_459_1729">
<rect width="29" height="29" fill="white" transform="translate(476 158)"/>
</clipPath>
</defs>
</svg>
