<svg width="335" height="400" viewBox="0 0 335 400" fill="none" xmlns="http://www.w3.org/2000/svg">
<g clip-path="url(#clip0_1169_3236)">
<rect width="335" height="403" rx="20" fill="white"/>
<path opacity="0.22" d="M346.812 390.327C346.812 327.363 295.77 276.322 232.806 276.322C169.842 276.322 118.801 327.363 118.801 390.327C118.801 402.886 120.836 414.971 124.589 426.275H341.024C344.776 414.971 346.812 402.886 346.812 390.327Z" fill="#F7CBAD"/>
<path d="M298.562 383.859H254.815C251.832 383.859 249.689 380.941 250.529 378.024L271.421 306.012C271.979 304.079 273.726 302.753 275.707 302.753H319.454C322.438 302.753 324.581 305.67 323.741 308.588L302.849 380.599C302.285 382.532 300.538 383.859 298.562 383.859Z" fill="#353434"/>
<path d="M292.541 383.859H254.437C251.453 383.859 249.31 380.941 250.151 378.024L271.043 306.012C271.601 304.079 273.348 302.753 275.329 302.753H313.433C316.416 302.753 318.56 305.67 317.719 308.588L296.827 380.599C296.263 382.532 294.522 383.859 292.541 383.859Z" fill="#FFA755"/>
<path d="M285.205 383.859H238.9C236.739 383.859 234.992 382.106 234.992 379.951C234.992 377.789 236.745 376.042 238.9 376.042H285.205C287.366 376.042 289.113 377.795 289.113 379.951C289.119 382.112 287.366 383.859 285.205 383.859Z" fill="#353434"/>
<path d="M274.147 383.253H270.208V437.806H274.147V383.253Z" fill="#353434"/>
<path d="M297.332 383.859H251.028C248.866 383.859 247.119 382.106 247.119 379.951C247.119 377.789 248.872 376.042 251.028 376.042H297.332C299.493 376.042 301.24 377.795 301.24 379.951C301.24 382.112 299.487 383.859 297.332 383.859Z" fill="#353434"/>
<path d="M250.553 288.597C250.8 290.524 250.109 292.199 249.005 292.343C247.9 292.487 246.801 291.04 246.555 289.113C246.309 287.186 246.999 285.511 248.104 285.367C249.209 285.223 250.307 286.669 250.553 288.597Z" stroke="#353434" stroke-width="0.322084" stroke-miterlimit="10"/>
<path d="M250.493 287.654L256.497 286.027" stroke="#353434" stroke-width="0.322084" stroke-miterlimit="10"/>
<path d="M253.105 278.025C253.105 278.025 243.115 281.717 250.067 298.064C250.914 300.057 253.471 300.657 255.236 299.403L262.41 294.294" fill="#FF7D7B"/>
<path d="M255.47 295.05C255.854 295.374 261.942 308.396 261.942 308.396L273.096 304.133L260.183 282.647L255.47 295.05Z" fill="#FF7D7B"/>
<path d="M247.875 289.599C247.882 289.851 247.353 291.802 247.029 292.961C246.927 293.333 247.275 293.675 247.647 293.567L249.857 292.925L247.875 289.599Z" fill="#FF7D7B"/>
<path d="M257.055 298.112L260.189 295.573L259.678 303.587L257.055 298.112Z" fill="#353434"/>
<path d="M259.757 288.711L265.184 291.226C265.184 291.226 273.871 283.572 267.663 276.728C261.456 269.884 251.058 278.439 251.058 278.439L258.31 286.904L259.757 288.711Z" fill="#353434"/>
<path d="M249.593 287.666C249.251 287.924 249.185 288.41 249.443 288.753C249.701 289.095 250.187 289.161 250.529 288.903C250.872 288.645 250.938 288.158 250.679 287.816C250.421 287.474 249.935 287.402 249.593 287.666Z" fill="#353434"/>
<path d="M249.287 294.612C249.287 294.612 250.265 294.69 250.818 293.105" stroke="#353434" stroke-width="0.40259" stroke-miterlimit="10" stroke-linecap="round" stroke-linejoin="round"/>
<path d="M249.371 284.16C249.371 284.16 250.224 283.349 251.322 283.992" stroke="#353434" stroke-width="0.40259" stroke-miterlimit="10" stroke-linecap="round" stroke-linejoin="round"/>
<path d="M251.826 288.266C252.073 290.193 251.382 291.868 250.278 292.012C249.173 292.157 248.074 290.71 247.828 288.783C247.582 286.856 248.272 285.181 249.377 285.037C250.482 284.892 251.58 286.339 251.826 288.266Z" stroke="#FDE6E3" stroke-width="0.324966" stroke-miterlimit="10"/>
<path d="M251.772 287.324L257.854 286.273" stroke="#FDE6E3" stroke-width="0.324966" stroke-miterlimit="10"/>
<path d="M257.871 286.249C257.613 288.122 258.928 289.851 260.801 290.109C262.674 290.368 264.403 289.053 264.661 287.18C264.919 285.307 263.604 283.578 261.731 283.32C259.858 283.061 258.129 284.376 257.871 286.249Z" fill="#FF7D7B"/>
<path d="M259.924 287.546C259.924 287.546 259.996 285.007 262.446 285.475" stroke="#353434" stroke-width="0.40259" stroke-miterlimit="10" stroke-linecap="round" stroke-linejoin="round"/>
<path d="M251.057 278.439C251.057 278.439 247.383 281.158 247.287 283.95L254.419 279.483L251.057 278.439Z" fill="#353434"/>
<path d="M275.013 278.851C279.245 278.497 282.389 274.778 282.035 270.546C281.681 266.314 277.963 263.17 273.73 263.524C269.498 263.878 266.354 267.596 266.708 271.829C267.062 276.061 270.78 279.205 275.013 278.851Z" fill="#353434"/>
<path d="M266.192 275.281L268.51 277.97L269.632 277.172L267.387 274.434L266.192 275.281Z" fill="#FFA755"/>
<path d="M219.881 367.704L229.223 421.759L250.685 422.035L244.868 387.809L219.881 367.704Z" fill="#C0C0BE"/>
<path d="M290.44 353.133L289.774 353.163L290.206 350.144H268.341L267.669 354.124L225.303 355.973C225.303 355.973 212.575 356.543 212.852 368.916C212.936 372.669 214.298 376.283 216.538 379.296L249.869 418.931L268.918 405.333L243.661 376.391L276.434 376.259C288.591 376.199 292.847 365.05 290.44 353.133Z" fill="white"/>
<path d="M243.649 376.403C243.649 376.403 239.735 371.342 231.234 368.994" stroke="#C0C0BE" stroke-width="0.832796" stroke-miterlimit="10"/>
<path d="M267.663 354.13H281.585" stroke="#C0C0BE" stroke-width="0.832796" stroke-miterlimit="10"/>
<path d="M236.451 340.202L265.015 306.487L279.339 318.458L249.671 351.548C246.171 355.517 239.975 355.475 236.529 351.464C233.749 348.229 233.719 343.468 236.451 340.202Z" fill="#226792"/>
<path d="M229.012 315.456L233.497 321.549L223.945 328.075L214.574 318.157L227.776 312.976L229.012 315.456Z" fill="#FF7D7B"/>
<path d="M228.346 317.119L228.1 315.042L229.012 315.456L226.155 309.729C225.921 309.254 225.59 308.822 225.158 308.516C224.162 307.813 223.369 308.12 222.655 308.048C221.466 307.922 221.832 308.276 221.814 309.476C220.565 309.494 217.996 310.053 216.585 304.554C216.285 303.377 215.06 302.656 213.884 302.951C212.101 303.395 215.192 302.572 215.108 303.377C215.102 303.413 215.108 303.443 215.108 303.479C214.682 303.083 214.076 302.903 213.475 303.053C212.731 303.239 212.221 303.863 212.143 304.584C212.131 304.68 212.131 304.776 212.137 304.872C211.86 304.8 211.56 304.782 211.26 304.86C210.516 305.046 210.005 305.67 209.927 306.391C209.903 306.595 209.921 306.799 209.969 307.009C209.987 307.081 210.011 307.153 210.029 307.225C209.999 307.231 209.969 307.231 209.933 307.237C209.189 307.423 209.153 307.753 209.081 308.474C209.057 308.678 209.075 308.882 209.123 309.092C209.513 310.653 209.897 311.277 210.48 312.442H210.474C210.474 312.442 210.486 312.466 210.504 312.496C210.78 313.048 211.08 313.547 211.392 314.003C213.187 316.873 217.702 322.486 222.835 323.759C229.661 325.44 228.346 317.119 228.346 317.119Z" fill="#FF7D7B"/>
<path d="M206.313 300.417L206.349 301.444C206.355 301.768 206.475 302.074 206.679 302.32L219.515 317.725C219.881 318.163 220.577 318.728 221.148 318.716L226.779 318.571C227.397 318.559 228.064 317.971 228.352 317.215L211.452 300.969L206.313 300.417Z" fill="#03071E"/>
<path d="M206.458 300.807L220.488 317.275C220.77 317.611 221.19 317.797 221.628 317.791L227.752 317.719C228.226 317.713 228.478 317.161 228.166 316.801L214.16 300.507C213.782 300.063 213.223 299.811 212.641 299.817L206.872 299.883C206.404 299.895 206.151 300.447 206.458 300.807Z" fill="#050C39"/>
<path d="M208.943 301.366L221.664 316.296C221.869 316.536 222.163 316.668 222.475 316.662L225.963 316.62C226.383 316.614 226.605 316.122 226.335 315.804L213.896 301.336C213.56 300.946 213.061 300.717 212.545 300.723L209.219 300.759C208.907 300.771 208.739 301.132 208.943 301.366Z" fill="#F6F3EC"/>
<path d="M223.988 308.066L220.89 307.591C219.587 307.393 218.56 308.684 219.047 309.909C219.203 310.305 219.503 310.623 219.881 310.809L225.452 313.535L224.63 309.945L223.988 308.066Z" fill="#FF7D7B"/>
<path opacity="0.49" d="M208.943 300.898L233.852 266.66L259.66 310.353L225.957 316.627L208.943 300.898Z" fill="url(#paint0_linear_1169_3236)"/>
<path d="M236.228 351.11L218.536 328.255L233.311 316.843L250.156 340.64C253.278 344.909 251.903 350.954 247.245 353.457C243.487 355.475 238.828 354.484 236.228 351.11Z" fill="#226792"/>
<path d="M259.66 310.353L258.207 306.991L271.403 298.286L274.705 305.364L259.66 310.353Z" fill="#226792"/>
<path d="M260.014 309.014C256.887 310.353 254.017 318.361 253.987 323.488C253.927 332.806 259.876 334.108 259.876 334.108L268.341 350.15H290.206L286.309 313.775C285.073 305.832 273.546 302.885 273.546 302.885L260.014 309.014Z" fill="#2C71A4"/>
<path d="M275.737 374.464C275.185 375.28 275.221 376.361 275.827 377.141C276.65 378.204 278.205 378.324 279.183 377.411L279.988 376.661C280.978 377.657 282.083 379.945 278.619 385.468C278.037 386.398 278.319 387.623 279.249 388.205C279.976 388.662 280.882 388.59 281.518 388.091C281.549 388.067 281.573 388.037 281.603 388.013C281.615 388.662 281.939 389.292 282.533 389.664C283.259 390.12 284.166 390.048 284.802 389.55C284.886 389.484 284.964 389.412 285.037 389.328C285.193 389.61 285.415 389.862 285.709 390.048C286.435 390.505 287.342 390.433 287.978 389.934C288.158 389.796 288.314 389.622 288.44 389.418C288.488 389.346 288.524 389.274 288.567 389.202C288.597 389.22 288.621 389.25 288.651 389.268C289.377 389.724 290.283 389.652 290.92 389.154C291.1 389.016 291.256 388.842 291.382 388.638C292.337 387.113 293.051 385.66 293.543 384.285H293.549C293.549 384.285 293.555 384.261 293.567 384.219C293.796 383.571 293.97 382.94 294.09 382.328C294.804 379.452 295.861 373.905 294.864 369.168L279.892 368.292L275.737 374.464Z" fill="#FF7D7B"/>
<path d="M301.912 343.24L296.737 371.672L278.373 368.31L284.82 339.872C285.907 334.697 291.322 331.677 296.299 333.472C300.303 334.919 302.68 339.049 301.912 343.24Z" fill="#2C71A4"/>
<path d="M285.583 345.803L269.734 314.543C267.447 310.035 269.23 304.518 273.726 302.2C278.355 299.811 284.04 301.738 286.267 306.451L301.18 338.023C303.479 342.789 301.036 348.487 295.999 350.102C291.935 351.41 287.534 349.591 285.583 345.803Z" fill="#2C71A4"/>
<path d="M271.667 318.355L283.866 342.417L282.54 349.928" stroke="#226792" stroke-width="0.904597" stroke-miterlimit="10"/>
<path d="M367.322 320.876H332.713C331.23 320.876 330.035 319.675 330.035 318.198V281.769C330.035 280.286 331.236 279.092 332.713 279.092H367.322C368.805 279.092 370 280.292 370 281.769V318.198C370 319.675 368.799 320.876 367.322 320.876Z" fill="#98BC6D"/>
<path d="M33.872 57H32.624C31.664 57 30.632 56.256 30.632 54.816V40.56H32.12C32.96 40.56 33.872 41.256 33.872 42.312V57ZM49.4991 57H48.6351C47.1951 57 46.2831 56.088 46.2831 54.888V49.752C46.2831 47.568 45.3231 46.608 43.6671 46.608C42.2751 46.608 41.3151 47.664 41.3151 49.512V57H40.3551C38.9871 57 38.0991 56.088 38.0991 54.888V49.296C38.0991 46.56 39.8991 43.752 43.9311 43.752C46.9791 43.752 49.4991 45.792 49.4991 49.464V57ZM53.7503 44.568C53.7503 43.296 53.9903 42.816 54.6863 42C55.1183 41.496 55.6943 41.112 56.1983 41.112H56.9423V44.04H61.4303V45.36C61.4303 46.032 60.8303 46.896 59.5103 46.896H56.9423V51.96C56.9423 53.64 57.6863 54.288 58.9823 54.288C60.0143 54.288 60.8063 54.144 61.3103 53.832H61.4303V54.984C61.4303 56.304 60.4703 57.144 58.5983 57.144C55.3343 57.144 53.7503 55.368 53.7503 52.344V44.568ZM75.2769 48.768C75.2769 51.144 73.4769 51.912 69.2049 51.912H67.0929C67.3329 53.544 68.8209 54.576 70.7169 54.576C72.0609 54.576 73.6449 54.312 74.6769 53.352H74.7969V54.36C74.7969 56.016 73.6689 57.288 70.1169 57.288C66.9009 57.288 63.7569 54.744 63.7569 50.784C63.7569 46.464 66.3969 43.752 70.0929 43.752C72.7809 43.752 75.2769 45.672 75.2769 48.768ZM72.2529 48.384C72.2529 47.088 71.2929 46.44 69.8049 46.44C68.2449 46.44 67.1649 47.712 67.0929 49.2L67.0689 49.632H68.5089C71.5569 49.632 72.2529 49.296 72.2529 48.384ZM86.2037 47.184H86.0837C85.6037 46.992 85.0517 46.8 84.2117 46.8C82.7717 46.8 81.9797 47.592 81.9797 49.56V57H81.0917C79.6517 57 78.7397 56.28 78.7397 54.936V48.984C78.7397 46.392 80.1077 43.92 83.5157 43.92C85.5077 43.92 86.2037 45.048 86.2037 46.032V47.184ZM99.1495 52.584C99.1495 55.32 97.1335 57.216 94.2535 57.216H93.6055C90.5335 57.216 88.4215 55.488 88.4215 53.112C88.4215 50.808 90.1015 49.056 94.8535 49.056H95.9815V48.888C95.9815 47.064 95.1175 46.512 93.1975 46.512C90.8695 46.512 89.5735 47.4 89.0935 48H88.9735V46.968C88.9735 45.528 90.2695 43.8 93.6775 43.8C96.5575 43.8 99.1495 45.144 99.1495 49.608V52.584ZM96.0055 52.608V51.36H94.8535C92.4055 51.36 91.7095 51.936 91.7095 52.992C91.7095 54 92.5255 54.6 93.9415 54.6C95.3335 54.6 96.0055 53.928 96.0055 52.608ZM112.613 48.216H112.493C112.061 47.472 110.837 46.872 108.989 46.872C107.117 46.872 105.461 48.384 105.461 50.304C105.461 52.656 106.853 54.264 109.037 54.264C110.885 54.264 111.989 53.664 112.445 53.064H112.565V54.552C112.565 56.112 111.053 57.24 108.725 57.24C105.173 57.24 102.101 54.48 102.101 50.784C102.101 47.088 104.669 43.92 109.085 43.92C111.149 43.92 112.613 45.168 112.613 46.704V48.216ZM116.055 44.568C116.055 43.296 116.295 42.816 116.991 42C117.423 41.496 117.999 41.112 118.503 41.112H119.247V44.04H123.735V45.36C123.735 46.032 123.135 46.896 121.815 46.896H119.247V51.96C119.247 53.64 119.991 54.288 121.287 54.288C122.319 54.288 123.111 54.144 123.615 53.832H123.735V54.984C123.735 56.304 122.775 57.144 120.903 57.144C117.639 57.144 116.055 55.368 116.055 52.344V44.568ZM130.55 41.232C130.55 42.264 129.686 43.128 128.654 43.128C127.622 43.128 126.782 42.264 126.782 41.232C126.782 40.2 127.622 39.36 128.654 39.36C129.686 39.36 130.55 40.2 130.55 41.232ZM132.854 55.176C132.854 56.568 132.302 57.12 130.934 57.12C128.438 57.12 127.07 55.704 127.07 53.088C127.07 52.344 127.07 44.328 127.07 44.328H127.982C129.422 44.328 130.286 45.096 130.286 46.728V52.776C130.286 54.072 130.838 54.48 132.254 54.48H132.854V55.176ZM146.142 45.576C146.142 45.96 145.83 47.52 145.038 49.68C144.174 52.056 142.734 55.176 141.294 57.144H140.67C139.71 57.144 139.206 56.808 138.558 55.848C136.806 53.184 134.598 47.544 134.31 44.04H136.038C137.142 44.04 137.838 44.88 137.958 45.576C138.414 47.976 139.062 50.472 140.43 53.136C141.654 50.712 142.782 47.28 143.262 44.04H144.63C145.734 44.04 146.142 44.52 146.142 45.576ZM159.972 48.768C159.972 51.144 158.172 51.912 153.9 51.912H151.788C152.028 53.544 153.516 54.576 155.412 54.576C156.756 54.576 158.34 54.312 159.372 53.352H159.492V54.36C159.492 56.016 158.364 57.288 154.812 57.288C151.596 57.288 148.452 54.744 148.452 50.784C148.452 46.464 151.092 43.752 154.788 43.752C157.476 43.752 159.972 45.672 159.972 48.768ZM156.948 48.384C156.948 47.088 155.988 46.44 154.5 46.44C152.94 46.44 151.86 47.712 151.788 49.2L151.764 49.632H153.204C156.252 49.632 156.948 49.296 156.948 48.384ZM180.579 54.768C180.579 56.208 179.859 57.144 177.147 57.144H175.875C172.011 57.144 169.875 54.984 169.875 51.048V40.56H171.219C172.563 40.56 173.259 41.328 173.259 42.96V50.832C173.259 53.328 173.835 54.24 176.307 54.24H177.147C178.707 54.24 179.979 53.88 180.579 53.64V54.768ZM194.191 48.768C194.191 51.144 192.391 51.912 188.119 51.912H186.007C186.247 53.544 187.735 54.576 189.631 54.576C190.975 54.576 192.559 54.312 193.591 53.352H193.711V54.36C193.711 56.016 192.583 57.288 189.031 57.288C185.815 57.288 182.671 54.744 182.671 50.784C182.671 46.464 185.311 43.752 189.007 43.752C191.695 43.752 194.191 45.672 194.191 48.768ZM191.167 48.384C191.167 47.088 190.207 46.44 188.719 46.44C187.159 46.44 186.079 47.712 186.007 49.2L185.983 49.632H187.423C190.471 49.632 191.167 49.296 191.167 48.384ZM207.806 52.584C207.806 55.32 205.79 57.216 202.91 57.216H202.262C199.19 57.216 197.078 55.488 197.078 53.112C197.078 50.808 198.758 49.056 203.51 49.056H204.638V48.888C204.638 47.064 203.774 46.512 201.854 46.512C199.526 46.512 198.23 47.4 197.75 48H197.63V46.968C197.63 45.528 198.926 43.8 202.334 43.8C205.214 43.8 207.806 45.144 207.806 49.608V52.584ZM204.662 52.608V51.36H203.51C201.062 51.36 200.366 51.936 200.366 52.992C200.366 54 201.182 54.6 202.598 54.6C203.99 54.6 204.662 53.928 204.662 52.608ZM218.821 47.184H218.701C218.221 46.992 217.669 46.8 216.829 46.8C215.389 46.8 214.597 47.592 214.597 49.56V57H213.709C212.269 57 211.357 56.28 211.357 54.936V48.984C211.357 46.392 212.725 43.92 216.133 43.92C218.125 43.92 218.821 45.048 218.821 46.032V47.184ZM233.015 57H232.151C230.711 57 229.799 56.088 229.799 54.888V49.752C229.799 47.568 228.839 46.608 227.183 46.608C225.791 46.608 224.831 47.664 224.831 49.512V57H223.871C222.503 57 221.615 56.088 221.615 54.888V49.296C221.615 46.56 223.415 43.752 227.447 43.752C230.495 43.752 233.015 45.792 233.015 49.464V57ZM241.034 41.232C241.034 42.264 240.17 43.128 239.138 43.128C238.106 43.128 237.266 42.264 237.266 41.232C237.266 40.2 238.106 39.36 239.138 39.36C240.17 39.36 241.034 40.2 241.034 41.232ZM243.338 55.176C243.338 56.568 242.786 57.12 241.418 57.12C238.922 57.12 237.554 55.704 237.554 53.088C237.554 52.344 237.554 44.328 237.554 44.328H238.466C239.906 44.328 240.77 45.096 240.77 46.728V52.776C240.77 54.072 241.322 54.48 242.738 54.48H243.338V55.176ZM257.538 57H256.674C255.234 57 254.322 56.088 254.322 54.888V49.752C254.322 47.568 253.362 46.608 251.706 46.608C250.314 46.608 249.354 47.664 249.354 49.512V57H248.394C247.026 57 246.138 56.088 246.138 54.888V49.296C246.138 46.56 247.938 43.752 251.97 43.752C255.018 43.752 257.538 45.792 257.538 49.464V57ZM272.997 51.624C272.997 52.056 273.021 52.8 273.045 53.376C273.069 53.904 273.093 54.6 273.093 55.032C273.093 58.272 270.933 61.176 266.757 61.176C264.093 61.176 262.269 59.88 262.269 58.344V56.88H262.413C263.181 57.696 264.669 58.272 266.517 58.272C268.845 58.272 269.901 57.168 269.901 55.296C269.901 55.104 269.901 54.84 269.877 54.624C269.877 54.432 269.853 54.096 269.853 53.976V53.664C269.589 54.6 268.365 55.584 266.517 55.584C263.373 55.584 261.141 53.4 261.141 50.352C261.141 46.704 263.541 43.752 267.717 43.752C270.933 43.752 272.997 46.104 272.997 49.416V51.624ZM267.357 46.608C265.701 46.608 264.453 48 264.453 49.944C264.453 51.624 265.485 52.872 267.021 52.872C268.629 52.872 269.781 51.672 269.781 49.608C269.781 47.592 268.773 46.608 267.357 46.608ZM41.912 82.928L41.888 84.08C41.864 85.4 41.192 86.12 38.312 86.12H36.56C32.552 86.12 30.44 83.912 30.44 79.712V76.664C30.44 75.104 30.56 73.352 30.752 72.032C31.016 70.064 31.928 69.56 33.272 69.56H41.864V70.664C41.864 71.816 41.168 72.392 39.656 72.392H34.016C33.848 73.592 33.776 75.2 33.776 76.232H40.112V77.408C40.112 78.488 39.44 78.92 38.12 78.92H33.776V79.88C33.776 82.736 34.712 83.288 37.256 83.288H38.312C39.512 83.288 40.736 83.192 41.912 82.928ZM56.4377 84.584C56.4377 85.496 55.7417 86.192 54.3257 86.192C52.9577 86.192 52.0217 85.424 50.8937 83.72L49.4777 81.584C48.6617 82.52 48.1337 83.24 47.7737 83.864C47.3417 84.608 47.1737 85.256 47.0537 86.048H45.5897C44.8457 86.048 44.2697 85.544 44.2697 84.896C44.2697 83.36 45.1577 82.088 46.7657 80.36L47.8217 79.232L46.4537 77.264C45.0137 75.176 44.1977 74.024 44.1497 73.04H46.0697C46.6937 73.04 47.4857 73.448 48.9257 75.488L50.2457 77.36C52.3097 75.032 52.6457 74.36 52.8617 73.064H54.0857C55.0217 73.064 55.4057 73.712 55.4057 74.432C55.4057 75.008 54.9257 76.016 53.8937 77.36C53.3657 78.056 52.6937 78.848 51.9257 79.712L53.3417 81.776C54.7337 83.816 55.3097 84.344 56.4377 84.584ZM71.6388 79.136C71.6388 83.288 69.5748 86.288 65.8068 86.288C64.3668 86.288 63.1908 85.472 62.5428 84.368C62.5428 86.168 62.5428 90.08 62.5428 90.08H61.5348C60.3828 90.08 59.2788 89.24 59.2788 87.848V80.024C59.2788 75.728 61.1988 72.752 65.7588 72.752C69.1908 72.752 71.6388 75.872 71.6388 79.136ZM68.3268 79.976C68.3268 76.928 67.3188 75.608 65.2548 75.608C63.4788 75.608 62.4948 77.144 62.4948 79.376C62.4948 81.968 63.7668 83.432 65.6868 83.432C67.2468 83.432 68.3268 82.04 68.3268 79.976ZM86.0816 77.768C86.0816 80.144 84.2816 80.912 80.0096 80.912H77.8976C78.1376 82.544 79.6256 83.576 81.5216 83.576C82.8656 83.576 84.4496 83.312 85.4816 82.352H85.6016V83.36C85.6016 85.016 84.4736 86.288 80.9216 86.288C77.7056 86.288 74.5616 83.744 74.5616 79.784C74.5616 75.464 77.2016 72.752 80.8976 72.752C83.5856 72.752 86.0816 74.672 86.0816 77.768ZM83.0576 77.384C83.0576 76.088 82.0976 75.44 80.6096 75.44C79.0496 75.44 77.9696 76.712 77.8976 78.2L77.8736 78.632H79.3136C82.3616 78.632 83.0576 78.296 83.0576 77.384ZM97.0084 76.184H96.8884C96.4084 75.992 95.8564 75.8 95.0164 75.8C93.5764 75.8 92.7844 76.592 92.7844 78.56V86H91.8964C90.4564 86 89.5444 85.28 89.5444 83.936V77.984C89.5444 75.392 90.9124 72.92 94.3204 72.92C96.3124 72.92 97.0084 74.048 97.0084 75.032V76.184ZM103.69 70.232C103.69 71.264 102.826 72.128 101.794 72.128C100.762 72.128 99.9222 71.264 99.9222 70.232C99.9222 69.2 100.762 68.36 101.794 68.36C102.826 68.36 103.69 69.2 103.69 70.232ZM105.994 84.176C105.994 85.568 105.442 86.12 104.074 86.12C101.578 86.12 100.21 84.704 100.21 82.088C100.21 81.344 100.21 73.328 100.21 73.328H101.122C102.562 73.328 103.426 74.096 103.426 75.728V81.776C103.426 83.072 103.978 83.48 105.394 83.48H105.994V84.176ZM119.714 77.768C119.714 80.144 117.914 80.912 113.642 80.912H111.53C111.77 82.544 113.258 83.576 115.154 83.576C116.498 83.576 118.082 83.312 119.114 82.352H119.234V83.36C119.234 85.016 118.106 86.288 114.554 86.288C111.338 86.288 108.194 83.744 108.194 79.784C108.194 75.464 110.834 72.752 114.53 72.752C117.218 72.752 119.714 74.672 119.714 77.768ZM116.69 77.384C116.69 76.088 115.73 75.44 114.242 75.44C112.682 75.44 111.602 76.712 111.53 78.2L111.506 78.632H112.946C115.994 78.632 116.69 78.296 116.69 77.384ZM134.577 86H133.713C132.273 86 131.361 85.088 131.361 83.888V78.752C131.361 76.568 130.401 75.608 128.745 75.608C127.353 75.608 126.393 76.664 126.393 78.512V86H125.433C124.065 86 123.177 85.088 123.177 83.888V78.296C123.177 75.56 124.977 72.752 129.009 72.752C132.057 72.752 134.577 74.792 134.577 78.464V86ZM148.62 77.216H148.5C148.068 76.472 146.844 75.872 144.996 75.872C143.124 75.872 141.468 77.384 141.468 79.304C141.468 81.656 142.86 83.264 145.044 83.264C146.892 83.264 147.996 82.664 148.452 82.064H148.572V83.552C148.572 85.112 147.06 86.24 144.732 86.24C141.18 86.24 138.108 83.48 138.108 79.784C138.108 76.088 140.676 72.92 145.092 72.92C147.156 72.92 148.62 74.168 148.62 75.704V77.216ZM162.863 77.768C162.863 80.144 161.063 80.912 156.791 80.912H154.679C154.919 82.544 156.407 83.576 158.303 83.576C159.647 83.576 161.231 83.312 162.263 82.352H162.383V83.36C162.383 85.016 161.255 86.288 157.703 86.288C154.487 86.288 151.343 83.744 151.343 79.784C151.343 75.464 153.983 72.752 157.679 72.752C160.367 72.752 162.863 74.672 162.863 77.768ZM159.839 77.384C159.839 76.088 158.879 75.44 157.391 75.44C155.831 75.44 154.751 76.712 154.679 78.2L154.655 78.632H156.095C159.143 78.632 159.839 78.296 159.839 77.384Z" fill="black"/>
<path d="M44.799 143.456C45.0457 142.245 46.7759 142.245 47.0226 143.456L48.0119 148.31C48.181 149.14 49.1667 149.499 49.8297 148.972L53.7079 145.889C54.6751 145.12 56.0005 146.232 55.4112 147.318L53.0487 151.673C52.6448 152.417 53.1693 153.326 54.016 153.348L58.9684 153.479C60.2036 153.512 60.504 155.216 59.3545 155.669L54.7456 157.486C53.9577 157.797 53.7756 158.83 54.4097 159.392L58.1191 162.675C59.0443 163.495 58.1793 164.993 57.0073 164.601L52.3087 163.031C51.5054 162.762 50.7018 163.437 50.8267 164.274L51.5575 169.174C51.7397 170.396 50.1139 170.988 49.468 169.935L46.8781 165.711C46.4353 164.989 45.3863 164.989 44.9435 165.711L42.3536 169.935C41.7077 170.988 40.0819 170.396 40.2642 169.174L40.9949 164.274C41.1198 163.437 40.3162 162.762 39.5129 163.031L34.8143 164.601C33.6423 164.993 32.7773 163.495 33.7025 162.675L37.4119 159.392C38.046 158.83 37.8639 157.797 37.076 157.486L32.4671 155.669C31.3176 155.216 31.618 153.512 32.8532 153.479L37.8057 153.348C38.6523 153.326 39.1768 152.417 38.7729 151.673L36.4104 147.318C35.8211 146.232 37.1465 145.12 38.1137 145.889L41.9919 148.972C42.6549 149.499 43.6406 149.14 43.8098 148.31L44.799 143.456Z" fill="#F2994A"/>
<rect x="-25" y="404.634" width="67.8835" height="25.8736" rx="12.9368" transform="rotate(-26.8256 -25 404.634)" fill="#F6DEAE"/>
<path d="M47 199.171H154.822" stroke="#FCFCF2" stroke-width="0.679528" stroke-miterlimit="10" stroke-linecap="round" stroke-linejoin="round"/>
<path d="M151.928 333.011H49.8937C48.2967 333.011 47 331.714 47 330.117V187.53C47 185.933 48.2967 184.636 49.8937 184.636H151.928C153.525 184.636 154.822 185.933 154.822 187.53V330.117C154.822 331.714 153.525 333.011 151.928 333.011Z" stroke="#FCFCF2" stroke-width="0.679528" stroke-miterlimit="10" stroke-linecap="round" stroke-linejoin="round"/>
<path d="M61.1921 192.051C61.1921 193.173 60.2856 194.08 59.1629 194.08C58.0403 194.08 57.1338 193.173 57.1338 192.051C57.1338 190.928 58.0403 190.021 59.1629 190.021C60.2796 190.021 61.1921 190.928 61.1921 192.051Z" stroke="#FCFCF2" stroke-width="0.679528" stroke-miterlimit="10" stroke-linecap="round" stroke-linejoin="round"/>
<path d="M69.0744 192.051C69.0744 193.173 68.1679 194.08 67.0453 194.08C65.9226 194.08 65.0161 193.173 65.0161 192.051C65.0161 190.928 65.9226 190.021 67.0453 190.021C68.1679 190.021 69.0744 190.928 69.0744 192.051Z" stroke="#FCFCF2" stroke-width="0.679528" stroke-miterlimit="10" stroke-linecap="round" stroke-linejoin="round"/>
<path d="M76.9568 192.051C76.9568 193.173 76.0502 194.08 74.9276 194.08C73.805 194.08 72.8984 193.173 72.8984 192.051C72.8984 190.928 73.805 190.021 74.9276 190.021C76.0502 190.021 76.9568 190.928 76.9568 192.051Z" stroke="#FCFCF2" stroke-width="0.679528" stroke-miterlimit="10" stroke-linecap="round" stroke-linejoin="round"/>
<path d="M172.808 349.299H70.7794C69.1825 349.299 67.8857 348.002 67.8857 346.405V211.406C67.8857 209.809 69.1825 208.512 70.7794 208.512H172.814C174.411 208.512 175.707 209.809 175.707 211.406V346.405C175.707 348.002 174.411 349.299 172.808 349.299Z" fill="#98BC6D"/>
<mask id="mask0_1169_3236" style="mask-type:luminance" maskUnits="userSpaceOnUse" x="67" y="208" width="109" height="142">
<path d="M172.808 349.299H70.7794C69.1825 349.299 67.8857 348.002 67.8857 346.405V211.406C67.8857 209.809 69.1825 208.512 70.7794 208.512H172.814C174.411 208.512 175.707 209.809 175.707 211.406V346.405C175.707 348.002 174.411 349.299 172.808 349.299Z" fill="white"/>
</mask>
<g mask="url(#mask0_1169_3236)">
<path d="M129.031 293.118L146.285 327.782C148.212 331.654 152.679 333.672 156.923 332.585C162.092 331.258 164.932 325.891 163.071 320.974L149.461 285.02L129.031 293.118Z" fill="#FF7D7B"/>
<path d="M126.234 286.4L131.109 301.499L155.975 290.939L148.543 277.041C146.075 272.322 141.074 270.047 134.693 270.227L135.569 270.737C128.371 272.07 123.982 279.43 126.234 286.4Z" fill="white"/>
<path d="M134.693 270.227L100.587 270.215C95.5563 270.215 99.7347 274.022 99.2064 279.022L93.9414 348.146L149.653 343.553L144.484 279.196C144.034 274.118 139.784 270.227 134.693 270.227Z" fill="white"/>
<path d="M145.775 295.268L144.886 284.215" stroke="#C0C0BE" stroke-width="0.832796" stroke-miterlimit="10"/>
<path d="M84.9064 284.654L76.0213 322.337C75.0308 326.545 77.174 330.958 81.1302 332.825C85.951 335.106 91.5702 332.795 93.2812 327.824L105.792 291.473L84.9064 284.654Z" fill="#FF7D7B"/>
<path d="M87.0432 277.702L81.1418 292.428L107.407 297.693L110.18 284.762C111.297 279.551 108.89 274.226 104.237 271.62C97.8434 268.048 89.7688 270.906 87.0432 277.702Z" fill="white"/>
<path d="M103.895 296.991L107.605 285.86" stroke="#C0C0BE" stroke-width="0.832796" stroke-miterlimit="10"/>
<path d="M132.579 246.7C132.483 249.413 134.608 251.689 137.322 251.785C140.036 251.881 142.311 249.756 142.407 247.042C142.503 244.328 140.378 242.053 137.664 241.957C134.945 241.861 132.669 243.986 132.579 246.7Z" fill="#EB6462"/>
<path d="M131.492 254.306L131.138 271.83C131.006 276.759 127.614 277.011 122.769 276.843C118.633 276.699 115.133 275.366 114.761 271.242L114.497 252.283L131.492 254.306Z" fill="#FF7D7B"/>
<path d="M131.21 268.522L118.393 258.208L131.421 258.497L131.21 268.522Z" fill="#353434"/>
<path d="M123.07 261.018L129.944 261.258C135.101 261.438 139.387 257.308 139.393 252.145L139.417 239.472C139.429 233 134.302 227.687 127.837 227.465C121.215 227.237 114.503 232.376 114.275 238.997L114.497 252.283C114.569 257.014 118.339 260.856 123.07 261.018Z" fill="#FF7D7B"/>
<path d="M118.693 228.017C115.541 230.581 111.237 231.829 110.673 236.692C110.108 241.513 111.855 248.369 115.806 246.28C115.806 246.28 122.998 246.664 120.482 237.028C120.482 237.028 122.487 233.486 128.857 235.185" fill="#353434"/>
<path d="M133.359 251.046C133.353 251.046 133.353 251.046 133.347 251.046L131.774 250.992C131.6 250.986 131.462 250.836 131.468 250.662C131.474 250.488 131.636 250.368 131.798 250.356L133.017 250.398L132.861 248.177C132.849 248.003 132.981 247.847 133.155 247.834C133.311 247.822 133.485 247.955 133.497 248.129L133.677 250.704C133.683 250.794 133.653 250.884 133.587 250.95C133.533 251.01 133.449 251.046 133.359 251.046Z" fill="#353434"/>
<path d="M135.113 246.238C135.095 246.808 135.539 247.282 136.103 247.3C136.673 247.318 137.148 246.874 137.166 246.31C137.184 245.739 136.74 245.265 136.175 245.247C135.605 245.229 135.131 245.673 135.113 246.238Z" fill="#353434"/>
<path d="M126.798 245.955C126.78 246.526 127.224 247 127.788 247.018C128.359 247.036 128.833 246.592 128.851 246.027C128.869 245.457 128.425 244.983 127.86 244.965C127.296 244.947 126.816 245.385 126.798 245.955Z" fill="#353434"/>
<path d="M127.284 239.856C127.284 239.856 129.949 239.544 129.961 240.967C129.961 240.967 129.949 241.933 127.626 242.143C125.303 242.353 124.702 242.137 124.498 241.231C124.294 240.33 126.035 239.874 127.284 239.856Z" fill="#353434"/>
<path d="M136.859 240.108C136.859 240.108 134.662 239.826 134.47 241.165C134.47 241.165 134.356 242.071 136.277 242.257C138.198 242.443 138.829 242.119 139.015 241.387C139.237 240.558 137.904 240.12 136.859 240.108Z" fill="#353434"/>
<path d="M134.548 252.487H127.41C127.41 252.487 127.818 255.531 131.841 255.045C134.542 254.714 134.548 252.487 134.548 252.487Z" fill="white"/>
<path d="M133.438 270.215L111.237 270.221C111.237 270.221 112.678 280.121 126.48 279.317C128.281 279.208 130.088 278.884 131.703 278.092C134.212 276.867 136.512 274.604 133.438 270.215Z" fill="#FF7D7B"/>
<path d="M110.409 242.798C110.409 242.798 107.977 227.459 119.798 223.533C131.619 219.612 140.174 228.377 140.714 235.185C140.714 235.185 130.88 228.546 110.409 242.798Z" fill="#F2A300"/>
<path d="M110.409 242.798C110.409 242.798 131.277 228.852 145.463 228.972C145.463 228.972 151.16 229.434 147.18 232.892C143.2 236.35 139.075 236.62 139.075 236.62C139.075 236.62 137.166 233.576 127.225 236.098C118.057 238.427 110.409 242.798 110.409 242.798Z" fill="#353434"/>
<path d="M112.666 249.684L114.557 256.389L115.758 248.399L112.666 249.684Z" fill="#353434"/>
<path d="M108.097 246.106C108.001 248.819 110.126 251.094 112.84 251.19C115.553 251.287 117.829 249.161 117.925 246.448C118.021 243.734 115.896 241.459 113.182 241.363C110.468 241.267 108.193 243.392 108.097 246.106Z" fill="#FF7D7B"/>
<path d="M114.683 248.117C114.677 248.117 114.677 248.117 114.671 248.117C114.497 248.111 114.359 247.961 114.359 247.787C114.359 247.774 114.395 246.298 113.506 245.493C113.014 245.049 112.312 244.881 111.417 244.995C111.249 245.019 111.081 244.893 111.057 244.719C111.033 244.545 111.159 244.383 111.333 244.359C112.42 244.22 113.296 244.443 113.939 245.025C115.043 246.034 115.001 247.738 114.995 247.811C114.995 247.979 114.851 248.117 114.683 248.117Z" fill="#353434"/>
</g>
<mask id="mask1_1169_3236" style="mask-type:luminance" maskUnits="userSpaceOnUse" x="67" y="208" width="109" height="142">
<path d="M172.808 349.299H70.7794C69.1825 349.299 67.8857 348.002 67.8857 346.405V211.406C67.8857 209.809 69.1825 208.512 70.7794 208.512H172.814C174.411 208.512 175.707 209.809 175.707 211.406V346.405C175.707 348.002 174.411 349.299 172.808 349.299Z" fill="white"/>
</mask>
<g mask="url(#mask1_1169_3236)">
<path d="M186.886 322.913H54.9485V361.401H186.886V322.913Z" fill="#353434"/>
<path d="M124.228 344.238C128.903 344.238 132.693 340.448 132.693 335.773C132.693 331.098 128.903 327.308 124.228 327.308C119.553 327.308 115.763 331.098 115.763 335.773C115.763 340.448 119.553 344.238 124.228 344.238Z" fill="#FD565D"/>
<path d="M121.598 332.975L127.037 338.414" stroke="white" stroke-width="0.913722" stroke-miterlimit="10"/>
<path d="M127.037 332.975L121.598 338.414" stroke="white" stroke-width="0.913722" stroke-miterlimit="10"/>
</g>
<mask id="mask2_1169_3236" style="mask-type:luminance" maskUnits="userSpaceOnUse" x="67" y="208" width="109" height="142">
<path d="M172.808 349.299H70.7794C69.1825 349.299 67.8857 348.002 67.8857 346.405V211.406C67.8857 209.809 69.1825 208.512 70.7794 208.512H172.814C174.411 208.512 175.707 209.809 175.707 211.406V346.405C175.707 348.002 174.411 349.299 172.808 349.299Z" fill="white"/>
</mask>
<g mask="url(#mask2_1169_3236)">
<circle cx="124.444" cy="335.923" r="6.00343" fill="#FD565D"/>
</g>
<path d="M126.97 333.832C128.121 334.497 128.121 336.159 126.97 336.824L124.379 338.32C123.227 338.985 121.788 338.154 121.788 336.824V333.832C121.788 332.503 123.227 331.672 124.379 332.337L126.97 333.832Z" fill="white"/>
<path d="M336.3 15.7679C341.682 13.4057 344.13 7.12754 341.768 1.74534C339.406 -3.63687 333.128 -6.08502 327.745 -3.72278C322.363 -1.36053 319.915 4.91758 322.277 10.2998C324.639 15.682 330.918 18.1302 336.3 15.7679Z" stroke="#F6DEAE" stroke-width="2.0854" stroke-miterlimit="10"/>
<path d="M208.303 0.825229C208.303 3.85046 205.85 6.30288 202.825 6.30288C199.8 6.30288 197.348 3.85046 197.348 0.825229C197.348 -2.2 199.8 -4.65243 202.825 -4.65243C205.85 -4.65243 208.303 -2.2 208.303 0.825229Z" fill="#F6DEAE" stroke="#F6DEAE" stroke-width="0.695134"/>
<path d="M344.937 103.643C344.937 109.328 340.328 113.937 334.643 113.937C328.957 113.937 324.348 109.328 324.348 103.643C324.348 97.9568 328.957 93.3476 334.643 93.3476C340.328 93.3476 344.937 97.9568 344.937 103.643Z" fill="#F6DEAE" stroke="#F6DEAE" stroke-width="0.695134"/>
<path d="M50.9444 377.889C54.7797 377.889 57.8888 374.78 57.8888 370.944C57.8888 367.109 54.7797 364 50.9444 364C47.1091 364 44 367.109 44 370.944C44 374.78 47.1091 377.889 50.9444 377.889Z" stroke="#F6DEAE" stroke-width="1.39027" stroke-miterlimit="10"/>
<path d="M220.775 257.551C223.262 257.551 225.278 255.535 225.278 253.048C225.278 250.561 223.262 248.545 220.775 248.545C218.288 248.545 216.272 250.561 216.272 253.048C216.272 255.535 218.288 257.551 220.775 257.551Z" stroke="#F6DEAE" stroke-width="1.20069" stroke-miterlimit="10"/>
<rect x="146.667" y="183.238" width="101.604" height="34.054" rx="2.79131" fill="#F2A300"/>
<path d="M146.68 211.069C146.688 210.209 147.623 209.68 148.363 210.116L157.528 215.514C158.269 215.95 158.26 217.024 157.512 217.448L148.255 222.686C147.507 223.109 146.581 222.564 146.588 221.705L146.68 211.069Z" fill="#F2A300"/>
<path d="M159.529 203.746C159.067 203.746 158.65 203.668 158.278 203.51C157.909 203.349 157.604 203.121 157.363 202.826C157.124 202.529 156.97 202.176 156.898 201.768L157.872 201.621C157.97 202.014 158.175 202.32 158.488 202.541C158.801 202.758 159.165 202.867 159.582 202.867C159.841 202.867 160.079 202.826 160.297 202.746C160.514 202.663 160.688 202.545 160.819 202.393C160.953 202.238 161.02 202.054 161.02 201.839C161.02 201.723 160.999 201.621 160.958 201.531C160.919 201.442 160.864 201.364 160.793 201.299C160.724 201.231 160.639 201.172 160.538 201.125C160.44 201.074 160.331 201.031 160.212 200.995L158.564 200.508C158.403 200.461 158.239 200.4 158.073 200.325C157.906 200.248 157.753 200.148 157.613 200.026C157.476 199.901 157.364 199.748 157.278 199.566C157.191 199.382 157.148 199.158 157.148 198.896C157.148 198.5 157.249 198.165 157.452 197.891C157.657 197.614 157.934 197.406 158.283 197.266C158.631 197.123 159.021 197.052 159.453 197.052C159.887 197.058 160.276 197.135 160.618 197.284C160.964 197.433 161.25 197.647 161.476 197.927C161.705 198.204 161.863 198.54 161.949 198.936L160.949 199.106C160.904 198.865 160.809 198.658 160.663 198.485C160.517 198.31 160.338 198.176 160.127 198.083C159.916 197.988 159.686 197.939 159.439 197.936C159.201 197.93 158.982 197.966 158.783 198.043C158.586 198.121 158.428 198.229 158.309 198.369C158.193 198.509 158.135 198.67 158.135 198.852C158.135 199.03 158.187 199.175 158.292 199.285C158.396 199.395 158.524 199.483 158.676 199.548C158.83 199.611 158.984 199.663 159.136 199.705L160.324 200.04C160.472 200.081 160.641 200.138 160.828 200.209C161.019 200.278 161.202 200.375 161.378 200.5C161.556 200.625 161.704 200.791 161.82 201C161.936 201.205 161.994 201.464 161.994 201.777C161.994 202.101 161.928 202.387 161.797 202.634C161.666 202.878 161.486 203.084 161.257 203.251C161.031 203.414 160.769 203.538 160.471 203.621C160.173 203.705 159.859 203.746 159.529 203.746ZM164.866 203.746C164.509 203.746 164.21 203.681 163.968 203.55C163.727 203.416 163.544 203.24 163.419 203.023C163.297 202.803 163.236 202.561 163.236 202.299C163.236 202.055 163.279 201.841 163.366 201.656C163.452 201.472 163.58 201.315 163.75 201.187C163.919 201.056 164.128 200.951 164.375 200.87C164.589 200.808 164.832 200.753 165.103 200.705C165.374 200.657 165.658 200.613 165.956 200.571C166.257 200.529 166.554 200.488 166.849 200.446L166.51 200.634C166.516 200.255 166.435 199.976 166.268 199.794C166.105 199.609 165.822 199.517 165.42 199.517C165.167 199.517 164.935 199.577 164.723 199.696C164.512 199.812 164.364 200.005 164.281 200.276L163.41 200.008C163.529 199.594 163.756 199.265 164.089 199.021C164.425 198.777 164.872 198.655 165.429 198.655C165.861 198.655 166.236 198.729 166.554 198.878C166.876 199.024 167.111 199.256 167.26 199.575C167.337 199.733 167.385 199.9 167.403 200.075C167.421 200.251 167.43 200.44 167.43 200.642V203.612H166.603V202.509L166.764 202.652C166.565 203.021 166.31 203.297 166.001 203.478C165.694 203.657 165.316 203.746 164.866 203.746ZM165.031 202.983C165.296 202.983 165.524 202.937 165.715 202.844C165.905 202.749 166.059 202.628 166.175 202.483C166.291 202.337 166.367 202.185 166.402 202.027C166.453 201.884 166.481 201.723 166.487 201.545C166.496 201.366 166.501 201.223 166.501 201.116L166.804 201.228C166.51 201.272 166.242 201.312 166.001 201.348C165.759 201.384 165.541 201.42 165.344 201.455C165.15 201.488 164.978 201.528 164.826 201.576C164.698 201.621 164.583 201.674 164.482 201.737C164.384 201.799 164.305 201.875 164.245 201.964C164.189 202.054 164.16 202.162 164.16 202.29C164.16 202.416 164.192 202.532 164.254 202.639C164.317 202.743 164.412 202.826 164.54 202.889C164.668 202.951 164.832 202.983 165.031 202.983ZM169.529 205.756L170.463 203.215L170.476 203.965L168.373 198.789H169.346L170.918 202.786H170.632L172.133 198.789H173.08L170.418 205.756H169.529ZM179.136 197.159L179.082 197.574C178.951 197.565 178.85 197.589 178.779 197.646C178.707 197.702 178.66 197.781 178.636 197.882C178.612 197.984 178.608 198.098 178.622 198.226H179.136V199.303H178.149V198.137C178.149 197.786 178.232 197.521 178.399 197.342C178.569 197.16 178.815 197.099 179.136 197.159ZM177.761 197.159L177.707 197.574C177.576 197.565 177.475 197.589 177.403 197.646C177.332 197.702 177.284 197.781 177.26 197.882C177.237 197.984 177.232 198.098 177.247 198.226H177.761V199.303H176.774V198.137C176.774 197.786 176.857 197.521 177.024 197.342C177.193 197.16 177.439 197.099 177.761 197.159ZM181.037 203.612V197.181H181.97V199.955H185.186V197.181H186.124V203.612H185.186V200.835H181.97V203.612H181.037ZM190.076 203.746C189.597 203.746 189.175 203.642 188.812 203.434C188.452 203.222 188.17 202.929 187.968 202.554C187.768 202.176 187.669 201.738 187.669 201.241C187.669 200.714 187.767 200.257 187.963 199.87C188.163 199.483 188.44 199.184 188.794 198.972C189.148 198.761 189.561 198.655 190.031 198.655C190.523 198.655 190.941 198.77 191.286 198.999C191.632 199.225 191.889 199.548 192.059 199.968C192.232 200.388 192.3 200.887 192.264 201.464H191.331V201.125C191.325 200.565 191.218 200.151 191.009 199.883C190.804 199.615 190.49 199.481 190.067 199.481C189.6 199.481 189.248 199.629 189.013 199.923C188.778 200.218 188.66 200.644 188.66 201.201C188.66 201.731 188.778 202.142 189.013 202.433C189.248 202.722 189.588 202.867 190.031 202.867C190.323 202.867 190.575 202.801 190.786 202.67C191 202.536 191.167 202.346 191.286 202.098L192.202 202.389C192.014 202.82 191.73 203.155 191.349 203.394C190.968 203.629 190.543 203.746 190.076 203.746ZM188.356 201.464V200.736H191.8V201.464H188.356ZM193.914 203.612V197.047H194.847V203.612H193.914ZM196.836 203.612V197.047H197.77V203.612H196.836ZM201.764 203.746C201.281 203.746 200.863 203.638 200.509 203.42C200.154 203.203 199.88 202.904 199.687 202.523C199.496 202.139 199.401 201.696 199.401 201.196C199.401 200.693 199.499 200.251 199.696 199.87C199.892 199.486 200.168 199.188 200.522 198.977C200.876 198.762 201.29 198.655 201.764 198.655C202.246 198.655 202.664 198.764 203.019 198.981C203.373 199.198 203.647 199.498 203.84 199.879C204.034 200.26 204.131 200.699 204.131 201.196C204.131 201.699 204.032 202.143 203.836 202.527C203.642 202.908 203.368 203.208 203.014 203.425C202.66 203.639 202.243 203.746 201.764 203.746ZM201.764 202.867C202.225 202.867 202.569 202.712 202.795 202.402C203.024 202.089 203.139 201.688 203.139 201.196C203.139 200.693 203.023 200.291 202.791 199.99C202.561 199.687 202.219 199.535 201.764 199.535C201.451 199.535 201.193 199.606 200.991 199.749C200.788 199.889 200.638 200.084 200.54 200.334C200.442 200.581 200.392 200.869 200.392 201.196C200.392 201.702 200.509 202.107 200.741 202.411C200.973 202.715 201.314 202.867 201.764 202.867ZM209.379 203.612L207.512 197.181H208.49L209.843 202.045L211.197 197.186L212.179 197.181L213.532 202.045L214.886 197.181H215.868L213.997 203.612H213.068L211.688 198.802L210.308 203.612H209.379ZM218.738 203.746C218.256 203.746 217.838 203.638 217.483 203.42C217.129 203.203 216.855 202.904 216.661 202.523C216.471 202.139 216.376 201.696 216.376 201.196C216.376 200.693 216.474 200.251 216.67 199.87C216.867 199.486 217.142 199.188 217.497 198.977C217.851 198.762 218.265 198.655 218.738 198.655C219.221 198.655 219.639 198.764 219.993 198.981C220.347 199.198 220.621 199.498 220.815 199.879C221.008 200.26 221.105 200.699 221.105 201.196C221.105 201.699 221.007 202.143 220.81 202.527C220.617 202.908 220.343 203.208 219.989 203.425C219.634 203.639 219.218 203.746 218.738 203.746ZM218.738 202.867C219.2 202.867 219.544 202.712 219.77 202.402C219.999 202.089 220.114 201.688 220.114 201.196C220.114 200.693 219.998 200.291 219.765 199.99C219.536 199.687 219.194 199.535 218.738 199.535C218.426 199.535 218.168 199.606 217.966 199.749C217.763 199.889 217.613 200.084 217.514 200.334C217.416 200.581 217.367 200.869 217.367 201.196C217.367 201.702 217.483 202.107 217.715 202.411C217.948 202.715 218.289 202.867 218.738 202.867ZM222.645 203.612V198.789H223.476V199.959L223.36 199.807C223.419 199.652 223.496 199.511 223.592 199.383C223.687 199.252 223.797 199.145 223.922 199.061C224.044 198.972 224.18 198.904 224.329 198.856C224.481 198.805 224.635 198.776 224.793 198.767C224.951 198.755 225.103 198.762 225.249 198.789V199.664C225.091 199.623 224.915 199.611 224.722 199.629C224.531 199.647 224.355 199.708 224.195 199.812C224.043 199.91 223.922 200.029 223.833 200.169C223.747 200.309 223.684 200.465 223.645 200.638C223.607 200.808 223.587 200.988 223.587 201.178V203.612H222.645ZM226.747 203.612V197.047H227.68V203.612H226.747ZM231.496 203.746C231.046 203.746 230.657 203.635 230.33 203.411C230.005 203.188 229.754 202.884 229.575 202.5C229.399 202.113 229.312 201.679 229.312 201.196C229.312 200.711 229.401 200.278 229.58 199.897C229.758 199.513 230.011 199.21 230.339 198.99C230.669 198.767 231.061 198.655 231.513 198.655C231.969 198.655 232.352 198.767 232.661 198.99C232.974 199.21 233.209 199.513 233.367 199.897C233.528 200.281 233.608 200.714 233.608 201.196C233.608 201.679 233.528 202.112 233.367 202.496C233.206 202.88 232.969 203.185 232.657 203.411C232.344 203.635 231.957 203.746 231.496 203.746ZM231.625 202.902C231.932 202.902 232.182 202.829 232.375 202.683C232.569 202.538 232.71 202.337 232.8 202.081C232.889 201.824 232.934 201.53 232.934 201.196C232.934 200.863 232.887 200.568 232.795 200.312C232.706 200.056 232.566 199.856 232.375 199.714C232.188 199.571 231.948 199.499 231.656 199.499C231.347 199.499 231.092 199.575 230.893 199.727C230.693 199.879 230.544 200.083 230.446 200.339C230.351 200.595 230.303 200.881 230.303 201.196C230.303 201.515 230.351 201.804 230.446 202.063C230.544 202.319 230.69 202.523 230.884 202.675C231.08 202.826 231.327 202.902 231.625 202.902ZM232.934 203.612V200.142H232.826V197.181H233.764V203.612H232.934ZM235.662 199.298L235.72 198.883C235.848 198.892 235.947 198.868 236.019 198.811C236.09 198.755 236.138 198.676 236.162 198.575C236.186 198.473 236.19 198.359 236.175 198.231H235.662V197.154H236.649V198.32C236.649 198.671 236.564 198.936 236.394 199.115C236.227 199.294 235.983 199.355 235.662 199.298ZM237.037 199.298L237.095 198.883C237.223 198.892 237.323 198.868 237.394 198.811C237.466 198.755 237.513 198.676 237.537 198.575C237.561 198.473 237.566 198.359 237.551 198.231H237.037V197.154H238.024V198.32C238.024 198.671 237.939 198.936 237.77 199.115C237.603 199.294 237.359 199.355 237.037 199.298Z" fill="white"/>
<rect x="235.989" y="157" width="39.0784" height="39.0784" rx="19.5392" fill="#FFC244"/>
<rect x="238.78" y="159.791" width="33.4958" height="33.4958" rx="16.7479" fill="#F2A300"/>
<path d="M257.807 172.306C257.807 171.047 256.787 170.026 255.528 170.026C254.269 170.026 253.248 171.047 253.248 172.306V176.539C253.248 177.798 254.269 178.819 255.528 178.819C256.787 178.819 257.807 177.798 257.807 176.539V172.306Z" stroke="black" stroke-width="0.837394" stroke-linejoin="round"/>
<path d="M250.643 176.214C250.643 178.912 252.83 181.099 255.527 181.099M255.527 181.099C258.225 181.099 260.412 178.912 260.412 176.214M255.527 181.099V183.053" stroke="black" stroke-width="0.837394" stroke-linecap="round" stroke-linejoin="round"/>
<g clip-path="url(#clip1_1169_3236)">
<path d="M272.328 197.903H272.329H278.978C281.286 197.903 282.293 194.981 280.468 193.562C280.468 193.562 280.467 193.562 280.467 193.562L267.355 183.363C267.354 183.363 267.354 183.363 267.354 183.362C265.761 182.121 263.438 183.256 263.438 185.275V201.781C263.438 204.081 266.341 205.09 267.768 203.285L271.833 198.142C271.833 198.142 271.833 198.142 271.833 198.142C271.892 198.068 271.968 198.007 272.053 197.966C272.139 197.925 272.233 197.903 272.328 197.903Z" fill="#114F3C" stroke="white" stroke-width="1.94083"/>
</g>
<rect x="275.936" y="201.171" width="35.3364" height="20.8806" rx="10.4403" fill="#114F3C"/>
<path d="M289.27 209.045L290.147 207.606H291.823L288.821 212.452V215.611H287.303V212.452L284.278 207.606H285.999L286.887 209.056C287.606 210.255 288.007 210.93 288.09 211.08C288.292 210.72 288.686 210.042 289.27 209.045ZM296.457 212.71C296.457 213.625 296.187 214.359 295.647 214.914C295.107 215.469 294.395 215.746 293.511 215.746C292.626 215.746 291.914 215.469 291.374 214.914C290.827 214.367 290.554 213.632 290.554 212.71C290.554 211.788 290.827 211.054 291.374 210.506C291.914 209.952 292.626 209.674 293.511 209.674C294.395 209.674 295.107 209.948 295.647 210.495C296.187 211.042 296.457 211.781 296.457 212.71ZM292.398 214.093C292.667 214.415 293.039 214.577 293.511 214.577C293.983 214.577 294.35 214.415 294.613 214.093C294.882 213.763 295.017 213.302 295.017 212.71C295.017 212.118 294.882 211.661 294.613 211.338C294.35 211.009 293.983 210.844 293.511 210.844C293.039 210.844 292.667 211.005 292.398 211.327C292.135 211.65 292.004 212.111 292.004 212.71C292.004 213.31 292.135 213.771 292.398 214.093ZM301.003 213.059V209.809H302.42V215.611H301.048V214.768C300.606 215.42 299.998 215.746 299.226 215.746C298.604 215.746 298.11 215.566 297.742 215.206C297.383 214.839 297.203 214.322 297.203 213.655V209.809H298.619V213.418C298.619 214.153 298.983 214.52 299.71 214.52C300.07 214.52 300.373 214.393 300.621 214.138C300.875 213.876 301.003 213.516 301.003 213.059Z" fill="white"/>
</g>
<defs>
<linearGradient id="paint0_linear_1169_3236" x1="213.03" y1="307.978" x2="246.976" y2="288.379" gradientUnits="userSpaceOnUse">
<stop stop-color="white"/>
<stop offset="0.7533" stop-color="white" stop-opacity="0"/>
</linearGradient>
<clipPath id="clip0_1169_3236">
<rect width="335" height="400" fill="white"/>
</clipPath>
<clipPath id="clip1_1169_3236">
<rect width="23.2899" height="23.2899" fill="white" transform="translate(259.071 181.896)"/>
</clipPath>
</defs>
</svg>
