<svg width="335" height="400" viewBox="0 0 335 400" fill="none" xmlns="http://www.w3.org/2000/svg">
<g clip-path="url(#clip0_1169_2426)">
<rect width="335" height="399.607" rx="15.9524" fill="#FAFAFA"/>
<path d="M45.0568 32.9134C45.0568 33.7054 44.1688 34.7614 43.0888 34.7614H40.0648V48.3214H38.7448C37.5928 48.3214 36.7528 47.5774 36.7528 46.1134V34.7614H32.0248V33.6814C32.0248 32.8894 32.6728 31.8814 34.0168 31.8814H45.0568V32.9134ZM57.7269 43.9054C57.7269 46.6414 55.7109 48.5374 52.8309 48.5374H52.1829C49.1109 48.5374 46.9989 46.8094 46.9989 44.4334C46.9989 42.1294 48.6789 40.3774 53.4309 40.3774H54.5589V40.2094C54.5589 38.3854 53.6949 37.8334 51.7749 37.8334C49.4469 37.8334 48.1509 38.7214 47.6709 39.3214H47.5509V38.2894C47.5509 36.8494 48.8469 35.1214 52.2549 35.1214C55.1349 35.1214 57.7269 36.4654 57.7269 40.9294V43.9054ZM54.5829 43.9294V42.6814H53.4309C50.9829 42.6814 50.2869 43.2574 50.2869 44.3134C50.2869 45.3214 51.1029 45.9214 52.5189 45.9214C53.9109 45.9214 54.5829 45.2494 54.5829 43.9294ZM64.9637 32.5534C64.9637 33.5854 64.0997 34.4494 63.0677 34.4494C62.0357 34.4494 61.1956 33.5854 61.1956 32.5534C61.1956 31.5214 62.0357 30.6814 63.0677 30.6814C64.0997 30.6814 64.9637 31.5214 64.9637 32.5534ZM67.2677 46.4974C67.2677 47.8894 66.7157 48.4414 65.3477 48.4414C62.8517 48.4414 61.4837 47.0254 61.4837 44.4094C61.4837 43.6654 61.4837 35.6494 61.4837 35.6494H62.3957C63.8357 35.6494 64.6997 36.4174 64.6997 38.0494V44.0974C64.6997 45.3934 65.2517 45.8014 66.6677 45.8014H67.2677V46.4974ZM76.2495 46.4974C76.2495 47.8894 75.5055 48.4414 74.0895 48.4414C71.4255 48.4414 69.9855 47.0254 69.9855 44.4094V31.0414H70.8975C72.5055 31.0414 73.2015 31.9774 73.2015 33.2014V44.0974C73.2015 45.3934 73.8735 45.8014 75.3855 45.8014H76.2495V46.4974ZM77.8912 42.0814C77.8912 38.1934 80.1232 35.0734 84.2992 35.0734C88.1872 35.0734 90.4192 38.1934 90.4192 41.6254C90.4192 45.5134 88.1872 48.6094 84.0112 48.6094C80.1232 48.6094 77.8912 45.5134 77.8912 42.0814ZM87.0832 42.0814C87.0832 39.4894 86.1232 37.9534 84.0112 37.9534C82.1632 37.9534 81.2272 39.4894 81.2272 41.6254C81.2272 44.1934 82.1632 45.7294 84.2992 45.7294C86.1712 45.7294 87.0832 44.1934 87.0832 42.0814ZM101.19 38.5054H101.07C100.59 38.3134 100.038 38.1214 99.1983 38.1214C97.7583 38.1214 96.9663 38.9134 96.9663 40.8814V48.3214H96.0783C94.6383 48.3214 93.7263 47.6014 93.7263 46.2574V40.3054C93.7263 37.7134 95.0943 35.2414 98.5023 35.2414C100.494 35.2414 101.19 36.3694 101.19 37.3534V38.5054ZM114.702 40.0894C114.702 42.4654 112.902 43.2334 108.63 43.2334H106.518C106.758 44.8654 108.246 45.8974 110.142 45.8974C111.486 45.8974 113.07 45.6334 114.102 44.6734H114.222V45.6814C114.222 47.3374 113.094 48.6094 109.542 48.6094C106.326 48.6094 103.182 46.0654 103.182 42.1054C103.182 37.7854 105.822 35.0734 109.518 35.0734C112.206 35.0734 114.702 36.9934 114.702 40.0894ZM111.678 39.7054C111.678 38.4094 110.718 37.7614 109.23 37.7614C107.67 37.7614 106.59 39.0334 106.518 40.5214L106.494 40.9534H107.934C110.982 40.9534 111.678 40.6174 111.678 39.7054ZM129.602 42.3454C129.602 46.1134 127.826 48.6094 123.386 48.6094C119.978 48.6094 117.362 45.6334 117.362 42.0814C117.362 37.8334 119.426 35.0734 123.194 35.0734C124.49 35.0734 125.906 35.9854 126.41 37.1134V31.0414H127.394C128.93 31.0414 129.602 31.9294 129.602 33.2254V42.3454ZM126.362 42.2014C126.362 38.9614 124.946 37.7854 123.218 37.7854C121.586 37.7854 120.53 39.3694 120.53 41.4574C120.53 44.1454 121.922 45.8974 123.77 45.8974C125.57 45.8974 126.362 44.5534 126.362 42.2014ZM150.467 46.0894C150.467 47.5294 149.747 48.4654 147.035 48.4654H145.763C141.899 48.4654 139.763 46.3054 139.763 42.3694V31.8814H141.107C142.451 31.8814 143.147 32.6494 143.147 34.2814V42.1534C143.147 44.6494 143.723 45.5614 146.195 45.5614H147.035C148.595 45.5614 149.867 45.2014 150.467 44.9614V46.0894ZM163.877 40.0894C163.877 42.4654 162.077 43.2334 157.805 43.2334H155.693C155.933 44.8654 157.421 45.8974 159.317 45.8974C160.661 45.8974 162.245 45.6334 163.277 44.6734H163.397V45.6814C163.397 47.3374 162.269 48.6094 158.717 48.6094C155.501 48.6094 152.357 46.0654 152.357 42.1054C152.357 37.7854 154.997 35.0734 158.693 35.0734C161.381 35.0734 163.877 36.9934 163.877 40.0894ZM160.853 39.7054C160.853 38.4094 159.893 37.7614 158.405 37.7614C156.845 37.7614 155.765 39.0334 155.693 40.5214L155.669 40.9534H157.109C160.157 40.9534 160.853 40.6174 160.853 39.7054ZM177.289 43.9054C177.289 46.6414 175.273 48.5374 172.393 48.5374H171.745C168.673 48.5374 166.561 46.8094 166.561 44.4334C166.561 42.1294 168.241 40.3774 172.993 40.3774H174.121V40.2094C174.121 38.3854 173.257 37.8334 171.337 37.8334C169.009 37.8334 167.713 38.7214 167.233 39.3214H167.113V38.2894C167.113 36.8494 168.409 35.1214 171.817 35.1214C174.697 35.1214 177.289 36.4654 177.289 40.9294V43.9054ZM174.145 43.9294V42.6814H172.993C170.545 42.6814 169.849 43.2574 169.849 44.3134C169.849 45.3214 170.665 45.9214 172.081 45.9214C173.473 45.9214 174.145 45.2494 174.145 43.9294ZM188.102 38.5054H187.982C187.502 38.3134 186.95 38.1214 186.11 38.1214C184.67 38.1214 183.878 38.9134 183.878 40.8814V48.3214H182.99C181.55 48.3214 180.638 47.6014 180.638 46.2574V40.3054C180.638 37.7134 182.006 35.2414 185.414 35.2414C187.406 35.2414 188.102 36.3694 188.102 37.3534V38.5054ZM202.093 48.3214H201.229C199.789 48.3214 198.877 47.4094 198.877 46.2094V41.0734C198.877 38.8894 197.917 37.9294 196.261 37.9294C194.869 37.9294 193.909 38.9854 193.909 40.8334V48.3214H192.949C191.581 48.3214 190.693 47.4094 190.693 46.2094V40.6174C190.693 37.8814 192.493 35.0734 196.525 35.0734C199.573 35.0734 202.093 37.1134 202.093 40.7854V48.3214ZM209.91 32.5534C209.91 33.5854 209.046 34.4494 208.014 34.4494C206.982 34.4494 206.142 33.5854 206.142 32.5534C206.142 31.5214 206.982 30.6814 208.014 30.6814C209.046 30.6814 209.91 31.5214 209.91 32.5534ZM212.214 46.4974C212.214 47.8894 211.662 48.4414 210.294 48.4414C207.798 48.4414 206.43 47.0254 206.43 44.4094C206.43 43.6654 206.43 35.6494 206.43 35.6494H207.342C208.782 35.6494 209.646 36.4174 209.646 38.0494V44.0974C209.646 45.3934 210.198 45.8014 211.614 45.8014H212.214V46.4974ZM226.212 48.3214H225.348C223.908 48.3214 222.996 47.4094 222.996 46.2094V41.0734C222.996 38.8894 222.036 37.9294 220.38 37.9294C218.988 37.9294 218.028 38.9854 218.028 40.8334V48.3214H217.068C215.7 48.3214 214.812 47.4094 214.812 46.2094V40.6174C214.812 37.8814 216.612 35.0734 220.644 35.0734C223.692 35.0734 226.212 37.1134 226.212 40.7854V48.3214ZM241.469 42.9454C241.469 43.3774 241.493 44.1214 241.517 44.6974C241.541 45.2254 241.565 45.9214 241.565 46.3534C241.565 49.5934 239.405 52.4974 235.229 52.4974C232.565 52.4974 230.741 51.2014 230.741 49.6654V48.2014H230.885C231.653 49.0174 233.141 49.5934 234.989 49.5934C237.317 49.5934 238.373 48.4894 238.373 46.6174C238.373 46.4254 238.373 46.1614 238.349 45.9454C238.349 45.7534 238.325 45.4174 238.325 45.2974V44.9854C238.061 45.9214 236.837 46.9054 234.989 46.9054C231.845 46.9054 229.613 44.7214 229.613 41.6734C229.613 38.0254 232.013 35.0734 236.189 35.0734C239.405 35.0734 241.469 37.4254 241.469 40.7374V42.9454ZM235.829 37.9294C234.173 37.9294 232.925 39.3214 232.925 41.2654C232.925 42.9454 233.957 44.1934 235.493 44.1934C237.101 44.1934 238.253 42.9934 238.253 40.9294C238.253 38.9134 237.245 37.9294 235.829 37.9294ZM45.0568 65.8734C45.0568 69.3534 42.6568 71.4894 39.5128 71.4894C38.3608 71.4894 37.4248 71.2974 36.7528 70.9374V77.3214H35.4568C34.5448 77.3214 33.4648 76.7214 33.4648 74.9694V61.5294C34.3768 61.1934 36.5608 60.7614 37.7368 60.7614H39.5848C42.7768 60.7614 45.0568 62.5854 45.0568 65.8734ZM41.6728 66.1614C41.6728 64.2894 40.9048 63.5454 39.1768 63.5454H38.1208C37.7128 63.5454 37.1368 63.6894 36.7528 63.7614V68.4174C37.3288 68.5854 38.2408 68.7054 39.0808 68.7054C40.7608 68.7054 41.6728 67.7454 41.6728 66.1614ZM57.9378 72.9054C57.9378 75.6414 55.9218 77.5374 53.0418 77.5374H52.3938C49.3218 77.5374 47.2098 75.8094 47.2098 73.4334C47.2098 71.1294 48.8898 69.3774 53.6418 69.3774H54.7698V69.2094C54.7698 67.3854 53.9058 66.8334 51.9858 66.8334C49.6578 66.8334 48.3618 67.7214 47.8818 68.3214H47.7618V67.2894C47.7618 65.8494 49.0578 64.1214 52.4658 64.1214C55.3458 64.1214 57.9378 65.4654 57.9378 69.9294V72.9054ZM54.7938 72.9294V71.6814H53.6418C51.1938 71.6814 50.4978 72.2574 50.4978 73.3134C50.4978 74.3214 51.3138 74.9214 52.7298 74.9214C54.1218 74.9214 54.7938 74.2494 54.7938 72.9294ZM61.4066 64.8894C61.4066 63.6174 61.6466 63.1374 62.3426 62.3214C62.7746 61.8174 63.3506 61.4334 63.8546 61.4334H64.5986V64.3614H69.0866V65.6814C69.0866 66.3534 68.4866 67.2174 67.1666 67.2174H64.5986V72.2814C64.5986 73.9614 65.3426 74.6094 66.6386 74.6094C67.6706 74.6094 68.4626 74.4654 68.9666 74.1534H69.0866V75.3054C69.0866 76.6254 68.1266 77.4654 66.2546 77.4654C62.9906 77.4654 61.4066 75.6894 61.4066 72.6654V64.8894ZM83.3308 77.3214H82.2748C80.9308 77.3214 80.0908 76.5534 80.0908 75.1614V69.8814C80.0908 67.7694 78.9388 66.9294 77.5228 66.9294C76.5148 66.9294 75.1948 67.6974 75.1948 69.9774V77.3214H74.1388C72.6268 77.3214 71.9308 76.4814 71.9308 75.1614V60.0414H72.9388C74.4748 60.0414 75.2188 60.9054 75.2188 62.1054C75.2188 62.1054 75.2188 64.6494 75.2188 65.8014C75.6988 65.0334 76.8028 64.0734 78.0268 64.0734C81.3628 64.0734 83.3308 66.0654 83.3308 69.7374V77.3214ZM96.5688 73.2414C96.5688 75.9774 94.6488 77.6094 91.1688 77.6094C88.7928 77.6094 87.0168 76.3854 87.0168 75.0654V73.6014H87.1368C87.8328 74.2494 89.4888 74.8254 91.0248 74.8254C92.6088 74.8254 93.3768 74.3694 93.3768 73.4094C93.3768 72.6654 92.9208 72.3054 90.6888 71.9934C87.9528 71.6094 86.6328 70.5294 86.6328 68.5614C86.6328 66.1374 88.8168 64.0734 92.1288 64.0734C95.0568 64.0734 96.2568 65.5854 96.2568 66.8334V68.0574H96.1368C95.4648 67.3854 93.9768 66.8574 92.4408 66.8574C90.4728 66.8574 89.8488 67.4574 89.8488 68.2974C89.8488 68.9454 90.2328 69.2094 92.4408 69.5694C95.1288 70.0014 96.5688 71.1774 96.5688 73.2414Z" fill="black"/>
<g clip-path="url(#clip1_1169_2426)">
<path d="M65.4048 137.988C65.4048 131.38 70.7614 126.024 77.3691 126.024H290.333C296.941 126.024 302.298 131.38 302.298 137.988V399.607H65.4048V137.988Z" fill="#F2A300"/>
<path d="M96.9403 482.603L97.3017 482.772L97.4702 482.41L209.682 241.671C211.637 237.478 209.822 232.496 205.63 230.542L173.097 215.378C168.905 213.424 163.922 215.238 161.968 219.43L49.756 460.17L49.5876 460.532L49.949 460.7L96.9403 482.603Z" stroke="black" stroke-width="0.797619"/>
<path d="M139.354 312.867L140.743 313.511L138.052 319.314L140.961 320.663L143.397 315.41L144.758 316.041L142.322 321.294L145.578 322.804L148.249 317.044L149.638 317.688L146.249 324.997L135.945 320.219L139.354 312.867ZM144.626 308.476C145.006 307.656 145.535 307.121 146.213 306.873C146.881 306.62 147.635 306.688 148.474 307.078L153.482 309.4L152.811 310.847L148.006 308.619C146.964 308.136 146.199 308.42 145.711 309.472C145.488 309.954 145.47 310.473 145.657 311.029C145.855 311.589 146.301 312.031 146.995 312.353L151.207 314.306L150.536 315.753L143.068 312.29L143.712 310.901L144.827 311.418C144.232 310.45 144.165 309.47 144.626 308.476ZM150.733 298.528L149.677 298.039L150.321 296.649L157.513 299.985C158.536 300.459 159.194 301.139 159.486 302.025C159.789 302.915 159.676 303.93 159.148 305.068C158.696 306.042 158.114 306.716 157.402 307.089C156.694 307.453 155.936 307.494 155.128 307.213L155.8 305.766C156.731 306.058 157.459 305.639 157.982 304.51C158.631 303.111 158.261 302.089 156.871 301.445L156.046 301.063C156.554 301.99 156.569 302.97 156.09 304.002C155.607 305.044 154.87 305.71 153.879 306.001C152.875 306.297 151.793 306.177 150.636 305.64C149.478 305.103 148.687 304.356 148.264 303.397C147.846 302.453 147.877 301.465 148.355 300.433C148.861 299.343 149.653 298.708 150.733 298.528ZM154.966 303.164C155.28 302.489 155.294 301.851 155.01 301.25C154.721 300.635 154.171 300.14 153.36 299.764C152.55 299.388 151.821 299.291 151.175 299.472C150.523 299.639 150.041 300.06 149.727 300.735C149.419 301.401 149.409 302.041 149.698 302.656C149.988 303.27 150.533 303.764 151.334 304.135C152.144 304.511 152.877 304.61 153.533 304.434C154.18 304.253 154.658 303.83 154.966 303.164ZM151.035 292.342L150.35 293.818L148.802 293.1L149.486 291.624L151.035 292.342ZM159.552 296.309L158.881 297.756L151.413 294.293L152.084 292.846L159.552 296.309ZM154.729 286.688C155.109 285.868 155.638 285.334 156.316 285.086C156.984 284.833 157.738 284.901 158.577 285.29L163.585 287.612L162.914 289.059L158.109 286.831C157.067 286.348 156.302 286.633 155.814 287.684C155.591 288.167 155.573 288.686 155.76 289.242C155.958 289.802 156.404 290.243 157.098 290.565L161.31 292.518L160.639 293.966L153.171 290.503L153.815 289.113L154.93 289.63C154.335 288.663 154.268 287.682 154.729 286.688ZM164.128 276.808L164.548 277.003L161.937 282.633C162.702 282.905 163.357 282.945 163.904 282.753C164.44 282.556 164.854 282.145 165.145 281.517C165.583 280.572 165.455 279.762 164.759 279.088L165.437 277.626C166.105 278.182 166.525 278.857 166.696 279.652C166.861 280.432 166.745 281.251 166.347 282.11C165.85 283.181 165.093 283.879 164.075 284.204C163.057 284.529 161.959 284.419 160.782 283.873C159.605 283.327 158.812 282.56 158.402 281.573C157.992 280.586 158.031 279.567 158.519 278.515C159.029 277.415 159.803 276.719 160.841 276.427C161.875 276.144 162.97 276.271 164.128 276.808ZM159.734 279.079C159.47 279.648 159.427 280.197 159.604 280.724C159.786 281.242 160.185 281.697 160.801 282.088L162.713 277.963C162.074 277.749 161.486 277.74 160.95 277.937C160.408 278.119 160.003 278.5 159.734 279.079ZM168.186 268.057L168.606 268.252L165.995 273.881C166.76 274.154 167.415 274.194 167.962 274.002C168.498 273.805 168.912 273.393 169.203 272.766C169.641 271.821 169.513 271.011 168.817 270.337L169.495 268.875C170.163 269.431 170.583 270.106 170.754 270.901C170.919 271.681 170.803 272.5 170.405 273.359C169.908 274.43 169.151 275.128 168.133 275.453C167.115 275.778 166.017 275.667 164.84 275.122C163.663 274.576 162.869 273.809 162.46 272.822C162.05 271.835 162.089 270.816 162.577 269.764C163.087 268.664 163.861 267.968 164.899 267.676C165.933 267.393 167.028 267.52 168.186 268.057ZM163.792 270.328C163.528 270.897 163.485 271.445 163.662 271.973C163.844 272.491 164.243 272.946 164.859 273.337L166.771 269.212C166.132 268.998 165.544 268.989 165.008 269.186C164.466 269.368 164.061 269.749 163.792 270.328ZM166.934 260.519C167.032 260.306 167.102 260.169 167.143 260.106L168.518 260.743L168.35 261.105C168.006 261.848 167.923 262.507 168.102 263.082C168.28 263.658 168.717 264.106 169.412 264.428L173.464 266.307L172.793 267.755L165.325 264.292L165.969 262.902L167.301 263.52C166.555 262.6 166.433 261.599 166.934 260.519ZM167.687 256.43L167.003 257.906L165.454 257.188L166.139 255.712L167.687 256.43ZM176.205 260.397L175.533 261.844L168.066 258.381L168.737 256.934L176.205 260.397ZM171.381 250.777C171.762 249.956 172.291 249.422 172.968 249.174C173.637 248.921 174.39 248.989 175.23 249.378L180.237 251.7L179.566 253.148L174.761 250.92C173.719 250.436 172.955 250.721 172.467 251.772C172.243 252.255 172.225 252.774 172.413 253.33C172.61 253.89 173.056 254.332 173.751 254.654L177.962 256.606L177.291 258.054L169.824 254.591L170.468 253.202L171.582 253.718C170.987 252.751 170.92 251.77 171.381 250.777ZM177.489 240.829L176.432 240.339L177.076 238.95L184.269 242.285C185.292 242.76 185.949 243.44 186.242 244.326C186.544 245.216 186.431 246.23 185.903 247.369C185.451 248.343 184.869 249.017 184.157 249.39C183.449 249.754 182.692 249.795 181.884 249.514L182.555 248.067C183.487 248.358 184.214 247.94 184.738 246.811C185.386 245.412 185.016 244.39 183.627 243.746L182.802 243.363C183.31 244.291 183.324 245.27 182.846 246.303C182.363 247.345 181.626 248.011 180.635 248.302C179.63 248.598 178.549 248.478 177.391 247.941C176.233 247.404 175.443 246.656 175.02 245.698C174.602 244.754 174.632 243.766 175.111 242.734C175.616 241.643 176.409 241.009 177.489 240.829ZM181.722 245.465C182.035 244.79 182.05 244.152 181.765 243.551C181.476 242.936 180.926 242.441 180.116 242.065C179.305 241.689 178.577 241.592 177.93 241.773C177.279 241.939 176.796 242.36 176.483 243.036C176.174 243.701 176.165 244.342 176.454 244.956C176.743 245.571 177.288 246.064 178.089 246.436C178.9 246.811 179.633 246.911 180.289 246.735C180.936 246.554 181.413 246.131 181.722 245.465Z" fill="black"/>
<path d="M-56.7217 442.594L-56.4452 442.881L-56.1578 442.605L135.263 258.471C138.596 255.264 138.699 249.962 135.492 246.629L110.609 220.761C107.403 217.428 102.101 217.325 98.7676 220.531L-92.6528 404.666L-92.9403 404.942L-92.6638 405.229L-56.7217 442.594Z" stroke="black" stroke-width="0.797619"/>
<path d="M66.6381 277.684L69.5527 274.869C70.8149 273.65 72.1603 273.053 73.5889 273.078C75.0022 273.118 76.322 273.772 77.5484 275.042C78.7748 276.312 79.3832 277.654 79.3736 279.068C79.3487 280.496 78.7052 281.82 77.443 283.039L74.5284 285.854L66.6381 277.684ZM74.7145 283.59L76.3898 281.972C77.2848 281.107 77.7183 280.186 77.6902 279.208C77.6698 278.222 77.1941 277.247 76.2633 276.283C75.3324 275.32 74.3748 274.81 73.3905 274.755C72.4138 274.693 71.4779 275.094 70.5829 275.959L68.9076 277.577L74.7145 283.59ZM85.6676 269.463L85.9889 269.796L81.5252 274.107C82.1403 274.637 82.7372 274.91 83.316 274.928C83.8875 274.938 84.4218 274.703 84.919 274.222C85.6687 273.498 85.8406 272.697 85.4348 271.817L86.5937 270.698C87.0167 271.457 87.1648 272.238 87.038 273.041C86.9115 273.828 86.5078 274.551 85.827 275.208C84.9778 276.028 84.0198 276.407 82.9529 276.343C81.886 276.279 80.9019 275.781 80.0006 274.847C79.0993 273.914 78.6353 272.913 78.6088 271.845C78.5823 270.776 78.986 269.839 79.8198 269.034C80.6919 268.192 81.6648 267.822 82.7386 267.923C83.8047 268.032 84.781 268.545 85.6676 269.463ZM80.7507 269.998C80.2994 270.434 80.0613 270.93 80.0366 271.486C80.0195 272.035 80.2277 272.603 80.6613 273.189L83.9316 270.031C83.4126 269.601 82.8674 269.381 82.2959 269.371C81.7248 269.346 81.2097 269.555 80.7507 269.998ZM92.3759 268.906C90.7312 270.494 89.2129 270.652 87.8211 269.379L88.9686 268.271C89.4134 268.64 89.828 268.801 90.2124 268.755C90.5968 268.709 91.03 268.454 91.5119 267.988C92.384 267.146 92.5541 266.45 92.0221 265.899C91.7931 265.662 91.524 265.567 91.2148 265.614C90.9056 265.661 90.4733 265.872 89.9177 266.246L89.1987 266.718C87.7225 267.7 86.5263 267.717 85.6102 266.769C85.1005 266.241 84.9006 265.628 85.0105 264.931C85.113 264.225 85.52 263.529 86.2315 262.842C87.8609 261.268 89.3338 261.125 90.6501 262.411L89.5371 263.486C89.1299 263.111 88.7379 262.95 88.3609 263.003C87.9765 263.049 87.5548 263.294 87.0958 263.737C86.7286 264.092 86.5121 264.434 86.4462 264.764C86.3803 265.094 86.4692 265.385 86.713 265.637C86.9346 265.867 87.1962 265.961 87.4978 265.922C87.7919 265.874 88.1672 265.704 88.6236 265.411L89.3429 264.916C90.2027 264.352 90.9261 264.052 91.5134 264.017C92.1007 263.982 92.6307 264.21 93.1035 264.699C93.6576 265.273 93.8718 265.931 93.746 266.673C93.6129 267.408 93.1562 268.152 92.3759 268.906ZM90.7701 257.106L89.5997 258.236L88.414 257.009L89.5844 255.878L90.7701 257.106ZM97.2859 263.876L96.1384 264.984L90.4202 259.063L91.5676 257.955L97.2859 263.876ZM98.6294 252.754L97.8204 251.916L98.922 250.852L104.43 256.555C105.213 257.366 105.581 258.238 105.535 259.169C105.496 260.109 105.025 261.014 104.122 261.886C103.35 262.632 102.564 263.051 101.765 263.143C100.974 263.227 100.252 262.992 99.6001 262.439L100.748 261.331C101.512 261.938 102.341 261.81 103.236 260.946C104.346 259.874 104.368 258.788 103.304 257.686L102.673 257.032C102.812 258.08 102.473 258.999 101.654 259.79C100.828 260.588 99.9007 260.944 98.8718 260.858C97.8278 260.772 96.8626 260.271 95.976 259.353C95.0895 258.435 94.6215 257.452 94.572 256.406C94.5223 255.375 94.9067 254.464 95.7253 253.673C96.5897 252.839 97.5577 252.532 98.6294 252.754ZM100.908 258.604C101.443 258.086 101.687 257.497 101.638 256.834C101.59 256.156 101.255 255.496 100.635 254.853C100.014 254.211 99.3698 253.857 98.7016 253.793C98.0335 253.714 97.4318 253.933 96.8963 254.45C96.3685 254.959 96.1287 255.553 96.1771 256.231C96.2255 256.909 96.5562 257.565 97.1694 258.2C97.79 258.843 98.4381 259.2 99.1138 259.272C99.782 259.336 100.38 259.113 100.908 258.604ZM103.618 246.051C104.268 245.423 104.954 245.116 105.676 245.128C106.39 245.133 107.069 245.468 107.711 246.134L111.546 250.104L110.398 251.212L106.719 247.403C105.921 246.577 105.105 246.566 104.271 247.371C103.889 247.741 103.685 248.219 103.66 248.805C103.642 249.399 103.899 249.971 104.431 250.522L107.656 253.861L106.508 254.969L100.79 249.048L101.892 247.984L102.745 248.868C102.539 247.751 102.83 246.812 103.618 246.051Z" fill="black"/>
<path d="M237.094 477.015L237.488 477.075L237.548 476.68L277.136 214.04C277.825 209.466 274.676 205.2 270.103 204.51L234.611 199.161C230.037 198.471 225.77 201.62 225.081 206.194L185.493 468.834L185.433 469.229L185.828 469.288L237.094 477.015Z" stroke="black" stroke-width="0.797619"/>
<path d="M237.776 288.596L232.284 285.506L232.634 283.155L243.868 284.825L243.627 286.451L240.108 285.927C237.573 285.55 235.677 285.247 234.421 285.017C235.062 285.338 235.882 285.783 236.884 286.351L243.117 289.875L242.906 291.295L235.912 292.884C234.935 293.093 234.037 293.277 233.218 293.434C234.476 293.578 236.362 293.837 238.876 294.211L242.395 294.735L242.153 296.36L230.918 294.689L231.266 292.354L237.589 290.939C238.9 290.651 240.014 290.424 240.931 290.259C239.942 289.757 238.89 289.203 237.776 288.596ZM244.077 275.073L244.142 274.631L245.357 274.812C245.354 275.048 245.332 275.308 245.29 275.592C245.215 276.097 245.069 276.463 244.853 276.688C244.627 276.902 244.311 277.006 243.903 276.999C244.684 277.674 244.984 278.622 244.803 279.842C244.67 280.736 244.354 281.415 243.855 281.878C243.347 282.33 242.714 282.499 241.957 282.386C240.484 282.167 239.794 281.022 239.888 278.95L239.94 277.732C239.95 277.303 239.89 276.983 239.76 276.77C239.622 276.545 239.4 276.41 239.095 276.364C238.684 276.303 238.37 276.391 238.152 276.627C237.926 276.852 237.768 277.264 237.678 277.863C237.581 278.516 237.622 279 237.801 279.317C237.969 279.632 238.323 279.852 238.864 279.975L238.632 281.537C236.829 281.151 236.091 279.864 236.416 277.676C236.735 275.53 237.694 274.576 239.293 274.813L243.601 275.454C243.874 275.495 244.033 275.368 244.077 275.073ZM243.607 279.422C243.707 278.749 243.601 278.163 243.288 277.665C242.975 277.167 242.471 276.867 241.777 276.763L240.925 276.637C241.064 276.861 241.124 277.215 241.106 277.696L241.064 278.851C241.046 279.472 241.129 279.93 241.311 280.226C241.482 280.52 241.762 280.696 242.151 280.754C242.541 280.812 242.864 280.731 243.123 280.512C243.372 280.28 243.534 279.917 243.607 279.422ZM237.965 267.696C237.999 267.464 238.027 267.312 238.048 267.24L239.547 267.463L239.489 267.858C239.368 268.668 239.475 269.323 239.809 269.825C240.143 270.326 240.689 270.633 241.446 270.745L245.864 271.402L245.63 272.98L237.488 271.77L237.713 270.255L239.165 270.471C238.189 269.799 237.789 268.874 237.965 267.696ZM247.677 259.215L247.407 261.029L242.904 263.005L244.027 264.559L246.82 264.974L246.588 266.536L235.353 264.866L235.586 263.303L242.213 264.289L239.211 260.182L239.504 258.209L242.045 261.732L247.677 259.215ZM244.934 250.109L245.392 250.177L244.479 256.315C245.29 256.361 245.93 256.214 246.399 255.875C246.859 255.535 247.139 255.023 247.241 254.339C247.394 253.308 247.042 252.568 246.184 252.118L246.421 250.524C247.219 250.868 247.812 251.397 248.201 252.111C248.58 252.813 248.701 253.631 248.561 254.568C248.388 255.735 247.859 256.619 246.974 257.218C246.089 257.818 245.005 258.022 243.722 257.831C242.438 257.641 241.46 257.13 240.788 256.299C240.116 255.468 239.866 254.479 240.036 253.332C240.214 252.133 240.76 251.246 241.673 250.673C242.585 250.109 243.672 249.922 244.934 250.109ZM241.362 253.529C241.269 254.15 241.383 254.688 241.702 255.144C242.023 255.59 242.534 255.913 243.235 256.114L243.904 251.617C243.23 251.592 242.664 251.75 242.204 252.09C241.736 252.418 241.455 252.898 241.362 253.529ZM241.634 243.887L242.928 244.08L242.684 245.721L247.575 246.448C247.817 246.484 248.006 246.442 248.142 246.323C248.27 246.191 248.358 245.957 248.408 245.62L248.514 244.91L249.776 245.098C249.756 245.45 249.724 245.773 249.68 246.067C249.566 246.835 249.334 247.382 248.985 247.706C248.636 248.03 248.135 248.144 247.483 248.047L242.449 247.298L242.255 248.608L240.961 248.416L241.155 247.106L238.82 246.759L239.055 245.181L241.39 245.528L241.634 243.887ZM241.025 240.068L240.785 241.677L239.097 241.426L239.336 239.817L241.025 240.068ZM250.316 241.466L250.082 243.044L241.94 241.833L242.174 240.255L250.316 241.466ZM242.97 233.601C243.103 232.707 243.46 232.045 244.04 231.615C244.609 231.184 245.352 231.036 246.267 231.172L251.726 231.984L251.492 233.562L246.253 232.783C245.117 232.614 244.464 233.103 244.293 234.249C244.215 234.775 244.344 235.278 244.681 235.759C245.029 236.24 245.582 236.538 246.339 236.65L250.931 237.333L250.696 238.911L242.554 237.7L242.779 236.185L243.994 236.366C243.151 235.606 242.809 234.685 242.97 233.601ZM246.017 222.333L244.865 222.162L245.09 220.647L252.932 221.813C254.047 221.979 254.87 222.445 255.401 223.213C255.943 223.981 256.121 224.986 255.937 226.227C255.779 227.29 255.411 228.101 254.833 228.66C254.257 229.209 253.542 229.462 252.688 229.421L252.922 227.844C253.899 227.86 254.478 227.252 254.661 226.022C254.888 224.496 254.244 223.621 252.729 223.396L251.83 223.262C252.579 224.008 252.87 224.943 252.703 226.069C252.534 227.205 252.015 228.053 251.147 228.612C250.267 229.18 249.196 229.37 247.933 229.182C246.671 228.994 245.702 228.501 245.025 227.701C244.357 226.914 244.107 225.957 244.274 224.832C244.451 223.643 245.032 222.81 246.017 222.333ZM251.388 225.583C251.497 224.847 251.331 224.231 250.889 223.735C250.437 223.227 249.77 222.907 248.886 222.776C248.003 222.644 247.276 222.757 246.707 223.113C246.129 223.457 245.785 223.997 245.676 224.734C245.568 225.46 245.74 226.077 246.191 226.584C246.642 227.092 247.304 227.411 248.178 227.541C249.061 227.673 249.793 227.561 250.372 227.206C250.941 226.85 251.28 226.309 251.388 225.583Z" fill="black"/>
</g>
<path d="M37.2212 408.613C36.0227 401.852 37.559 394.892 41.4922 389.264C45.4253 383.636 51.4331 379.801 58.1939 378.602C64.9548 377.404 71.9148 378.94 77.5429 382.873C83.171 386.806 87.0061 392.814 88.2046 399.575L37.2212 408.613Z" fill="#98BC6D"/>
<rect x="279.287" y="102.845" width="54.1452" height="20.6373" rx="10.3187" transform="rotate(31.9065 279.287 102.845)" fill="#EF4C0D"/>
</g>
<defs>
<clipPath id="clip0_1169_2426">
<rect width="335" height="399.607" fill="white"/>
</clipPath>
<clipPath id="clip1_1169_2426">
<rect width="236.893" height="273.583" fill="white" transform="translate(65.4048 126.024)"/>
</clipPath>
</defs>
</svg>
