<svg width="211" height="419" viewBox="0 0 211 419" fill="none" xmlns="http://www.w3.org/2000/svg">
<g opacity="0.2">
<path fill-rule="evenodd" clip-rule="evenodd" d="M210.015 35.5488C210.015 52.9878 197.324 67.4624 180.674 70.2427C197.324 73.023 210.015 87.4981 210.015 104.937C210.015 122.375 197.324 136.85 180.674 139.631C197.324 142.411 210.015 156.886 210.015 174.324C210.015 193.751 194.265 209.5 174.839 209.5C157.4 209.5 142.925 196.81 140.145 180.16C137.365 196.81 122.89 209.5 105.451 209.5C88.0125 209.5 73.5374 196.81 70.7571 180.16C67.9768 196.81 53.5022 209.5 36.0632 209.5C16.6362 209.5 0.887451 193.751 0.887451 174.324C0.887451 156.886 13.5778 142.411 30.2274 139.631C13.5778 136.85 0.887451 122.375 0.887451 104.937C0.887451 87.4981 13.5778 73.023 30.2274 70.2427C13.5778 67.4624 0.887451 52.9878 0.887451 35.5488C0.887451 16.1218 16.6362 0.373047 36.0632 0.373047C53.5022 0.373047 67.9768 13.0634 70.7571 29.713C73.5374 13.0634 88.0125 0.373047 105.451 0.373047C122.89 0.373047 137.365 13.0634 140.145 29.713C142.925 13.0634 157.4 0.373047 174.839 0.373047C194.265 0.373047 210.015 16.1218 210.015 35.5488ZM70.7571 41.3846C68.2938 56.1362 56.6506 67.7794 41.899 70.2427C56.6506 72.706 68.2938 84.3496 70.7571 99.1013C73.2204 84.3496 84.864 72.706 99.6157 70.2427C84.864 67.7794 73.2204 56.1362 70.7571 41.3846ZM111.286 70.2427C126.038 67.7794 137.682 56.1362 140.145 41.3846C142.608 56.1362 154.252 67.7794 169.003 70.2427C154.252 72.706 142.608 84.3496 140.145 99.1013C137.682 84.3496 126.038 72.706 111.286 70.2427ZM140.145 168.489C142.608 153.737 154.252 142.094 169.003 139.631C154.252 137.167 142.608 125.524 140.145 110.772C137.682 125.524 126.038 137.167 111.286 139.631C126.038 142.094 137.682 153.737 140.145 168.489ZM70.7571 110.772C73.2204 125.524 84.864 137.167 99.6157 139.631C84.864 142.094 73.2204 153.737 70.7571 168.489C68.2938 153.737 56.6506 142.094 41.899 139.631C56.6506 137.167 68.2938 125.524 70.7571 110.772Z" fill="#114F3C"/>
<path fill-rule="evenodd" clip-rule="evenodd" d="M210.015 244.676C210.015 262.115 197.324 276.589 180.674 279.37C197.324 282.15 210.015 296.625 210.015 314.064C210.015 331.502 197.324 345.977 180.674 348.757C197.324 351.538 210.015 366.013 210.015 383.451C210.015 402.878 194.265 418.627 174.839 418.627C157.4 418.627 142.925 405.937 140.145 389.287C137.365 405.937 122.89 418.627 105.451 418.627C88.0125 418.627 73.5374 405.937 70.7571 389.287C67.9768 405.937 53.5022 418.627 36.0632 418.627C16.6362 418.627 0.887451 402.878 0.887451 383.451C0.887451 366.013 13.5778 351.538 30.2274 348.757C13.5778 345.977 0.887451 331.502 0.887451 314.064C0.887451 296.625 13.5778 282.15 30.2274 279.37C13.5778 276.589 0.887451 262.115 0.887451 244.676C0.887451 225.249 16.6362 209.5 36.0632 209.5C53.5022 209.5 67.9768 222.19 70.7571 238.84C73.5374 222.19 88.0125 209.5 105.451 209.5C122.89 209.5 137.365 222.19 140.145 238.84C142.925 222.19 157.4 209.5 174.839 209.5C194.265 209.5 210.015 225.249 210.015 244.676ZM70.7571 250.512C68.2938 265.263 56.6506 276.906 41.899 279.37C56.6506 281.833 68.2938 293.477 70.7571 308.228C73.2204 293.477 84.864 281.833 99.6157 279.37C84.864 276.906 73.2204 265.263 70.7571 250.512ZM111.286 279.37C126.038 276.906 137.682 265.263 140.145 250.512C142.608 265.263 154.252 276.906 169.003 279.37C154.252 281.833 142.608 293.477 140.145 308.228C137.682 293.477 126.038 281.833 111.286 279.37ZM140.145 377.616C142.608 362.864 154.252 351.221 169.003 348.757C154.252 346.294 142.608 334.651 140.145 319.899C137.682 334.651 126.038 346.294 111.286 348.757C126.038 351.221 137.682 362.864 140.145 377.616ZM70.7571 319.899C73.2204 334.651 84.864 346.294 99.6157 348.757C84.864 351.221 73.2204 362.864 70.7571 377.616C68.2938 362.864 56.6506 351.221 41.899 348.757C56.6506 346.294 68.2938 334.651 70.7571 319.899Z" fill="#114F3C"/>
</g>
</svg>
