<svg width="20" height="20" viewBox="0 0 20 20" fill="none" xmlns="http://www.w3.org/2000/svg">
<path d="M11.8333 2.39587C10.8111 2.39587 9.83078 2.80194 9.10798 3.52473C8.38519 4.24753 7.97913 5.22785 7.97913 6.25004V8.39587H5.91663C5.81307 8.39587 5.72913 8.47982 5.72913 8.58337V11.4167C5.72913 11.5203 5.81307 11.6042 5.91663 11.6042H7.97913V17.4167C7.97913 17.5203 8.06307 17.6042 8.16663 17.6042H11C11.1035 17.6042 11.1875 17.5203 11.1875 17.4167V11.6042H13.2682C13.3543 11.6042 13.4293 11.5457 13.4501 11.4622L14.1585 8.62885C14.188 8.51051 14.0985 8.39587 13.9766 8.39587H11.1875V6.25004C11.1875 6.07876 11.2555 5.91448 11.3766 5.79337C11.4977 5.67225 11.662 5.60421 11.8333 5.60421H14C14.1035 5.60421 14.1875 5.52026 14.1875 5.41671V2.58337C14.1875 2.47982 14.1035 2.39587 14 2.39587H11.8333Z" fill="white"/>
</svg>
