<svg width="20" height="20" viewBox="0 0 20 20" fill="none" xmlns="http://www.w3.org/2000/svg">
<path d="M4.84449 3.33337C4.00992 3.33337 3.33337 4.0253 3.33337 4.87883C3.33337 5.73236 4.00992 6.42428 4.84449 6.42428C5.67905 6.42428 6.3556 5.73236 6.3556 4.87883C6.3556 4.0253 5.67905 3.33337 4.84449 3.33337Z" fill="white"/>
<path d="M3.42226 7.69701C3.37317 7.69701 3.33337 7.73771 3.33337 7.78792V17.2425C3.33337 17.2927 3.37317 17.3334 3.42226 17.3334H6.26671C6.3158 17.3334 6.3556 17.2927 6.3556 17.2425V7.78792C6.3556 7.73771 6.3158 7.69701 6.26671 7.69701H3.42226Z" fill="white"/>
<path d="M8.04449 7.69701C7.99539 7.69701 7.9556 7.73771 7.9556 7.78792V17.2425C7.9556 17.2927 7.99539 17.3334 8.04449 17.3334H10.8889C10.938 17.3334 10.9778 17.2927 10.9778 17.2425V12.1516C10.9778 11.7899 11.1183 11.4431 11.3683 11.1873C11.6184 10.9316 11.9575 10.7879 12.3112 10.7879C12.6648 10.7879 13.0039 10.9316 13.254 11.1873C13.504 11.4431 13.6445 11.7899 13.6445 12.1516V17.2425C13.6445 17.2927 13.6843 17.3334 13.7334 17.3334H16.5778C16.6269 17.3334 16.6667 17.2927 16.6667 17.2425V10.9736C16.6667 9.20865 15.1658 7.82792 13.4488 7.98756C12.9193 8.03679 12.3957 8.17142 11.9069 8.3857L10.9778 8.79291V7.78792C10.9778 7.73771 10.938 7.69701 10.8889 7.69701H8.04449Z" fill="white"/>
</svg>
