<svg width="85" height="85" viewBox="0 0 85 85" fill="none" xmlns="http://www.w3.org/2000/svg">
<g filter="url(#filter0_dd_787_3175)">
<rect x="19" y="18" width="47" height="47" rx="14.1" fill="#114F3C" shape-rendering="crispEdges"/>
<g clip-path="url(#clip0_787_3175)">
<path d="M53.4055 53.2499C53.4055 53.2499 50.0302 51.9217 47.3 50.8584H35.818C34.4597 50.8584 33.3571 49.6884 33.3571 48.2471V32.9466C33.3571 31.5067 34.4597 30.3374 35.818 30.3374H50.9438C52.3028 30.3374 53.4048 31.5059 53.4048 32.9473V46.1248L53.4055 53.2499ZM50.4419 44.6706C50.3883 44.6018 50.321 44.5448 50.2442 44.5034C50.1674 44.4619 50.0828 44.4369 49.9959 44.4298C49.9089 44.4227 49.8214 44.4338 49.739 44.4623C49.6565 44.4908 49.5808 44.5361 49.5168 44.5954C49.4953 44.614 47.358 46.5151 43.3806 46.5151C39.4525 46.5151 37.2823 44.6276 37.2436 44.5933C37.1795 44.5343 37.1039 44.4893 37.0215 44.461C36.9391 44.4328 36.8518 44.4219 36.765 44.4291C36.6782 44.4363 36.5938 44.4614 36.5172 44.5029C36.4406 44.5443 36.3734 44.6012 36.3199 44.6699C36.2053 44.8129 36.1493 44.9941 36.1631 45.1768C36.1752 45.3586 36.2567 45.5289 36.3908 45.6523C36.4925 45.7439 38.9234 47.9077 43.3806 47.9077C47.8385 47.9077 50.2693 45.7439 50.371 45.6523C50.5048 45.5287 50.5861 45.3585 50.598 45.1768C50.6119 44.9944 50.5561 44.8135 50.4419 44.6706Z" fill="white"/>
</g>
</g>
<defs>
<filter id="filter0_dd_787_3175" x="0.200001" y="0.375001" width="84.6" height="84.6" filterUnits="userSpaceOnUse" color-interpolation-filters="sRGB">
<feFlood flood-opacity="0" result="BackgroundImageFix"/>
<feColorMatrix in="SourceAlpha" type="matrix" values="0 0 0 0 0 0 0 0 0 0 0 0 0 0 0 0 0 0 127 0" result="hardAlpha"/>
<feOffset dy="1.175"/>
<feGaussianBlur stdDeviation="9.4"/>
<feComposite in2="hardAlpha" operator="out"/>
<feColorMatrix type="matrix" values="0 0 0 0 0 0 0 0 0 0 0 0 0 0 0 0 0 0 0.16 0"/>
<feBlend mode="normal" in2="BackgroundImageFix" result="effect1_dropShadow_787_3175"/>
<feColorMatrix in="SourceAlpha" type="matrix" values="0 0 0 0 0 0 0 0 0 0 0 0 0 0 0 0 0 0 127 0" result="hardAlpha"/>
<feOffset dy="0.5875"/>
<feGaussianBlur stdDeviation="1.7625"/>
<feComposite in2="hardAlpha" operator="out"/>
<feColorMatrix type="matrix" values="0 0 0 0 0 0 0 0 0 0 0 0 0 0 0 0 0 0 0.06 0"/>
<feBlend mode="normal" in2="effect1_dropShadow_787_3175" result="effect2_dropShadow_787_3175"/>
<feBlend mode="normal" in="SourceGraphic" in2="effect2_dropShadow_787_3175" result="shape"/>
</filter>
<clipPath id="clip0_787_3175">
<rect width="22.9125" height="22.9125" fill="white" transform="translate(31.3374 30.3374)"/>
</clipPath>
</defs>
</svg>
