<svg width="186" height="34" viewBox="0 0 186 34" fill="none" xmlns="http://www.w3.org/2000/svg">
<mask id="mask0_787_3326" style="mask-type:alpha" maskUnits="userSpaceOnUse" x="2" y="4" width="177" height="28">
<path d="M16.8678 22.8139L16.8378 24.2533C16.8078 25.9027 15.9681 26.8024 12.3694 26.8024H10.1802C5.17204 26.8024 2.53299 24.0434 2.53299 18.7953V14.9867C2.53299 13.0374 2.68294 10.8482 2.92285 9.19877C3.25273 6.73966 4.39232 6.10989 6.07171 6.10989H16.8078V7.48939C16.8078 8.92887 15.9381 9.64861 14.0488 9.64861H7.00138C6.79145 11.1481 6.70149 13.1573 6.70149 14.4469H14.6186V15.9163C14.6186 17.2659 13.7789 17.8057 12.1295 17.8057H6.70149V19.0052C6.70149 22.5739 7.87106 23.2637 11.0499 23.2637H12.3694C13.8689 23.2637 15.3983 23.1437 16.8678 22.8139ZM42.9755 26.6525H41.9858C39.7966 26.6525 38.927 25.6328 38.927 23.7135V17.4758C38.927 14.8067 37.7274 13.6672 35.958 13.6672C34.3386 13.6672 33.229 14.8067 33.229 17.0259V26.6525H32.1494C30.38 26.6525 29.2105 25.6328 29.2105 23.7135V17.4758C29.2105 14.8067 27.9809 13.6672 26.2115 13.6672C24.6521 13.6672 23.4825 14.8967 23.4825 17.1159V26.6525H22.4029C20.7535 26.6525 19.494 25.5729 19.494 23.7135V17.4458C19.494 13.0374 21.8031 10.0984 26.6914 10.0984C28.7906 10.0984 30.44 11.0581 31.6096 12.6175C32.5393 11.1181 34.3086 10.0984 36.2579 10.0984C39.9766 10.0984 42.9755 12.3476 42.9755 16.936V26.6525ZM62.3204 18.0756C62.3204 23.2637 59.7413 27.0123 55.033 27.0123C53.2337 27.0123 51.7642 25.9927 50.9545 24.6132C50.9545 26.8624 50.9545 31.7506 50.9545 31.7506H49.6949C48.2555 31.7506 46.876 30.701 46.876 28.9616V19.1852C46.876 13.8171 49.2751 10.0984 54.973 10.0984C59.2615 10.0984 62.3204 13.997 62.3204 18.0756ZM58.1819 19.1252C58.1819 15.3166 56.9223 13.6672 54.3433 13.6672C52.1241 13.6672 50.8945 15.5865 50.8945 18.3755C50.8945 21.6143 52.4839 23.4436 54.8831 23.4436C56.8324 23.4436 58.1819 21.7043 58.1819 19.1252ZM64.723 18.8553C64.723 13.997 67.512 10.0984 72.7301 10.0984C77.5884 10.0984 80.3774 13.997 80.3774 18.2855C80.3774 23.1437 77.5884 27.0123 72.3703 27.0123C67.512 27.0123 64.723 23.1437 64.723 18.8553ZM76.2089 18.8553C76.2089 15.6165 75.0093 13.6971 72.3703 13.6971C70.0611 13.6971 68.8915 15.6165 68.8915 18.2855C68.8915 21.4943 70.0611 23.4136 72.7301 23.4136C75.0693 23.4136 76.2089 21.4943 76.2089 18.8553ZM105.405 12.1077C105.405 12.7375 104.745 15.5265 103.546 18.8853C102.346 22.304 100.847 25.273 99.7972 26.8324H99.1375C97.8779 26.8324 96.9183 25.6628 96.3785 24.6732C95.3888 22.8738 94.1593 19.8749 93.7094 17.4158C93.1996 19.8749 91.3103 24.8831 89.8708 26.8324H89.331C88.1314 26.8324 86.9918 25.6328 86.452 24.6732C84.1129 20.5347 82.5534 15.8564 81.8337 10.4583H83.9929C85.3724 10.4583 86.1821 11.5079 86.3321 12.4076C86.8119 15.1666 87.5616 18.2255 88.9111 21.1644C90.3806 17.9556 91.1903 14.4769 91.97 11.0581H93.2896C94.5191 11.0581 95.7487 11.5679 96.1385 13.3373C96.6184 15.5265 97.608 18.8853 98.7476 21.1644C100.277 17.7757 101.147 14.027 101.777 10.3683H103.456C104.595 10.3683 105.405 10.8782 105.405 12.1077ZM121.437 16.3662C121.437 19.3351 119.187 20.2948 113.849 20.2948H111.21C111.51 22.334 113.369 23.6236 115.739 23.6236C117.418 23.6236 119.397 23.2937 120.687 22.0941H120.837V23.3537C120.837 25.4229 119.427 27.0123 114.989 27.0123C110.97 27.0123 107.042 23.8335 107.042 18.8853C107.042 13.4872 110.341 10.0984 114.959 10.0984C118.318 10.0984 121.437 12.4976 121.437 16.3662ZM117.658 15.8864C117.658 14.2669 116.458 13.4572 114.599 13.4572C112.65 13.4572 111.3 15.0467 111.21 16.906L111.18 17.4458H112.98C116.788 17.4458 117.658 17.0259 117.658 15.8864ZM133.841 14.3869H133.691C133.091 14.147 132.401 13.9071 131.351 13.9071C129.552 13.9071 128.562 14.8967 128.562 17.3558V26.6525H127.453C125.653 26.6525 124.514 25.7528 124.514 24.0734V16.6361C124.514 13.3973 126.223 10.3084 130.482 10.3084C132.971 10.3084 133.841 11.7179 133.841 12.9474V14.3869ZM140.94 6.94959C140.94 8.23912 139.861 9.31873 138.571 9.31873C137.282 9.31873 136.232 8.23912 136.232 6.94959C136.232 5.66005 137.282 4.61043 138.571 4.61043C139.861 4.61043 140.94 5.66005 140.94 6.94959ZM143.819 24.3733C143.819 26.1127 143.129 26.8024 141.42 26.8024C138.301 26.8024 136.592 25.0331 136.592 21.7642C136.592 20.8346 136.592 10.8182 136.592 10.8182H137.731C139.531 10.8182 140.61 11.7778 140.61 13.8171V21.3744C140.61 22.9938 141.3 23.5036 143.069 23.5036H143.819V24.3733ZM160.313 26.6525H159.234C157.435 26.6525 156.295 25.5129 156.295 24.0134V17.5957C156.295 14.8667 155.095 13.6672 153.026 13.6672C151.287 13.6672 150.087 14.9867 150.087 17.2958V26.6525H148.888C147.178 26.6525 146.069 25.5129 146.069 24.0134V17.0259C146.069 13.6072 148.318 10.0984 153.356 10.0984C157.165 10.0984 160.313 12.6475 160.313 17.2359V26.6525ZM178.381 19.9349C178.381 20.4747 178.411 21.4044 178.441 22.1241C178.471 22.7839 178.501 23.6535 178.501 24.1934C178.501 28.2419 175.802 31.8706 170.584 31.8706C167.255 31.8706 164.976 30.2512 164.976 28.3319V26.5025H165.156C166.115 27.5222 167.975 28.2419 170.284 28.2419C173.193 28.2419 174.512 26.8624 174.512 24.5232C174.512 24.2833 174.512 23.9534 174.482 23.6835C174.482 23.4436 174.452 23.0238 174.452 22.8738V22.484C174.123 23.6535 172.593 24.8831 170.284 24.8831C166.355 24.8831 163.566 22.1541 163.566 18.3455C163.566 13.7871 166.565 10.0984 171.783 10.0984C175.802 10.0984 178.381 13.0374 178.381 17.1759V19.9349ZM171.334 13.6672C169.264 13.6672 167.705 15.4065 167.705 17.8357C167.705 19.9349 168.994 21.4943 170.914 21.4943C172.923 21.4943 174.362 19.9949 174.362 17.4158C174.362 14.8967 173.103 13.6672 171.334 13.6672Z" fill="#1A1A1A"/>
</mask>
<g mask="url(#mask0_787_3326)">
<rect x="0.733643" y="33.6404" width="30.9888" height="179.602" transform="rotate(-90 0.733643 33.6404)" fill="#1A1A1A"/>
<rect x="88.6995" y="-18.3407" width="31.6057" height="71.974" transform="rotate(39.0204 88.6995 -18.3407)" fill="#F2A300"/>
<rect x="135.016" y="-16.0083" width="31.6057" height="71.974" transform="rotate(39.0204 135.016 -16.0083)" fill="#98BC6D"/>
<rect x="180" y="-14.3423" width="31.6057" height="71.974" transform="rotate(39.0204 180 -14.3423)" fill="#F6DEAE"/>
<rect x="59.0437" y="-22.3394" width="21.1351" height="71.974" transform="rotate(39.0204 59.0437 -22.3394)" fill="#114F3C"/>
<rect x="23.605" y="-25.61" width="17.2614" height="71.974" transform="rotate(39.0204 23.605 -25.61)" fill="#EF4C0D"/>
</g>
</svg>
