<svg width="403" height="314" viewBox="0 0 403 314" fill="none" xmlns="http://www.w3.org/2000/svg">
<g clip-path="url(#clip0_480_1190)">
<rect width="403" height="314" rx="15" fill="#FECDBA"/>
<path d="M288.135 74.5372C288.135 73.5014 288.55 73.1689 290.877 70.9842C291.957 69.9664 292.379 69.9551 291.922 69.7267C290.667 69.197 289.478 68.521 288.381 67.7127C287.611 67.1767 287.837 66.3138 288.515 66.255C289.903 66.4328 291.252 66.8422 292.507 67.4661C292.82 67.5973 293.009 67.7794 293.032 67.4458C293.296 63.8373 293.271 62.8275 293.582 62.7958C293.916 62.7631 293.93 63.2685 294.581 67.7206C294.647 68.1797 294.92 67.8404 295.865 67.1767C300.115 64.2003 299.963 64.2885 300.232 64.2003C301.628 63.7378 297.695 67.802 296.71 68.7768C295.8 69.6814 296.563 68.848 299.722 71.3969C300.874 72.3265 301.329 73.2063 301.154 73.4324C301.057 73.5534 300.991 73.5229 296.609 71.8289C295.437 71.3766 295.053 70.9695 295.091 71.5191C295.256 73.9718 295.863 77.4299 294.195 77.2863C292.353 77.1246 293.335 72.8761 292.915 72.3186C292.864 72.2518 292.612 72.5187 290.403 74.4558C289.631 75.1343 289.241 75.5403 288.671 75.313C288.505 75.2679 288.359 75.1652 288.26 75.0233C288.163 74.8812 288.118 74.709 288.135 74.5372Z" fill="#EF4C0D"/>
<path d="M98.106 176.841C98.1885 176.014 98.3887 175.726 100.141 174.991C102.044 174.191 102.381 174.405 102.28 173.885C101.961 172.285 101.741 170.666 101.619 169.04C101.566 167.704 103.033 167.277 103.496 169.287C104.513 173.703 103.849 173.697 105.046 173.507C106.327 173.205 107.654 173.147 108.956 173.338C109.341 173.438 108.926 173.87 108.599 174.046C108.099 174.317 106.173 175.354 105.158 175.848C104.311 176.259 104.794 175.999 104.907 177.839C104.927 178.178 105.1 181.267 105.066 181.6C105.013 182.126 104.426 181.499 104.179 181.077C103.594 179.897 103.181 178.641 102.954 177.345C102.776 176.625 102.87 176.851 101.184 177.356C99.5874 177.844 98.7064 178.267 98.106 176.841Z" fill="#EF4C0D"/>
<path d="M98.7401 138.606C98.7317 138.186 98.8068 137.768 98.9611 137.378C99.1154 136.987 99.3457 136.63 99.6387 136.329C99.9319 136.028 100.282 135.787 100.668 135.622C101.055 135.457 101.47 135.371 101.891 135.368C106.001 135.353 106.256 141.636 101.809 141.77C100.984 141.754 100.198 141.413 99.6232 140.82C99.0484 140.228 98.731 139.432 98.7401 138.606ZM103.761 138.568C103.77 138.323 103.73 138.078 103.642 137.849C103.555 137.619 103.423 137.409 103.253 137.232C103.083 137.055 102.879 136.913 102.654 136.816C102.429 136.719 102.186 136.668 101.94 136.666C101.456 136.667 100.991 136.857 100.644 137.196C100.298 137.535 100.097 137.996 100.086 138.481C100.103 138.987 100.316 139.467 100.681 139.818C101.047 140.169 101.534 140.364 102.041 140.361C102.498 140.325 102.925 140.123 103.242 139.792C103.56 139.461 103.744 139.026 103.761 138.568Z" fill="#EF4C0D"/>
<path d="M303.053 170.428C303.06 170.835 302.908 171.228 302.631 171.525C302.353 171.822 301.971 171.999 301.565 172.021C301.342 172.023 301.12 171.981 300.913 171.898C300.707 171.814 300.519 171.691 300.359 171.535C300.201 171.379 300.074 171.192 299.987 170.986C299.9 170.782 299.855 170.561 299.853 170.338C299.905 168.306 303.043 168.422 303.053 170.428Z" fill="black"/>
<path fill-rule="evenodd" clip-rule="evenodd" d="M281.971 223.03H307.713C307.903 223.033 308.086 222.961 308.223 222.829C308.36 222.697 308.438 222.516 308.441 222.326C308.446 222.136 308.373 221.953 308.241 221.816C308.11 221.679 307.929 221.601 307.739 221.598C299.271 221.297 290.707 221.044 282.071 220.833C282.037 221.582 282.003 222.315 281.971 223.03ZM118.99 221.011C119.022 221.701 119.056 222.374 119.091 223.03H94.2829C94.1889 223.031 94.0956 223.013 94.0083 222.978C93.9211 222.942 93.8416 222.89 93.7744 222.825C93.6387 222.693 93.5612 222.512 93.5591 222.322C93.557 222.132 93.6304 221.949 93.7632 221.813C93.8959 221.677 94.0772 221.6 94.267 221.598C102.426 221.385 110.674 221.189 118.99 221.011Z" fill="black"/>
<path d="M277.768 246.633C277.519 246.398 275.258 244.581 275.068 244.43C273.567 243.229 272.086 242.977 269.506 242.896C230.098 241.63 215.413 242.538 188.469 241.166C188.22 241.153 143.596 240.433 129.077 241.458C127.35 241.579 122.179 248.13 121.019 250.292C120.964 250.45 120.945 250.617 120.962 250.782C120.979 250.947 121.033 251.107 121.12 251.249C121.206 251.391 121.323 251.512 121.463 251.603C121.602 251.695 121.759 251.754 121.924 251.776C125.28 251.982 128.644 252.016 132.003 251.876C172.826 251.556 276.569 254.198 276.569 254.227C287.79 254.299 286.076 254.569 277.768 246.633ZM252.801 243.984C253.679 243.976 263.196 244.16 263.532 244.704C266.019 248.727 265.98 248.181 264.127 248.096C259.863 247.893 261.772 248.03 256.293 247.626C254.109 247.468 253.935 247.565 253.715 247.023C252.544 244.134 252.039 243.99 252.801 243.984ZM166.395 244.662C166.961 242.527 166.903 242.454 167.283 242.4C167.437 242.38 167.283 242.452 178.457 242.547C178.632 242.547 178.727 242.661 178.663 242.803C178.434 243.483 178.34 244.202 178.388 244.918C178.372 245.615 178.026 245.28 177.171 245.266C165.422 245.086 166.272 245.121 166.395 244.662ZM139.876 244.637C140.894 242.343 140.792 242.337 141.213 242.302C144.554 242.025 146.132 242.25 151.761 242.381C152.464 242.397 152.315 242.278 151.102 245.03C150.904 245.475 150.841 245.358 148.827 245.46C145.98 245.137 140.587 245.45 139.738 245.414C139.528 245.407 139.579 245.311 139.876 244.637ZM128.379 243.104C128.866 242.117 129.574 242.758 135.306 242.39C135.745 242.363 139.022 242.27 139.264 242.331C139.306 242.353 139.342 242.386 139.368 242.425C139.394 242.465 139.41 242.51 139.414 242.558C139.39 242.666 139.344 242.769 139.278 242.858C137.921 245.265 137.921 245.542 137.284 245.526C136.364 245.505 129.164 245.552 125.989 245.907C128.238 243.154 128.293 243.279 128.379 243.104ZM136.233 249.151C136.076 250.037 136.277 250.395 135.907 250.395C127.411 250.277 128.14 250.831 122.439 250.372C123.537 248.971 124.425 247.852 125.153 246.951C127.423 247.325 135.932 246.789 136.749 246.78C137.516 246.77 136.533 247.467 136.233 249.151ZM149.658 250.043C149.601 250.478 149.205 250.451 148.745 250.451C140.942 250.408 138.128 250.486 137.23 250.39C138.441 248.256 138.175 246.693 139.423 246.763C140.251 246.815 141.082 246.812 141.91 246.755C144.533 246.558 147.155 246.755 149.778 246.722C150.982 246.705 150.069 246.761 149.658 250.043ZM164.321 247.069C164.047 248.146 163.834 249.24 163.681 250.341C159.635 250.29 155.445 250.278 151.178 250.357C150.12 250.378 150.543 250.445 151.657 247.278C151.95 246.444 151.912 246.784 159.514 246.742C164.404 246.711 164.578 246.197 164.321 247.069ZM164.445 245.168C158.322 245.368 157.291 245.419 152.821 245.37C152.208 245.362 152.523 244.998 152.764 244.143C153.224 242.511 153.116 242.422 153.443 242.381C155.583 242.111 164.143 242.494 165.033 242.456C165.875 242.419 165.685 242.483 165.457 243.15C164.819 245.026 164.909 245.152 164.445 245.168ZM165.022 250.355C165.786 247.287 165.713 246.519 166.308 246.525C176.997 246.622 175.039 246.606 178.024 246.745C178.834 246.781 178.236 248.482 178.815 250.654C174.567 250.554 169.913 250.427 165.022 250.355ZM180.32 242.563C189.883 242.627 190.325 242.85 191.615 242.917C192.03 242.938 191.894 243.04 191.718 245.263C191.682 245.722 191.358 245.637 190.871 245.629C180.266 245.449 183.64 245.56 180.26 245.419C179.832 245.401 179.91 245.393 179.75 243.52C179.671 242.598 179.431 242.558 180.32 242.563ZM191.823 250.753C188.505 250.841 184.512 250.782 180.062 250.682C180.081 249.572 180.044 248.463 179.949 247.358C179.936 246.884 180.143 246.874 180.959 246.882C184.034 246.91 188.745 246.915 191.326 247.089C191.877 247.127 191.621 247.303 191.845 249.116C192.01 250.485 192.337 250.74 191.823 250.753ZM204.727 243.409C205.158 243.425 205.053 243.312 205.338 245.445C205.348 245.476 205.35 245.511 205.345 245.544C205.339 245.578 205.325 245.609 205.304 245.636C205.283 245.663 205.256 245.683 205.226 245.698C205.195 245.711 205.161 245.718 205.127 245.716C202.581 245.95 195.418 245.639 193.793 245.736C193.132 245.778 193.273 245.78 192.982 243.32C192.934 242.906 192.024 242.992 204.727 243.409ZM205.93 250.813C205.05 250.813 194.458 250.769 194.007 250.766C193.328 250.766 193.328 250.792 193.328 250.279C193.364 249.383 193.33 248.487 193.225 247.597C193.177 246.709 193.146 247.264 203.494 247.287C205.477 247.287 205.464 246.915 205.624 247.626C206.346 250.804 206.497 250.813 205.93 250.813ZM206.333 243.702C206.244 243.328 206.513 243.413 207.651 243.42C213.107 243.453 213.107 243.441 213.107 243.469C220.212 243.512 220.068 243.381 220.191 243.902C220.464 245.054 220.889 246.164 220.246 246.032C218.816 245.734 210.502 245.805 207.241 245.718C206.728 245.705 206.806 245.683 206.333 243.702ZM210.962 250.858C207.423 250.771 207.578 251.058 207.493 250.32C207.126 247.121 206.725 247.193 207.847 247.2C219.452 247.274 216.96 247.251 220.561 247.418C221.306 247.452 221.126 249.602 221.733 251.202C219.884 251.233 216.934 251.008 210.962 250.858ZM221.534 243.884C221.431 243.597 221.566 243.632 221.861 243.623C226.815 243.472 236.029 243.42 236.187 244.011C236.878 246.589 237 246.565 236.401 246.561C232.872 246.537 232.05 246.63 222.567 246.081C221.954 246.044 222.306 246.045 221.534 243.884ZM223.49 251.129C223.306 249.872 221.88 247.253 223.062 247.454C224.154 247.563 225.251 247.608 226.347 247.59C237.468 248.155 237.177 247.59 237.45 248.395C237.645 248.977 238.118 250.3 238.688 251.674C238.075 251.689 223.563 251.623 223.49 251.129ZM237.521 243.872C237.398 243.532 237.709 243.619 238.364 243.625C242.602 243.93 245.784 243.656 250.451 243.941C250.925 243.969 251.754 246.527 251.911 246.994C251.98 247.199 251.911 247.317 251.734 247.301C246.628 246.814 249.924 246.988 238.886 246.588C238.338 246.568 238.529 246.601 237.521 243.872ZM242.873 251.749C240.061 251.731 239.977 251.849 239.895 251.403C239.286 248.079 238.425 248.033 239.733 248.053C243.967 248.046 248.199 248.254 252.411 248.678C252.817 248.71 253.495 251.145 253.947 252.094C248.24 251.906 242.873 251.735 242.873 251.749ZM267.337 252.541C267.324 252.541 261.545 252.347 255.607 252.153C255.345 251.216 255.037 250.293 254.682 249.388C254.398 248.725 254.38 248.802 256.265 248.951C268.082 249.89 265.702 248.42 267.983 252.231C268.189 252.571 267.733 252.587 267.337 252.541ZM265.426 245.084C264.874 244.214 264.196 244.232 270.275 244.358C274.809 244.451 273.258 243.934 278.023 248.645C277.329 248.579 276.353 248.575 274.955 248.589C274.87 248.579 269.059 248.404 268.097 248.381C267.278 248.355 267.363 248.133 265.426 245.084ZM269.882 252.59C269.572 252.567 269.626 252.554 268.402 250.045C268.224 249.685 268.402 249.732 269.007 249.736C272.949 249.766 277.095 249.795 279.058 249.651C280.263 250.622 281.394 251.68 282.442 252.818C278.255 252.951 274.063 252.879 269.882 252.59Z" fill="black"/>
<path fill-rule="evenodd" clip-rule="evenodd" d="M154.521 128.574C140.592 128.772 130.741 129.054 128.446 129.31C122.854 129.933 120.765 131.663 119.809 137.775C118.122 148.547 117.503 220.545 120.181 234.679C120.218 234.875 120.254 235.039 120.284 235.178C120.398 235.699 120.434 235.866 120.189 236.077C97.4036 255.817 97.5666 257.468 97.7427 259.253C97.7562 259.39 97.7698 259.526 97.7731 259.673C97.7809 260.03 97.7873 260.37 97.7934 260.695C97.8769 265.117 97.9082 266.774 100.513 267.521C107.935 269.655 288.023 271.171 288.052 271.171C288.686 271.173 289.328 271.179 289.973 271.184C296.657 271.245 303.488 271.307 303.657 266.85C303.661 266.75 303.665 266.64 303.671 266.521C303.744 264.77 303.9 261.047 302.603 259.413C297.915 253.516 290.836 247.237 286.098 243.032C283.122 240.393 281.07 238.572 281.108 238.176C281.761 231.486 284.711 168.663 282.969 143.117C282.122 130.699 279.107 130.113 267.856 129.601C261.596 129.318 254.742 129.091 247.535 128.91C247.542 132.311 247.529 135.745 247.497 138.978C258.228 139.151 267.321 139.395 273.388 139.735C273.744 139.756 273.739 140.021 273.73 140.372C273.729 140.427 273.727 140.485 273.727 140.544C273.425 190.52 273.015 226.003 272.558 231.25C188.607 228.72 152.962 229.313 138.014 229.56C128.938 229.712 127.491 229.736 127.495 228.857C127.508 226.537 127.48 223.806 127.444 220.254C127.322 208.166 127.102 186.563 128.076 139.197C128.076 138.932 128.127 138.778 128.44 138.781C128.473 138.781 128.744 138.779 129.233 138.776C131.959 138.759 141.48 138.698 154.527 138.652C154.518 135.463 154.514 132.027 154.521 128.574ZM105.855 261.079C106.033 261.089 287.846 265.207 297.953 263.558C304.165 262.545 303.31 261.734 293.145 252.092C292.183 251.18 291.137 250.187 290.005 249.108C288.461 247.636 287.312 246.587 286.284 245.649C284.456 243.98 283.007 242.657 280.385 239.912C279.889 239.393 279.783 239.396 278.981 239.416C278.777 239.42 278.526 239.426 278.211 239.425C274.504 239.408 129.837 238.31 121.833 237.215C121.658 237.191 121.552 237.168 121.452 237.183C121.1 237.239 120.825 237.776 117.912 240.462C116.306 241.942 114.945 243.162 113.6 244.368C110.707 246.959 107.887 249.487 102.858 254.407C97.8546 259.306 97.3513 260.575 105.855 261.079Z" fill="#114F3C"/>
<path d="M201.608 86.8909C201.344 88.5476 200.014 88.0884 199.706 86.8264C199.141 84.4811 200.68 69.0497 201.516 64.2799C201.699 63.2452 201.898 62.6967 202.194 63.1016C202.702 63.8208 202.234 82.9624 201.608 86.8909Z" fill="white"/>
<path d="M230.929 86.8353C235.137 80.4107 240.074 74.4944 245.642 69.2045C249.088 66.1512 234.403 86.7935 231.904 88.7035C231.165 89.2677 229.861 88.682 230.929 86.8353Z" fill="white"/>
<path d="M173.14 87.0746C173.126 88.3547 171.896 88.2054 171.415 87.7745C168.831 85.4925 163.552 73.223 161.916 69.1949C161.842 69.0129 161.764 68.8048 161.957 68.6736C162.971 67.9883 172.462 84.4442 173.14 87.0746Z" fill="white"/>
<path d="M256.677 105.075C255.617 105.144 254.673 104.064 256.755 102.669C259.382 100.906 277.756 92.8308 274.696 95.3073C269.231 99.4769 263.153 102.772 256.677 105.075Z" fill="white"/>
<path d="M261.65 121.514C258.985 120.914 259.287 119.02 261.763 119.357C266.171 120.186 270.519 121.31 274.778 122.721C276.24 123.437 272.199 123.891 261.65 121.514Z" fill="white"/>
<path d="M146.491 102.669C143.664 102.379 136.499 96.6037 134.49 94.9719C132.65 93.4781 136.003 94.2289 146.449 100.231C148.601 101.469 147.824 102.682 146.491 102.669Z" fill="white"/>
<path d="M144.523 119.591C144.432 119.853 144.25 120.073 144.01 120.211C143.771 120.35 143.489 120.397 143.217 120.345C139.21 119.967 135.249 119.208 131.386 118.078C131.178 118.024 130.947 118.008 130.934 117.721C130.903 116.851 140.91 117.92 143.519 118.491C144.216 118.642 144.723 118.903 144.523 119.591Z" fill="white"/>
<path d="M152.516 148.83C152.484 153.571 152.571 158.643 154.857 160.472C157.397 162.507 160.925 162.263 187.205 162.96C192.067 163.088 240.796 163.299 244.896 161.646C249.128 159.935 248.46 155.205 249.035 151.398C249.802 146.333 249.41 115.719 249.286 111.065C249.12 104.748 249.369 100.47 245.543 98.5846C241.348 96.5163 209.407 95.8944 204.537 95.8955C174.796 95.8955 164.684 96.859 160.473 96.9935C152.819 97.2378 153.297 101.217 152.896 108.588C151.77 129.306 152.584 139.038 152.516 148.83ZM155.236 101.324C156.101 98.4783 158.685 98.9793 166.763 98.7904C247.644 96.9065 246.236 98.3675 246.993 105.157C247.63 110.879 247.806 145.891 247.001 154.461C246.58 158.937 245.92 159.324 245.068 159.819C243.824 160.537 242.328 160.505 238.325 160.6C212.677 161.21 206.482 161.771 168.238 160.82C154.944 160.49 154.841 159.324 154.659 154.441C154.556 151.687 154.213 104.69 155.236 101.324Z" fill="black"/>
<path d="M159.928 131.281C159.928 124.746 160.518 120.668 166.723 119.867C167.542 119.762 167.683 120.245 169.081 122.144C169.453 122.649 169.186 122.433 168.381 127.955C168.042 130.28 167.673 130.247 169.914 132.687C169.934 132.711 169.96 132.732 169.988 132.746C170.017 132.761 170.049 132.769 170.081 132.77C170.113 132.771 170.145 132.766 170.175 132.754C170.204 132.742 170.231 132.723 170.253 132.7C170.87 131.975 171.414 131.191 171.877 130.359C172.188 129.83 172.153 129.681 171.493 127.496C171.073 126.113 170.507 123.475 170.341 122.823C170.183 122.207 170.258 122.189 171.471 120.149C172.084 119.126 179.826 119.336 180.198 125.943C180.593 132.955 181.476 133.964 179.339 134.454C176.706 135.058 164.987 134.974 162.296 134.765C159.731 134.567 159.928 133.865 159.928 131.281Z" fill="#114F3C"/>
<path d="M218.471 107.419C224.591 107.419 228.309 107.75 232.23 107.984C236.579 108.247 238.69 111.425 229.474 111.779C222.375 112.052 201.667 112.174 192.987 111.957C190.234 111.888 189.748 110.689 189.901 109.598C190.105 108.128 191.589 107.915 194.198 107.776C201.76 107.377 218.471 107.398 218.471 107.419Z" fill="#114F3C"/>
<path d="M234.903 128.411C235.265 129.209 234.921 130.413 230.849 130.698C220.558 131.418 195.2 132.145 191.463 130.716C189.712 130.046 189.594 127.802 192.232 127.362C195.839 126.76 233.701 125.763 234.903 128.411Z" fill="#114F3C"/>
<path d="M176.622 111.405C176.522 120.758 162.849 120.609 162.782 111.487C162.766 110.571 162.932 109.662 163.27 108.811C163.608 107.961 164.112 107.185 164.752 106.531C165.392 105.876 166.155 105.355 166.998 104.997C167.84 104.639 168.745 104.452 169.661 104.447C170.576 104.441 171.484 104.618 172.331 104.965C173.177 105.313 173.947 105.826 174.594 106.473C175.242 107.12 175.754 107.889 176.102 108.736C176.451 109.583 176.627 110.49 176.622 111.405Z" fill="#114F3C"/>
<path d="M201.26 117.017C219.951 116.766 227.592 117.002 228.513 118.506C230.103 121.113 209.786 121.24 205.825 121.333C198.825 121.491 192.949 121.363 191.053 120.322C189.989 119.737 189.583 118.5 190.699 117.869C192.25 116.978 197.679 117.059 201.26 117.017Z" fill="#114F3C"/>
<path d="M196.437 148.799C196.523 148.601 196.463 148.67 195.28 147.837C194.571 147.451 193.954 146.916 193.471 146.268C193.377 146.126 193.318 145.962 193.3 145.792C193.282 145.622 193.306 145.45 193.368 145.291C193.43 145.132 193.53 144.99 193.659 144.877C193.788 144.765 193.942 144.685 194.108 144.644C196.892 143.667 197.705 144.491 198.066 143.627C198.629 142.27 199.429 141.024 200.427 139.947C200.992 139.433 201.471 139.896 202.115 140.761C204.094 143.413 203.493 143.974 204.509 143.976C205.676 143.982 206.833 144.188 207.93 144.583C208.1 144.642 208.253 144.741 208.377 144.872C208.501 145.003 208.59 145.162 208.639 145.335C208.688 145.508 208.694 145.691 208.657 145.867C208.62 146.043 208.54 146.207 208.425 146.346C207.605 147.146 206.695 147.845 205.711 148.43C205.127 148.783 207.049 152.187 205.788 153.654C205.303 154.219 204.77 153.993 203.228 153.067C201.087 151.789 201.165 151.138 200.764 151.548C199.797 152.479 198.685 153.247 197.472 153.821C196.481 154.201 195.969 153.556 195.846 152.798C195.833 151.442 196.032 150.093 196.437 148.799Z" fill="#F2A300"/>
<path d="M214.081 149.146C214.132 148.927 214.293 148.693 214.237 148.509C214.192 148.361 211.885 147.101 211.297 146.141C210.468 144.784 212.156 144.393 213.715 144.096C215.236 143.806 215.602 144.17 215.863 143.555C216.428 142.2 217.218 140.95 218.2 139.859C218.831 139.269 219.324 139.798 219.937 140.625C221.923 143.303 221.338 143.844 222.328 143.844C224.298 143.844 227.426 144.416 226.302 146.106C225.505 146.985 224.568 147.727 223.529 148.302C222.889 148.735 224.934 151.978 223.608 153.529C223.102 154.121 222.528 153.819 221.05 152.938C218.934 151.679 218.988 151.016 218.586 151.42C217.618 152.35 216.507 153.117 215.295 153.693C214.31 154.078 213.788 153.431 213.668 152.675C213.691 151.488 213.829 150.306 214.081 149.146Z" fill="#F2A300"/>
<path d="M160.651 149.359C160.877 148.706 153.767 145.967 160.069 144.739C161.601 144.441 161.991 144.823 162.267 144.173C162.836 142.819 163.63 141.572 164.616 140.483C165.228 139.928 165.664 140.384 166.347 141.282C168.294 143.841 167.726 144.489 168.688 144.483C170.791 144.472 173.97 145.155 172.623 146.867C171.882 147.625 171.045 148.283 170.135 148.828C169.407 149.313 169.849 148.997 170.41 152.004C170.776 153.962 169.725 154.748 169.011 154.393C165.22 152.51 165.506 151.543 164.933 152.12C163.99 153.015 162.913 153.757 161.74 154.319C160.731 154.747 160.146 154.065 160.068 153.228C160.056 151.915 160.253 150.61 160.651 149.359Z" fill="#F2A300"/>
<path d="M178.309 149.401C178.36 149.183 178.516 148.942 178.46 148.762C178.415 148.613 176.1 147.345 175.52 146.394C174.695 145.037 176.382 144.646 177.937 144.352C179.469 144.061 179.824 144.423 180.085 143.81C180.653 142.457 181.444 141.207 182.425 140.115C183.079 139.561 183.511 140.01 184.17 140.891C186.118 143.492 185.589 144.112 186.502 144.1C188.26 144.076 191.549 144.679 190.644 146.207C190.269 146.84 189.859 147.139 187.755 148.557C187.126 148.981 189.152 152.246 187.834 153.783C187.328 154.374 186.756 154.074 185.276 153.191C183.156 151.926 183.216 151.268 182.813 151.674C181.843 152.604 180.73 153.372 179.517 153.948C178.527 154.334 178.011 153.678 177.893 152.924C177.918 151.739 178.058 150.559 178.309 149.401Z" fill="#F2A300"/>
<path d="M231.814 148.401C231.604 147.878 225.201 145.133 231.263 143.972C232.748 143.688 233.174 144.034 233.42 143.446C233.991 142.071 234.798 140.805 235.802 139.705C236.367 139.193 236.848 139.613 237.498 140.488C239.505 143.202 238.915 143.723 239.88 143.723C241.927 143.723 245.194 144.452 243.808 146.07C243.016 146.867 242.131 147.563 241.17 148.144C240.431 148.635 242.527 151.964 241.147 153.44C240.632 153.992 240.08 153.666 238.581 152.789C236.462 151.545 236.575 150.866 236.121 151.331C235.166 152.245 234.073 153.001 232.88 153.569C231.879 153.96 231.327 153.299 231.232 152.504C231.265 151.118 231.46 149.741 231.814 148.401Z" fill="#F2A300"/>
<path d="M131.001 206.983C130.979 210.236 131.037 213.716 132.605 214.968C134.35 216.361 136.766 216.2 154.8 216.674C158.136 216.762 191.57 216.91 194.379 215.769C197.284 214.594 196.821 211.35 197.217 208.739C197.743 205.264 197.474 184.26 197.391 181.065C197.278 176.729 197.448 173.796 194.823 172.503C191.946 171.085 170.031 170.657 166.69 170.658C146.281 170.658 139.346 171.32 136.459 171.412C131.207 171.581 131.535 174.31 131.257 179.367C130.495 193.586 131.051 200.266 131.001 206.983ZM132.866 174.391C133.459 172.438 135.233 172.781 140.775 172.651C196.267 171.358 195.303 172.361 195.821 177.018C196.257 180.944 196.379 204.963 195.821 210.845C195.415 215.152 194.803 214.939 189.87 215.058C172.273 215.482 168.024 215.86 141.783 215.21C132.664 214.983 132.592 214.183 132.466 210.834C132.403 208.946 132.166 176.7 132.866 174.391Z" fill="black"/>
<path d="M136.092 194.938C136.092 190.453 136.495 187.658 140.752 187.109C141.318 187.037 141.409 187.371 142.371 188.672C142.627 189.019 142.444 188.872 141.891 192.66C141.658 194.256 141.409 194.23 142.943 195.906C142.957 195.923 142.975 195.937 142.994 195.947C143.014 195.957 143.036 195.963 143.058 195.963C143.08 195.964 143.103 195.959 143.123 195.95C143.143 195.942 143.162 195.929 143.177 195.913C143.599 195.415 143.973 194.878 144.293 194.309C144.508 193.949 144.483 193.842 144.028 192.344C143.741 191.395 143.35 189.586 143.237 189.137C143.131 188.713 143.18 188.703 144.017 187.303C144.438 186.599 149.748 186.745 150.004 191.277C150.274 196.085 150.879 196.781 149.413 197.117C147.604 197.53 139.568 197.475 137.721 197.33C135.957 197.194 136.092 196.711 136.092 194.938Z" fill="black"/>
<path d="M176.257 178.569C180.455 178.569 183.002 178.795 185.694 178.959C188.678 179.14 190.128 181.318 183.803 181.56C178.932 181.747 164.726 181.828 158.77 181.681C156.881 181.635 156.548 180.811 156.653 180.065C156.794 179.056 157.813 178.911 159.607 178.816C164.789 178.536 176.257 178.553 176.257 178.569Z" fill="black"/>
<path d="M187.53 192.972C187.779 193.518 187.544 194.341 184.75 194.537C177.685 195.031 160.291 195.531 157.723 194.551C156.522 194.091 156.44 192.552 158.252 192.25C160.731 191.839 186.704 191.154 187.53 192.972Z" fill="black"/>
<path d="M147.543 181.306C147.472 187.723 138.097 187.621 138.044 181.362C138.037 180.102 138.53 178.891 139.416 177.995C140.301 177.099 141.506 176.592 142.766 176.584C144.026 176.577 145.237 177.07 146.133 177.956C147.028 178.841 147.536 180.047 147.543 181.306Z" fill="black"/>
<path d="M164.442 185.151C177.266 184.98 182.51 185.139 183.139 186.169C184.229 187.957 170.292 188.047 167.574 188.109C162.774 188.222 158.74 188.129 157.439 187.416C156.708 187.015 156.433 186.166 157.196 185.733C158.262 185.128 161.987 185.184 164.442 185.151Z" fill="black"/>
<path d="M164.207 201.64C164.671 202.199 165.061 202.814 165.368 203.472C166.073 204.978 166.557 204.014 168.76 204.791C168.254 205.27 167.697 205.692 167.098 206.048C165.949 206.742 167.437 208.665 167.023 209.687C166.787 209.584 166.382 209.348 166.186 209.227C164.861 208.435 164.881 207.993 164.241 207.993C164.111 207.995 163.982 208.025 163.863 208.079C163.745 208.133 163.639 208.211 163.552 208.309C162.953 208.881 162.265 209.351 161.516 209.704C161.488 208.881 161.597 208.059 161.839 207.272C162.138 206.593 161.587 206.22 161.293 206.028C160.724 205.719 160.207 205.322 159.763 204.851C161.473 204.208 162.469 204.89 162.958 203.708C163.278 202.966 163.698 202.269 164.207 201.64ZM164.197 200.736C163.6 200.736 162.501 202.821 162.256 203.409C162.01 203.997 161.453 203.443 159.542 204.11C159.427 204.137 159.322 204.192 159.233 204.269C159.145 204.346 159.076 204.444 159.034 204.553C158.991 204.662 158.975 204.779 158.987 204.897C159 205.013 159.04 205.125 159.105 205.223C159.437 205.667 159.861 206.035 160.349 206.298C161.162 206.87 161.203 206.827 161.141 206.963C160.865 207.85 160.726 208.775 160.73 209.703C160.797 210.117 161.033 210.483 161.47 210.483C162.468 210.155 163.373 209.592 164.108 208.841C164.386 208.56 164.322 209.001 165.804 209.884C166.203 210.186 166.664 210.395 167.154 210.497C167.234 210.496 167.312 210.477 167.383 210.439C167.454 210.403 167.515 210.351 167.563 210.287C168.425 209.277 167.11 206.943 167.508 206.702C168.183 206.301 168.808 205.821 169.369 205.272C169.447 205.177 169.502 205.064 169.527 204.943C169.553 204.822 169.549 204.697 169.516 204.578C169.482 204.459 169.421 204.35 169.336 204.26C169.251 204.17 169.146 204.102 169.029 204.061C168.276 203.789 167.482 203.647 166.682 203.643C165.984 203.643 166.401 203.255 165.04 201.437C164.719 201.019 164.462 200.736 164.197 200.736Z" fill="black"/>
<path d="M176.439 201.551C177.885 203.285 177.549 204.335 178.902 204.335C179.611 204.305 180.318 204.433 180.971 204.71C180.462 205.199 179.899 205.626 179.293 205.985C178.168 206.746 179.695 208.634 179.256 209.603C178.544 209.256 177.879 208.819 177.279 208.303C177.177 208.188 177.054 208.093 176.916 208.025C176.778 207.957 176.628 207.916 176.475 207.907C176.344 207.909 176.216 207.938 176.097 207.992C175.978 208.046 175.872 208.123 175.785 208.22C175.184 208.79 174.497 209.263 173.749 209.619C173.729 208.866 173.81 208.115 173.988 207.384C174.116 207.12 174.15 206.822 174.083 206.537C173.992 206.239 173.808 206.118 173.367 205.829C172.875 205.535 172.419 205.183 172.01 204.782C172.617 204.563 173.254 204.438 173.898 204.409C174.162 204.437 174.427 204.379 174.655 204.243C174.883 204.108 175.062 203.903 175.164 203.659C175.491 202.901 175.921 202.192 176.439 201.551ZM176.434 200.653C175.802 200.653 174.705 202.772 174.458 203.367C174.281 203.791 174.03 203.541 172.988 203.739C171.922 203.941 170.76 204.215 171.328 205.143C171.731 205.8 173.315 206.664 173.348 206.767C173.387 206.891 173.279 207.057 173.243 207.206C173.069 208 172.973 208.81 172.958 209.623C173.023 210.036 173.263 210.403 173.699 210.403C174.698 210.078 175.602 209.515 176.334 208.763C176.607 208.483 176.575 208.943 178.031 209.805C178.428 210.105 178.887 210.316 179.375 210.421C179.455 210.42 179.534 210.401 179.605 210.363C179.676 210.327 179.738 210.275 179.786 210.211C180.69 209.149 179.293 206.921 179.731 206.624C180.445 206.228 181.088 205.719 181.636 205.115C182.407 203.957 180.263 203.565 178.91 203.565C178.232 203.565 178.63 203.195 177.271 201.355C176.968 200.951 176.711 200.653 176.434 200.653Z" fill="black"/>
<path d="M136.587 207.344C136.744 206.892 131.863 205.011 136.187 204.177C137.239 203.975 137.507 204.234 137.695 203.793C138.086 202.865 138.631 202.009 139.307 201.261C139.728 200.88 140.027 201.192 140.495 201.807C141.83 203.563 141.442 204.008 142.099 204.003C143.541 203.993 145.718 204.462 144.798 205.637C144.29 206.158 143.716 206.609 143.092 206.982C142.591 207.316 142.895 207.095 143.279 209.163C143.528 210.506 142.81 211.044 142.319 210.801C139.719 209.508 139.915 208.842 139.521 209.24C138.874 209.854 138.135 210.363 137.331 210.749C136.639 211.045 136.239 210.575 136.185 210.002C136.177 209.1 136.313 208.203 136.587 207.344Z" fill="black"/>
<path d="M151.891 201.72C153.383 203.471 152.959 204.507 154.39 204.507C155.091 204.493 155.787 204.627 156.433 204.9C155.931 205.39 155.366 205.813 154.754 206.157C153.634 206.911 155.153 208.808 154.718 209.776C154.006 209.429 153.341 208.991 152.74 208.475C152.535 208.242 152.246 208.1 151.936 208.08C151.806 208.082 151.677 208.11 151.558 208.164C151.439 208.219 151.332 208.296 151.244 208.393C150.644 208.963 149.957 209.434 149.209 209.789C149.194 209.037 149.275 208.285 149.45 207.554C149.578 207.29 149.612 206.992 149.545 206.707C149.454 206.409 149.283 206.299 148.829 205.999C148.34 205.703 147.887 205.352 147.479 204.952C148.088 204.735 148.726 204.609 149.373 204.58C149.634 204.607 149.898 204.548 150.124 204.415C150.35 204.28 150.528 204.078 150.63 203.836C150.962 203.081 151.385 202.37 151.891 201.72ZM151.891 200.835C151.255 200.835 150.169 202.951 149.918 203.537C149.738 203.958 149.495 203.709 148.448 203.909C147.38 204.113 146.221 204.383 146.788 205.31C147.186 205.962 148.773 206.835 148.804 206.934C148.842 207.057 148.734 207.224 148.699 207.373C148.526 208.168 148.431 208.977 148.414 209.791C148.478 210.201 148.717 210.57 149.153 210.57C150.149 210.242 151.051 209.681 151.786 208.933C152.063 208.653 152.021 209.105 153.482 209.975C153.879 210.277 154.339 210.487 154.827 210.591C154.907 210.59 154.986 210.571 155.057 210.533C155.128 210.497 155.19 210.444 155.237 210.38C156.142 209.325 154.75 207.087 155.183 206.796C156.629 205.826 156.908 205.618 157.164 205.185C157.775 204.154 155.609 203.737 154.388 203.737C153.644 203.737 154.126 203.409 152.722 201.533C152.405 201.116 152.16 200.835 151.891 200.835Z" fill="black"/>
<path d="M188.493 201.461C189.886 203.065 189.582 204.241 190.943 204.241C191.651 204.223 192.355 204.356 193.009 204.631C192.515 205.094 191.978 205.506 191.403 205.863C190.236 206.638 191.725 208.577 191.312 209.508C191.112 209.419 190.774 209.221 190.441 209.025C189.217 208.311 189.167 207.818 188.532 207.818C188.395 207.821 188.261 207.854 188.137 207.913C188.013 207.97 187.903 208.054 187.812 208.157C187.225 208.724 186.547 209.187 185.806 209.53C185.785 208.676 185.894 207.823 186.13 207.002C186.303 206.257 185.935 206.043 185.27 205.614C184.848 205.359 184.454 205.061 184.094 204.724C184.681 204.47 185.311 204.332 185.95 204.317C186.213 204.345 186.478 204.288 186.707 204.155C186.936 204.023 187.116 203.82 187.222 203.578C187.546 202.817 187.974 202.105 188.493 201.461ZM188.482 200.557C187.868 200.557 186.773 202.654 186.512 203.276C186.342 203.681 186.049 203.443 185.032 203.638C180.873 204.43 185.258 206.318 185.411 206.676C185.168 207.595 185.034 208.539 185.01 209.49C185.062 209.924 185.313 210.301 185.76 210.301C186.746 209.982 187.639 209.428 188.361 208.685C188.673 208.362 188.594 208.83 190.049 209.686C190.457 209.992 190.925 210.207 191.422 210.319C191.496 210.318 191.57 210.301 191.637 210.269C191.704 210.237 191.763 210.19 191.81 210.133C192.751 209.115 191.319 206.835 191.825 206.499C192.483 206.1 193.091 205.623 193.634 205.078C194.584 203.967 192.346 203.466 190.939 203.466C190.278 203.466 190.685 203.106 189.305 201.246C188.996 200.828 188.742 200.557 188.482 200.557Z" fill="black"/>
<path d="M201.465 206.983C201.443 210.236 201.5 213.716 203.069 214.968C204.814 216.361 207.23 216.2 225.264 216.674C228.6 216.762 262.033 216.91 264.843 215.769C267.748 214.594 267.285 211.35 267.681 208.739C268.207 205.264 267.938 184.26 267.855 181.065C267.742 176.729 267.911 173.796 265.287 172.503C262.41 171.085 240.495 170.657 237.154 170.658C216.745 170.658 209.81 171.32 206.923 171.412C201.67 171.581 201.999 174.31 201.721 179.367C200.954 193.586 201.512 200.266 201.465 206.983ZM203.33 174.391C203.923 172.438 205.696 172.781 211.238 172.651C266.731 171.358 265.767 172.361 266.285 177.018C266.721 180.944 266.843 204.963 266.285 210.845C265.88 215.152 265.267 214.939 260.335 215.058C242.739 215.482 238.489 215.86 212.248 215.21C203.129 214.983 203.058 214.183 202.931 210.834C202.864 208.946 202.63 176.7 203.33 174.391Z" fill="black"/>
<path d="M206.554 194.938C206.554 190.453 206.956 187.658 211.214 187.109C211.779 187.037 211.871 187.371 212.833 188.672C213.089 189.019 212.906 188.872 212.353 192.66C212.12 194.256 211.871 194.23 213.405 195.906C213.419 195.923 213.437 195.937 213.456 195.947C213.477 195.957 213.498 195.963 213.521 195.963C213.542 195.964 213.565 195.959 213.585 195.95C213.606 195.942 213.624 195.929 213.638 195.913C214.06 195.415 214.434 194.878 214.754 194.309C214.969 193.949 214.944 193.842 214.49 192.344C214.203 191.395 213.811 189.586 213.698 189.137C213.592 188.713 213.642 188.703 214.479 187.303C214.899 186.599 220.21 186.745 220.465 191.277C220.735 196.085 221.34 196.781 219.875 197.117C218.066 197.53 210.03 197.475 208.182 197.33C206.418 197.194 206.554 196.711 206.554 194.938Z" fill="black"/>
<path d="M246.718 178.569C250.916 178.569 253.464 178.795 256.155 178.959C259.139 179.14 260.589 181.318 254.264 181.56C249.394 181.747 235.187 181.828 229.231 181.681C227.342 181.635 227.009 180.811 227.114 180.065C227.255 179.056 228.274 178.911 230.068 178.816C235.25 178.536 246.718 178.553 246.718 178.569Z" fill="black"/>
<path d="M257.992 192.972C258.241 193.518 258.005 194.341 255.211 194.537C248.147 195.031 230.752 195.531 228.184 194.551C226.983 194.091 226.902 192.552 228.713 192.25C231.191 191.839 257.164 191.154 257.992 192.972Z" fill="black"/>
<path d="M218.005 181.306C217.933 187.723 208.559 187.621 208.506 181.362C208.499 180.102 208.992 178.891 209.877 177.995C210.763 177.099 211.968 176.592 213.228 176.584C214.487 176.577 215.698 177.07 216.595 177.956C217.49 178.841 217.998 180.047 218.005 181.306Z" fill="black"/>
<path d="M234.903 185.151C247.727 184.98 252.972 185.139 253.6 186.169C254.69 187.957 240.753 188.047 238.036 188.109C233.235 188.222 229.201 188.129 227.901 187.416C227.169 187.015 226.895 186.166 227.657 185.733C228.724 185.128 232.447 185.184 234.903 185.151Z" fill="black"/>
<path d="M234.675 201.64C235.138 202.199 235.527 202.814 235.834 203.472C236.539 204.978 237.023 204.014 239.226 204.791C238.721 205.27 238.163 205.692 237.564 206.048C236.415 206.742 237.903 208.665 237.489 209.687C237.253 209.584 236.848 209.348 236.652 209.227C235.327 208.435 235.347 207.993 234.709 207.993C234.577 207.995 234.448 208.025 234.33 208.079C234.211 208.133 234.105 208.211 234.018 208.309C233.418 208.881 232.732 209.351 231.982 209.704C231.954 208.881 232.064 208.059 232.306 207.272C232.604 206.593 232.053 206.22 231.759 206.028C231.191 205.719 230.674 205.322 230.229 204.851C231.94 204.208 232.937 204.89 233.424 203.708C233.744 202.966 234.165 202.269 234.675 201.64ZM234.663 200.736C234.067 200.736 232.967 202.814 232.722 203.409C232.476 204.004 231.919 203.443 230.008 204.11C229.893 204.137 229.788 204.192 229.699 204.269C229.611 204.346 229.543 204.444 229.5 204.553C229.457 204.662 229.441 204.779 229.454 204.897C229.466 205.013 229.507 205.125 229.571 205.223C229.904 205.667 230.328 206.033 230.815 206.298C231.628 206.87 231.669 206.827 231.607 206.963C231.332 207.851 231.193 208.775 231.196 209.703C231.263 210.117 231.499 210.483 231.936 210.483C232.934 210.155 233.839 209.592 234.574 208.841C234.852 208.56 234.788 209.001 236.27 209.884C236.669 210.186 237.131 210.395 237.62 210.497C237.7 210.496 237.779 210.477 237.849 210.439C237.92 210.403 237.981 210.351 238.029 210.287C238.893 209.277 237.576 206.943 237.974 206.702C238.65 206.301 239.274 205.821 239.835 205.272C239.914 205.177 239.968 205.064 239.993 204.943C240.019 204.822 240.016 204.697 239.982 204.578C239.949 204.459 239.887 204.35 239.802 204.26C239.717 204.17 239.612 204.102 239.495 204.061C238.742 203.789 237.948 203.647 237.148 203.643C236.45 203.643 236.867 203.255 235.506 201.437C235.185 201.019 234.925 200.736 234.663 200.736Z" fill="black"/>
<path d="M246.9 201.551C248.346 203.287 248.01 204.335 249.363 204.335C250.072 204.305 250.778 204.433 251.432 204.71C250.924 205.199 250.361 205.626 249.753 205.985C248.631 206.742 250.155 208.634 249.717 209.603C249.005 209.256 248.34 208.819 247.739 208.303C247.638 208.188 247.514 208.093 247.376 208.025C247.238 207.957 247.089 207.916 246.935 207.907C246.805 207.909 246.676 207.938 246.558 207.992C246.439 208.046 246.333 208.123 246.246 208.22C245.645 208.79 244.958 209.263 244.21 209.619C244.191 208.866 244.271 208.115 244.449 207.384C244.578 207.12 244.61 206.822 244.544 206.537C244.453 206.239 244.269 206.118 243.828 205.829C243.336 205.535 242.88 205.183 242.471 204.782C243.078 204.564 243.715 204.439 244.359 204.409C244.623 204.437 244.889 204.379 245.116 204.243C245.344 204.108 245.523 203.903 245.625 203.659C245.953 202.901 246.382 202.192 246.9 201.551ZM246.9 200.653C246.268 200.653 245.171 202.772 244.925 203.367C244.747 203.791 244.496 203.541 243.455 203.739C242.387 203.941 241.226 204.215 241.795 205.143C242.196 205.8 243.78 206.664 243.813 206.767C243.853 206.891 243.744 207.057 243.708 207.206C243.534 208 243.439 208.81 243.423 209.623C243.49 210.036 243.728 210.403 244.165 210.403C245.163 210.078 246.068 209.515 246.8 208.763C247.072 208.483 247.041 208.943 248.496 209.805C248.894 210.105 249.353 210.316 249.841 210.421C249.921 210.42 249.999 210.401 250.07 210.363C250.141 210.327 250.204 210.275 250.251 210.211C251.156 209.149 249.758 206.921 250.197 206.624C250.91 206.228 251.554 205.719 252.101 205.115C252.872 203.957 250.728 203.565 249.376 203.565C248.697 203.565 249.096 203.195 247.736 201.355C247.428 200.951 247.177 200.653 246.9 200.653Z" fill="black"/>
<path d="M207.044 207.344C207.201 206.892 202.319 205.011 206.643 204.177C207.695 203.975 207.963 204.234 208.152 203.793C208.542 202.865 209.087 202.009 209.763 201.261C210.184 200.88 210.484 201.192 210.952 201.807C212.286 203.563 211.898 204.008 212.555 204.003C213.997 203.993 216.174 204.462 215.255 205.637C214.746 206.156 214.173 206.609 213.548 206.982C213.047 207.316 213.352 207.095 213.736 209.163C213.985 210.506 213.266 211.044 212.776 210.801C210.175 209.508 210.372 208.842 209.976 209.24C209.329 209.854 208.592 210.363 207.788 210.749C207.096 211.045 206.695 210.575 206.641 210.002C206.632 209.1 206.769 208.203 207.044 207.344Z" fill="black"/>
<path d="M219.162 207.373C219.199 207.225 219.302 207.058 219.265 206.934C219.233 206.833 217.646 205.962 217.249 205.311C216.683 204.381 217.839 204.113 218.909 203.91C219.958 203.71 220.201 203.958 220.379 203.537C220.769 202.608 221.312 201.752 221.985 201.002C222.437 200.622 222.731 200.931 223.181 201.534C224.517 203.323 224.154 203.746 224.782 203.738C225.988 203.723 228.245 204.137 227.622 205.182C227.364 205.616 227.084 205.822 225.642 206.793C225.211 207.084 226.6 209.324 225.695 210.378C225.348 210.783 224.956 210.578 223.94 209.973C222.486 209.106 222.526 208.651 222.244 208.934C221.579 209.572 220.814 210.099 219.982 210.493C219.303 210.758 218.948 210.309 218.866 209.791C218.885 208.977 218.985 208.167 219.162 207.373Z" fill="black"/>
<path d="M258.959 201.461C260.352 203.065 260.048 204.241 261.41 204.241C262.117 204.223 262.822 204.356 263.474 204.631C262.981 205.094 262.443 205.506 261.869 205.863C260.702 206.638 262.191 208.577 261.778 209.508C261.578 209.419 261.24 209.221 260.906 209.025C259.684 208.311 259.633 207.818 258.997 207.818C258.861 207.821 258.726 207.854 258.603 207.913C258.478 207.97 258.369 208.054 258.278 208.157C257.691 208.724 257.013 209.187 256.272 209.53C256.251 208.676 256.36 207.823 256.596 207.002C256.769 206.257 256.401 206.043 255.736 205.614C255.314 205.359 254.92 205.061 254.56 204.724C255.146 204.47 255.773 204.332 256.411 204.317C256.675 204.345 256.939 204.288 257.168 204.155C257.397 204.023 257.577 203.82 257.683 203.578C258.008 202.816 258.438 202.104 258.959 201.461ZM258.949 200.557C258.334 200.557 257.237 202.658 256.978 203.276C256.808 203.681 256.516 203.443 255.498 203.638C251.338 204.43 255.724 206.318 255.876 206.676C255.634 207.595 255.5 208.539 255.477 209.49C255.528 209.924 255.779 210.301 256.226 210.301C257.212 209.982 258.104 209.428 258.827 208.685C259.139 208.362 259.06 208.83 260.515 209.686C260.922 209.992 261.39 210.207 261.888 210.319C261.963 210.318 262.036 210.301 262.103 210.269C262.169 210.237 262.229 210.19 262.276 210.133C263.217 209.115 261.785 206.835 262.29 206.499C262.95 206.101 263.557 205.623 264.1 205.078C265.05 203.967 262.812 203.466 261.406 203.466C260.744 203.466 261.151 203.106 259.771 201.246C259.465 200.828 259.208 200.557 258.949 200.557Z" fill="black"/>
<path d="M391.06 87.9727C391.602 85.3156 395.398 85.3157 395.94 87.9727L398.111 98.6257C398.482 100.447 400.645 101.234 402.1 100.078L410.611 93.3125C412.733 91.6251 415.642 94.0656 414.349 96.4491L409.164 106.005C408.278 107.639 409.429 109.633 411.287 109.682L422.155 109.97C424.866 110.042 425.525 113.781 423.002 114.775L412.888 118.763C411.159 119.445 410.759 121.712 412.151 122.944L420.291 130.151C422.322 131.948 420.423 135.236 417.851 134.377L407.54 130.93C405.777 130.341 404.014 131.821 404.288 133.659L405.892 144.412C406.292 147.094 402.724 148.393 401.306 146.081L395.623 136.813C394.651 135.229 392.349 135.229 391.377 136.813L385.694 146.081C384.276 148.393 380.708 147.094 381.108 144.412L382.712 133.659C382.986 131.821 381.223 130.341 379.46 130.93L369.149 134.377C366.577 135.236 364.678 131.948 366.709 130.151L374.849 122.944C376.241 121.712 375.841 119.445 374.112 118.763L363.998 114.775C361.475 113.781 362.134 110.042 364.845 109.97L375.713 109.682C377.571 109.633 378.722 107.639 377.836 106.005L372.651 96.4491C371.358 94.0656 374.267 91.6251 376.389 93.3125L384.9 100.078C386.355 101.234 388.518 100.447 388.889 98.6257L391.06 87.9727Z" fill="#EF4C0D"/>
</g>
<defs>
<clipPath id="clip0_480_1190">
<rect width="403" height="314" fill="white"/>
</clipPath>
</defs>
</svg>
