<svg width="403" height="314" viewBox="0 0 403 314" fill="none" xmlns="http://www.w3.org/2000/svg">
<g clip-path="url(#clip0_480_1049)">
<rect width="403" height="314" rx="15" fill="#BEDC9A"/>
<line x1="79" y1="273.31" x2="343.346" y2="273.31" stroke="black" stroke-width="1.36167"/>
<path d="M248.023 135.027C247.667 134.746 247.365 134.438 247.104 134.77C246.829 135.118 247.162 135.08 249.144 137.437C250.084 138.554 251.422 140.541 251.038 141.967C250.368 144.458 244.961 146.843 243.425 148.465C241.494 150.501 246.249 151.614 247.393 155.387C248.369 158.61 245.366 160.217 238.396 170.067C238.172 170.384 226.441 187.255 225.63 188.88C225.475 189.191 225.991 189.711 226.367 189.209C229.235 185.39 229.441 185.15 234.082 178.636C246.461 161.257 247.144 161.314 248.368 158.531C250.196 154.373 245.92 151.18 244.298 149.672C244.109 149.496 244.095 149.381 244.269 149.201C245.053 148.389 249.051 146.526 251.092 144.363C253.789 141.506 251.657 137.906 248.023 135.027Z" fill="black"/>
<path d="M199.692 149.905C198.02 151.46 195.304 154.293 195.497 156.567C195.33 163.551 206.937 191.024 208.777 193.085C209.041 193.38 209.606 193.183 209.477 192.639C209.178 191.382 198.172 167.206 196.801 156.674C196.565 154.864 197.756 153.383 202.185 149.285C203.178 148.366 202.299 147.795 201.434 146.676C200.166 145.033 199.329 144.362 199.991 142.937C201.286 140.152 206.646 136.613 206.452 136.177C206.074 135.324 201.381 139.477 200.246 140.914C197.681 144.16 198.845 145.208 201.219 148.114C201.572 148.547 201.412 148.306 199.692 149.905Z" fill="black"/>
<path d="M218.994 117.907C219.116 117.761 219.414 117.217 219.258 117.09C218.764 116.689 215.228 119.506 214.571 117.763C213.666 115.365 214.551 110.346 213.624 110.292C213.025 110.256 213.089 111.623 213.071 112.517C213.007 115.766 212.754 119.926 215.79 119.518C216.984 119.357 218.532 118.461 218.994 117.907Z" fill="black"/>
<path d="M222.291 120.031C222.836 121.716 222.348 124.125 221.685 125.016C221.576 125.162 222.213 125.488 222.726 124.618C223.076 124.025 223.877 121.807 223.234 119.695C223.054 119.102 222.315 118.25 221.895 119.089C221.139 120.6 218.258 121.869 216.593 122.162C215.018 122.44 217.048 124.299 220.878 121.467C222.25 120.451 222.122 119.509 222.291 120.031Z" fill="black"/>
<path d="M218.276 108.122C219.288 107.549 221.362 106.687 222.086 107.609C222.395 108.005 222.926 107.175 222.343 106.484C221.827 105.87 220.598 105.673 219.249 106.155C216.912 106.99 216.92 108.891 218.276 108.122Z" fill="black"/>
<path d="M210.508 108.955C210.37 107.664 207.531 108.197 206.804 110.234C206.494 111.1 207.193 111.573 207.572 111.004C208.996 108.871 210.578 109.612 210.508 108.955Z" fill="black"/>
<path d="M219.542 111.616C219.314 112.438 219.593 113.443 220.455 113.399C221.238 113.359 221.175 112.047 220.654 111.379C220.359 111.001 219.667 111.165 219.542 111.616Z" fill="black"/>
<path d="M210.309 113.603C209.624 113.591 209.307 114.35 210.009 115.366C210.26 115.73 210.937 115.717 211.069 115.151C211.215 114.52 210.915 113.612 210.309 113.603Z" fill="black"/>
<path d="M242.036 234.087C242.045 233.664 241.546 233.193 241.09 233.179C240.679 233.165 240.186 233.572 240.237 234.136C240.229 235.635 242.014 235.159 242.036 234.087Z" fill="black"/>
<path fill-rule="evenodd" clip-rule="evenodd" d="M255.975 133.65C248.953 130.545 242.013 128.685 236.844 128.928C236.537 128.943 236.435 128.782 236.322 128.603C236.208 128.425 236.083 128.229 235.732 128.171C235.445 128.124 235.397 128.104 235.356 127.34L235.349 127.196C235.252 125.373 234.952 119.688 234.628 117.537C234.599 117.344 234.857 117.229 235.085 117.127C235.153 117.096 235.218 117.067 235.272 117.037C239.298 114.825 238.738 110.517 237.646 109.247C237.495 109.072 238.472 105.992 238.552 105.775C241.386 98.0571 237.56 90.4902 232.184 90.0542C231.867 90.0287 231.853 90.0075 231.829 89.6945C231.819 89.566 231.809 89.4402 231.801 89.3167C231.732 88.3248 231.673 87.4809 231.101 86.6262C228.366 82.5371 222.137 81.9844 218.444 82.8427C216.717 83.2438 216.066 83.9323 214.911 85.1631C214.637 85.4558 214.084 85.4796 213.367 85.5104C211.725 85.5812 209.223 85.6889 207.237 89.1513C206.829 89.8643 206.491 90.451 205.701 90.6324C205.539 90.6696 205.369 90.706 205.193 90.7438C203.592 91.0867 201.47 91.5414 199.766 93.7655C197.27 97.0227 198.749 102.908 202.954 103.86C203.238 103.923 203.239 103.935 203.356 104.768C203.495 105.761 203.798 107.925 204.939 112.743C205.932 116.933 207.823 122.809 210.535 126.155C212.16 128.16 213.636 129.117 214.099 129.417C214.145 129.447 214.182 129.47 214.207 129.487C214.619 129.77 214.813 129.806 214.867 129.912C214.92 130.015 214.842 130.184 214.704 130.704C214.609 131.063 213.946 131.181 212.521 131.436C210.642 131.771 207.44 132.343 202.47 134.013C185.654 139.661 179.351 145.521 173.447 156.206C169.879 162.663 167.093 168.11 163.875 180.521C163.831 180.692 163.807 180.785 163.746 180.833C163.616 180.935 163.317 180.82 162.283 180.798C155.885 180.655 143.096 180.523 136.294 180.989C132.872 181.223 130.721 181.044 130.104 181.932C129.236 183.18 131.402 186.538 137.333 196.123C147.635 212.77 149.186 215.129 149.012 215.263C148.962 215.302 148.774 215.161 148.608 215.117C147.466 214.815 146.957 216.042 147.271 216.946C147.683 218.129 149.038 219.966 149.591 220.541C149.852 220.81 149.858 221.085 149.864 221.309C149.865 221.387 149.867 221.461 149.88 221.524C150.286 223.531 151.534 225.474 152.347 226.246C155.4 229.141 161.774 231.676 164.645 232.28C167.951 232.977 171.909 232.642 174.027 231.972C178.628 230.515 180.508 228.31 180.798 228.503C180.981 228.624 180.536 229.692 179.746 232.486C177.773 239.466 177.434 241.77 177.109 243.982C177.057 244.332 177.006 244.68 176.948 245.045C176.923 245.204 176.885 245.425 176.839 245.69C176.486 247.725 175.669 252.429 176.704 253.103C177.326 253.507 177.653 253.739 177.919 253.926C178.519 254.352 178.803 254.552 181.457 256.019C181.708 256.158 181.705 256.18 181.674 256.427C181.658 256.556 181.634 256.745 181.634 257.043C181.634 257.281 181.633 257.572 181.632 257.905C181.618 261.602 181.586 270.588 182.757 274.366C182.84 274.632 183.221 275.174 183.459 274.787C183.643 274.487 183.637 274.369 183.595 273.615C183.571 273.163 183.533 272.483 183.517 271.399C183.324 258.629 182.932 256.957 183.146 256.875C183.188 256.859 183.253 256.905 183.348 256.94C184.139 257.228 184.913 257.541 185.714 257.866C189.488 259.394 193.884 261.174 203.679 261.814C207.507 262.064 209.627 262.212 210.96 261.258C212.796 259.944 213.135 256.539 214.385 248.426C214.839 245.48 215.198 242.681 215.485 240.435C215.81 237.904 216.044 236.074 216.224 235.533C216.301 235.926 216.327 237.197 216.362 238.92C216.424 241.934 216.513 246.329 216.957 249.812C217.196 251.689 217.391 252.85 217.525 253.643C217.676 254.538 217.748 254.966 217.715 255.43C217.66 256.222 218.491 261.022 218.95 262.238C219.155 262.778 219.354 262.804 219.665 262.844C219.841 262.866 220.052 262.893 220.32 263.02C221.63 263.639 222.643 263.881 226.677 264.481C237.994 266.164 249.646 264.595 260.777 261.952C261.254 261.839 261.248 261.924 261.197 262.837C261.178 263.178 261.153 263.637 261.143 264.245C261.141 264.4 261.16 264.555 261.178 264.711C261.195 264.848 261.212 264.985 261.214 265.123C261.214 265.145 261.352 273.636 261.357 273.658C261.468 274.237 262.187 274.302 262.332 273.723C262.538 272.892 263.142 267.91 263.004 264.104C262.927 261.975 262.82 261.519 262.986 261.371C263.045 261.319 263.135 261.306 263.271 261.272L263.307 261.262C264.944 260.85 266.264 260.518 266.444 259.327C266.63 258.09 266.858 256.407 266.466 253.274C265.43 244.977 265.363 244.739 264.978 243.375C264.802 242.751 264.56 241.892 264.128 239.921C263.534 237.204 263.153 236.685 263.273 236.513C263.306 236.464 263.381 236.443 263.502 236.408C269.158 234.759 273.878 232.61 277.732 229.94C278.127 228.79 278.455 227.944 278.716 227.32C278.029 227.854 277.258 228.431 276.39 229.071C270.62 233.316 261.635 235.486 254.616 236.916C247.215 238.423 245.775 238.819 245.524 238.436C245.437 238.303 245.493 238.075 245.493 237.769C245.491 235.528 244.307 228.749 243.648 226.207C242.141 220.4 240.987 218.638 240.572 218.005C240.374 217.703 240.343 217.656 240.523 217.55C243.994 215.493 247.582 213.68 250.537 212.231C250.384 212.057 250.233 211.869 250.084 211.667C249.925 211.451 249.703 211.401 249.346 211.322C249.244 211.299 249.132 211.274 249.006 211.241C244.627 213.292 239.48 216.137 239.018 218.039C238.973 218.225 238.8 218.283 238.365 218.43C237.858 218.601 236.997 218.893 235.567 219.646C234.374 220.274 233.873 220.531 233.639 220.941C233.447 221.276 233.434 221.714 233.365 222.544C233.347 222.757 233.241 222.845 233.042 222.828C229.695 222.535 228.808 222.153 227.597 221.632C227.205 221.465 226.78 221.281 226.228 221.083C219.682 218.726 217.396 218.628 217.105 218.615C217.088 218.615 217.077 218.614 217.074 218.614C216.975 218.597 216.901 218.589 216.844 218.552C216.616 218.407 216.677 217.806 216.594 214.373C216.411 206.865 216.033 204.306 216.394 201.857C216.993 197.798 219.622 194.039 228.529 168.552C239.122 138.241 237.977 133.818 237.208 130.845C237.124 130.517 237.043 130.208 236.984 129.883L237.006 129.882C237.526 129.854 237.677 129.846 241.376 130.468C245.614 131.18 251.035 133.145 256.166 135.511C256.087 134.906 256.022 134.285 255.975 133.65ZM255.726 197.913C255.599 190.615 255.925 179.921 259.391 164.057C260.228 160.225 259.37 161.656 258.669 163.342C255.201 171.675 254.085 186.53 254.234 198.22C254.673 198.113 255.169 198.01 255.726 197.913ZM232.762 149.419C235.658 143.814 237.517 135.758 235.991 129.548C235.947 129.37 235.722 129.785 235.272 130.615C234.163 132.661 231.682 137.234 227.164 141.685C226.725 142.118 226.782 142.122 227.108 142.142C227.507 142.166 228.308 142.215 229.097 143.104C230.324 144.488 232.288 148.46 232.689 149.273C232.735 149.364 232.76 149.415 232.762 149.419ZM224.349 149.55C224.415 149.801 224.506 150.148 224.582 150.667C226.681 164.946 225.79 172.208 226.092 172.258C226.214 172.278 226.531 171.119 227.319 168.768C233.506 150.316 233.195 150.423 232.905 150.522C232.881 150.53 232.858 150.538 232.838 150.536C232.418 150.488 231.084 148.359 229.864 146.415C229.347 145.591 228.852 144.801 228.455 144.215C228.207 143.85 227.899 143.52 227.462 143.36C227.203 143.264 227.157 143.275 227.051 143.515C226.855 143.957 226.676 144.369 226.508 144.755C225.69 146.634 225.149 147.876 224.393 148.763C224.201 148.989 224.242 149.145 224.349 149.55ZM217.345 97.5659C217.405 94.2747 214.941 89.9215 213.364 90.0754C212.927 90.1178 212.684 90.5645 213.243 91.2212C215.001 93.2828 215.71 95.7753 216.152 97.3307C216.414 98.2502 216.582 98.8423 216.819 98.8242C217.081 98.804 217.337 98.0677 217.345 97.5659ZM206.05 112.411C207.074 116.478 207.97 119.547 210.124 123.308C211.914 126.435 215.063 129.359 218.631 129.574C220.733 129.701 222.048 129.118 223.29 128.568C223.418 128.511 223.545 128.455 223.672 128.4C225.314 127.687 226.204 126.832 227.056 126.012C227.597 125.492 228.123 124.987 228.816 124.541C229.209 124.289 229.214 125.494 227.894 126.862C227.822 126.937 227.75 127.011 227.68 127.084C226.361 128.457 225.385 129.472 222.382 130.483C220.192 131.219 217.847 131.123 216.071 130.438C216.01 130.415 215.967 130.392 215.932 130.4C215.823 130.428 215.79 130.766 215.502 132.37C214.926 135.577 215.045 135.765 215.564 136.584L215.58 136.609C218.96 141.936 219.113 142.13 219.978 142.002C220.848 141.872 222.599 142.079 223.762 142.217C224.376 142.289 224.826 142.342 224.897 142.317C224.964 142.293 229.929 136.893 230.997 135.412C231.929 134.117 232.838 132.804 233.746 131.492C234.074 131.017 234.402 130.542 234.731 130.069C234.976 129.717 234.881 129.383 234.722 128.827C234.627 128.496 234.511 128.086 234.429 127.547C233.839 123.621 233.524 120.564 233.579 117.071C233.583 116.796 233.675 116.618 233.923 116.5C238.528 114.317 237.944 108.677 234.813 109.466C233.695 109.747 233.217 110.472 232.927 110.913C232.84 111.045 232.77 111.152 232.704 111.213C232.46 111.442 232.174 111.087 232.22 110.814C232.284 110.433 232.372 110.207 232.431 110.058C232.52 109.83 232.54 109.779 232.295 109.628C230.706 108.65 229.176 106.797 228.234 105.172C227.172 103.34 226.998 102.367 226.813 101.336C226.745 100.959 226.676 100.575 226.562 100.138C226.385 99.4598 226.667 99.1478 227.142 98.6232C227.655 98.0567 228.393 97.242 229.018 95.4503C229.532 93.9798 229.533 92.7162 228.989 91.0801C228.841 90.6313 228.334 90.4754 228.243 90.538C228.226 90.5503 228.207 90.5625 228.189 90.5747C228.008 90.6968 227.819 90.8235 227.819 91.078C227.82 91.3284 227.864 91.6627 227.909 92.009C227.962 92.4154 228.017 92.8382 228.008 93.1607C227.914 96.4996 225.901 100.307 222.705 100.912C222.002 101.045 221.138 101.2 220.453 100.988C219.965 100.837 220.179 100.574 220.627 100.021C221.337 99.146 222.635 97.5447 222.674 94.5124C222.699 92.6811 221.725 89.9258 220.606 90.574C220.2 90.8092 220.353 91.2014 220.605 91.8479C221.023 92.9168 221.712 94.6804 220.594 97.5775C219.965 99.2093 218.617 101.051 216.882 100.835C216.269 100.758 216.16 100.617 215.803 100.156C215.559 99.8411 215.199 99.3773 214.486 98.6831C210.614 94.9156 206.406 96.0158 206.601 96.9813C206.663 97.2892 206.996 97.292 207.37 97.2951C207.436 97.2958 207.503 97.2963 207.569 97.2985C209.766 97.3707 211.735 98.4189 213.795 99.6369C215.554 100.676 214.847 100.72 213.083 100.831C211.951 100.902 210.383 101.001 208.752 101.407C207.654 101.68 205.469 102.335 204.54 102.985C203.792 103.51 204.01 104.368 205.433 109.971C205.618 110.701 205.823 111.511 206.05 112.411ZM212.442 180.718C212.909 177.186 215.787 165.463 218.302 156.986C220.201 150.586 220.887 149.627 220.673 148.951C220.481 148.342 219.561 147.963 218.143 144.053C218.013 143.694 217.959 143.49 217.851 143.456C217.666 143.396 217.321 143.831 216.16 144.829C214.29 146.438 213.239 147.944 212.573 148.898C211.524 150.401 211.429 150.537 210.591 147.558C210.424 146.962 210.347 146.493 210.313 146.496C210.284 146.499 210.284 146.837 210.284 147.715C210.26 147.715 210.661 174.9 212.442 180.718ZM217.693 142.545C218.065 142.373 218.209 142.307 218.085 142.129C215.498 138.444 214.731 136.598 214.38 135.753C214.153 135.205 214.1 135.079 213.84 135.147C213.624 135.202 212.365 136.252 211.745 137.311C210.972 138.633 210.917 139.524 210.839 140.784C210.825 141.009 210.81 141.246 210.79 141.499C210.825 143.608 211.218 146.43 211.589 147.889C211.645 148.106 211.745 147.963 212.029 147.559C212.532 146.846 213.606 145.319 216.015 143.531C216.763 142.975 217.334 142.711 217.693 142.545ZM181.729 147.012C178.041 151.457 175.643 154.406 170.965 164.304C168.589 169.331 165.227 180.486 165.345 180.786C165.403 180.932 165.558 180.918 165.717 180.903C165.796 180.896 165.877 180.889 165.946 180.902C166.376 180.98 166.668 180.98 167.112 180.981C167.382 180.982 167.708 180.982 168.156 181.001C168.773 181.027 169.209 181.021 169.603 181.147C170.788 181.523 171.599 183.076 175.837 190.17C179.7 196.636 183.455 203.738 185.635 207.861C186.782 210.031 187.493 211.376 187.554 211.369C188.23 211.285 187.294 204.354 186.062 195.247C184.566 184.179 182.635 169.896 182.635 160.77C182.544 160.768 182.788 152.615 183.414 151.509C183.583 151.211 183.82 151.587 183.841 151.737C183.994 152.901 183.988 153.317 183.973 154.313C183.952 155.74 183.913 158.357 184.3 166.064C184.463 169.309 185.477 177.731 186.528 186.461C187.456 194.171 188.413 202.122 188.839 206.964C188.868 207.29 188.86 207.617 188.852 207.945C188.84 208.429 188.828 208.912 188.934 209.392C188.973 209.566 188.856 210.022 188.716 210.569C188.48 211.495 188.177 212.68 188.449 213.189C188.899 214.028 190.054 216.251 190.06 216.276C190.188 216.618 190.535 216.643 191.876 216.733C193.695 216.856 197.342 217.103 204.748 218.442C213.164 219.962 214.794 220.65 214.914 220.446C214.961 220.367 214.779 220.151 214.68 219.797C214.504 219.165 214.987 218.812 215.424 218.744C215.473 218.736 215.514 218.731 215.547 218.712C215.779 218.577 215.633 217.787 215.393 211.113C215.149 204.298 215.505 202.101 215.663 201.131C215.752 200.581 215.777 200.427 215.591 200.048C214.539 197.903 212.782 190.117 212.052 186.5C209.523 173.983 209.213 159.626 209.364 146.856C209.37 146.426 209.372 145.998 209.374 145.573C209.394 140.854 209.414 136.482 213.903 134.159C214.253 133.978 214.268 133.788 214.362 132.588C214.366 132.539 214.37 132.487 214.374 132.434C214.381 132.352 214.401 132.296 214.381 132.266C214.327 132.186 213.975 132.306 212.223 132.669C212.198 132.675 207.182 133.876 206.56 134.04C199.869 135.806 186.315 141.484 181.729 147.012ZM218.774 222.778C216.827 221.008 201.127 218.88 193.653 217.867C193.038 217.784 192.479 217.708 191.988 217.641C191.356 217.554 190.985 217.442 190.882 217.56C190.702 217.767 191.333 218.677 192.805 221.648C193.242 222.529 217.925 223.005 218.774 222.778ZM163.473 202.75C162.936 200.408 160.647 197.295 157.987 197.185C154.482 197.659 155.036 202.399 157.223 205.224C160.355 209.269 164.704 208.112 163.473 202.75ZM149.627 219.316C149.641 219.281 149.655 219.245 149.655 219.208C149.68 218.144 149.782 217.572 149.842 217.236C149.907 216.869 149.922 216.782 149.734 216.638C148.962 216.049 148.867 215.959 148.755 215.922C148.699 215.903 148.639 215.898 148.489 215.85C146.731 215.85 149.379 219.227 149.61 219.363C149.615 219.347 149.621 219.332 149.627 219.316ZM152.26 214.192C150.906 215.416 150.461 217.581 150.425 219.403C150.301 225.734 157.489 229.639 162.038 229.189C163.629 229.031 164.371 228.613 165.437 228.012C165.728 227.849 166.043 227.67 166.407 227.482C167.3 227.015 168.37 225.918 168.387 225.57C168.39 225.517 168.184 225.509 167.143 225.473C166.602 225.453 165.837 225.427 164.759 225.381C164.48 225.368 164.31 225.539 164.052 225.799C163.865 225.986 163.633 226.219 163.28 226.464C163.178 226.534 163.076 226.607 162.975 226.68C162.48 227.033 161.983 227.388 161.372 227.541C161.335 227.55 161.295 227.563 161.256 227.576C161.11 227.625 160.961 227.675 160.888 227.529C160.844 227.44 160.98 227.011 161.27 226.869C161.83 226.598 163.175 225.459 163.253 225.382C163.43 225.207 163.186 225.191 162.739 225.159C162.508 225.143 162.224 225.124 161.914 225.077C161.607 225.03 161.485 225.101 160.938 225.417C160.731 225.537 160.463 225.692 160.1 225.89C159.785 226.062 159.132 225.779 159.394 225.512C159.57 225.333 159.858 225.087 160.201 224.795C161.288 223.867 162.924 222.472 163.264 221.268C163.362 220.919 163.275 220.786 162.906 220.759C161.995 220.694 160.392 221.794 158.988 222.757C158.18 223.312 157.437 223.822 156.929 224.039C156.079 224.402 156.25 222.844 156.547 222.039C157.203 220.262 157.62 219.645 158.01 219.07C158.3 218.642 158.574 218.236 158.92 217.392C159.372 216.288 157.104 216.206 155.121 219.277C155.015 219.44 154.906 219.602 154.798 219.763C154.445 220.286 154.093 220.808 153.849 221.399C153.786 221.551 153.652 221.568 153.556 221.435C152.486 219.951 152.948 217.215 153.169 215.903C153.204 215.691 153.234 215.516 153.249 215.391C153.35 214.588 152.757 213.742 152.26 214.192ZM161.131 230.238C172.191 234.178 180.244 227.678 181.258 225.902C180.743 225.698 170.178 225.605 170.154 225.605C169.833 225.602 169.601 225.647 169.439 225.971C169.315 226.22 168.322 227.611 166.801 228.429C163.817 230.033 162.675 230.043 161.983 230.049C161.646 230.052 161.416 230.054 161.131 230.238ZM211.681 257.029C212.238 253.528 215.333 234.092 215.654 232.531C215.709 232.26 215.671 232.199 214.874 231.981C213.598 231.633 211.059 230.563 211.142 229.248C211.156 229.027 210.953 228.903 210.7 228.748C210.432 228.584 210.106 228.383 209.923 227.997C209.786 227.711 209.713 227.481 209.655 227.298C209.535 226.923 209.483 226.758 209.081 226.75C208.844 226.744 207.772 226.707 206.082 226.649C201.608 226.495 192.808 226.191 183.75 225.939C183.692 225.937 183.643 225.934 183.598 225.945C183.339 226.012 183.21 226.583 181.965 230.968C179.584 239.344 179.321 240.785 178.597 244.747C178.472 245.432 178.333 246.193 178.168 247.078C178.167 247.079 178.166 247.086 178.162 247.1C178.101 247.375 177.509 250.019 177.397 251.705C177.382 251.937 177.44 252.073 177.653 252.193C177.817 252.285 177.992 252.392 178.203 252.521C179.137 253.091 180.776 254.093 185.319 256.226C193.054 259.857 202.678 261.137 209.248 260.715C209.934 260.67 210.51 260.349 210.827 259.76C211.199 259.068 211.475 258.321 211.601 257.531C211.612 257.46 211.64 257.288 211.681 257.029ZM212.113 229.453C212.034 229.566 212.487 230.057 212.674 230.141C216.641 231.943 223.748 233.259 227.418 231.266C228.881 230.471 229.545 230.345 231.079 230.171L231.538 230.117C232.384 230.014 233.23 229.911 234.095 230.047C234.336 230.084 234.578 230.11 234.82 230.134C235.289 230.182 235.758 230.23 236.214 230.374C236.586 230.492 236.522 230.116 236.336 229.401C235.866 227.609 235.389 225.82 234.694 224.098C234.617 223.905 234.507 223.78 234.308 223.751C234.249 223.743 234.189 223.733 234.13 223.724C233.88 223.685 233.629 223.647 233.38 223.649C230.485 223.668 228.909 223.084 226.35 222.133C225.01 221.636 223.4 221.037 221.189 220.374C220.042 220.03 215.035 218.777 215.597 219.813C215.887 220.348 217.15 220.907 218.457 221.484C220.853 222.544 223.395 223.668 220.349 224.832C218.719 225.454 214.05 226.182 212.898 226.182C212.768 226.182 212.48 226.251 212.325 226.334C212.455 226.402 212.673 226.438 212.97 226.486C213.224 226.528 213.536 226.58 213.899 226.669C215.126 226.969 216.512 227.132 217.736 227.275C219.66 227.5 221.18 227.678 221.031 228.274C220.851 228.996 213.791 228.025 211.607 227.045C211.485 226.989 211.339 226.983 211.193 226.978C211.133 226.976 211.073 226.972 211.014 226.967C210.859 226.951 210.708 226.978 210.639 227.138C210.174 228.207 213.898 228.926 216.899 229.504C219.301 229.967 221.239 230.341 220.194 230.735C219.453 231.013 215.424 230.146 213.349 229.699C212.615 229.541 212.125 229.436 212.113 229.453ZM239.818 218.861C239.616 218.778 239.213 219.189 237.456 220.131C235.645 221.102 234.967 221.24 234.899 221.523C234.831 221.81 235.388 222.245 236.034 223.842C237.981 228.656 238.367 233.65 238.55 236.016C238.616 236.868 238.655 237.379 238.731 237.418C238.754 237.428 243.912 237.113 244.091 236.985C242.873 225.171 241.591 222.471 240.143 219.422C240.105 219.341 240.067 219.26 240.028 219.178C239.943 219 239.895 218.893 239.818 218.861ZM264.851 259.579C265.174 259.535 265.224 259.453 265.205 259.142C265.193 258.951 265.182 258.723 265.169 258.453C265.065 256.293 264.835 251.515 263.075 242.556C262.155 237.874 262.055 237 261.749 236.921C261.66 236.898 261.553 236.942 261.403 236.981C259.847 237.372 245.323 240.767 244.084 239.75C243.29 239.096 243.071 238.635 242.957 238.393C242.888 238.248 242.857 238.184 242.763 238.206C242.394 238.292 240.356 238.582 238.533 238.484C237.23 238.413 236.013 234.641 235.564 233.251C235.539 233.172 235.515 233.101 235.495 233.039C235.299 232.437 235.195 232.015 235.122 231.72C234.985 231.163 234.959 231.061 234.636 231.072C234.052 231.09 233.484 231.079 232.929 231.07C231.265 231.04 229.718 231.014 228.221 231.756C224.913 233.397 220.924 233.486 217.517 232.74C217.246 232.679 217.259 232.833 217.306 233.374C217.323 233.564 217.343 233.802 217.357 234.096C217.422 235.492 217.469 236.938 217.518 238.437C217.732 245.022 217.979 252.626 219.972 261.44C220.298 262.882 237.405 264.374 244.335 263.464C250.93 262.596 255.89 261.478 259.601 260.642C261.743 260.161 263.468 259.771 264.851 259.579Z" fill="#1A1A1A"/>
<path d="M330.412 243.534C329.858 235.59 328.698 228.039 324.306 222.047C323.367 220.766 320.569 217.318 318.44 216.448C318.04 216.284 318.424 215.9 316.493 210.858C315.745 208.908 315.144 208.114 314.945 207.468C314.392 205.66 315.512 206.004 315.758 192.002C316.423 154.127 298.756 151.394 298.075 150.122C296.521 147.222 294.623 144.682 291.711 146.505C291.54 146.612 291.575 146.425 289.47 144.227C287.365 142.029 287.272 142.24 287.477 141.933C289.064 139.549 290.545 132.731 290.86 130.62C291.301 127.664 290.848 127.474 291.51 127.647C299.246 129.67 311.024 130.311 309.329 122.452C308.899 120.456 308.328 121.133 310.222 119.983C314.528 117.366 314.07 113.341 311.285 111.636C310.708 111.283 311.709 111.091 312.581 109.08C313.709 106.481 312.297 104.409 310.028 104.078C308.227 103.814 307.714 104.655 307.551 103.96C307.098 102.021 304.727 101.073 303.012 101.184C302.286 101.231 302.484 100.705 301.871 99.5302C298.892 93.8233 293.837 94.4057 291.088 97.8444C290.408 98.6953 290.084 99.5451 289.469 100.849C289.065 101.706 288.677 101.258 286.783 101.286C282.246 101.354 280.748 108.492 281.654 112.937C281.694 113.135 281.576 113.252 281.141 112.992C278.668 111.518 271.873 110.59 266.882 113.784C265.293 114.802 264.405 114.863 262.328 115.705C260.981 116.251 259.035 117.679 258.937 118.945C258.9 119.427 258.586 119.407 258.171 119.489C255.227 120.073 253.933 122.291 254.065 123.953C254.194 125.549 255.522 126.937 256.142 127.336C256.632 127.651 256.008 127.964 255.922 129.961C255.751 133.892 256.348 137.522 257.198 140.313C258.317 143.982 256.196 145.17 257.132 146.588C257.626 147.337 259.273 147.626 260.104 147.673C260.491 147.694 260.385 147.659 261.912 150.518C264.698 155.731 268.607 156.629 271.636 155.101C274.663 153.574 274.568 153.281 274.68 153.611C274.712 153.704 275.621 155.919 276.346 157.155C277.692 159.452 277.682 159.111 277.392 159.583C275.741 162.257 275.662 164.718 276.295 165.969C276.719 166.808 267.964 177.513 269.159 189.572C269.518 193.207 271.894 197.742 271.504 197.748C271.018 197.756 270.14 197.642 268.808 197.559C253.917 196.639 251.187 199.495 250.958 199.535C248.511 199.96 246.565 198.907 246.088 200.53C245.893 201.193 245.564 200.151 241.032 200.099C240.228 200.09 237.087 200.415 235.191 200.024C233.872 199.752 231.027 198.927 231.003 198.92C230.437 198.767 229.531 199.074 229.485 199.798C229.409 200.957 230.358 201.458 231.425 201.903C234.967 203.378 235.347 202.762 235.025 203.437C234.827 203.852 234.339 204.701 234.263 205.664C234.121 207.489 235.538 208.82 236.129 208.759C236.48 208.723 236.457 208.941 236.961 209.394C237.774 210.123 238.258 209.579 238.842 210.056C239.811 210.847 241.829 210.601 242.376 208.726C242.633 207.842 243.194 208.56 244.962 207.322C245.069 207.247 245.173 207.169 245.289 207.115C245.318 207.103 245.435 207.184 245.431 207.196C245.278 207.599 245.478 207.999 245.453 208.399C245.419 208.962 245.608 209.411 246.069 209.742C248.793 211.705 249.661 211.093 250.088 211.669C251.563 213.667 253.137 214.182 255.73 214.967C263.04 217.177 267.2 221.92 279.366 225.479C280.14 225.705 277.562 225.222 271.018 256.702C269.925 261.962 269.149 266.794 268.804 273.389C268.778 273.893 268.876 274.411 269.371 274.504C270.135 274.648 269.375 274.596 330.354 274.593C330.833 274.563 331.227 274.223 331.294 273.754C331.997 268.798 330.76 248.526 330.412 243.534ZM245.336 206.187C245.223 206.363 244.892 206.384 244.673 206.504C243.572 207.105 242.586 207.293 241.546 207.451C240.791 207.336 240.666 207.308 240.544 207.344C240.244 207.431 240.158 207.729 240.389 207.938C241.003 208.492 241.687 208.324 241.408 208.624C240.765 209.317 240.445 209.78 239.503 209.348C237.953 208.635 239.893 205.754 239.497 205.459C239.066 205.139 238.255 206.583 238.034 208.714C238.001 209.031 237.053 208.36 237.022 207.469C236.995 206.705 237.359 205.923 237.934 204.486C238.21 203.799 237.733 203.74 237.26 204.418C236.065 206.132 236.234 207.642 235.925 207.838C235.894 207.858 235.774 207.803 235.745 207.751C234.902 206.264 235.055 205.469 235.69 203.667C236.139 202.395 236.202 202.842 231.702 201.182C229.881 200.511 229.861 199.473 230.802 199.701C233.267 200.299 234.195 200.617 235.199 200.658C235.29 200.661 235.386 200.671 235.47 200.703C236.872 201.231 242.499 200.386 245.623 201.41C245.719 201.442 245.757 201.455 245.732 201.588C245.248 204.185 245.599 205.78 245.336 206.187ZM286.399 102.433C289.853 101.972 289.374 103.434 290.735 100.677C291.396 99.3382 292.282 97.0688 295.127 96.4959C299.179 95.68 300.877 100.392 301.544 101.13C301.708 101.312 301.473 101.309 301.115 101.401C297.592 102.299 295.74 104.659 296.295 105.135C296.551 105.355 296.884 104.534 298.624 103.557C300.365 102.579 302.572 101.956 304.49 102.508C306.486 103.083 306.562 104.353 306.748 104.997C307.057 106.062 307.721 104.983 309.68 105.174C311.622 105.362 312.181 107.063 311.512 108.54C310.557 110.645 307.539 113.798 305.784 115.21C305.678 115.295 304.323 115.981 305.679 115.764C307.339 115.499 309.007 113.677 310.263 112.346C311.008 111.556 314.858 115.911 309.659 119.094C306.489 121.035 308.575 120.827 308.302 124.12C308.154 125.921 306.586 126.857 304.838 127.249C302.443 127.787 300.941 127.551 299.078 127.398C298.317 127.335 292.299 126.725 291.366 126.49C290.771 126.339 291.66 122.533 289.456 119.959C289.01 119.437 287.15 116.227 283.048 113.811C282.884 113.714 282.792 113.618 282.746 113.407C281.92 109.662 283.67 102.797 286.399 102.433ZM258.343 120.602C261.852 120.007 267.112 122.11 267.314 121.744C267.487 121.429 265.631 120.08 260.07 119.379C259.916 119.359 259.76 119.334 259.605 119.312C260.799 116.863 263.362 116.428 265.4 115.84C267.658 115.187 267.076 114.179 269.96 113.51C274.876 112.37 275.367 112.375 279.556 113.276C282.612 113.934 285.227 116.418 287.426 118.659C291.168 122.473 289.841 129.872 288.585 135.066C286.95 141.821 287.509 141.516 285.243 140.83C284.892 140.724 285.305 140.328 285.485 139.14C286.068 135.307 281.548 133.554 279.694 136.626C279.495 136.957 279.261 137.168 278.899 137.237C272.766 138.402 270.059 132.04 270.074 131.504C270.517 131.562 270.905 132.256 272.99 132.869C273.292 132.958 273.228 132.693 273.083 132.591C267.521 128.67 265.312 125.032 260.498 124.442C258.346 124.178 257.765 124.566 256.748 126.545C253.395 123.639 255.752 121.043 258.343 120.602ZM277.373 156.744C275.665 152.618 275.638 153.441 275.416 152.679C275.368 152.51 275.248 152.439 275.081 152.461C271.512 152.926 269.712 155.864 266.284 153.687C264.127 152.317 262.852 149.798 261.867 148.178C261.129 146.965 261.394 146.925 258.52 146.213C257.159 145.876 258.159 145.496 258.52 143.468C259.073 140.377 255.466 132.483 257.793 126.304C258.106 125.471 258.09 125.467 259.296 125.481C262.614 125.723 264.514 127.193 266.141 128.463C269.267 130.901 269.195 130.69 269.259 131.161C269.986 136.489 274.176 139.58 279.075 137.993C280.598 137.499 280.416 136.256 282.285 136.152C283.728 136.071 285.211 137.655 284.219 140.236C283.709 141.563 281.693 141.491 281.353 142.185C281.235 142.426 281.339 142.666 281.597 142.682C285.088 142.899 283.392 139.229 288.919 145.138C289.486 145.744 290.009 146.391 290.56 147.012C291.079 147.597 287.954 148.186 280.041 156.151C277.761 158.447 278.315 159.018 277.373 156.744ZM277.968 160.532C281.491 155.36 287.745 150.643 292.306 147.083C293.359 146.262 294.95 147.126 295.703 148.217C297.175 150.352 297.375 150.408 297.026 150.467C291.943 151.308 283.565 157.741 279.971 161.662C277.391 164.478 277.191 165.681 277.076 164.964C276.822 163.381 277.177 161.695 277.968 160.532ZM298.181 220.729C297.479 220.85 299.322 219.223 300.279 216.763C301.292 214.16 301.816 211.896 302.04 211.228C302.35 210.299 304.99 204.655 306.318 194.266C307.591 184.312 310.382 179.191 305.126 169.441C302.106 163.839 297.228 160.914 296.338 161.84C295.539 162.671 299.895 163.118 303.441 169.219C308.162 177.344 306.965 181.998 305.632 189.759C301.903 211.481 300.361 221.967 288.599 224.426C281.047 226.006 272.722 221.875 265.94 218.442C256.06 213.443 259.761 215.281 253.271 212.958C251.459 212.31 251.54 211.498 248.908 210.187C247.324 209.399 246.211 209.017 246.267 208.055C246.581 202.668 246.599 202.618 246.834 201.405C247.091 200.079 247.787 200.654 248.728 200.629C251.692 200.545 250.822 200.007 252.372 199.686C253.766 199.399 253.835 199.16 256.411 198.887C267.439 197.716 285.915 200.215 285.937 200.215C286.253 200.19 286.321 200.018 286.04 199.875C285.373 199.535 282.837 198.987 277.721 198.302C277.106 198.219 277.308 198.213 277.581 195.832C279.73 177.111 285.489 166.941 285.597 166.456C285.691 166.025 285.05 165.984 284.755 166.48C277.534 178.604 276.248 198.075 275.895 198.089C275.832 198.091 275.022 198.003 274.083 197.92C273.088 197.832 272.955 197.946 272.826 197.629C269.106 188.488 269.985 183.5 272.797 176.098C276.035 167.572 278.411 164.688 282.94 160.247C285.38 157.853 294.895 150.553 297.872 151.445C300.104 152.113 302.454 153.976 304.101 155.626C309.857 161.395 312.205 169.009 313.647 177.029C315.051 184.843 314.917 192.071 314.404 199.993C313.853 208.496 313.393 205.855 315.378 211.586C316.262 214.138 317.466 215.944 317.401 216.278C317.378 216.398 308.417 218.97 298.181 220.729Z" fill="#1A1A1A"/>
<path d="M250.741 201.445C250.345 202.392 249.915 207.804 250.034 209.063C250.095 209.723 250.418 210.999 250.659 210.418C250.479 210.848 251.47 202.935 251.474 201.576C251.476 200.906 250.992 200.845 250.741 201.445Z" fill="black"/>
<path d="M295.78 112.254C296.694 112.889 296.932 112.407 298.299 110.888C299.061 110.041 302.56 106.175 303.964 106.048C304.433 106.005 304.352 105.777 304.022 105.526C303.138 104.855 299.686 108.088 298.833 108.959C296.341 111.503 296.764 111.672 296.126 111.264C293.971 109.882 291.189 114.17 290.624 116.837C290.697 117.752 291.022 117.878 291.084 117.485C291.252 116.425 292.695 114.471 293.333 113.597C293.971 112.724 294.931 111.664 295.78 112.254Z" fill="black"/>
<path d="M304.626 119.798C303.164 120.953 300.606 119.649 299.806 121.03C299.516 121.532 299.042 121.543 298.085 121.463C294.477 121.164 293.889 120.783 294.42 121.428C294.595 121.641 295.756 122.063 296.023 122.134C296.936 122.379 297.873 122.418 298.818 122.396C299.496 122.38 300.043 122.178 300.397 121.573C300.637 121.162 300.983 121.264 302.053 121.264V121.288C303.357 121.288 303.85 121.317 304.889 120.626C305.307 120.348 305.079 119.44 304.626 119.798Z" fill="black"/>
<path d="M289.058 106.03C287.953 107.437 287.646 108.492 287.46 109.327C287.26 110.231 287.349 111.076 287.453 111.24C287.549 111.393 287.884 111.318 287.904 111.229C288.085 110.424 287.436 110.015 289.604 106.947C290.113 106.227 290.642 105.631 291.039 105.473C291.571 105.26 290.775 103.847 289.058 106.03Z" fill="black"/>
<path d="M267.451 145.574C267.218 146.473 265.955 147.688 264.768 147.9C264.38 147.969 264.318 148.418 264.669 148.632C265.484 149.131 266.769 148.304 267.444 147.35C267.957 146.623 268.062 145.864 268.302 146.293C269.385 148.225 267.509 150.989 267.958 151.211C268.636 151.546 269.752 149.239 269.794 147.813C269.681 144.998 267.767 144.35 267.451 145.574Z" fill="black"/>
<path d="M261.849 133.066C260.902 132.356 257.764 132.915 258.014 134.864C258.055 135.177 258.508 135.423 258.769 135.12C259.374 134.418 260.217 133.728 261.916 133.988C262.322 134.05 262.45 133.518 261.849 133.066Z" fill="black"/>
<path d="M260.651 139.159C260.842 139.434 261.128 139.414 261.403 139.37C261.814 139.305 261.797 138.645 261.792 138.74C261.832 136.184 259.03 136.824 260.651 139.159Z" fill="black"/>
<path d="M279.02 120.471C276.09 118.06 273.979 116.675 270.249 115.977C269.112 115.764 268.203 116.274 269.367 116.597C277.706 118.892 278.437 122.473 283.9 125.112C285.481 125.876 279.806 121.117 279.02 120.471Z" fill="black"/>
<path d="M45.5536 129.796C44.3968 130.181 43.6494 128.591 44.6838 127.946L53.3624 122.534C64.5689 115.545 69.5268 101.788 65.3551 89.2579L62.1243 79.5538C61.7392 78.3969 63.3291 77.6494 63.9744 78.684L69.3863 87.3626C76.3746 98.5689 90.1315 103.527 102.662 99.3551L112.366 96.1244C113.523 95.7393 114.271 97.3291 113.236 97.9744L104.557 103.386C93.351 110.375 88.393 124.132 92.5648 136.662L95.7956 146.366C96.1806 147.523 94.5908 148.271 93.9456 147.236L88.5336 138.557C81.5453 127.351 67.7884 122.393 55.2578 126.565L45.5536 129.796Z" fill="#F6DEAE"/>
</g>
<defs>
<clipPath id="clip0_480_1049">
<rect width="403" height="314" fill="white"/>
</clipPath>
</defs>
</svg>
