<svg width="403" height="314" viewBox="0 0 403 314" fill="none" xmlns="http://www.w3.org/2000/svg">
<g clip-path="url(#clip0_479_1056)">
<rect width="403" height="314" rx="15" fill="#F6DEAE"/>
<line x1="114.495" y1="150.932" x2="138.495" y2="326.932" stroke="black"/>
<circle cx="114" cy="139" r="50" fill="#F2A300"/>
<path d="M95.9959 134.881L96.679 144.713L102.25 144.326L102.356 145.858L95.0776 146.364L94.288 135L95.9959 134.881ZM110.705 141.205L110.737 141.667L104.528 142.099C104.659 142.902 104.941 143.498 105.374 143.885C105.806 144.261 106.369 144.425 107.06 144.377C108.103 144.304 108.752 143.799 109.008 142.862L110.62 142.75C110.455 143.606 110.065 144.302 109.45 144.836C108.845 145.36 108.068 145.654 107.121 145.72C105.94 145.802 104.961 145.474 104.182 144.737C103.404 144 102.97 142.982 102.879 141.684C102.789 140.386 103.079 139.318 103.748 138.48C104.416 137.643 105.331 137.183 106.491 137.103C107.704 137.019 108.69 137.362 109.449 138.132C110.198 138.904 110.616 139.928 110.705 141.205ZM106.584 138.444C105.956 138.487 105.453 138.715 105.075 139.126C104.708 139.536 104.502 140.107 104.457 140.837L109.006 140.521C108.885 139.856 108.608 139.335 108.175 138.959C107.753 138.571 107.222 138.399 106.584 138.444ZM119.725 143.417L120.172 143.386L120.257 144.615C120.025 144.663 119.766 144.697 119.478 144.717C118.968 144.752 118.578 144.689 118.31 144.525C118.052 144.351 117.883 144.063 117.801 143.663C117.309 144.574 116.445 145.072 115.211 145.158C114.306 145.221 113.573 145.058 113.012 144.669C112.46 144.269 112.157 143.686 112.104 142.92C112.001 141.43 112.974 140.507 115.023 140.151L116.227 139.939C116.649 139.856 116.951 139.728 117.131 139.555C117.321 139.371 117.406 139.124 117.384 138.816C117.356 138.401 117.202 138.112 116.923 137.95C116.655 137.776 116.217 137.71 115.61 137.752C114.951 137.798 114.485 137.943 114.213 138.186C113.941 138.419 113.802 138.813 113.798 139.37L112.218 139.48C112.207 137.631 113.308 136.629 115.522 136.475C117.692 136.325 118.834 137.058 118.946 138.675L119.249 143.033C119.268 143.309 119.427 143.437 119.725 143.417ZM115.364 143.896C116.045 143.849 116.595 143.618 117.016 143.204C117.436 142.79 117.622 142.232 117.573 141.529L117.513 140.667C117.323 140.852 116.99 140.987 116.515 141.074L115.374 141.281C114.762 141.398 114.331 141.578 114.081 141.82C113.829 142.051 113.718 142.364 113.745 142.758C113.772 143.151 113.921 143.451 114.192 143.657C114.473 143.851 114.864 143.931 115.364 143.896ZM125.232 135.865C125.466 135.849 125.621 135.843 125.696 135.849L125.801 137.365L125.402 137.393C124.583 137.45 123.964 137.696 123.545 138.131C123.126 138.567 122.944 139.167 122.997 139.934L123.307 144.403L121.711 144.514L121.139 136.278L122.671 136.171L122.773 137.64C123.221 136.539 124.04 135.948 125.232 135.865ZM131.363 135.375C132.268 135.312 132.993 135.518 133.539 135.993C134.085 136.458 134.39 137.153 134.454 138.079L134.838 143.602L133.242 143.713L132.874 138.413C132.794 137.264 132.174 136.73 131.014 136.81C130.482 136.847 130.017 137.083 129.62 137.517C129.223 137.961 129.051 138.567 129.104 139.333L129.427 143.978L127.831 144.088L127.259 135.852L128.791 135.746L128.876 136.975C129.438 135.984 130.267 135.451 131.363 135.375Z" fill="#114F3C"/>
<line x1="290.484" y1="189.126" x2="254.606" y2="327.108" stroke="black"/>
<path d="M292.238 126.916C293.184 122.274 299.816 122.274 300.762 126.916L304.555 145.527C305.203 148.708 308.982 150.084 311.524 148.064L326.392 136.245C330.101 133.297 335.182 137.56 332.923 141.724L323.865 158.419C322.317 161.273 324.328 164.756 327.573 164.842L346.56 165.345C351.296 165.47 352.447 172.003 348.04 173.74L330.371 180.707C327.35 181.898 326.652 185.858 329.083 188.011L343.304 200.601C346.851 203.741 343.535 209.485 339.042 207.983L321.028 201.962C317.949 200.933 314.868 203.518 315.347 206.73L318.148 225.515C318.847 230.201 312.614 232.469 310.137 228.431L300.208 212.24C298.511 209.472 294.489 209.472 292.792 212.24L282.863 228.431C280.386 232.469 274.153 230.201 274.852 225.515L277.653 206.73C278.132 203.518 275.051 200.933 271.972 201.962L253.958 207.983C249.465 209.485 246.149 203.741 249.696 200.601L263.917 188.011C266.348 185.858 265.65 181.898 262.629 180.707L244.96 173.74C240.553 172.003 241.704 165.47 246.44 165.345L265.427 164.842C268.672 164.756 270.683 161.273 269.135 158.419L260.077 141.724C257.818 137.56 262.899 133.297 266.608 136.245L281.476 148.064C284.017 150.084 287.797 148.708 288.445 145.527L292.238 126.916Z" fill="#114F3C"/>
<path d="M285.272 173.266L286.439 170.013L287.991 170.57L284.143 181.292L282.29 180.628L280.857 174.248C280.433 172.397 280.148 170.997 280.001 170.049C279.612 171.258 278.988 173.062 278.127 175.462L276.959 178.715L275.393 178.152L279.241 167.43L281.093 168.095L282.542 174.479C282.927 176.215 283.211 177.62 283.392 178.694C283.784 177.475 284.411 175.666 285.272 173.266ZM292.912 183.385C291.933 183.872 290.871 183.911 289.727 183.5C288.582 183.089 287.787 182.385 287.34 181.386C286.894 180.387 286.891 179.275 287.33 178.05C287.773 176.815 288.485 175.954 289.464 175.467C290.43 174.987 291.49 174.953 292.645 175.368C293.799 175.782 294.597 176.482 295.036 177.467C295.476 178.452 295.473 179.567 295.026 180.812C294.583 182.047 293.878 182.905 292.912 183.385ZM288.784 180.867C289.02 181.507 289.488 181.953 290.191 182.205C290.894 182.457 291.535 182.409 292.113 182.061C292.701 181.717 293.15 181.113 293.46 180.25C293.769 179.386 293.807 178.635 293.572 177.995C293.347 177.359 292.883 176.915 292.18 176.663C291.477 176.411 290.832 176.457 290.244 176.801C289.655 177.145 289.206 177.749 288.897 178.612C288.587 179.476 288.549 180.227 288.784 180.867ZM301.388 178.709L300.945 179.944L299.379 179.382L297.703 184.051C297.62 184.281 297.624 184.476 297.715 184.633C297.82 184.784 298.033 184.917 298.354 185.032L299.032 185.275L298.599 186.48C298.257 186.391 297.946 186.296 297.665 186.195C296.932 185.932 296.44 185.597 296.189 185.19C295.939 184.783 295.925 184.268 296.149 183.646L297.873 178.842L296.623 178.393L297.066 177.158L298.316 177.607L299.116 175.378L300.622 175.918L299.822 178.147L301.388 178.709ZM308.427 185.689L308.27 186.126L302.412 184.023C302.209 184.812 302.227 185.47 302.468 185.998C302.713 186.517 303.162 186.893 303.814 187.127C304.798 187.48 305.595 187.279 306.207 186.524L307.728 187.07C307.232 187.787 306.595 188.267 305.817 188.509C305.053 188.745 304.224 188.702 303.33 188.382C302.216 187.982 301.45 187.288 301.034 186.3C300.618 185.312 300.63 184.205 301.069 182.981C301.509 181.756 302.203 180.894 303.153 180.396C304.102 179.898 305.124 179.846 306.218 180.238C307.363 180.649 308.128 181.36 308.513 182.371C308.888 183.378 308.859 184.484 308.427 185.689ZM305.764 181.503C305.172 181.291 304.62 181.297 304.109 181.521C303.608 181.75 303.189 182.189 302.854 182.839L307.146 184.379C307.303 183.721 307.259 183.133 307.014 182.615C306.783 182.09 306.367 181.72 305.764 181.503ZM311.529 191.341C309.37 190.566 308.554 189.27 309.082 187.454L310.588 187.994C310.453 188.558 310.492 189.002 310.704 189.328C310.916 189.653 311.338 189.929 311.971 190.156C313.115 190.567 313.817 190.411 314.076 189.688C314.188 189.377 314.154 189.093 313.974 188.835C313.795 188.578 313.413 188.283 312.831 187.949L312.086 187.512C310.548 186.62 310.002 185.551 310.449 184.306C310.697 183.614 311.16 183.162 311.836 182.951C312.516 182.731 313.323 182.788 314.256 183.123C316.395 183.89 317.178 185.151 316.605 186.906L315.144 186.382C315.301 185.849 315.272 185.425 315.056 185.11C314.844 184.785 314.437 184.514 313.835 184.298C313.353 184.125 312.949 184.082 312.623 184.169C312.297 184.256 312.075 184.465 311.956 184.796C311.848 185.098 311.879 185.375 312.048 185.628C312.222 185.872 312.541 186.134 313.007 186.414L313.772 186.842C314.661 187.365 315.251 187.883 315.543 188.395C315.835 188.908 315.866 189.486 315.635 190.128C315.365 190.881 314.868 191.366 314.145 191.582C313.425 191.789 312.553 191.708 311.529 191.341Z" fill="#F6DEAE"/>
</g>
<defs>
<clipPath id="clip0_479_1056">
<rect width="403" height="314" fill="white"/>
</clipPath>
</defs>
</svg>
