<svg width="76" height="74" viewBox="0 0 76 74" fill="none" xmlns="http://www.w3.org/2000/svg">
<path d="M35.0604 2.42494C35.7128 -0.77634 40.2872 -0.77633 40.9396 2.42495L43.5552 15.2599C44.0023 17.4541 46.6086 18.4027 48.3615 17.0093L58.6154 8.8584C61.1728 6.82541 64.677 9.76581 63.119 12.6375L56.8725 24.1509C55.8047 26.1191 57.1915 28.5211 59.4299 28.5805L72.5241 28.9275C75.7901 29.0141 76.5844 33.519 73.545 34.7174L61.3592 39.522C59.276 40.3433 58.7944 43.0748 60.471 44.5591L70.2787 53.2418C72.7249 55.4074 70.4377 59.3689 67.3391 58.3333L54.9159 54.1809C52.7921 53.4711 50.6674 55.2539 50.9977 57.4687L52.9297 70.4242C53.4116 73.6556 49.113 75.2201 47.4051 72.435L40.5574 61.2686C39.3868 59.3597 36.6132 59.3597 35.4426 61.2686L28.5949 72.435C26.887 75.2201 22.5884 73.6556 23.0703 70.4242L25.0023 57.4687C25.3326 55.2539 23.2079 53.4711 21.0841 54.1809L8.66088 58.3333C5.56231 59.3689 3.27511 55.4074 5.72131 53.2418L15.529 44.5591C17.2056 43.0748 16.724 40.3433 14.6408 39.522L2.45496 34.7174C-0.584401 33.519 0.20995 29.0141 3.47588 28.9275L16.5701 28.5805C18.8085 28.5211 20.1953 26.1191 19.1275 24.1509L12.8809 12.6375C11.3229 9.7658 14.8272 6.82542 17.3847 8.85841L27.6385 17.0093C29.3914 18.4027 31.9977 17.4541 32.4448 15.2599L35.0604 2.42494Z" fill="#F2994A"/>
</svg>
