<svg width="116" height="39" viewBox="0 0 116 39" fill="none" xmlns="http://www.w3.org/2000/svg">
<path d="M28.864 13.981H15.4877V17.9504H24.9762C24.5049 23.5147 19.874 25.8891 15.5059 25.8891C12.6937 25.8891 9.9968 24.772 8.00833 22.7835C6.01986 20.795 4.90275 18.0981 4.90275 15.286C4.90275 12.4739 6.01986 9.77691 8.00833 7.78844C9.9968 5.79997 12.6937 4.68286 15.5059 4.68286C18.1713 4.67871 20.7345 5.70853 22.6562 7.55567L25.4384 4.67379C22.7505 2.07652 19.1435 0.649354 15.4062 0.704417C13.4913 0.718103 11.5979 1.10882 9.83399 1.85426C8.07012 2.59969 6.47033 3.68525 5.12599 5.04895C3.78164 6.41265 2.71906 8.02779 1.99891 9.80214C1.27876 11.5765 0.915153 13.4753 0.928839 15.3902C0.942525 17.3051 1.33324 19.1985 2.07868 20.9624C2.82411 22.7263 3.90967 24.326 5.27337 25.6704C6.63707 27.0147 8.25221 28.0773 10.0266 28.7975C11.8009 29.5176 13.6997 29.8812 15.6146 29.8675C23.4174 29.8675 29.1359 24.5207 29.1359 16.6091C29.153 15.7267 29.0709 14.8451 28.8912 13.981H28.864ZM39.8206 11.1082C37.9703 11.1153 36.1636 11.6701 34.6282 12.7025C33.0928 13.7349 31.8974 15.1988 31.1926 16.9095C30.4879 18.6203 30.3054 20.5014 30.6681 22.3157C31.0308 24.1301 31.9225 25.7964 33.2308 27.1048C34.5392 28.4131 36.2055 29.3048 38.0199 29.6675C39.8342 30.0302 41.7153 29.8477 43.4261 29.143C45.1368 28.4382 46.6007 27.2428 47.6331 25.7074C48.6655 24.172 49.2203 22.3653 49.2274 20.515C49.247 19.2743 49.0171 18.0423 48.5513 16.8922C48.0855 15.742 47.3933 14.6972 46.5158 13.8198C45.6384 12.9423 44.5936 12.2501 43.4435 11.7843C42.2933 11.3185 41.0613 11.0886 39.8206 11.1082ZM39.8749 14.7875C41.0154 14.7203 42.1497 14.9974 43.1308 15.5827C44.1119 16.1681 44.8945 17.0347 45.3771 18.0702C45.8596 19.1058 46.0199 20.2624 45.8371 21.3901C45.6543 22.5178 45.1368 23.5646 44.3519 24.3947C43.5669 25.2247 42.5506 25.7998 41.4348 26.0452C40.3191 26.2906 39.1553 26.1951 38.0945 25.7711C37.0336 25.3471 36.1247 24.6141 35.4855 23.6671C34.8463 22.7202 34.5065 21.6031 34.5099 20.4607C34.4719 19.7316 34.5823 19.0023 34.8345 18.3172C35.0867 17.632 35.4754 17.0052 35.977 16.4747C36.4787 15.9443 37.0828 15.5212 37.7529 15.2312C38.4229 14.9412 39.1448 14.7902 39.8749 14.7875ZM60.3199 11.1082C58.4693 11.1136 56.6617 11.6668 55.1251 12.6981C53.5885 13.7294 52.3916 15.1927 51.6855 16.9033C50.9794 18.6139 50.7956 20.4953 51.1573 22.3102C51.519 24.1252 52.41 25.7924 53.718 27.1016C55.0259 28.4108 56.6923 29.3034 58.5069 29.6669C60.3214 30.0303 62.203 29.8484 63.9143 29.1439C65.6256 28.4394 67.09 27.244 68.1228 25.7083C69.1556 24.1727 69.7106 22.3657 69.7177 20.515C69.7373 19.2751 69.5076 18.0438 69.0424 16.8943C68.5771 15.7448 67.8858 14.7004 67.0093 13.8231C66.1328 12.9457 65.0891 12.2534 63.94 11.787C62.7909 11.3207 61.5599 11.0898 60.3199 11.1082ZM60.3743 14.7875C61.5148 14.7203 62.6491 14.9974 63.6302 15.5827C64.6113 16.1681 65.3939 17.0347 65.8764 18.0702C66.359 19.1058 66.5193 20.2624 66.3365 21.3901C66.1536 22.5178 65.6362 23.5646 64.8512 24.3947C64.0663 25.2247 63.05 25.7998 61.9342 26.0452C60.8184 26.2906 59.6547 26.1951 58.5938 25.7711C57.533 25.3471 56.6241 24.6141 55.9849 23.6671C55.3457 22.7202 55.0058 21.6031 55.0093 20.4607C54.9713 19.7316 55.0817 19.0023 55.3339 18.3172C55.5861 17.632 55.9748 17.0052 56.4764 16.4747C56.9781 15.9443 57.5822 15.5212 58.2522 15.2312C58.9223 14.9412 59.6442 14.7902 60.3743 14.7875ZM80.4115 11.1172C75.3727 11.1172 71.4124 15.5307 71.4124 20.4788C71.3753 22.8968 72.2872 25.2331 73.9526 26.9865C75.618 28.74 77.9042 29.771 80.3209 29.8585C81.2961 29.9116 82.27 29.7332 83.1631 29.3379C84.0562 28.9425 84.843 28.3415 85.4593 27.5838V29.3963C85.4593 32.6316 83.4927 34.5619 80.5293 34.5619C79.4958 34.5534 78.4884 34.2366 77.6359 33.6522C76.7835 33.0677 76.1249 32.2422 75.7443 31.2813L72.1193 32.7857C72.8204 34.4363 73.9955 35.8418 75.4958 36.8242C76.9961 37.8067 78.7542 38.3219 80.5474 38.3047C85.559 38.3047 89.3743 35.151 89.3743 28.5354V11.6791H85.4684V13.265C84.8278 12.5666 84.045 12.0135 83.1727 11.643C82.3004 11.2725 81.3589 11.0932 80.4115 11.1172ZM80.774 14.7875C83.2481 14.7875 85.7765 16.8991 85.7765 20.4969C85.7765 24.0947 83.2481 26.1791 80.7196 26.1791C80.0046 26.1609 79.3006 25.999 78.6495 25.703C77.9984 25.4069 77.4136 24.9828 76.9298 24.456C76.4461 23.9291 76.0734 23.3103 75.8339 22.6363C75.5944 21.9624 75.4931 21.2471 75.5359 20.5332C75.5359 16.9082 78.1277 14.7875 80.774 14.7875ZM106.874 11.09C102.125 11.09 98.1287 14.8691 98.1287 20.4516C98.0817 21.6819 98.286 22.9089 98.7289 24.0576C99.1719 25.2063 99.8443 26.2528 100.705 27.1331C101.566 28.0133 102.597 28.709 103.735 29.1776C104.874 29.6462 106.096 29.8778 107.327 29.8585C108.871 29.8615 110.392 29.4885 111.76 28.7716C113.127 28.0548 114.3 27.0156 115.175 25.7441L111.931 23.5872C111.461 24.3848 110.788 25.0438 109.981 25.4974C109.174 25.951 108.262 26.1831 107.336 26.17C106.375 26.2098 105.423 25.9609 104.604 25.4553C103.786 24.9498 103.137 24.2108 102.742 23.3335L115.311 18.1225L114.659 16.591C114.06 15 112.996 13.6257 111.606 12.6464C110.217 11.6672 108.565 11.1281 106.865 11.0991L106.874 11.09ZM107.037 14.715C107.746 14.6845 108.449 14.8566 109.064 15.2113C109.679 15.5661 110.18 16.0886 110.508 16.7179L102.116 20.225C102.075 19.5395 102.169 18.8525 102.394 18.2037C102.62 17.5548 102.971 16.9571 103.429 16.4448C103.886 15.9325 104.441 15.5159 105.06 15.2191C105.679 14.9222 106.351 14.7509 107.037 14.715ZM92.1384 29.3057H96.2709V1.67411H92.1384V29.3057Z" fill="white"/>
</svg>
