<svg width="45" height="59" viewBox="0 0 45 59" fill="none" xmlns="http://www.w3.org/2000/svg">
<circle cx="22.5" cy="23" r="22.5" fill="#98BC6D"/>
<path d="M18.18 29.5981C17.3946 29.5981 16.7073 29.4508 16.1182 29.1563C15.5291 28.829 15.0546 28.4035 14.6946 27.8799C14.3673 27.3563 14.1055 26.7345 13.9091 26.0145C13.7128 25.2945 13.6146 24.5417 13.6146 23.7563C13.6146 22.1526 14.0237 20.6472 14.8419 19.2399C15.6928 17.8326 17.0019 16.7199 18.7691 15.9017L19.211 16.7854C18.2946 17.2108 17.4764 17.8326 16.7564 18.6508C16.0691 19.4363 15.66 20.2708 15.5291 21.1545C15.3328 21.8417 15.3164 22.5126 15.48 23.1672C16.2 22.3817 17.1655 21.989 18.3764 21.989C19.4891 21.989 20.4055 22.3326 21.1255 23.0199C21.8455 23.6745 22.2055 24.5908 22.2055 25.769C22.2055 26.9145 21.8291 27.8472 21.0764 28.5672C20.3237 29.2545 19.3582 29.5981 18.18 29.5981ZM28.2928 29.5981C27.5073 29.5981 26.82 29.4508 26.231 29.1563C25.6419 28.829 25.1673 28.4035 24.8073 27.8799C24.48 27.3563 24.2182 26.7345 24.0219 26.0145C23.8255 25.2945 23.7273 24.5417 23.7273 23.7563C23.7273 22.1526 24.1364 20.6472 24.9546 19.2399C25.8055 17.8326 27.1146 16.7199 28.8819 15.9017L29.3237 16.7854C28.4073 17.2108 27.5891 17.8326 26.8691 18.6508C26.1819 19.4363 25.7728 20.2708 25.6419 21.1545C25.4455 21.8417 25.4291 22.5126 25.5928 23.1672C26.3128 22.3817 27.2782 21.989 28.4891 21.989C29.6019 21.989 30.5182 22.3326 31.2382 23.0199C31.9582 23.6745 32.3182 24.5908 32.3182 25.769C32.3182 26.9145 31.9419 27.8472 31.1891 28.5672C30.4364 29.2545 29.471 29.5981 28.2928 29.5981Z" fill="white"/>
</svg>
