<svg width="136" height="30" viewBox="0 0 136 30" fill="none" xmlns="http://www.w3.org/2000/svg">
<path d="M13.9045 15.6287V29.3956H0.143066V15.6287H13.9045ZM29.1045 15.6287V29.3956H15.3404V15.6287H29.1045ZM127.071 4.95614C127.621 4.95614 128.083 5.00319 128.456 5.09728L128.77 5.195V7.70842L128.662 7.65957C128.257 7.47474 127.818 7.37497 127.373 7.36643C126.788 7.36823 126.336 7.55371 126.015 7.92285C125.748 8.23409 125.59 8.67019 125.543 9.23114L125.53 9.58128V11.1474H129.924V8.33543L132.861 7.437V11.1474H135.825V13.5333H132.861V19.4043C132.861 20.1607 132.995 20.6945 133.262 21.0057C133.529 21.3097 133.948 21.4617 134.522 21.4617C134.721 21.4562 134.918 21.4233 135.108 21.364C135.253 21.3224 135.393 21.2688 135.529 21.2039L135.703 21.1034L135.825 21.022V23.4323L135.784 23.454C135.494 23.592 135.186 23.6897 134.869 23.7444C134.435 23.8385 134.016 23.8856 133.613 23.8856C131.305 23.8856 130.073 22.7049 129.935 20.3706L129.924 19.92V13.5333H125.53V23.5843H122.568V13.5333H120.505V11.1447H122.568V9.42385C122.568 8.55709 122.757 7.78262 123.135 7.10043C123.517 6.42004 124.051 5.89257 124.737 5.518C125.421 5.14614 126.208 4.95614 127.071 4.95614ZM114.021 10.8461C115.954 10.8461 117.487 11.4216 118.576 12.5561C119.667 13.6907 120.218 15.2677 120.218 17.2464C120.218 19.2496 119.629 20.8727 118.467 22.0751C117.308 23.2749 115.709 23.8856 113.722 23.8856C111.814 23.8856 110.272 23.3074 109.138 22.1647C108.006 21.0247 107.431 19.4559 107.431 17.5097C107.431 15.4604 108.02 13.8183 109.181 12.6321C110.343 11.446 111.972 10.8461 114.021 10.8461ZM102.656 10.8461C103.085 10.8461 103.571 10.8968 104.114 10.9981C104.521 11.0723 104.874 11.161 105.172 11.2641L105.493 11.389V14.0951L105.371 14.011C104.966 13.7445 104.524 13.5396 104.06 13.403C103.573 13.2524 103.067 13.1747 102.558 13.1723C102.025 13.1723 101.605 13.2908 101.299 13.5279C101.159 13.6291 101.044 13.7626 100.966 13.917C100.888 14.0714 100.847 14.2423 100.849 14.4154C100.849 14.8244 100.966 15.1438 101.201 15.3736C101.31 15.4749 101.478 15.5889 101.706 15.7156L102.249 15.987L102.586 16.1309L102.96 16.2856C104.122 16.756 104.943 17.2799 105.425 17.8571C105.908 18.4353 106.152 19.1546 106.152 19.9933C106.152 21.155 105.699 22.105 104.803 22.8189C103.913 23.5246 102.694 23.8856 101.18 23.8856C100.691 23.8856 100.124 23.8204 99.5022 23.6901C99.0821 23.6079 98.6692 23.4926 98.2672 23.3454L97.8872 23.1853V20.3353L98.0094 20.4221C98.516 20.784 99.0688 21.0645 99.6678 21.2636C100.267 21.459 100.807 21.5576 101.288 21.5594C102.575 21.5594 103.202 21.1523 103.202 20.3163C103.214 20.0677 103.149 19.8215 103.017 19.6106C102.835 19.3887 102.611 19.2051 102.358 19.0704L102.146 18.9537L101.587 18.685L100.862 18.3729C100.057 18.0272 99.4561 17.6916 99.0598 17.3659C98.6771 17.0563 98.3737 16.6599 98.1749 16.2096C97.9729 15.7213 97.8749 15.1962 97.8872 14.6679C97.8872 13.5441 98.3378 12.6159 99.2254 11.9074C100.105 11.2017 101.261 10.8489 102.656 10.8489M90.2981 10.8489C92.2306 10.8489 93.7615 11.4243 94.8526 12.5589C95.9438 13.6934 96.4921 15.2704 96.4921 17.2491C96.4921 19.2523 95.9058 20.8754 94.7441 22.0779C93.5824 23.2803 91.9864 23.8883 89.9968 23.8883C88.0886 23.8883 86.5496 23.3101 85.4151 22.1674C84.2805 21.0274 83.7051 19.4613 83.7051 17.5124C83.7051 15.4631 84.2968 13.821 85.4558 12.6349C86.6148 11.4487 88.2461 10.8489 90.2981 10.8489ZM71.0456 10.8489C71.5704 10.8489 72.1151 10.9077 72.6796 11.0253C73.1049 11.1121 73.465 11.2207 73.7599 11.351L74.0721 11.5057V14.3286L73.9499 14.2417C73.0651 13.5984 72.1259 13.2727 71.1651 13.2727C70.0414 13.2727 69.1185 13.6527 68.4236 14.4046C67.7234 15.1591 67.3678 16.1797 67.3678 17.4391C67.3678 18.6931 67.7071 19.6893 68.3775 20.3977C69.0506 21.1089 69.9645 21.4653 71.1189 21.4671C71.5333 21.4671 72.0002 21.3767 72.5195 21.1957C72.8633 21.0745 73.1908 20.9234 73.5021 20.7424L73.9499 20.4493L74.0721 20.3597V23.0387L74.0341 23.0604C73.0841 23.6087 71.8952 23.8883 70.5055 23.8883C69.3906 23.9066 68.2896 23.6383 67.3081 23.1093C66.3805 22.5978 65.62 21.8297 65.1176 20.8971C64.5858 19.9145 64.3157 18.8115 64.3332 17.6943C64.3332 16.3507 64.6046 15.1483 65.1394 14.1169C65.6768 13.0854 66.4666 12.2711 67.4872 11.7039C68.5051 11.1366 69.7048 10.8489 71.0456 10.8489ZM82.3208 10.933C82.6863 10.933 82.9939 10.9656 83.2436 11.0307L83.5151 11.1284V14.0789L83.3902 13.9893C83.1805 13.8589 82.9501 13.7653 82.7089 13.7124C82.4224 13.6321 82.127 13.5883 81.8295 13.5821C81.4554 13.5766 81.0859 13.6655 80.7553 13.8406C80.4246 14.0156 80.1434 14.2712 79.9376 14.5837C79.5214 15.1628 79.2835 15.8929 79.2238 16.7741L79.2075 17.2247V23.587H76.2815V11.1501H79.2075V13.3026H79.2374C79.5115 12.605 79.8698 12.0431 80.3638 11.636C80.9302 11.1673 81.5825 10.933 82.3208 10.933ZM62.3165 11.1501V23.587H59.3905V11.1501H62.3165ZM42.0869 6.23186L47.1844 19.1247L52.4365 6.23186H56.5676V23.587H53.5819V10.2327H53.4869L48.1886 23.587H46.0715L40.6864 10.2327H40.5914V23.587H37.7848V6.23186H42.0869ZM113.864 13.2727C112.805 13.2727 111.964 13.6337 111.366 14.3476C110.767 15.0669 110.463 16.0983 110.463 17.4147C110.463 18.6995 110.764 19.6965 111.366 20.4059C111.964 21.1116 112.813 21.4644 113.888 21.4644C114.968 21.4644 115.796 21.117 116.347 20.4276C116.901 19.7327 117.18 18.6959 117.18 17.3441C117.18 16.0114 116.882 14.9854 116.293 14.3014C115.709 13.6174 114.889 13.2727 113.864 13.2727ZM90.1406 13.27C89.0821 13.27 88.2406 13.631 87.6435 14.3449C87.0436 15.0641 86.7369 16.0956 86.7369 17.412C86.7369 18.6968 87.0391 19.6938 87.6435 20.4031C88.2443 21.1089 89.0839 21.4617 90.1624 21.4617C91.2481 21.4617 92.0678 21.1161 92.6215 20.4249C93.1752 19.73 93.4575 18.6931 93.4575 17.3414C93.4575 16.0087 93.1589 14.9827 92.5699 14.2987C91.98 13.6129 91.1693 13.2691 90.1379 13.2673M13.9045 0.428711V14.1929H0.143066V0.428711H13.9045ZM29.1018 0.428711V14.1929H15.3404V0.428711H29.1018ZM60.8834 5.84643C61.3918 5.84824 61.8162 6.01562 62.1564 6.34857C62.32 6.50378 62.4496 6.69128 62.537 6.8992C62.6243 7.10712 62.6676 7.33092 62.6639 7.55642C62.6688 7.78163 62.6245 8.00518 62.534 8.21146C62.4435 8.41774 62.3091 8.60178 62.1401 8.75071C61.7976 9.06463 61.3479 9.23557 60.8834 9.22843C60.4206 9.2377 59.9721 9.06747 59.6321 8.75342C59.4656 8.6023 59.3335 8.41727 59.2445 8.2108C59.1556 8.00433 59.1119 7.7812 59.1164 7.55642C59.1164 7.07147 59.2901 6.66433 59.6375 6.335C59.9725 6.01485 60.42 5.83935 60.8834 5.84643Z" fill="white"/>
</svg>
