<svg width="70" height="70" viewBox="0 0 70 70" fill="none" xmlns="http://www.w3.org/2000/svg">
<path d="M1.55339 51.7957C0.396584 52.1807 -0.350888 50.5909 0.68357 49.9456L9.36219 44.5336C20.5686 37.5453 25.5266 23.7884 21.3548 11.2579L18.124 1.55381C17.739 0.396869 19.3288 -0.350604 19.9741 0.683986L25.3861 9.3626C32.3743 20.5689 46.1312 25.5269 58.6618 21.3551L68.3659 18.1244C69.5228 17.7393 70.2703 19.3291 69.2357 19.9744L60.5571 25.3864C49.3508 32.3747 44.3928 46.1316 48.5646 58.6622L51.7954 68.3663C52.1804 69.5231 50.5905 70.2706 49.9453 69.2361L44.5333 60.5575C37.545 49.3511 23.7881 44.3931 11.2575 48.5649L1.55339 51.7957Z" fill="#114F3C"/>
</svg>
