<svg width="20" height="15" viewBox="0 0 20 15" fill="none" xmlns="http://www.w3.org/2000/svg">
<path d="M5.18004 14.5981C4.39459 14.5981 3.70732 14.4508 3.11823 14.1563C2.52914 13.829 2.05459 13.4035 1.69459 12.8799C1.36732 12.3563 1.1055 11.7345 0.909135 11.0145C0.712772 10.2945 0.61459 9.54173 0.61459 8.75627C0.61459 7.15264 1.02368 5.64718 1.84186 4.23991C2.69277 2.83264 4.00186 1.71991 5.76914 0.901727L6.21095 1.78536C5.29459 2.21082 4.47641 2.83264 3.75641 3.65082C3.06914 4.43627 2.66004 5.27082 2.52914 6.15446C2.33277 6.84173 2.31641 7.51264 2.48004 8.16718C3.20004 7.38173 4.1655 6.989 5.37641 6.989C6.48914 6.989 7.4055 7.33264 8.1255 8.01991C8.8455 8.67446 9.2055 9.59082 9.2055 10.769C9.2055 11.9145 8.82914 12.8472 8.07641 13.5672C7.32368 14.2545 6.35823 14.5981 5.18004 14.5981ZM15.2928 14.5981C14.5073 14.5981 13.82 14.4508 13.231 14.1563C12.6419 13.829 12.1673 13.4035 11.8073 12.8799C11.48 12.3563 11.2182 11.7345 11.0219 11.0145C10.8255 10.2945 10.7273 9.54173 10.7273 8.75627C10.7273 7.15264 11.1364 5.64718 11.9546 4.23991C12.8055 2.83264 14.1146 1.71991 15.8819 0.901727L16.3237 1.78536C15.4073 2.21082 14.5891 2.83264 13.8691 3.65082C13.1819 4.43627 12.7728 5.27082 12.6419 6.15446C12.4455 6.84173 12.4291 7.51264 12.5928 8.16718C13.3128 7.38173 14.2782 6.989 15.4891 6.989C16.6019 6.989 17.5182 7.33264 18.2382 8.01991C18.9582 8.67446 19.3182 9.59082 19.3182 10.769C19.3182 11.9145 18.9419 12.8472 18.1891 13.5672C17.4364 14.2545 16.471 14.5981 15.2928 14.5981Z" fill="white"/>
</svg>
