<svg width="801" height="501" viewBox="0 0 801 501" fill="none" xmlns="http://www.w3.org/2000/svg">
<g clip-path="url(#clip0_295_49)">
<rect width="801" height="501" rx="20" fill="#FAFAFA"/>
<path d="M60.09 163H58.53C57.33 163 56.04 162.07 56.04 160.27V142.45H57.9C58.95 142.45 60.09 143.32 60.09 144.64V163ZM79.3738 163H78.2938C76.4938 163 75.3538 161.86 75.3538 160.36V153.94C75.3538 151.21 74.1538 150.01 72.0838 150.01C70.3438 150.01 69.1438 151.33 69.1438 153.64V163H67.9438C66.2338 163 65.1238 161.86 65.1238 160.36V153.37C65.1238 149.95 67.3738 146.44 72.4138 146.44C76.2238 146.44 79.3738 148.99 79.3738 153.58V163ZM84.4379 147.46C84.4379 145.87 84.7379 145.27 85.6079 144.25C86.1479 143.62 86.8679 143.14 87.4979 143.14H88.4279V146.8H94.0379V148.45C94.0379 149.29 93.2879 150.37 91.6379 150.37H88.4279V156.7C88.4279 158.8 89.3579 159.61 90.9779 159.61C92.2679 159.61 93.2579 159.43 93.8879 159.04H94.0379V160.48C94.0379 162.13 92.8379 163.18 90.4979 163.18C86.4179 163.18 84.4379 160.96 84.4379 157.18V147.46ZM111.096 152.71C111.096 155.68 108.846 156.64 103.506 156.64H100.866C101.166 158.68 103.026 159.97 105.396 159.97C107.076 159.97 109.056 159.64 110.346 158.44H110.496V159.7C110.496 161.77 109.086 163.36 104.646 163.36C100.626 163.36 96.6961 160.18 96.6961 155.23C96.6961 149.83 99.9961 146.44 104.616 146.44C107.976 146.44 111.096 148.84 111.096 152.71ZM107.316 152.23C107.316 150.61 106.116 149.8 104.256 149.8C102.306 149.8 100.956 151.39 100.866 153.25L100.836 153.79H102.636C106.446 153.79 107.316 153.37 107.316 152.23ZM124.505 150.73H124.355C123.755 150.49 123.065 150.25 122.015 150.25C120.215 150.25 119.225 151.24 119.225 153.7V163H118.115C116.315 163 115.175 162.1 115.175 160.42V152.98C115.175 149.74 116.885 146.65 121.145 146.65C123.635 146.65 124.505 148.06 124.505 149.29V150.73ZM140.437 157.48C140.437 160.9 137.917 163.27 134.317 163.27H133.507C129.667 163.27 127.027 161.11 127.027 158.14C127.027 155.26 129.127 153.07 135.067 153.07H136.477V152.86C136.477 150.58 135.397 149.89 132.997 149.89C130.087 149.89 128.467 151 127.867 151.75H127.717V150.46C127.717 148.66 129.337 146.5 133.597 146.5C137.197 146.5 140.437 148.18 140.437 153.76V157.48ZM136.507 157.51V155.95H135.067C132.007 155.95 131.137 156.67 131.137 157.99C131.137 159.25 132.157 160 133.927 160C135.667 160 136.507 159.16 136.507 157.51ZM157.016 152.02H156.866C156.326 151.09 154.796 150.34 152.486 150.34C150.146 150.34 148.076 152.23 148.076 154.63C148.076 157.57 149.816 159.58 152.546 159.58C154.856 159.58 156.236 158.83 156.806 158.08H156.956V159.94C156.956 161.89 155.066 163.3 152.156 163.3C147.716 163.3 143.876 159.85 143.876 155.23C143.876 150.61 147.086 146.65 152.606 146.65C155.186 146.65 157.016 148.21 157.016 150.13V152.02ZM161.069 147.46C161.069 145.87 161.369 145.27 162.239 144.25C162.779 143.62 163.499 143.14 164.129 143.14H165.059V146.8H170.669V148.45C170.669 149.29 169.919 150.37 168.269 150.37H165.059V156.7C165.059 158.8 165.989 159.61 167.609 159.61C168.899 159.61 169.889 159.43 170.519 159.04H170.669V160.48C170.669 162.13 169.469 163.18 167.129 163.18C163.049 163.18 161.069 160.96 161.069 157.18V147.46ZM178.937 143.29C178.937 144.58 177.857 145.66 176.567 145.66C175.277 145.66 174.227 144.58 174.227 143.29C174.227 142 175.277 140.95 176.567 140.95C177.857 140.95 178.937 142 178.937 143.29ZM181.817 160.72C181.817 162.46 181.127 163.15 179.417 163.15C176.297 163.15 174.587 161.38 174.587 158.11C174.587 157.18 174.587 147.16 174.587 147.16H175.727C177.527 147.16 178.607 148.12 178.607 150.16V157.72C178.607 159.34 179.297 159.85 181.067 159.85H181.817V160.72ZM198.177 148.72C198.177 149.2 197.787 151.15 196.797 153.85C195.717 156.82 193.917 160.72 192.117 163.18H191.337C190.137 163.18 189.507 162.76 188.697 161.56C186.507 158.23 183.747 151.18 183.387 146.8H185.547C186.927 146.8 187.797 147.85 187.947 148.72C188.517 151.72 189.327 154.84 191.037 158.17C192.567 155.14 193.977 150.85 194.577 146.8H196.287C197.667 146.8 198.177 147.4 198.177 148.72ZM215.215 152.71C215.215 155.68 212.965 156.64 207.625 156.64H204.985C205.285 158.68 207.145 159.97 209.515 159.97C211.195 159.97 213.175 159.64 214.465 158.44H214.615V159.7C214.615 161.77 213.205 163.36 208.765 163.36C204.745 163.36 200.815 160.18 200.815 155.23C200.815 149.83 204.115 146.44 208.735 146.44C212.095 146.44 215.215 148.84 215.215 152.71ZM211.435 152.23C211.435 150.61 210.235 149.8 208.375 149.8C206.425 149.8 205.075 151.39 204.985 153.25L204.955 153.79H206.755C210.565 153.79 211.435 153.37 211.435 152.23ZM240.474 160.21C240.474 162.01 239.574 163.18 236.184 163.18H234.594C229.764 163.18 227.094 160.48 227.094 155.56V142.45H228.774C230.454 142.45 231.324 143.41 231.324 145.45V155.29C231.324 158.41 232.044 159.55 235.134 159.55H236.184C238.134 159.55 239.724 159.1 240.474 158.8V160.21ZM257.239 152.71C257.239 155.68 254.989 156.64 249.649 156.64H247.009C247.309 158.68 249.169 159.97 251.539 159.97C253.219 159.97 255.199 159.64 256.489 158.44H256.639V159.7C256.639 161.77 255.229 163.36 250.789 163.36C246.769 163.36 242.839 160.18 242.839 155.23C242.839 149.83 246.139 146.44 250.759 146.44C254.119 146.44 257.239 148.84 257.239 152.71ZM253.459 152.23C253.459 150.61 252.259 149.8 250.399 149.8C248.449 149.8 247.099 151.39 247.009 153.25L246.979 153.79H248.779C252.589 153.79 253.459 153.37 253.459 152.23ZM274.007 157.48C274.007 160.9 271.487 163.27 267.887 163.27H267.077C263.237 163.27 260.597 161.11 260.597 158.14C260.597 155.26 262.697 153.07 268.637 153.07H270.047V152.86C270.047 150.58 268.967 149.89 266.567 149.89C263.657 149.89 262.037 151 261.437 151.75H261.287V150.46C261.287 148.66 262.907 146.5 267.167 146.5C270.767 146.5 274.007 148.18 274.007 153.76V157.48ZM270.077 157.51V155.95H268.637C265.577 155.95 264.707 156.67 264.707 157.99C264.707 159.25 265.727 160 267.497 160C269.237 160 270.077 159.16 270.077 157.51ZM287.526 150.73H287.376C286.776 150.49 286.086 150.25 285.036 150.25C283.236 150.25 282.246 151.24 282.246 153.7V163H281.136C279.336 163 278.196 162.1 278.196 160.42V152.98C278.196 149.74 279.906 146.65 284.166 146.65C286.656 146.65 287.526 148.06 287.526 149.29V150.73ZM305.018 163H303.938C302.138 163 300.998 161.86 300.998 160.36V153.94C300.998 151.21 299.798 150.01 297.728 150.01C295.988 150.01 294.788 151.33 294.788 153.64V163H293.588C291.878 163 290.768 161.86 290.768 160.36V153.37C290.768 149.95 293.018 146.44 298.058 146.44C301.868 146.44 305.018 148.99 305.018 153.58V163ZM314.792 143.29C314.792 144.58 313.712 145.66 312.422 145.66C311.132 145.66 310.082 144.58 310.082 143.29C310.082 142 311.132 140.95 312.422 140.95C313.712 140.95 314.792 142 314.792 143.29ZM317.672 160.72C317.672 162.46 316.982 163.15 315.272 163.15C312.152 163.15 310.442 161.38 310.442 158.11C310.442 157.18 310.442 147.16 310.442 147.16H311.582C313.382 147.16 314.462 148.12 314.462 150.16V157.72C314.462 159.34 315.152 159.85 316.922 159.85H317.672V160.72ZM335.173 163H334.093C332.293 163 331.153 161.86 331.153 160.36V153.94C331.153 151.21 329.953 150.01 327.883 150.01C326.143 150.01 324.943 151.33 324.943 153.64V163H323.743C322.033 163 320.923 161.86 320.923 160.36V153.37C320.923 149.95 323.173 146.44 328.213 146.44C332.023 146.44 335.173 148.99 335.173 153.58V163ZM354.247 156.28C354.247 156.82 354.277 157.75 354.307 158.47C354.337 159.13 354.367 160 354.367 160.54C354.367 164.59 351.667 168.22 346.447 168.22C343.117 168.22 340.837 166.6 340.837 164.68V162.85H341.017C341.977 163.87 343.837 164.59 346.147 164.59C349.057 164.59 350.377 163.21 350.377 160.87C350.377 160.63 350.377 160.3 350.347 160.03C350.347 159.79 350.317 159.37 350.317 159.22V158.83C349.987 160 348.457 161.23 346.147 161.23C342.217 161.23 339.427 158.5 339.427 154.69C339.427 150.13 342.427 146.44 347.647 146.44C351.667 146.44 354.247 149.38 354.247 153.52V156.28ZM347.197 150.01C345.127 150.01 343.567 151.75 343.567 154.18C343.567 156.28 344.857 157.84 346.777 157.84C348.787 157.84 350.227 156.34 350.227 153.76C350.227 151.24 348.967 150.01 347.197 150.01ZM381.12 159.16L381.09 160.6C381.06 162.25 380.22 163.15 376.62 163.15H374.43C369.42 163.15 366.78 160.39 366.78 155.14V151.33C366.78 149.38 366.93 147.19 367.17 145.54C367.5 143.08 368.64 142.45 370.32 142.45H381.06V143.83C381.06 145.27 380.19 145.99 378.3 145.99H371.25C371.04 147.49 370.95 149.5 370.95 150.79H378.87V152.26C378.87 153.61 378.03 154.15 376.38 154.15H370.95V155.35C370.95 158.92 372.12 159.61 375.3 159.61H376.62C378.12 159.61 379.65 159.49 381.12 159.16ZM399.028 161.23C399.028 162.37 398.158 163.24 396.388 163.24C394.678 163.24 393.508 162.28 392.098 160.15L390.328 157.48C389.308 158.65 388.648 159.55 388.198 160.33C387.658 161.26 387.448 162.07 387.298 163.06H385.468C384.538 163.06 383.818 162.43 383.818 161.62C383.818 159.7 384.928 158.11 386.938 155.95L388.258 154.54L386.548 152.08C384.748 149.47 383.728 148.03 383.668 146.8H386.068C386.848 146.8 387.838 147.31 389.638 149.86L391.288 152.2C393.868 149.29 394.288 148.45 394.558 146.83H396.088C397.258 146.83 397.738 147.64 397.738 148.54C397.738 149.26 397.138 150.52 395.848 152.2C395.188 153.07 394.348 154.06 393.388 155.14L395.158 157.72C396.898 160.27 397.618 160.93 399.028 161.23ZM417.779 154.42C417.779 159.61 415.199 163.36 410.489 163.36C408.689 163.36 407.219 162.34 406.409 160.96C406.409 163.21 406.409 168.1 406.409 168.1H405.149C403.709 168.1 402.329 167.05 402.329 165.31V155.53C402.329 150.16 404.729 146.44 410.429 146.44C414.719 146.44 417.779 150.34 417.779 154.42ZM413.639 155.47C413.639 151.66 412.379 150.01 409.799 150.01C407.579 150.01 406.349 151.93 406.349 154.72C406.349 157.96 407.939 159.79 410.339 159.79C412.289 159.79 413.639 158.05 413.639 155.47ZM435.582 152.71C435.582 155.68 433.332 156.64 427.992 156.64H425.352C425.652 158.68 427.512 159.97 429.882 159.97C431.562 159.97 433.542 159.64 434.832 158.44H434.982V159.7C434.982 161.77 433.572 163.36 429.132 163.36C425.112 163.36 421.182 160.18 421.182 155.23C421.182 149.83 424.482 146.44 429.102 146.44C432.462 146.44 435.582 148.84 435.582 152.71ZM431.802 152.23C431.802 150.61 430.602 149.8 428.742 149.8C426.792 149.8 425.442 151.39 425.352 153.25L425.322 153.79H427.122C430.932 153.79 431.802 153.37 431.802 152.23ZM448.991 150.73H448.841C448.241 150.49 447.551 150.25 446.501 150.25C444.701 150.25 443.711 151.24 443.711 153.7V163H442.601C440.801 163 439.661 162.1 439.661 160.42V152.98C439.661 149.74 441.371 146.65 445.631 146.65C448.121 146.65 448.991 148.06 448.991 149.29V150.73ZM457.093 143.29C457.093 144.58 456.013 145.66 454.723 145.66C453.433 145.66 452.383 144.58 452.383 143.29C452.383 142 453.433 140.95 454.723 140.95C456.013 140.95 457.093 142 457.093 143.29ZM459.973 160.72C459.973 162.46 459.283 163.15 457.573 163.15C454.453 163.15 452.743 161.38 452.743 158.11C452.743 157.18 452.743 147.16 452.743 147.16H453.883C455.683 147.16 456.763 148.12 456.763 150.16V157.72C456.763 159.34 457.453 159.85 459.223 159.85H459.973V160.72ZM476.873 152.71C476.873 155.68 474.623 156.64 469.283 156.64H466.643C466.943 158.68 468.803 159.97 471.173 159.97C472.853 159.97 474.833 159.64 476.123 158.44H476.273V159.7C476.273 161.77 474.863 163.36 470.423 163.36C466.403 163.36 462.473 160.18 462.473 155.23C462.473 149.83 465.773 146.44 470.393 146.44C473.753 146.44 476.873 148.84 476.873 152.71ZM473.093 152.23C473.093 150.61 471.893 149.8 470.033 149.8C468.083 149.8 466.733 151.39 466.643 153.25L466.613 153.79H468.413C472.223 153.79 473.093 153.37 473.093 152.23ZM495.202 163H494.122C492.322 163 491.182 161.86 491.182 160.36V153.94C491.182 151.21 489.982 150.01 487.912 150.01C486.172 150.01 484.972 151.33 484.972 153.64V163H483.772C482.062 163 480.952 161.86 480.952 160.36V153.37C480.952 149.95 483.202 146.44 488.242 146.44C492.052 146.44 495.202 148.99 495.202 153.58V163ZM512.506 152.02H512.356C511.816 151.09 510.286 150.34 507.976 150.34C505.636 150.34 503.566 152.23 503.566 154.63C503.566 157.57 505.306 159.58 508.036 159.58C510.346 159.58 511.726 158.83 512.296 158.08H512.446V159.94C512.446 161.89 510.556 163.3 507.646 163.3C503.206 163.3 499.366 159.85 499.366 155.23C499.366 150.61 502.576 146.65 508.096 146.65C510.676 146.65 512.506 148.21 512.506 150.13V152.02ZM530.059 152.71C530.059 155.68 527.809 156.64 522.469 156.64H519.829C520.129 158.68 521.989 159.97 524.359 159.97C526.039 159.97 528.019 159.64 529.309 158.44H529.459V159.7C529.459 161.77 528.049 163.36 523.609 163.36C519.589 163.36 515.659 160.18 515.659 155.23C515.659 149.83 518.959 146.44 523.579 146.44C526.939 146.44 530.059 148.84 530.059 152.71ZM526.279 152.23C526.279 150.61 525.079 149.8 523.219 149.8C521.269 149.8 519.919 151.39 519.829 153.25L519.799 153.79H521.599C525.409 153.79 526.279 153.37 526.279 152.23Z" fill="black"/>
<path opacity="0.8" d="M66.112 215.224L67.664 209.608H69.056L65.824 221H64.32L62.688 215.192C62.2293 213.549 61.8827 212.264 61.648 211.336C61.4133 212.264 61.0667 213.549 60.608 215.192L58.976 221H57.472L54.24 209.608H55.632L57.184 215.224C57.6747 216.963 58.032 218.323 58.256 219.304C58.6293 217.875 58.992 216.504 59.344 215.192L60.896 209.608H62.4L63.952 215.192C64.3147 216.504 64.6773 217.875 65.04 219.304C65.264 218.323 65.6213 216.963 66.112 215.224ZM77.41 216.872V217.32H71.138C71.202 218.216 71.4527 218.893 71.89 219.352C72.3273 219.8 72.9247 220.024 73.682 220.024C74.8233 220.024 75.554 219.512 75.874 218.488H77.202C76.978 219.32 76.562 219.981 75.954 220.472C75.346 220.952 74.578 221.192 73.65 221.192C72.5087 221.192 71.586 220.803 70.882 220.024C70.1673 219.245 69.81 218.195 69.81 216.872C69.81 215.571 70.162 214.525 70.866 213.736C71.5593 212.947 72.4767 212.552 73.618 212.552C74.802 212.552 75.73 212.963 76.402 213.784C77.074 214.605 77.41 215.635 77.41 216.872ZM73.618 213.72C72.946 213.72 72.3967 213.933 71.97 214.36C71.5433 214.776 71.2767 215.379 71.17 216.168H76.034C75.97 215.443 75.7247 214.856 75.298 214.408C74.8713 213.949 74.3113 213.72 73.618 213.72ZM88.0236 212.552C89.1863 212.552 90.1196 212.941 90.8236 213.72C91.517 214.509 91.8636 215.56 91.8636 216.872C91.8636 218.173 91.517 219.219 90.8236 220.008C90.1196 220.797 89.1863 221.192 88.0236 221.192C86.8396 221.192 85.917 220.733 85.2556 219.816V224.136H83.9756V212.744H85.1916V214.024C85.853 213.043 86.797 212.552 88.0236 212.552ZM87.8636 220.04C88.6636 220.04 89.3036 219.752 89.7836 219.176C90.2743 218.589 90.5196 217.8 90.5196 216.808C90.5196 215.837 90.2796 215.08 89.7996 214.536C89.3303 213.981 88.685 213.704 87.8636 213.704C87.053 213.704 86.4076 213.981 85.9276 214.536C85.4476 215.091 85.2076 215.869 85.2076 216.872C85.2076 217.864 85.4476 218.637 85.9276 219.192C86.4076 219.757 87.053 220.04 87.8636 220.04ZM98.2539 212.616C98.4672 212.616 98.6112 212.621 98.6859 212.632V213.864H98.3659C97.5125 213.864 96.8459 214.077 96.3659 214.504C95.8965 214.92 95.6619 215.517 95.6619 216.296V221H94.3819V212.744H95.5979V214.2C96.1525 213.144 97.0379 212.616 98.2539 212.616ZM102.194 211.496H100.834V209.928H102.194V211.496ZM102.162 221H100.882V212.744H102.162V221ZM111.565 220.008C110.808 220.797 109.848 221.192 108.685 221.192C107.522 221.192 106.562 220.797 105.805 220.008C105.058 219.229 104.685 218.184 104.685 216.872C104.685 215.56 105.058 214.515 105.805 213.736C106.562 212.947 107.522 212.552 108.685 212.552C109.848 212.552 110.808 212.947 111.565 213.736C112.312 214.515 112.685 215.56 112.685 216.872C112.685 218.184 112.312 219.229 111.565 220.008ZM106.749 219.192C107.229 219.757 107.874 220.04 108.685 220.04C109.496 220.04 110.141 219.757 110.621 219.192C111.101 218.637 111.341 217.864 111.341 216.872C111.341 215.869 111.101 215.091 110.621 214.536C110.141 213.981 109.496 213.704 108.685 213.704C107.874 213.704 107.229 213.981 106.749 214.536C106.269 215.091 106.029 215.869 106.029 216.872C106.029 217.864 106.269 218.637 106.749 219.192ZM119.082 212.616C119.295 212.616 119.439 212.621 119.514 212.632V213.864H119.194C118.341 213.864 117.674 214.077 117.194 214.504C116.725 214.92 116.49 215.517 116.49 216.296V221H115.21V212.744H116.426V214.2C116.981 213.144 117.866 212.616 119.082 212.616ZM123.022 211.496H121.662V209.928H123.022V211.496ZM122.99 221H121.71V212.744H122.99V221ZM129.529 212.744V213.864H127.833V219.224C127.833 219.693 128.148 219.928 128.777 219.928H129.529V221C129.177 221.032 128.873 221.048 128.617 221.048C127.241 221.048 126.553 220.477 126.553 219.336V213.864H125.193V212.744H126.553V210.408H127.833V212.744H129.529ZM133.194 211.496H131.834V209.928H133.194V211.496ZM133.162 221H131.882V212.744H133.162V221ZM138.889 219.88H142.201V221H135.529V220.04L139.305 215.176C139.486 214.952 139.699 214.685 139.945 214.376C140.19 214.067 140.334 213.885 140.377 213.832C139.843 213.853 139.257 213.864 138.617 213.864H135.689V212.744H141.977V213.704L138.201 218.568C138.019 218.792 137.806 219.059 137.561 219.368C137.315 219.677 137.171 219.859 137.129 219.912C137.662 219.891 138.249 219.88 138.889 219.88ZM151.285 216.872V217.32H145.013C145.077 218.216 145.328 218.893 145.765 219.352C146.202 219.8 146.8 220.024 147.557 220.024C148.698 220.024 149.429 219.512 149.749 218.488H151.077C150.853 219.32 150.437 219.981 149.829 220.472C149.221 220.952 148.453 221.192 147.525 221.192C146.384 221.192 145.461 220.803 144.757 220.024C144.042 219.245 143.685 218.195 143.685 216.872C143.685 215.571 144.037 214.525 144.741 213.736C145.434 212.947 146.352 212.552 147.493 212.552C148.677 212.552 149.605 212.963 150.277 213.784C150.949 214.605 151.285 215.635 151.285 216.872ZM147.493 213.72C146.821 213.72 146.272 213.933 145.845 214.36C145.418 214.776 145.152 215.379 145.045 216.168H149.909C149.845 215.443 149.6 214.856 149.173 214.408C148.746 213.949 148.186 213.72 147.493 213.72ZM164.603 219.96H165.067V221C164.853 221.032 164.619 221.048 164.363 221.048C163.499 221.048 163.035 220.653 162.971 219.864C162.395 220.749 161.499 221.192 160.283 221.192C159.376 221.192 158.661 220.984 158.139 220.568C157.627 220.141 157.371 219.544 157.371 218.776C157.371 217.283 158.389 216.429 160.427 216.216L161.611 216.088C162.475 215.992 162.907 215.613 162.907 214.952C162.907 214.493 162.763 214.163 162.475 213.96C162.197 213.757 161.723 213.656 161.051 213.656C160.336 213.656 159.819 213.779 159.499 214.024C159.189 214.259 159.013 214.68 158.971 215.288H157.691C157.797 213.464 158.917 212.552 161.051 212.552C163.12 212.552 164.155 213.352 164.155 214.952V219.56C164.155 219.827 164.304 219.96 164.603 219.96ZM160.347 220.104C161.029 220.104 161.627 219.896 162.139 219.48C162.651 219.075 162.907 218.493 162.907 217.736V216.76C162.672 216.941 162.309 217.059 161.819 217.112L160.619 217.256C159.925 217.341 159.429 217.501 159.131 217.736C158.843 217.971 158.699 218.307 158.699 218.744C158.699 219.171 158.837 219.507 159.115 219.752C159.392 219.987 159.803 220.104 160.347 220.104ZM170.54 221.192C169.399 221.192 168.476 220.797 167.772 220.008C167.068 219.219 166.716 218.173 166.716 216.872C166.716 215.549 167.068 214.499 167.772 213.72C168.455 212.941 169.378 212.552 170.54 212.552C171.522 212.552 172.327 212.819 172.956 213.352C173.586 213.885 173.964 214.616 174.092 215.544H172.764C172.668 214.957 172.412 214.504 171.996 214.184C171.591 213.864 171.106 213.704 170.54 213.704C169.783 213.704 169.18 213.981 168.732 214.536C168.284 215.08 168.06 215.859 168.06 216.872C168.06 217.875 168.284 218.653 168.732 219.208C169.191 219.763 169.794 220.04 170.54 220.04C171.106 220.04 171.596 219.875 172.012 219.544C172.428 219.213 172.684 218.755 172.78 218.168H174.092C173.954 219.096 173.559 219.832 172.908 220.376C172.268 220.92 171.479 221.192 170.54 221.192ZM179.764 212.744V213.864H178.068V219.224C178.068 219.693 178.382 219.928 179.012 219.928H179.764V221C179.412 221.032 179.108 221.048 178.852 221.048C177.476 221.048 176.788 220.477 176.788 219.336V213.864H175.428V212.744H176.788V210.408H178.068V212.744H179.764ZM183.428 211.496H182.068V209.928H183.428V211.496ZM183.396 221H182.116V212.744H183.396V221ZM190.449 216.408L191.809 212.744H193.185L189.937 221H188.593L185.361 212.744H186.753L188.113 216.424C188.785 218.227 189.175 219.293 189.281 219.624C189.473 219.059 189.863 217.987 190.449 216.408ZM201.941 216.872V217.32H195.669C195.733 218.216 195.984 218.893 196.421 219.352C196.859 219.8 197.456 220.024 198.213 220.024C199.355 220.024 200.085 219.512 200.405 218.488H201.733C201.509 219.32 201.093 219.981 200.485 220.472C199.877 220.952 199.109 221.192 198.181 221.192C197.04 221.192 196.117 220.803 195.413 220.024C194.699 219.245 194.341 218.195 194.341 216.872C194.341 215.571 194.693 214.525 195.397 213.736C196.091 212.947 197.008 212.552 198.149 212.552C199.333 212.552 200.261 212.963 200.933 213.784C201.605 214.605 201.941 215.635 201.941 216.872ZM198.149 213.72C197.477 213.72 196.928 213.933 196.501 214.36C196.075 214.776 195.808 215.379 195.701 216.168H200.565C200.501 215.443 200.256 214.856 199.829 214.408C199.403 213.949 198.843 213.72 198.149 213.72ZM209.787 221H208.507V209.608H209.787V221ZM219.91 216.872V217.32H213.638C213.702 218.216 213.953 218.893 214.39 219.352C214.827 219.8 215.425 220.024 216.182 220.024C217.323 220.024 218.054 219.512 218.374 218.488H219.702C219.478 219.32 219.062 219.981 218.454 220.472C217.846 220.952 217.078 221.192 216.15 221.192C215.009 221.192 214.086 220.803 213.382 220.024C212.667 219.245 212.31 218.195 212.31 216.872C212.31 215.571 212.662 214.525 213.366 213.736C214.059 212.947 214.977 212.552 216.118 212.552C217.302 212.552 218.23 212.963 218.902 213.784C219.574 214.605 219.91 215.635 219.91 216.872ZM216.118 213.72C215.446 213.72 214.897 213.933 214.47 214.36C214.043 214.776 213.777 215.379 213.67 216.168H218.534C218.47 215.443 218.225 214.856 217.798 214.408C217.371 213.949 216.811 213.72 216.118 213.72ZM229.103 219.96H229.567V221C229.353 221.032 229.119 221.048 228.863 221.048C227.999 221.048 227.535 220.653 227.471 219.864C226.895 220.749 225.999 221.192 224.783 221.192C223.876 221.192 223.161 220.984 222.639 220.568C222.127 220.141 221.871 219.544 221.871 218.776C221.871 217.283 222.889 216.429 224.927 216.216L226.111 216.088C226.975 215.992 227.407 215.613 227.407 214.952C227.407 214.493 227.263 214.163 226.975 213.96C226.697 213.757 226.223 213.656 225.551 213.656C224.836 213.656 224.319 213.779 223.999 214.024C223.689 214.259 223.513 214.68 223.471 215.288H222.191C222.297 213.464 223.417 212.552 225.551 212.552C227.62 212.552 228.655 213.352 228.655 214.952V219.56C228.655 219.827 228.804 219.96 229.103 219.96ZM224.847 220.104C225.529 220.104 226.127 219.896 226.639 219.48C227.151 219.075 227.407 218.493 227.407 217.736V216.76C227.172 216.941 226.809 217.059 226.319 217.112L225.119 217.256C224.425 217.341 223.929 217.501 223.631 217.736C223.343 217.971 223.199 218.307 223.199 218.744C223.199 219.171 223.337 219.507 223.615 219.752C223.892 219.987 224.303 220.104 224.847 220.104ZM235.566 212.616C235.78 212.616 235.924 212.621 235.998 212.632V213.864H235.678C234.825 213.864 234.158 214.077 233.678 214.504C233.209 214.92 232.974 215.517 232.974 216.296V221H231.694V212.744H232.91V214.2C233.465 213.144 234.35 212.616 235.566 212.616ZM242.002 212.552C242.92 212.552 243.634 212.803 244.146 213.304C244.658 213.805 244.914 214.509 244.914 215.416V221H243.634V215.544C243.634 214.317 243.005 213.704 241.746 213.704C241.149 213.704 240.621 213.928 240.162 214.376C239.704 214.824 239.474 215.475 239.474 216.328V221H238.194V212.744H239.41V213.976C240.04 213.027 240.904 212.552 242.002 212.552ZM249.147 211.496H247.787V209.928H249.147V211.496ZM249.115 221H247.835V212.744H249.115V221ZM255.846 212.552C256.763 212.552 257.478 212.803 257.99 213.304C258.502 213.805 258.758 214.509 258.758 215.416V221H257.478V215.544C257.478 214.317 256.849 213.704 255.59 213.704C254.993 213.704 254.465 213.928 254.006 214.376C253.547 214.824 253.318 215.475 253.318 216.328V221H252.038V212.744H253.254V213.976C253.883 213.027 254.747 212.552 255.846 212.552ZM267.951 213.944V212.744H269.167V220.68C269.167 221.811 268.836 222.701 268.175 223.352C267.513 224.003 266.564 224.328 265.327 224.328C264.303 224.328 263.481 224.093 262.863 223.624C262.244 223.155 261.892 222.504 261.807 221.672H263.087C263.247 222.717 263.993 223.24 265.327 223.24C267.033 223.24 267.887 222.387 267.887 220.68V219.88C267.236 220.755 266.313 221.192 265.119 221.192C263.956 221.192 263.028 220.797 262.335 220.008C261.631 219.219 261.279 218.173 261.279 216.872C261.279 215.549 261.631 214.499 262.335 213.72C263.017 212.941 263.945 212.552 265.119 212.552C266.345 212.552 267.289 213.016 267.951 213.944ZM265.279 220.04C266.089 220.04 266.735 219.757 267.215 219.192C267.695 218.627 267.935 217.853 267.935 216.872C267.935 215.891 267.695 215.117 267.215 214.552C266.735 213.987 266.089 213.704 265.279 213.704C264.479 213.704 263.833 213.992 263.343 214.568C262.863 215.144 262.623 215.912 262.623 216.872C262.623 217.832 262.863 218.6 263.343 219.176C263.833 219.752 264.479 220.04 265.279 220.04ZM273.045 218.024H272.213L271.989 212.744V209.608H273.333V212.744L273.045 218.024ZM273.461 221H271.845V219.4H273.461V221ZM289.218 219.608C288.216 220.707 286.893 221.256 285.25 221.256C283.608 221.256 282.29 220.707 281.298 219.608C280.296 218.531 279.794 217.096 279.794 215.304C279.794 213.523 280.296 212.083 281.298 210.984C282.29 209.896 283.608 209.352 285.25 209.352C286.893 209.352 288.216 209.896 289.218 210.984C290.21 212.093 290.706 213.533 290.706 215.304C290.706 217.085 290.21 218.52 289.218 219.608ZM282.306 218.744C283.042 219.597 284.024 220.024 285.25 220.024C286.477 220.024 287.458 219.597 288.194 218.744C288.93 217.901 289.298 216.755 289.298 215.304C289.298 213.853 288.93 212.707 288.194 211.864C287.458 211.011 286.477 210.584 285.25 210.584C284.024 210.584 283.042 211.011 282.306 211.864C281.57 212.707 281.202 213.853 281.202 215.304C281.202 216.755 281.57 217.901 282.306 218.744ZM298.588 217.416V212.744H299.868V221H298.652V219.768C298.022 220.717 297.158 221.192 296.06 221.192C295.142 221.192 294.428 220.941 293.916 220.44C293.404 219.939 293.148 219.235 293.148 218.328V212.744H294.428V218.2C294.428 219.427 295.057 220.04 296.316 220.04C296.913 220.04 297.441 219.816 297.9 219.368C298.358 218.92 298.588 218.269 298.588 217.416ZM306.66 212.616C306.873 212.616 307.017 212.621 307.092 212.632V213.864H306.772C305.919 213.864 305.252 214.077 304.772 214.504C304.303 214.92 304.068 215.517 304.068 216.296V221H302.788V212.744H304.004V214.2C304.559 213.144 305.444 212.616 306.66 212.616ZM316.915 221.192C315.774 221.192 314.851 220.797 314.147 220.008C313.443 219.219 313.091 218.173 313.091 216.872C313.091 215.549 313.443 214.499 314.147 213.72C314.83 212.941 315.753 212.552 316.915 212.552C317.897 212.552 318.702 212.819 319.331 213.352C319.961 213.885 320.339 214.616 320.467 215.544H319.139C319.043 214.957 318.787 214.504 318.371 214.184C317.966 213.864 317.481 213.704 316.915 213.704C316.158 213.704 315.555 213.981 315.107 214.536C314.659 215.08 314.435 215.859 314.435 216.872C314.435 217.875 314.659 218.653 315.107 219.208C315.566 219.763 316.169 220.04 316.915 220.04C317.481 220.04 317.971 219.875 318.387 219.544C318.803 219.213 319.059 218.755 319.155 218.168H320.467C320.329 219.096 319.934 219.832 319.283 220.376C318.643 220.92 317.854 221.192 316.915 221.192ZM329.315 220.008C328.558 220.797 327.598 221.192 326.435 221.192C325.272 221.192 324.312 220.797 323.555 220.008C322.808 219.229 322.435 218.184 322.435 216.872C322.435 215.56 322.808 214.515 323.555 213.736C324.312 212.947 325.272 212.552 326.435 212.552C327.598 212.552 328.558 212.947 329.315 213.736C330.062 214.515 330.435 215.56 330.435 216.872C330.435 218.184 330.062 219.229 329.315 220.008ZM324.499 219.192C324.979 219.757 325.624 220.04 326.435 220.04C327.246 220.04 327.891 219.757 328.371 219.192C328.851 218.637 329.091 217.864 329.091 216.872C329.091 215.869 328.851 215.091 328.371 214.536C327.891 213.981 327.246 213.704 326.435 213.704C325.624 213.704 324.979 213.981 324.499 214.536C324.019 215.091 323.779 215.869 323.779 216.872C323.779 217.864 324.019 218.637 324.499 219.192ZM338.166 217.416V212.744H339.446V221H338.23V219.768C337.6 220.717 336.736 221.192 335.638 221.192C334.72 221.192 334.006 220.941 333.494 220.44C332.982 219.939 332.726 219.235 332.726 218.328V212.744H334.006V218.2C334.006 219.427 334.635 220.04 335.894 220.04C336.491 220.04 337.019 219.816 337.478 219.368C337.936 218.92 338.166 218.269 338.166 217.416ZM346.238 212.616C346.452 212.616 346.596 212.621 346.67 212.632V213.864H346.35C345.497 213.864 344.83 214.077 344.35 214.504C343.881 214.92 343.646 215.517 343.646 216.296V221H342.366V212.744H343.582V214.2C344.137 213.144 345.022 212.616 346.238 212.616ZM351.45 221.192C349.242 221.192 348.074 220.253 347.946 218.376H349.242C349.317 218.995 349.519 219.437 349.85 219.704C350.191 219.96 350.725 220.088 351.45 220.088C352.773 220.088 353.434 219.661 353.434 218.808C353.434 218.435 353.295 218.152 353.018 217.96C352.751 217.768 352.261 217.603 351.546 217.464L350.778 217.32C349.061 217 348.202 216.189 348.202 214.888C348.202 214.173 348.469 213.608 349.002 213.192C349.546 212.765 350.282 212.552 351.21 212.552C353.397 212.552 354.517 213.464 354.57 215.288H353.29C353.258 214.691 353.077 214.269 352.746 214.024C352.415 213.779 351.903 213.656 351.21 213.656C350.655 213.656 350.229 213.763 349.93 213.976C349.631 214.189 349.482 214.488 349.482 214.872C349.482 215.235 349.61 215.507 349.866 215.688C350.122 215.869 350.549 216.024 351.146 216.152L351.882 216.296C352.895 216.499 353.621 216.787 354.058 217.16C354.506 217.533 354.73 218.056 354.73 218.728C354.73 219.507 354.437 220.115 353.85 220.552C353.274 220.979 352.474 221.192 351.45 221.192ZM364.207 216.872V217.32H357.935C357.999 218.216 358.25 218.893 358.687 219.352C359.124 219.8 359.722 220.024 360.479 220.024C361.62 220.024 362.351 219.512 362.671 218.488H363.999C363.775 219.32 363.359 219.981 362.751 220.472C362.143 220.952 361.375 221.192 360.447 221.192C359.306 221.192 358.383 220.803 357.679 220.024C356.964 219.245 356.607 218.195 356.607 216.872C356.607 215.571 356.959 214.525 357.663 213.736C358.356 212.947 359.274 212.552 360.415 212.552C361.599 212.552 362.527 212.963 363.199 213.784C363.871 214.605 364.207 215.635 364.207 216.872ZM360.415 213.72C359.743 213.72 359.194 213.933 358.767 214.36C358.34 214.776 358.074 215.379 357.967 216.168H362.831C362.767 215.443 362.522 214.856 362.095 214.408C361.668 213.949 361.108 213.72 360.415 213.72ZM369.56 221.192C367.352 221.192 366.184 220.253 366.056 218.376H367.352C367.426 218.995 367.629 219.437 367.96 219.704C368.301 219.96 368.834 220.088 369.56 220.088C370.882 220.088 371.544 219.661 371.544 218.808C371.544 218.435 371.405 218.152 371.128 217.96C370.861 217.768 370.37 217.603 369.656 217.464L368.888 217.32C367.17 217 366.312 216.189 366.312 214.888C366.312 214.173 366.578 213.608 367.112 213.192C367.656 212.765 368.392 212.552 369.32 212.552C371.506 212.552 372.626 213.464 372.68 215.288H371.4C371.368 214.691 371.186 214.269 370.856 214.024C370.525 213.779 370.013 213.656 369.32 213.656C368.765 213.656 368.338 213.763 368.039 213.976C367.741 214.189 367.592 214.488 367.592 214.872C367.592 215.235 367.72 215.507 367.976 215.688C368.232 215.869 368.658 216.024 369.256 216.152L369.992 216.296C371.005 216.499 371.73 216.787 372.168 217.16C372.616 217.533 372.84 218.056 372.84 218.728C372.84 219.507 372.546 220.115 371.96 220.552C371.384 220.979 370.584 221.192 369.56 221.192ZM382.923 210.696H382.187C381.451 210.696 381.083 211.085 381.083 211.864V212.744H382.843V213.864H381.083V221H379.803V213.864H378.443V212.744H379.803V211.896C379.803 210.349 380.571 209.576 382.107 209.576C382.31 209.576 382.582 209.587 382.923 209.608V210.696ZM391.848 216.872V217.32H385.576C385.64 218.216 385.89 218.893 386.328 219.352C386.765 219.8 387.362 220.024 388.12 220.024C389.261 220.024 389.992 219.512 390.312 218.488H391.64C391.416 219.32 391 219.981 390.392 220.472C389.784 220.952 389.016 221.192 388.088 221.192C386.946 221.192 386.024 220.803 385.32 220.024C384.605 219.245 384.248 218.195 384.248 216.872C384.248 215.571 384.6 214.525 385.304 213.736C385.997 212.947 386.914 212.552 388.056 212.552C389.24 212.552 390.168 212.963 390.84 213.784C391.512 214.605 391.848 215.635 391.848 216.872ZM388.056 213.72C387.384 213.72 386.834 213.933 386.408 214.36C385.981 214.776 385.714 215.379 385.608 216.168H390.472C390.408 215.443 390.162 214.856 389.736 214.408C389.309 213.949 388.749 213.72 388.056 213.72ZM401.04 219.96H401.504V221C401.291 221.032 401.056 221.048 400.8 221.048C399.936 221.048 399.472 220.653 399.408 219.864C398.832 220.749 397.936 221.192 396.72 221.192C395.813 221.192 395.099 220.984 394.576 220.568C394.064 220.141 393.808 219.544 393.808 218.776C393.808 217.283 394.827 216.429 396.864 216.216L398.048 216.088C398.912 215.992 399.344 215.613 399.344 214.952C399.344 214.493 399.2 214.163 398.912 213.96C398.635 213.757 398.16 213.656 397.488 213.656C396.773 213.656 396.256 213.779 395.936 214.024C395.627 214.259 395.451 214.68 395.408 215.288H394.128C394.235 213.464 395.355 212.552 397.488 212.552C399.557 212.552 400.592 213.352 400.592 214.952V219.56C400.592 219.827 400.741 219.96 401.04 219.96ZM396.784 220.104C397.467 220.104 398.064 219.896 398.576 219.48C399.088 219.075 399.344 218.493 399.344 217.736V216.76C399.109 216.941 398.747 217.059 398.256 217.112L397.056 217.256C396.363 217.341 395.867 217.501 395.568 217.736C395.28 217.971 395.136 218.307 395.136 218.744C395.136 219.171 395.275 219.507 395.552 219.752C395.829 219.987 396.24 220.104 396.784 220.104ZM406.935 212.744V213.864H405.239V219.224C405.239 219.693 405.554 219.928 406.183 219.928H406.935V221C406.583 221.032 406.279 221.048 406.023 221.048C404.647 221.048 403.959 220.477 403.959 219.336V213.864H402.599V212.744H403.959V210.408H405.239V212.744H406.935ZM414.728 217.416V212.744H416.008V221H414.792V219.768C414.163 220.717 413.299 221.192 412.2 221.192C411.283 221.192 410.568 220.941 410.056 220.44C409.544 219.939 409.288 219.235 409.288 218.328V212.744H410.568V218.2C410.568 219.427 411.197 220.04 412.456 220.04C413.053 220.04 413.581 219.816 414.04 219.368C414.499 218.92 414.728 218.269 414.728 217.416ZM422.801 212.616C423.014 212.616 423.158 212.621 423.233 212.632V213.864H422.913C422.059 213.864 421.393 214.077 420.913 214.504C420.443 214.92 420.209 215.517 420.209 216.296V221H418.929V212.744H420.145V214.2C420.699 213.144 421.585 212.616 422.801 212.616ZM432.144 216.872V217.32H425.872C425.936 218.216 426.187 218.893 426.624 219.352C427.062 219.8 427.659 220.024 428.416 220.024C429.558 220.024 430.288 219.512 430.608 218.488H431.936C431.712 219.32 431.296 219.981 430.688 220.472C430.08 220.952 429.312 221.192 428.384 221.192C427.243 221.192 426.32 220.803 425.616 220.024C424.902 219.245 424.544 218.195 424.544 216.872C424.544 215.571 424.896 214.525 425.6 213.736C426.294 212.947 427.211 212.552 428.352 212.552C429.536 212.552 430.464 212.963 431.136 213.784C431.808 214.605 432.144 215.635 432.144 216.872ZM428.352 213.72C427.68 213.72 427.131 213.933 426.704 214.36C426.278 214.776 426.011 215.379 425.904 216.168H430.768C430.704 215.443 430.459 214.856 430.032 214.408C429.606 213.949 429.046 213.72 428.352 213.72ZM440.022 211.496H438.662V209.928H440.022V211.496ZM439.99 221H438.71V212.744H439.99V221ZM446.721 212.552C447.638 212.552 448.353 212.803 448.865 213.304C449.377 213.805 449.633 214.509 449.633 215.416V221H448.353V215.544C448.353 214.317 447.724 213.704 446.465 213.704C445.868 213.704 445.34 213.928 444.881 214.376C444.422 214.824 444.193 215.475 444.193 216.328V221H442.913V212.744H444.129V213.976C444.758 213.027 445.622 212.552 446.721 212.552ZM455.857 212.744V213.864H454.161V219.224C454.161 219.693 454.476 219.928 455.105 219.928H455.857V221C455.505 221.032 455.201 221.048 454.945 221.048C453.569 221.048 452.881 220.477 452.881 219.336V213.864H451.521V212.744H452.881V210.408H454.161V212.744H455.857ZM465.254 216.872V217.32H458.982C459.046 218.216 459.296 218.893 459.734 219.352C460.171 219.8 460.768 220.024 461.526 220.024C462.667 220.024 463.398 219.512 463.718 218.488H465.046C464.822 219.32 464.406 219.981 463.798 220.472C463.19 220.952 462.422 221.192 461.494 221.192C460.352 221.192 459.43 220.803 458.726 220.024C458.011 219.245 457.654 218.195 457.654 216.872C457.654 215.571 458.006 214.525 458.71 213.736C459.403 212.947 460.32 212.552 461.462 212.552C462.646 212.552 463.574 212.963 464.246 213.784C464.918 214.605 465.254 215.635 465.254 216.872ZM461.462 213.72C460.79 213.72 460.24 213.933 459.814 214.36C459.387 214.776 459.12 215.379 459.014 216.168H463.878C463.814 215.443 463.568 214.856 463.142 214.408C462.715 213.949 462.155 213.72 461.462 213.72ZM471.645 212.616C471.858 212.616 472.002 212.621 472.077 212.632V213.864H471.757C470.903 213.864 470.237 214.077 469.757 214.504C469.287 214.92 469.053 215.517 469.053 216.296V221H467.773V212.744H468.989V214.2C469.543 213.144 470.429 212.616 471.645 212.616ZM480.462 219.96H480.926V221C480.713 221.032 480.478 221.048 480.222 221.048C479.358 221.048 478.894 220.653 478.83 219.864C478.254 220.749 477.358 221.192 476.142 221.192C475.235 221.192 474.521 220.984 473.998 220.568C473.486 220.141 473.23 219.544 473.23 218.776C473.23 217.283 474.249 216.429 476.286 216.216L477.47 216.088C478.334 215.992 478.766 215.613 478.766 214.952C478.766 214.493 478.622 214.163 478.334 213.96C478.057 213.757 477.582 213.656 476.91 213.656C476.195 213.656 475.678 213.779 475.358 214.024C475.049 214.259 474.873 214.68 474.83 215.288H473.55C473.657 213.464 474.777 212.552 476.91 212.552C478.979 212.552 480.014 213.352 480.014 214.952V219.56C480.014 219.827 480.163 219.96 480.462 219.96ZM476.206 220.104C476.889 220.104 477.486 219.896 477.998 219.48C478.51 219.075 478.766 218.493 478.766 217.736V216.76C478.531 216.941 478.169 217.059 477.678 217.112L476.478 217.256C475.785 217.341 475.289 217.501 474.99 217.736C474.702 217.971 474.558 218.307 474.558 218.744C474.558 219.171 474.697 219.507 474.974 219.752C475.251 219.987 475.662 220.104 476.206 220.104ZM486.4 221.192C485.258 221.192 484.336 220.797 483.632 220.008C482.928 219.219 482.576 218.173 482.576 216.872C482.576 215.549 482.928 214.499 483.632 213.72C484.314 212.941 485.237 212.552 486.4 212.552C487.381 212.552 488.186 212.819 488.816 213.352C489.445 213.885 489.824 214.616 489.952 215.544H488.624C488.528 214.957 488.272 214.504 487.856 214.184C487.45 213.864 486.965 213.704 486.4 213.704C485.642 213.704 485.04 213.981 484.592 214.536C484.144 215.08 483.92 215.859 483.92 216.872C483.92 217.875 484.144 218.653 484.592 219.208C485.05 219.763 485.653 220.04 486.4 220.04C486.965 220.04 487.456 219.875 487.872 219.544C488.288 219.213 488.544 218.755 488.64 218.168H489.952C489.813 219.096 489.418 219.832 488.768 220.376C488.128 220.92 487.338 221.192 486.4 221.192ZM495.623 212.744V213.864H493.927V219.224C493.927 219.693 494.242 219.928 494.871 219.928H495.623V221C495.271 221.032 494.967 221.048 494.711 221.048C493.335 221.048 492.647 220.477 492.647 219.336V213.864H491.287V212.744H492.647V210.408H493.927V212.744H495.623ZM499.288 211.496H497.928V209.928H499.288V211.496ZM499.256 221H497.976V212.744H499.256V221ZM506.309 216.408L507.669 212.744H509.045L505.797 221H504.453L501.221 212.744H502.613L503.973 216.424C504.645 218.227 505.034 219.293 505.141 219.624C505.333 219.059 505.722 217.987 506.309 216.408ZM517.801 216.872V217.32H511.529C511.593 218.216 511.843 218.893 512.281 219.352C512.718 219.8 513.315 220.024 514.073 220.024C515.214 220.024 515.945 219.512 516.265 218.488H517.593C517.369 219.32 516.953 219.981 516.345 220.472C515.737 220.952 514.969 221.192 514.041 221.192C512.899 221.192 511.977 220.803 511.273 220.024C510.558 219.245 510.201 218.195 510.201 216.872C510.201 215.571 510.553 214.525 511.257 213.736C511.95 212.947 512.867 212.552 514.009 212.552C515.193 212.552 516.121 212.963 516.793 213.784C517.465 214.605 517.801 215.635 517.801 216.872ZM514.009 213.72C513.337 213.72 512.787 213.933 512.361 214.36C511.934 214.776 511.667 215.379 511.561 216.168H516.425C516.361 215.443 516.115 214.856 515.689 214.408C515.262 213.949 514.702 213.72 514.009 213.72ZM59.168 244.408L60.528 240.744H61.904L58.656 249H57.312L54.08 240.744H55.472L56.832 244.424C57.504 246.227 57.8933 247.293 58 247.624C58.192 247.059 58.5813 245.987 59.168 244.408ZM65.1783 239.496H63.8183V237.928H65.1783V239.496ZM65.1463 249H63.8663V240.744H65.1463V249ZM74.2774 241.928V237.608H75.5574V249H74.3414V247.72C73.68 248.701 72.736 249.192 71.5094 249.192C70.3467 249.192 69.4187 248.797 68.7254 248.008C68.0214 247.219 67.6694 246.173 67.6694 244.872C67.6694 243.549 68.0214 242.499 68.7254 241.72C69.408 240.941 70.336 240.552 71.5094 240.552C72.6934 240.552 73.616 241.011 74.2774 241.928ZM69.0134 244.936C69.0134 245.917 69.2534 246.68 69.7334 247.224C70.2134 247.768 70.8587 248.04 71.6694 248.04C72.48 248.04 73.1254 247.757 73.6054 247.192C74.0854 246.637 74.3254 245.864 74.3254 244.872C74.3254 243.891 74.0854 243.117 73.6054 242.552C73.1254 241.987 72.48 241.704 71.6694 241.704C70.8694 241.704 70.224 241.997 69.7334 242.584C69.2534 243.16 69.0134 243.944 69.0134 244.936ZM85.6756 244.872V245.32H79.4036C79.4676 246.216 79.7183 246.893 80.1556 247.352C80.593 247.8 81.1903 248.024 81.9476 248.024C83.089 248.024 83.8196 247.512 84.1396 246.488H85.4676C85.2436 247.32 84.8276 247.981 84.2196 248.472C83.6116 248.952 82.8436 249.192 81.9156 249.192C80.7743 249.192 79.8516 248.803 79.1476 248.024C78.433 247.245 78.0756 246.195 78.0756 244.872C78.0756 243.571 78.4276 242.525 79.1316 241.736C79.825 240.947 80.7423 240.552 81.8836 240.552C83.0676 240.552 83.9956 240.963 84.6676 241.784C85.3396 242.605 85.6756 243.635 85.6756 244.872ZM81.8836 241.72C81.2116 241.72 80.6623 241.933 80.2356 242.36C79.809 242.776 79.5423 243.379 79.4356 244.168H84.2996C84.2356 243.443 83.9903 242.856 83.5636 242.408C83.137 241.949 82.577 241.72 81.8836 241.72ZM94.6744 248.008C93.917 248.797 92.957 249.192 91.7944 249.192C90.6317 249.192 89.6717 248.797 88.9144 248.008C88.1677 247.229 87.7944 246.184 87.7944 244.872C87.7944 243.56 88.1677 242.515 88.9144 241.736C89.6717 240.947 90.6317 240.552 91.7944 240.552C92.957 240.552 93.917 240.947 94.6744 241.736C95.421 242.515 95.7944 243.56 95.7944 244.872C95.7944 246.184 95.421 247.229 94.6744 248.008ZM89.8584 247.192C90.3384 247.757 90.9837 248.04 91.7944 248.04C92.605 248.04 93.2504 247.757 93.7304 247.192C94.2104 246.637 94.4504 245.864 94.4504 244.872C94.4504 243.869 94.2104 243.091 93.7304 242.536C93.2504 241.981 92.605 241.704 91.7944 241.704C90.9837 241.704 90.3384 241.981 89.8584 242.536C89.3784 243.091 89.1384 243.869 89.1384 244.872C89.1384 245.864 89.3784 246.637 89.8584 247.192ZM101.075 249.192C98.8671 249.192 97.6991 248.253 97.5711 246.376H98.8671C98.9418 246.995 99.1445 247.437 99.4751 247.704C99.8165 247.96 100.35 248.088 101.075 248.088C102.398 248.088 103.059 247.661 103.059 246.808C103.059 246.435 102.92 246.152 102.643 245.96C102.376 245.768 101.886 245.603 101.171 245.464L100.403 245.32C98.6858 245 97.8271 244.189 97.8271 242.888C97.8271 242.173 98.0938 241.608 98.6271 241.192C99.1711 240.765 99.9071 240.552 100.835 240.552C103.022 240.552 104.142 241.464 104.195 243.288H102.915C102.883 242.691 102.702 242.269 102.371 242.024C102.04 241.779 101.528 241.656 100.835 241.656C100.28 241.656 99.8538 241.763 99.5551 241.976C99.2565 242.189 99.1071 242.488 99.1071 242.872C99.1071 243.235 99.2351 243.507 99.4911 243.688C99.7471 243.869 100.174 244.024 100.771 244.152L101.507 244.296C102.52 244.499 103.246 244.787 103.683 245.16C104.131 245.533 104.355 246.056 104.355 246.728C104.355 247.507 104.062 248.115 103.475 248.552C102.899 248.979 102.099 249.192 101.075 249.192ZM106.392 249V247.4H108.008V249.144C108.008 250.424 107.523 251.112 106.552 251.208L106.392 251.224V250.36L106.504 250.344C106.899 250.301 107.096 249.939 107.096 249.256V249H106.392ZM121.013 242.024V240.744H122.229V252.136H120.949V247.816C120.288 248.733 119.365 249.192 118.181 249.192C117.019 249.192 116.091 248.797 115.397 248.008C114.693 247.219 114.341 246.173 114.341 244.872C114.341 243.549 114.693 242.499 115.397 241.72C116.08 240.941 117.008 240.552 118.181 240.552C119.408 240.552 120.352 241.043 121.013 242.024ZM115.685 244.936C115.685 245.917 115.925 246.68 116.405 247.224C116.885 247.768 117.531 248.04 118.341 248.04C119.152 248.04 119.797 247.757 120.277 247.192C120.757 246.637 120.997 245.864 120.997 244.872C120.997 243.891 120.757 243.117 120.277 242.552C119.797 241.987 119.152 241.704 118.341 241.704C117.541 241.704 116.896 241.997 116.405 242.584C115.925 243.16 115.685 243.944 115.685 244.936ZM130.588 245.416V240.744H131.868V249H130.652V247.768C130.022 248.717 129.158 249.192 128.06 249.192C127.142 249.192 126.428 248.941 125.916 248.44C125.404 247.939 125.148 247.235 125.148 246.328V240.744H126.428V246.2C126.428 247.427 127.057 248.04 128.316 248.04C128.913 248.04 129.441 247.816 129.9 247.368C130.358 246.92 130.588 246.269 130.588 245.416ZM136.1 239.496H134.74V237.928H136.1V239.496ZM136.068 249H134.788V240.744H136.068V249ZM141.795 247.88H145.107V249H138.435V248.04L142.211 243.176C142.392 242.952 142.606 242.685 142.851 242.376C143.096 242.067 143.24 241.885 143.283 241.832C142.75 241.853 142.163 241.864 141.523 241.864H138.595V240.744H144.883V241.704L141.107 246.568C140.926 246.792 140.712 247.059 140.467 247.368C140.222 247.677 140.078 247.859 140.035 247.912C140.568 247.891 141.155 247.88 141.795 247.88ZM150.436 247.88H153.748V249H147.076V248.04L150.852 243.176C151.033 242.952 151.246 242.685 151.492 242.376C151.737 242.067 151.881 241.885 151.924 241.832C151.39 241.853 150.804 241.864 150.164 241.864H147.236V240.744H153.524V241.704L149.748 246.568C149.566 246.792 149.353 247.059 149.108 247.368C148.862 247.677 148.718 247.859 148.676 247.912C149.209 247.891 149.796 247.88 150.436 247.88ZM162.832 244.872V245.32H156.56C156.624 246.216 156.875 246.893 157.312 247.352C157.749 247.8 158.347 248.024 159.104 248.024C160.245 248.024 160.976 247.512 161.296 246.488H162.624C162.4 247.32 161.984 247.981 161.376 248.472C160.768 248.952 160 249.192 159.072 249.192C157.931 249.192 157.008 248.803 156.304 248.024C155.589 247.245 155.232 246.195 155.232 244.872C155.232 243.571 155.584 242.525 156.288 241.736C156.981 240.947 157.899 240.552 159.04 240.552C160.224 240.552 161.152 240.963 161.824 241.784C162.496 242.605 162.832 243.635 162.832 244.872ZM159.04 241.72C158.368 241.72 157.819 241.933 157.392 242.36C156.965 242.776 156.699 243.379 156.592 244.168H161.456C161.392 243.443 161.147 242.856 160.72 242.408C160.293 241.949 159.733 241.72 159.04 241.72ZM168.185 249.192C165.977 249.192 164.809 248.253 164.681 246.376H165.977C166.051 246.995 166.254 247.437 166.585 247.704C166.926 247.96 167.459 248.088 168.185 248.088C169.507 248.088 170.169 247.661 170.169 246.808C170.169 246.435 170.03 246.152 169.753 245.96C169.486 245.768 168.995 245.603 168.281 245.464L167.513 245.32C165.795 245 164.937 244.189 164.937 242.888C164.937 242.173 165.203 241.608 165.737 241.192C166.281 240.765 167.017 240.552 167.945 240.552C170.131 240.552 171.251 241.464 171.305 243.288H170.025C169.993 242.691 169.811 242.269 169.481 242.024C169.15 241.779 168.638 241.656 167.945 241.656C167.39 241.656 166.963 241.763 166.664 241.976C166.366 242.189 166.217 242.488 166.217 242.872C166.217 243.235 166.345 243.507 166.601 243.688C166.857 243.869 167.283 244.024 167.881 244.152L168.617 244.296C169.63 244.499 170.355 244.787 170.793 245.16C171.241 245.533 171.465 246.056 171.465 246.728C171.465 247.507 171.171 248.115 170.585 248.552C170.009 248.979 169.209 249.192 168.185 249.192ZM173.501 249V247.4H175.117V249.144C175.117 250.424 174.632 251.112 173.661 251.208L173.501 251.224V250.36L173.613 250.344C174.008 250.301 174.205 249.939 174.205 249.256V249H173.501ZM188.603 247.96H189.067V249C188.853 249.032 188.619 249.048 188.363 249.048C187.499 249.048 187.035 248.653 186.971 247.864C186.395 248.749 185.499 249.192 184.283 249.192C183.376 249.192 182.661 248.984 182.139 248.568C181.627 248.141 181.371 247.544 181.371 246.776C181.371 245.283 182.389 244.429 184.427 244.216L185.611 244.088C186.475 243.992 186.907 243.613 186.907 242.952C186.907 242.493 186.763 242.163 186.475 241.96C186.197 241.757 185.723 241.656 185.051 241.656C184.336 241.656 183.819 241.779 183.499 242.024C183.189 242.259 183.013 242.68 182.971 243.288H181.691C181.797 241.464 182.917 240.552 185.051 240.552C187.12 240.552 188.155 241.352 188.155 242.952V247.56C188.155 247.827 188.304 247.96 188.603 247.96ZM184.347 248.104C185.029 248.104 185.627 247.896 186.139 247.48C186.651 247.075 186.907 246.493 186.907 245.736V244.76C186.672 244.941 186.309 245.059 185.819 245.112L184.619 245.256C183.925 245.341 183.429 245.501 183.131 245.736C182.843 245.971 182.699 246.307 182.699 246.744C182.699 247.171 182.837 247.507 183.115 247.752C183.392 247.987 183.803 248.104 184.347 248.104ZM194.106 249.192C191.898 249.192 190.73 248.253 190.602 246.376H191.898C191.973 246.995 192.176 247.437 192.506 247.704C192.848 247.96 193.381 248.088 194.106 248.088C195.429 248.088 196.09 247.661 196.09 246.808C196.09 246.435 195.952 246.152 195.674 245.96C195.408 245.768 194.917 245.603 194.202 245.464L193.434 245.32C191.717 245 190.858 244.189 190.858 242.888C190.858 242.173 191.125 241.608 191.658 241.192C192.202 240.765 192.938 240.552 193.866 240.552C196.053 240.552 197.173 241.464 197.226 243.288H195.946C195.914 242.691 195.733 242.269 195.402 242.024C195.072 241.779 194.56 241.656 193.866 241.656C193.312 241.656 192.885 241.763 192.586 241.976C192.288 242.189 192.138 242.488 192.138 242.872C192.138 243.235 192.266 243.507 192.522 243.688C192.778 243.869 193.205 244.024 193.802 244.152L194.538 244.296C195.552 244.499 196.277 244.787 196.714 245.16C197.162 245.533 197.386 246.056 197.386 246.728C197.386 247.507 197.093 248.115 196.506 248.552C195.93 248.979 195.13 249.192 194.106 249.192ZM202.731 249.192C200.523 249.192 199.355 248.253 199.227 246.376H200.523C200.598 246.995 200.801 247.437 201.131 247.704C201.473 247.96 202.006 248.088 202.731 248.088C204.054 248.088 204.715 247.661 204.715 246.808C204.715 246.435 204.577 246.152 204.299 245.96C204.033 245.768 203.542 245.603 202.827 245.464L202.059 245.32C200.342 245 199.483 244.189 199.483 242.888C199.483 242.173 199.75 241.608 200.283 241.192C200.827 240.765 201.563 240.552 202.491 240.552C204.678 240.552 205.798 241.464 205.851 243.288H204.571C204.539 242.691 204.358 242.269 204.027 242.024C203.697 241.779 203.185 241.656 202.491 241.656C201.937 241.656 201.51 241.763 201.211 241.976C200.913 242.189 200.763 242.488 200.763 242.872C200.763 243.235 200.891 243.507 201.147 243.688C201.403 243.869 201.83 244.024 202.427 244.152L203.163 244.296C204.177 244.499 204.902 244.787 205.339 245.16C205.787 245.533 206.011 246.056 206.011 246.728C206.011 247.507 205.718 248.115 205.131 248.552C204.555 248.979 203.755 249.192 202.731 249.192ZM209.6 239.496H208.24V237.928H209.6V239.496ZM209.568 249H208.288V240.744H209.568V249ZM218.763 241.944V240.744H219.979V248.68C219.979 249.811 219.649 250.701 218.987 251.352C218.326 252.003 217.377 252.328 216.139 252.328C215.115 252.328 214.294 252.093 213.675 251.624C213.057 251.155 212.705 250.504 212.619 249.672H213.899C214.059 250.717 214.806 251.24 216.139 251.24C217.846 251.24 218.699 250.387 218.699 248.68V247.88C218.049 248.755 217.126 249.192 215.931 249.192C214.769 249.192 213.841 248.797 213.147 248.008C212.443 247.219 212.091 246.173 212.091 244.872C212.091 243.549 212.443 242.499 213.147 241.72C213.83 240.941 214.758 240.552 215.931 240.552C217.158 240.552 218.102 241.016 218.763 241.944ZM216.091 248.04C216.902 248.04 217.547 247.757 218.027 247.192C218.507 246.627 218.747 245.853 218.747 244.872C218.747 243.891 218.507 243.117 218.027 242.552C217.547 241.987 216.902 241.704 216.091 241.704C215.291 241.704 214.646 241.992 214.155 242.568C213.675 243.144 213.435 243.912 213.435 244.872C213.435 245.832 213.675 246.6 214.155 247.176C214.646 247.752 215.291 248.04 216.091 248.04ZM226.706 240.552C227.623 240.552 228.338 240.803 228.85 241.304C229.362 241.805 229.618 242.509 229.618 243.416V249H228.338V243.544C228.338 242.317 227.708 241.704 226.45 241.704C225.852 241.704 225.324 241.928 224.866 242.376C224.407 242.824 224.178 243.475 224.178 244.328V249H222.898V240.744H224.114V241.976C224.743 241.027 225.607 240.552 226.706 240.552ZM241.226 240.552C242.122 240.552 242.815 240.813 243.306 241.336C243.807 241.848 244.058 242.536 244.058 243.4V249H242.778V243.528C242.778 242.312 242.202 241.704 241.05 241.704C240.442 241.704 239.935 241.949 239.53 242.44C239.135 242.92 238.938 243.603 238.938 244.488V249H237.658V243.528C237.658 242.312 237.082 241.704 235.93 241.704C235.333 241.704 234.831 241.949 234.426 242.44C234.021 242.92 233.818 243.603 233.818 244.488V249H232.538V240.744H233.754V241.96C234.298 241.021 235.093 240.552 236.138 240.552C237.375 240.552 238.223 241.069 238.682 242.104C239.258 241.069 240.106 240.552 241.226 240.552ZM254.176 244.872V245.32H247.904C247.968 246.216 248.218 246.893 248.656 247.352C249.093 247.8 249.69 248.024 250.448 248.024C251.589 248.024 252.32 247.512 252.64 246.488H253.968C253.744 247.32 253.328 247.981 252.72 248.472C252.112 248.952 251.344 249.192 250.416 249.192C249.274 249.192 248.352 248.803 247.648 248.024C246.933 247.245 246.576 246.195 246.576 244.872C246.576 243.571 246.928 242.525 247.632 241.736C248.325 240.947 249.242 240.552 250.384 240.552C251.568 240.552 252.496 240.963 253.168 241.784C253.84 242.605 254.176 243.635 254.176 244.872ZM250.384 241.72C249.712 241.72 249.162 241.933 248.736 242.36C248.309 242.776 248.042 243.379 247.936 244.168H252.8C252.736 243.443 252.49 242.856 252.064 242.408C251.637 241.949 251.077 241.72 250.384 241.72ZM260.502 240.552C261.42 240.552 262.134 240.803 262.646 241.304C263.158 241.805 263.414 242.509 263.414 243.416V249H262.134V243.544C262.134 242.317 261.505 241.704 260.246 241.704C259.649 241.704 259.121 241.928 258.662 242.376C258.204 242.824 257.974 243.475 257.974 244.328V249H256.694V240.744H257.91V241.976C258.54 241.027 259.404 240.552 260.502 240.552ZM269.639 240.744V241.864H267.943V247.224C267.943 247.693 268.257 247.928 268.887 247.928H269.639V249C269.287 249.032 268.983 249.048 268.727 249.048C267.351 249.048 266.663 248.477 266.663 247.336V241.864H265.303V240.744H266.663V238.408H267.943V240.744H269.639ZM274.825 249.192C272.617 249.192 271.449 248.253 271.321 246.376H272.617C272.692 246.995 272.894 247.437 273.225 247.704C273.566 247.96 274.1 248.088 274.825 248.088C276.148 248.088 276.809 247.661 276.809 246.808C276.809 246.435 276.67 246.152 276.393 245.96C276.126 245.768 275.636 245.603 274.921 245.464L274.153 245.32C272.436 245 271.577 244.189 271.577 242.888C271.577 242.173 271.844 241.608 272.377 241.192C272.921 240.765 273.657 240.552 274.585 240.552C276.772 240.552 277.892 241.464 277.945 243.288H276.665C276.633 242.691 276.452 242.269 276.121 242.024C275.79 241.779 275.278 241.656 274.585 241.656C274.03 241.656 273.604 241.763 273.305 241.976C273.006 242.189 272.857 242.488 272.857 242.872C272.857 243.235 272.985 243.507 273.241 243.688C273.497 243.869 273.924 244.024 274.521 244.152L275.257 244.296C276.27 244.499 276.996 244.787 277.433 245.16C277.881 245.533 278.105 246.056 278.105 246.728C278.105 247.507 277.812 248.115 277.225 248.552C276.649 248.979 275.849 249.192 274.825 249.192ZM280.142 249V247.4H281.758V249.144C281.758 250.424 281.273 251.112 280.302 251.208L280.142 251.224V250.36L280.254 250.344C280.649 250.301 280.846 249.939 280.846 249.256V249H280.142ZM295.243 247.96H295.707V249C295.494 249.032 295.259 249.048 295.003 249.048C294.139 249.048 293.675 248.653 293.611 247.864C293.035 248.749 292.139 249.192 290.923 249.192C290.017 249.192 289.302 248.984 288.779 248.568C288.267 248.141 288.011 247.544 288.011 246.776C288.011 245.283 289.03 244.429 291.067 244.216L292.251 244.088C293.115 243.992 293.547 243.613 293.547 242.952C293.547 242.493 293.403 242.163 293.115 241.96C292.838 241.757 292.363 241.656 291.691 241.656C290.977 241.656 290.459 241.779 290.139 242.024C289.83 242.259 289.654 242.68 289.611 243.288H288.331C288.438 241.464 289.558 240.552 291.691 240.552C293.761 240.552 294.795 241.352 294.795 242.952V247.56C294.795 247.827 294.945 247.96 295.243 247.96ZM290.987 248.104C291.67 248.104 292.267 247.896 292.779 247.48C293.291 247.075 293.547 246.493 293.547 245.736V244.76C293.313 244.941 292.95 245.059 292.459 245.112L291.259 245.256C290.566 245.341 290.07 245.501 289.771 245.736C289.483 245.971 289.339 246.307 289.339 246.744C289.339 247.171 289.478 247.507 289.755 247.752C290.033 247.987 290.443 248.104 290.987 248.104ZM301.643 240.552C302.56 240.552 303.275 240.803 303.787 241.304C304.299 241.805 304.555 242.509 304.555 243.416V249H303.275V243.544C303.275 242.317 302.646 241.704 301.387 241.704C300.79 241.704 300.262 241.928 299.803 242.376C299.344 242.824 299.115 243.475 299.115 244.328V249H297.835V240.744H299.051V241.976C299.68 241.027 300.544 240.552 301.643 240.552ZM313.684 241.928V237.608H314.964V249H313.748V247.72C313.086 248.701 312.142 249.192 310.916 249.192C309.753 249.192 308.825 248.797 308.132 248.008C307.428 247.219 307.076 246.173 307.076 244.872C307.076 243.549 307.428 242.499 308.132 241.72C308.814 240.941 309.742 240.552 310.916 240.552C312.1 240.552 313.022 241.011 313.684 241.928ZM308.42 244.936C308.42 245.917 308.66 246.68 309.14 247.224C309.62 247.768 310.265 248.04 311.076 248.04C311.886 248.04 312.532 247.757 313.012 247.192C313.492 246.637 313.732 245.864 313.732 244.872C313.732 243.891 313.492 243.117 313.012 242.552C312.532 241.987 311.886 241.704 311.076 241.704C310.276 241.704 309.63 241.997 309.14 242.584C308.66 243.16 308.42 243.944 308.42 244.936ZM323.209 249H321.929V237.608H323.209V249ZM327.444 239.496H326.084V237.928H327.444V239.496ZM327.412 249H326.132V240.744H327.412V249ZM334.465 244.408L335.825 240.744H337.201L333.953 249H332.609L329.377 240.744H330.769L332.129 244.424C332.801 246.227 333.19 247.293 333.297 247.624C333.489 247.059 333.878 245.987 334.465 244.408ZM345.957 244.872V245.32H339.685C339.749 246.216 340 246.893 340.437 247.352C340.874 247.8 341.472 248.024 342.229 248.024C343.37 248.024 344.101 247.512 344.421 246.488H345.749C345.525 247.32 345.109 247.981 344.501 248.472C343.893 248.952 343.125 249.192 342.197 249.192C341.056 249.192 340.133 248.803 339.429 248.024C338.714 247.245 338.357 246.195 338.357 244.872C338.357 243.571 338.709 242.525 339.413 241.736C340.106 240.947 341.024 240.552 342.165 240.552C343.349 240.552 344.277 240.963 344.949 241.784C345.621 242.605 345.957 243.635 345.957 244.872ZM342.165 241.72C341.493 241.72 340.944 241.933 340.517 242.36C340.09 242.776 339.824 243.379 339.717 244.168H344.581C344.517 243.443 344.272 242.856 343.845 242.408C343.418 241.949 342.858 241.72 342.165 241.72ZM355.435 249.192C353.227 249.192 352.059 248.253 351.931 246.376H353.227C353.301 246.995 353.504 247.437 353.835 247.704C354.176 247.96 354.709 248.088 355.435 248.088C356.757 248.088 357.419 247.661 357.419 246.808C357.419 246.435 357.28 246.152 357.003 245.96C356.736 245.768 356.245 245.603 355.531 245.464L354.763 245.32C353.045 245 352.187 244.189 352.187 242.888C352.187 242.173 352.453 241.608 352.987 241.192C353.531 240.765 354.267 240.552 355.195 240.552C357.381 240.552 358.501 241.464 358.555 243.288H357.275C357.243 242.691 357.061 242.269 356.731 242.024C356.4 241.779 355.888 241.656 355.195 241.656C354.64 241.656 354.213 241.763 353.914 241.976C353.616 242.189 353.467 242.488 353.467 242.872C353.467 243.235 353.595 243.507 353.851 243.688C354.107 243.869 354.533 244.024 355.131 244.152L355.867 244.296C356.88 244.499 357.605 244.787 358.043 245.16C358.491 245.533 358.715 246.056 358.715 246.728C358.715 247.507 358.421 248.115 357.835 248.552C357.259 248.979 356.459 249.192 355.435 249.192ZM368.191 244.872V245.32H361.919C361.983 246.216 362.234 246.893 362.671 247.352C363.109 247.8 363.706 248.024 364.463 248.024C365.605 248.024 366.335 247.512 366.655 246.488H367.983C367.759 247.32 367.343 247.981 366.735 248.472C366.127 248.952 365.359 249.192 364.431 249.192C363.29 249.192 362.367 248.803 361.663 248.024C360.949 247.245 360.591 246.195 360.591 244.872C360.591 243.571 360.943 242.525 361.647 241.736C362.341 240.947 363.258 240.552 364.399 240.552C365.583 240.552 366.511 240.963 367.183 241.784C367.855 242.605 368.191 243.635 368.191 244.872ZM364.399 241.72C363.727 241.72 363.178 241.933 362.751 242.36C362.325 242.776 362.058 243.379 361.951 244.168H366.815C366.751 243.443 366.506 242.856 366.079 242.408C365.653 241.949 365.093 241.72 364.399 241.72ZM373.544 249.192C371.336 249.192 370.168 248.253 370.04 246.376H371.336C371.411 246.995 371.613 247.437 371.944 247.704C372.285 247.96 372.819 248.088 373.544 248.088C374.867 248.088 375.528 247.661 375.528 246.808C375.528 246.435 375.389 246.152 375.112 245.96C374.845 245.768 374.355 245.603 373.64 245.464L372.872 245.32C371.155 245 370.296 244.189 370.296 242.888C370.296 242.173 370.563 241.608 371.096 241.192C371.64 240.765 372.376 240.552 373.304 240.552C375.491 240.552 376.611 241.464 376.664 243.288H375.384C375.352 242.691 375.171 242.269 374.84 242.024C374.509 241.779 373.997 241.656 373.304 241.656C372.749 241.656 372.323 241.763 372.024 241.976C371.725 242.189 371.576 242.488 371.576 242.872C371.576 243.235 371.704 243.507 371.96 243.688C372.216 243.869 372.643 244.024 373.24 244.152L373.976 244.296C374.989 244.499 375.715 244.787 376.152 245.16C376.6 245.533 376.824 246.056 376.824 246.728C376.824 247.507 376.531 248.115 375.944 248.552C375.368 248.979 374.568 249.192 373.544 249.192ZM382.169 249.192C379.961 249.192 378.793 248.253 378.665 246.376H379.961C380.036 246.995 380.238 247.437 380.569 247.704C380.91 247.96 381.444 248.088 382.169 248.088C383.492 248.088 384.153 247.661 384.153 246.808C384.153 246.435 384.014 246.152 383.737 245.96C383.47 245.768 382.98 245.603 382.265 245.464L381.497 245.32C379.78 245 378.921 244.189 378.921 242.888C378.921 242.173 379.188 241.608 379.721 241.192C380.265 240.765 381.001 240.552 381.929 240.552C384.116 240.552 385.236 241.464 385.289 243.288H384.009C383.977 242.691 383.796 242.269 383.465 242.024C383.134 241.779 382.622 241.656 381.929 241.656C381.374 241.656 380.948 241.763 380.649 241.976C380.35 242.189 380.201 242.488 380.201 242.872C380.201 243.235 380.329 243.507 380.585 243.688C380.841 243.869 381.268 244.024 381.865 244.152L382.601 244.296C383.614 244.499 384.34 244.787 384.777 245.16C385.225 245.533 385.449 246.056 385.449 246.728C385.449 247.507 385.156 248.115 384.569 248.552C383.993 248.979 383.193 249.192 382.169 249.192ZM389.038 239.496H387.678V237.928H389.038V239.496ZM389.006 249H387.726V240.744H389.006V249ZM398.409 248.008C397.651 248.797 396.691 249.192 395.529 249.192C394.366 249.192 393.406 248.797 392.649 248.008C391.902 247.229 391.529 246.184 391.529 244.872C391.529 243.56 391.902 242.515 392.649 241.736C393.406 240.947 394.366 240.552 395.529 240.552C396.691 240.552 397.651 240.947 398.409 241.736C399.155 242.515 399.529 243.56 399.529 244.872C399.529 246.184 399.155 247.229 398.409 248.008ZM393.593 247.192C394.073 247.757 394.718 248.04 395.529 248.04C396.339 248.04 396.985 247.757 397.465 247.192C397.945 246.637 398.185 245.864 398.185 244.872C398.185 243.869 397.945 243.091 397.465 242.536C396.985 241.981 396.339 241.704 395.529 241.704C394.718 241.704 394.073 241.981 393.593 242.536C393.113 243.091 392.873 243.869 392.873 244.872C392.873 245.864 393.113 246.637 393.593 247.192ZM405.862 240.552C406.779 240.552 407.494 240.803 408.006 241.304C408.518 241.805 408.774 242.509 408.774 243.416V249H407.494V243.544C407.494 242.317 406.864 241.704 405.606 241.704C405.008 241.704 404.48 241.928 404.022 242.376C403.563 242.824 403.334 243.475 403.334 244.328V249H402.054V240.744H403.27V241.976C403.899 241.027 404.763 240.552 405.862 240.552ZM414.606 249.192C412.398 249.192 411.23 248.253 411.102 246.376H412.398C412.473 246.995 412.676 247.437 413.006 247.704C413.348 247.96 413.881 248.088 414.606 248.088C415.929 248.088 416.59 247.661 416.59 246.808C416.59 246.435 416.452 246.152 416.174 245.96C415.908 245.768 415.417 245.603 414.702 245.464L413.934 245.32C412.217 245 411.358 244.189 411.358 242.888C411.358 242.173 411.625 241.608 412.158 241.192C412.702 240.765 413.438 240.552 414.366 240.552C416.553 240.552 417.673 241.464 417.726 243.288H416.446C416.414 242.691 416.233 242.269 415.902 242.024C415.572 241.779 415.06 241.656 414.366 241.656C413.812 241.656 413.385 241.763 413.086 241.976C412.788 242.189 412.638 242.488 412.638 242.872C412.638 243.235 412.766 243.507 413.022 243.688C413.278 243.869 413.705 244.024 414.302 244.152L415.038 244.296C416.052 244.499 416.777 244.787 417.214 245.16C417.662 245.533 417.886 246.056 417.886 246.728C417.886 247.507 417.593 248.115 417.006 248.552C416.43 248.979 415.63 249.192 414.606 249.192ZM427.826 240.744V241.864H426.13V247.224C426.13 247.693 426.445 247.928 427.074 247.928H427.826V249C427.474 249.032 427.17 249.048 426.914 249.048C425.538 249.048 424.85 248.477 424.85 247.336V241.864H423.49V240.744H424.85V238.408H426.13V240.744H427.826ZM436.503 248.008C435.745 248.797 434.785 249.192 433.623 249.192C432.46 249.192 431.5 248.797 430.743 248.008C429.996 247.229 429.623 246.184 429.623 244.872C429.623 243.56 429.996 242.515 430.743 241.736C431.5 240.947 432.46 240.552 433.623 240.552C434.785 240.552 435.745 240.947 436.503 241.736C437.249 242.515 437.623 243.56 437.623 244.872C437.623 246.184 437.249 247.229 436.503 248.008ZM431.687 247.192C432.167 247.757 432.812 248.04 433.623 248.04C434.433 248.04 435.079 247.757 435.559 247.192C436.039 246.637 436.279 245.864 436.279 244.872C436.279 243.869 436.039 243.091 435.559 242.536C435.079 241.981 434.433 241.704 433.623 241.704C432.812 241.704 432.167 241.981 431.687 242.536C431.207 243.091 430.967 243.869 430.967 244.872C430.967 245.864 431.207 246.637 431.687 247.192ZM451.394 244.872V245.32H445.122C445.186 246.216 445.437 246.893 445.874 247.352C446.312 247.8 446.909 248.024 447.666 248.024C448.808 248.024 449.538 247.512 449.858 246.488H451.186C450.962 247.32 450.546 247.981 449.938 248.472C449.33 248.952 448.562 249.192 447.634 249.192C446.493 249.192 445.57 248.803 444.866 248.024C444.152 247.245 443.794 246.195 443.794 244.872C443.794 243.571 444.146 242.525 444.85 241.736C445.544 240.947 446.461 240.552 447.602 240.552C448.786 240.552 449.714 240.963 450.386 241.784C451.058 242.605 451.394 243.635 451.394 244.872ZM447.602 241.72C446.93 241.72 446.381 241.933 445.954 242.36C445.528 242.776 445.261 243.379 445.154 244.168H450.018C449.954 243.443 449.709 242.856 449.282 242.408C448.856 241.949 448.296 241.72 447.602 241.72ZM457.721 240.552C458.638 240.552 459.353 240.803 459.865 241.304C460.377 241.805 460.633 242.509 460.633 243.416V249H459.353V243.544C459.353 242.317 458.724 241.704 457.465 241.704C456.868 241.704 456.34 241.928 455.881 242.376C455.422 242.824 455.193 243.475 455.193 244.328V249H453.913V240.744H455.129V241.976C455.758 241.027 456.622 240.552 457.721 240.552ZM466.466 249.192C464.258 249.192 463.09 248.253 462.962 246.376H464.258C464.332 246.995 464.535 247.437 464.866 247.704C465.207 247.96 465.74 248.088 466.466 248.088C467.788 248.088 468.45 247.661 468.45 246.808C468.45 246.435 468.311 246.152 468.034 245.96C467.767 245.768 467.276 245.603 466.562 245.464L465.794 245.32C464.076 245 463.218 244.189 463.218 242.888C463.218 242.173 463.484 241.608 464.018 241.192C464.562 240.765 465.298 240.552 466.226 240.552C468.412 240.552 469.532 241.464 469.586 243.288H468.306C468.274 242.691 468.092 242.269 467.762 242.024C467.431 241.779 466.919 241.656 466.226 241.656C465.671 241.656 465.244 241.763 464.946 241.976C464.647 242.189 464.498 242.488 464.498 242.872C464.498 243.235 464.626 243.507 464.882 243.688C465.138 243.869 465.564 244.024 466.162 244.152L466.898 244.296C467.911 244.499 468.636 244.787 469.074 245.16C469.522 245.533 469.746 246.056 469.746 246.728C469.746 247.507 469.452 248.115 468.866 248.552C468.29 248.979 467.49 249.192 466.466 249.192ZM477.463 245.416V240.744H478.743V249H477.527V247.768C476.897 248.717 476.033 249.192 474.935 249.192C474.017 249.192 473.303 248.941 472.791 248.44C472.279 247.939 472.023 247.235 472.023 246.328V240.744H473.303V246.2C473.303 247.427 473.932 248.04 475.191 248.04C475.788 248.04 476.316 247.816 476.775 247.368C477.233 246.92 477.463 246.269 477.463 245.416ZM485.535 240.616C485.748 240.616 485.892 240.621 485.967 240.632V241.864H485.647C484.794 241.864 484.127 242.077 483.647 242.504C483.178 242.92 482.943 243.517 482.943 244.296V249H481.663V240.744H482.879V242.2C483.434 241.144 484.319 240.616 485.535 240.616ZM494.879 244.872V245.32H488.607C488.671 246.216 488.921 246.893 489.359 247.352C489.796 247.8 490.393 248.024 491.151 248.024C492.292 248.024 493.023 247.512 493.343 246.488H494.671C494.447 247.32 494.031 247.981 493.423 248.472C492.815 248.952 492.047 249.192 491.119 249.192C489.977 249.192 489.055 248.803 488.351 248.024C487.636 247.245 487.279 246.195 487.279 244.872C487.279 243.571 487.631 242.525 488.335 241.736C489.028 240.947 489.945 240.552 491.087 240.552C492.271 240.552 493.199 240.963 493.871 241.784C494.543 242.605 494.879 243.635 494.879 244.872ZM491.087 241.72C490.415 241.72 489.865 241.933 489.439 242.36C489.012 242.776 488.745 243.379 488.639 244.168H493.503C493.439 243.443 493.193 242.856 492.767 242.408C492.34 241.949 491.78 241.72 491.087 241.72ZM505.508 244.168L506.676 240.744H508.068L504.58 250.296C504.335 250.989 503.999 251.475 503.572 251.752C503.146 252.04 502.586 252.184 501.892 252.184C501.658 252.184 501.402 252.168 501.124 252.136V251.064H501.876C502.612 251.064 503.114 250.723 503.38 250.04L503.668 249.272L500.564 240.744H501.972L503.14 244.184C503.556 245.4 503.951 246.589 504.324 247.752C504.634 246.76 505.028 245.565 505.508 244.168ZM516.096 248.008C515.339 248.797 514.379 249.192 513.216 249.192C512.054 249.192 511.094 248.797 510.336 248.008C509.59 247.229 509.216 246.184 509.216 244.872C509.216 243.56 509.59 242.515 510.336 241.736C511.094 240.947 512.054 240.552 513.216 240.552C514.379 240.552 515.339 240.947 516.096 241.736C516.843 242.515 517.216 243.56 517.216 244.872C517.216 246.184 516.843 247.229 516.096 248.008ZM511.28 247.192C511.76 247.757 512.406 248.04 513.216 248.04C514.027 248.04 514.672 247.757 515.152 247.192C515.632 246.637 515.872 245.864 515.872 244.872C515.872 243.869 515.632 243.091 515.152 242.536C514.672 241.981 514.027 241.704 513.216 241.704C512.406 241.704 511.76 241.981 511.28 242.536C510.8 243.091 510.56 243.869 510.56 244.872C510.56 245.864 510.8 246.637 511.28 247.192ZM524.947 245.416V240.744H526.227V249H525.011V247.768C524.382 248.717 523.518 249.192 522.419 249.192C521.502 249.192 520.787 248.941 520.275 248.44C519.763 247.939 519.507 247.235 519.507 246.328V240.744H520.787V246.2C520.787 247.427 521.416 248.04 522.675 248.04C523.272 248.04 523.8 247.816 524.259 247.368C524.718 246.92 524.947 246.269 524.947 245.416ZM58.832 268.616C59.0453 268.616 59.1893 268.621 59.264 268.632V269.864H58.944C58.0907 269.864 57.424 270.077 56.944 270.504C56.4747 270.92 56.24 271.517 56.24 272.296V277H54.96V268.744H56.176V270.2C56.7307 269.144 57.616 268.616 58.832 268.616ZM68.1756 272.872V273.32H61.9036C61.9676 274.216 62.2183 274.893 62.6556 275.352C63.093 275.8 63.6903 276.024 64.4476 276.024C65.589 276.024 66.3196 275.512 66.6396 274.488H67.9676C67.7436 275.32 67.3276 275.981 66.7196 276.472C66.1116 276.952 65.3436 277.192 64.4156 277.192C63.2743 277.192 62.3516 276.803 61.6476 276.024C60.933 275.245 60.5756 274.195 60.5756 272.872C60.5756 271.571 60.9276 270.525 61.6316 269.736C62.325 268.947 63.2423 268.552 64.3836 268.552C65.5676 268.552 66.4956 268.963 67.1676 269.784C67.8396 270.605 68.1756 271.635 68.1756 272.872ZM64.3836 269.72C63.7116 269.72 63.1623 269.933 62.7356 270.36C62.309 270.776 62.0423 271.379 61.9356 272.168H66.7996C66.7356 271.443 66.4903 270.856 66.0636 270.408C65.637 269.949 65.077 269.72 64.3836 269.72ZM73.826 268.744V269.864H72.13V275.224C72.13 275.693 72.4447 275.928 73.074 275.928H73.826V277C73.474 277.032 73.17 277.048 72.914 277.048C71.538 277.048 70.85 276.477 70.85 275.336V269.864H69.49V268.744H70.85V266.408H72.13V268.744H73.826ZM82.8526 275.96H83.3166V277C83.1033 277.032 82.8686 277.048 82.6126 277.048C81.7486 277.048 81.2846 276.653 81.2206 275.864C80.6446 276.749 79.7486 277.192 78.5326 277.192C77.626 277.192 76.9113 276.984 76.3886 276.568C75.8766 276.141 75.6206 275.544 75.6206 274.776C75.6206 273.283 76.6393 272.429 78.6766 272.216L79.8606 272.088C80.7246 271.992 81.1566 271.613 81.1566 270.952C81.1566 270.493 81.0126 270.163 80.7246 269.96C80.4473 269.757 79.9726 269.656 79.3006 269.656C78.586 269.656 78.0686 269.779 77.7486 270.024C77.4393 270.259 77.2633 270.68 77.2206 271.288H75.9406C76.0473 269.464 77.1673 268.552 79.3006 268.552C81.37 268.552 82.4046 269.352 82.4046 270.952V275.56C82.4046 275.827 82.554 275.96 82.8526 275.96ZM78.5966 276.104C79.2793 276.104 79.8766 275.896 80.3886 275.48C80.9006 275.075 81.1566 274.493 81.1566 273.736V272.76C80.922 272.941 80.5593 273.059 80.0686 273.112L78.8686 273.256C78.1753 273.341 77.6793 273.501 77.3806 273.736C77.0926 273.971 76.9486 274.307 76.9486 274.744C76.9486 275.171 77.0873 275.507 77.3646 275.752C77.642 275.987 78.0526 276.104 78.5966 276.104ZM86.6783 267.496H85.3183V265.928H86.6783V267.496ZM86.6463 277H85.3663V268.744H86.6463V277ZM93.3774 268.552C94.2947 268.552 95.0094 268.803 95.5214 269.304C96.0334 269.805 96.2894 270.509 96.2894 271.416V277H95.0094V271.544C95.0094 270.317 94.38 269.704 93.1214 269.704C92.524 269.704 91.996 269.928 91.5374 270.376C91.0787 270.824 90.8494 271.475 90.8494 272.328V277H89.5694V268.744H90.7854V269.976C91.4147 269.027 92.2787 268.552 93.3774 268.552ZM110.281 277H108.793L106.009 272.568L104.537 273.944V277H103.257V265.608H104.537V272.44L108.361 268.744H110.057L106.921 271.72L110.281 277ZM115.971 268.552C116.888 268.552 117.603 268.803 118.115 269.304C118.627 269.805 118.883 270.509 118.883 271.416V277H117.603V271.544C117.603 270.317 116.974 269.704 115.715 269.704C115.118 269.704 114.59 269.928 114.131 270.376C113.672 270.824 113.443 271.475 113.443 272.328V277H112.163V268.744H113.379V269.976C114.008 269.027 114.872 268.552 115.971 268.552ZM128.284 276.008C127.526 276.797 126.566 277.192 125.404 277.192C124.241 277.192 123.281 276.797 122.524 276.008C121.777 275.229 121.404 274.184 121.404 272.872C121.404 271.56 121.777 270.515 122.524 269.736C123.281 268.947 124.241 268.552 125.404 268.552C126.566 268.552 127.526 268.947 128.284 269.736C129.03 270.515 129.404 271.56 129.404 272.872C129.404 274.184 129.03 275.229 128.284 276.008ZM123.468 275.192C123.948 275.757 124.593 276.04 125.404 276.04C126.214 276.04 126.86 275.757 127.34 275.192C127.82 274.637 128.06 273.864 128.06 272.872C128.06 271.869 127.82 271.091 127.34 270.536C126.86 269.981 126.214 269.704 125.404 269.704C124.593 269.704 123.948 269.981 123.468 270.536C122.988 271.091 122.748 271.869 122.748 272.872C122.748 273.864 122.988 274.637 123.468 275.192ZM140.308 272.472L141.476 268.744H142.852L140.1 277H138.756L137.54 273.176C137.124 271.821 136.847 270.888 136.708 270.376C136.463 271.251 136.18 272.184 135.86 273.176L134.66 277H133.316L130.564 268.744H131.94L133.108 272.472C133.396 273.379 133.695 274.381 134.004 275.48C134.346 274.264 134.639 273.261 134.884 272.472L136.036 268.744H137.38L138.532 272.472C139.119 274.424 139.418 275.416 139.428 275.448C139.514 275.117 139.807 274.125 140.308 272.472ZM146.021 277H144.741V265.608H146.021V277ZM156.144 272.872V273.32H149.872C149.936 274.216 150.187 274.893 150.624 275.352C151.062 275.8 151.659 276.024 152.416 276.024C153.558 276.024 154.288 275.512 154.608 274.488H155.936C155.712 275.32 155.296 275.981 154.688 276.472C154.08 276.952 153.312 277.192 152.384 277.192C151.243 277.192 150.32 276.803 149.616 276.024C148.902 275.245 148.544 274.195 148.544 272.872C148.544 271.571 148.896 270.525 149.6 269.736C150.294 268.947 151.211 268.552 152.352 268.552C153.536 268.552 154.464 268.963 155.136 269.784C155.808 270.605 156.144 271.635 156.144 272.872ZM152.352 269.72C151.68 269.72 151.131 269.933 150.704 270.36C150.278 270.776 150.011 271.379 149.904 272.168H154.768C154.704 271.443 154.459 270.856 154.032 270.408C153.606 269.949 153.046 269.72 152.352 269.72ZM164.871 269.928V265.608H166.151V277H164.935V275.72C164.274 276.701 163.33 277.192 162.103 277.192C160.94 277.192 160.012 276.797 159.319 276.008C158.615 275.219 158.263 274.173 158.263 272.872C158.263 271.549 158.615 270.499 159.319 269.72C160.002 268.941 160.93 268.552 162.103 268.552C163.287 268.552 164.21 269.011 164.871 269.928ZM159.607 272.936C159.607 273.917 159.847 274.68 160.327 275.224C160.807 275.768 161.452 276.04 162.263 276.04C163.074 276.04 163.719 275.757 164.199 275.192C164.679 274.637 164.919 273.864 164.919 272.872C164.919 271.891 164.679 271.117 164.199 270.552C163.719 269.987 163.074 269.704 162.263 269.704C161.463 269.704 160.818 269.997 160.327 270.584C159.847 271.16 159.607 271.944 159.607 272.936ZM175.341 269.944V268.744H176.557V276.68C176.557 277.811 176.227 278.701 175.565 279.352C174.904 280.003 173.955 280.328 172.717 280.328C171.693 280.328 170.872 280.093 170.253 279.624C169.635 279.155 169.283 278.504 169.197 277.672H170.477C170.637 278.717 171.384 279.24 172.717 279.24C174.424 279.24 175.277 278.387 175.277 276.68V275.88C174.627 276.755 173.704 277.192 172.509 277.192C171.347 277.192 170.419 276.797 169.725 276.008C169.021 275.219 168.669 274.173 168.669 272.872C168.669 271.549 169.021 270.499 169.725 269.72C170.408 268.941 171.336 268.552 172.509 268.552C173.736 268.552 174.68 269.016 175.341 269.944ZM172.669 276.04C173.48 276.04 174.125 275.757 174.605 275.192C175.085 274.627 175.325 273.853 175.325 272.872C175.325 271.891 175.085 271.117 174.605 270.552C174.125 269.987 173.48 269.704 172.669 269.704C171.869 269.704 171.224 269.992 170.733 270.568C170.253 271.144 170.013 271.912 170.013 272.872C170.013 273.832 170.253 274.6 170.733 275.176C171.224 275.752 171.869 276.04 172.669 276.04ZM186.676 272.872V273.32H180.404C180.468 274.216 180.718 274.893 181.156 275.352C181.593 275.8 182.19 276.024 182.948 276.024C184.089 276.024 184.82 275.512 185.14 274.488H186.468C186.244 275.32 185.828 275.981 185.22 276.472C184.612 276.952 183.844 277.192 182.916 277.192C181.774 277.192 180.852 276.803 180.148 276.024C179.433 275.245 179.076 274.195 179.076 272.872C179.076 271.571 179.428 270.525 180.132 269.736C180.825 268.947 181.742 268.552 182.884 268.552C184.068 268.552 184.996 268.963 185.668 269.784C186.34 270.605 186.676 271.635 186.676 272.872ZM182.884 269.72C182.212 269.72 181.662 269.933 181.236 270.36C180.809 270.776 180.542 271.379 180.436 272.168H185.3C185.236 271.443 184.99 270.856 184.564 270.408C184.137 269.949 183.577 269.72 182.884 269.72ZM199.993 275.96H200.457V277C200.244 277.032 200.009 277.048 199.753 277.048C198.889 277.048 198.425 276.653 198.361 275.864C197.785 276.749 196.889 277.192 195.673 277.192C194.767 277.192 194.052 276.984 193.529 276.568C193.017 276.141 192.761 275.544 192.761 274.776C192.761 273.283 193.78 272.429 195.817 272.216L197.001 272.088C197.865 271.992 198.297 271.613 198.297 270.952C198.297 270.493 198.153 270.163 197.865 269.96C197.588 269.757 197.113 269.656 196.441 269.656C195.727 269.656 195.209 269.779 194.889 270.024C194.58 270.259 194.404 270.68 194.361 271.288H193.081C193.188 269.464 194.308 268.552 196.441 268.552C198.511 268.552 199.545 269.352 199.545 270.952V275.56C199.545 275.827 199.695 275.96 199.993 275.96ZM195.737 276.104C196.42 276.104 197.017 275.896 197.529 275.48C198.041 275.075 198.297 274.493 198.297 273.736V272.76C198.063 272.941 197.7 273.059 197.209 273.112L196.009 273.256C195.316 273.341 194.82 273.501 194.521 273.736C194.233 273.971 194.089 274.307 194.089 274.744C194.089 275.171 194.228 275.507 194.505 275.752C194.783 275.987 195.193 276.104 195.737 276.104ZM206.393 268.552C207.31 268.552 208.025 268.803 208.537 269.304C209.049 269.805 209.305 270.509 209.305 271.416V277H208.025V271.544C208.025 270.317 207.396 269.704 206.137 269.704C205.54 269.704 205.012 269.928 204.553 270.376C204.094 270.824 203.865 271.475 203.865 272.328V277H202.585V268.744H203.801V269.976C204.43 269.027 205.294 268.552 206.393 268.552ZM218.434 269.928V265.608H219.714V277H218.498V275.72C217.836 276.701 216.892 277.192 215.666 277.192C214.503 277.192 213.575 276.797 212.882 276.008C212.178 275.219 211.826 274.173 211.826 272.872C211.826 271.549 212.178 270.499 212.882 269.72C213.564 268.941 214.492 268.552 215.666 268.552C216.85 268.552 217.772 269.011 218.434 269.928ZM213.17 272.936C213.17 273.917 213.41 274.68 213.89 275.224C214.37 275.768 215.015 276.04 215.826 276.04C216.636 276.04 217.282 275.757 217.762 275.192C218.242 274.637 218.482 273.864 218.482 272.872C218.482 271.891 218.242 271.117 217.762 270.552C217.282 269.987 216.636 269.704 215.826 269.704C215.026 269.704 214.38 269.997 213.89 270.584C213.41 271.16 213.17 271.944 213.17 272.936ZM230.727 268.552C231.889 268.552 232.823 268.941 233.527 269.72C234.22 270.509 234.567 271.56 234.567 272.872C234.567 274.173 234.22 275.219 233.527 276.008C232.823 276.797 231.889 277.192 230.727 277.192C229.5 277.192 228.556 276.701 227.895 275.72V277H226.679V265.608H227.959V269.928C228.62 269.011 229.543 268.552 230.727 268.552ZM230.567 276.04C231.367 276.04 232.007 275.752 232.487 275.176C232.977 274.589 233.223 273.8 233.223 272.808C233.223 271.837 232.983 271.08 232.503 270.536C232.033 269.981 231.388 269.704 230.567 269.704C229.756 269.704 229.111 269.981 228.631 270.536C228.151 271.091 227.911 271.869 227.911 272.872C227.911 273.864 228.151 274.637 228.631 275.192C229.111 275.757 229.756 276.04 230.567 276.04ZM242.291 273.416V268.744H243.571V277H242.355V275.768C241.725 276.717 240.861 277.192 239.763 277.192C238.845 277.192 238.131 276.941 237.619 276.44C237.107 275.939 236.851 275.235 236.851 274.328V268.744H238.131V274.2C238.131 275.427 238.76 276.04 240.019 276.04C240.616 276.04 241.144 275.816 241.603 275.368C242.061 274.92 242.291 274.269 242.291 273.416ZM247.803 267.496H246.443V265.928H247.803V267.496ZM247.771 277H246.491V268.744H247.771V277ZM251.974 277H250.694V265.608H251.974V277ZM261.106 269.928V265.608H262.385V277H261.17V275.72C260.508 276.701 259.564 277.192 258.338 277.192C257.175 277.192 256.247 276.797 255.554 276.008C254.85 275.219 254.498 274.173 254.498 272.872C254.498 271.549 254.85 270.499 255.554 269.72C256.236 268.941 257.164 268.552 258.338 268.552C259.522 268.552 260.444 269.011 261.106 269.928ZM255.842 272.936C255.842 273.917 256.082 274.68 256.562 275.224C257.042 275.768 257.687 276.04 258.498 276.04C259.308 276.04 259.954 275.757 260.434 275.192C260.914 274.637 261.154 273.864 261.154 272.872C261.154 271.891 260.914 271.117 260.434 270.552C259.954 269.987 259.308 269.704 258.498 269.704C257.698 269.704 257.052 269.997 256.562 270.584C256.082 271.16 255.842 271.944 255.842 272.936ZM273.399 268.552C274.561 268.552 275.495 268.941 276.199 269.72C276.892 270.509 277.239 271.56 277.239 272.872C277.239 274.173 276.892 275.219 276.199 276.008C275.495 276.797 274.561 277.192 273.399 277.192C272.215 277.192 271.292 276.733 270.631 275.816V280.136H269.351V268.744H270.567V270.024C271.228 269.043 272.172 268.552 273.399 268.552ZM273.239 276.04C274.039 276.04 274.679 275.752 275.159 275.176C275.649 274.589 275.895 273.8 275.895 272.808C275.895 271.837 275.655 271.08 275.175 270.536C274.705 269.981 274.06 269.704 273.239 269.704C272.428 269.704 271.783 269.981 271.303 270.536C270.823 271.091 270.583 271.869 270.583 272.872C270.583 273.864 270.823 274.637 271.303 275.192C271.783 275.757 272.428 276.04 273.239 276.04ZM283.629 268.616C283.842 268.616 283.986 268.621 284.061 268.632V269.864H283.741C282.888 269.864 282.221 270.077 281.741 270.504C281.272 270.92 281.037 271.517 281.037 272.296V277H279.757V268.744H280.973V270.2C281.528 269.144 282.413 268.616 283.629 268.616ZM292.446 275.96H292.91V277C292.697 277.032 292.462 277.048 292.206 277.048C291.342 277.048 290.878 276.653 290.814 275.864C290.238 276.749 289.342 277.192 288.126 277.192C287.22 277.192 286.505 276.984 285.982 276.568C285.47 276.141 285.214 275.544 285.214 274.776C285.214 273.283 286.233 272.429 288.27 272.216L289.454 272.088C290.318 271.992 290.75 271.613 290.75 270.952C290.75 270.493 290.606 270.163 290.318 269.96C290.041 269.757 289.566 269.656 288.894 269.656C288.18 269.656 287.662 269.779 287.342 270.024C287.033 270.259 286.857 270.68 286.814 271.288H285.534C285.641 269.464 286.761 268.552 288.894 268.552C290.964 268.552 291.998 269.352 291.998 270.952V275.56C291.998 275.827 292.148 275.96 292.446 275.96ZM288.19 276.104C288.873 276.104 289.47 275.896 289.982 275.48C290.494 275.075 290.75 274.493 290.75 273.736V272.76C290.516 272.941 290.153 273.059 289.662 273.112L288.462 273.256C287.769 273.341 287.273 273.501 286.974 273.736C286.686 273.971 286.542 274.307 286.542 274.744C286.542 275.171 286.681 275.507 286.958 275.752C287.236 275.987 287.646 276.104 288.19 276.104ZM298.384 277.192C297.243 277.192 296.32 276.797 295.616 276.008C294.912 275.219 294.56 274.173 294.56 272.872C294.56 271.549 294.912 270.499 295.616 269.72C296.299 268.941 297.221 268.552 298.384 268.552C299.365 268.552 300.171 268.819 300.8 269.352C301.429 269.885 301.808 270.616 301.936 271.544H300.608C300.512 270.957 300.256 270.504 299.84 270.184C299.435 269.864 298.949 269.704 298.384 269.704C297.627 269.704 297.024 269.981 296.576 270.536C296.128 271.08 295.904 271.859 295.904 272.872C295.904 273.875 296.128 274.653 296.576 275.208C297.035 275.763 297.637 276.04 298.384 276.04C298.949 276.04 299.44 275.875 299.856 275.544C300.272 275.213 300.528 274.755 300.624 274.168H301.936C301.797 275.096 301.403 275.832 300.752 276.376C300.112 276.92 299.323 277.192 298.384 277.192ZM307.607 268.744V269.864H305.911V275.224C305.911 275.693 306.226 275.928 306.855 275.928H307.607V277C307.255 277.032 306.951 277.048 306.695 277.048C305.319 277.048 304.631 276.477 304.631 275.336V269.864H303.271V268.744H304.631V266.408H305.911V268.744H307.607ZM311.272 267.496H309.912V265.928H311.272V267.496ZM311.24 277H309.96V268.744H311.24V277ZM317.587 277.192C316.446 277.192 315.523 276.797 314.819 276.008C314.115 275.219 313.763 274.173 313.763 272.872C313.763 271.549 314.115 270.499 314.819 269.72C315.502 268.941 316.424 268.552 317.587 268.552C318.568 268.552 319.374 268.819 320.003 269.352C320.632 269.885 321.011 270.616 321.139 271.544H319.811C319.715 270.957 319.459 270.504 319.043 270.184C318.638 269.864 318.152 269.704 317.587 269.704C316.83 269.704 316.227 269.981 315.779 270.536C315.331 271.08 315.107 271.859 315.107 272.872C315.107 273.875 315.331 274.653 315.779 275.208C316.238 275.763 316.84 276.04 317.587 276.04C318.152 276.04 318.643 275.875 319.059 275.544C319.475 275.213 319.731 274.755 319.827 274.168H321.139C321 275.096 320.606 275.832 319.955 276.376C319.315 276.92 318.526 277.192 317.587 277.192ZM330.259 275.96H330.723V277C330.51 277.032 330.275 277.048 330.019 277.048C329.155 277.048 328.691 276.653 328.627 275.864C328.051 276.749 327.155 277.192 325.939 277.192C325.032 277.192 324.318 276.984 323.795 276.568C323.283 276.141 323.027 275.544 323.027 274.776C323.027 273.283 324.046 272.429 326.083 272.216L327.267 272.088C328.131 271.992 328.563 271.613 328.563 270.952C328.563 270.493 328.419 270.163 328.131 269.96C327.854 269.757 327.379 269.656 326.707 269.656C325.992 269.656 325.475 269.779 325.155 270.024C324.846 270.259 324.67 270.68 324.627 271.288H323.347C323.454 269.464 324.574 268.552 326.707 268.552C328.776 268.552 329.811 269.352 329.811 270.952V275.56C329.811 275.827 329.96 275.96 330.259 275.96ZM326.003 276.104C326.686 276.104 327.283 275.896 327.795 275.48C328.307 275.075 328.563 274.493 328.563 273.736V272.76C328.328 272.941 327.966 273.059 327.475 273.112L326.275 273.256C325.582 273.341 325.086 273.501 324.787 273.736C324.499 273.971 324.355 274.307 324.355 274.744C324.355 275.171 324.494 275.507 324.771 275.752C325.048 275.987 325.459 276.104 326.003 276.104ZM334.053 277H332.773V265.608H334.053V277ZM343.935 277.192C341.727 277.192 340.559 276.253 340.431 274.376H341.727C341.801 274.995 342.004 275.437 342.335 275.704C342.676 275.96 343.209 276.088 343.935 276.088C345.257 276.088 345.919 275.661 345.919 274.808C345.919 274.435 345.78 274.152 345.503 273.96C345.236 273.768 344.745 273.603 344.031 273.464L343.263 273.32C341.545 273 340.687 272.189 340.687 270.888C340.687 270.173 340.953 269.608 341.487 269.192C342.031 268.765 342.767 268.552 343.695 268.552C345.881 268.552 347.001 269.464 347.055 271.288H345.775C345.743 270.691 345.561 270.269 345.231 270.024C344.9 269.779 344.388 269.656 343.695 269.656C343.14 269.656 342.713 269.763 342.414 269.976C342.116 270.189 341.967 270.488 341.967 270.872C341.967 271.235 342.095 271.507 342.351 271.688C342.607 271.869 343.033 272.024 343.631 272.152L344.367 272.296C345.38 272.499 346.105 272.787 346.543 273.16C346.991 273.533 347.215 274.056 347.215 274.728C347.215 275.507 346.921 276.115 346.335 276.552C345.759 276.979 344.959 277.192 343.935 277.192ZM356.515 277H355.027L352.243 272.568L350.771 273.944V277H349.491V265.608H350.771V272.44L354.595 268.744H356.291L353.155 271.72L356.515 277ZM359.71 267.496H358.35V265.928H359.71V267.496ZM359.678 277H358.398V268.744H359.678V277ZM363.881 277H362.601V265.608H363.881V277ZM368.084 277H366.804V265.608H368.084V277ZM373.919 277.192C371.711 277.192 370.543 276.253 370.415 274.376H371.711C371.786 274.995 371.988 275.437 372.319 275.704C372.66 275.96 373.194 276.088 373.919 276.088C375.242 276.088 375.903 275.661 375.903 274.808C375.903 274.435 375.764 274.152 375.487 273.96C375.22 273.768 374.73 273.603 374.015 273.464L373.247 273.32C371.53 273 370.671 272.189 370.671 270.888C370.671 270.173 370.938 269.608 371.471 269.192C372.015 268.765 372.751 268.552 373.679 268.552C375.866 268.552 376.986 269.464 377.039 271.288H375.759C375.727 270.691 375.546 270.269 375.215 270.024C374.884 269.779 374.372 269.656 373.679 269.656C373.124 269.656 372.698 269.763 372.399 269.976C372.1 270.189 371.951 270.488 371.951 270.872C371.951 271.235 372.079 271.507 372.335 271.688C372.591 271.869 373.018 272.024 373.615 272.152L374.351 272.296C375.364 272.499 376.09 272.787 376.527 273.16C376.975 273.533 377.199 274.056 377.199 274.728C377.199 275.507 376.906 276.115 376.319 276.552C375.743 276.979 374.943 277.192 373.919 277.192ZM380.852 277H379.236V275.4H380.852V277Z" fill="#1A1A1A"/>
<path d="M73.6481 73.0877C74.0591 71.0709 76.9409 71.0709 77.3519 73.0877L78.9997 81.1738C79.2814 82.5561 80.9234 83.1537 82.0278 82.2759L88.4877 77.1408C90.0989 75.86 92.3065 77.7125 91.325 79.5216L87.3897 86.7751C86.7169 88.0151 87.5906 89.5283 89.0009 89.5657L97.2502 89.7843C99.3077 89.8389 99.8082 92.677 97.8934 93.432L90.2163 96.4589C88.9039 96.9763 88.6005 98.6971 89.6568 99.6322L95.8356 105.102C97.3767 106.467 95.9357 108.962 93.9836 108.31L86.157 105.694C84.819 105.247 83.4805 106.37 83.6885 107.765L84.9057 115.927C85.2093 117.963 82.5012 118.949 81.4252 117.194L77.1112 110.159C76.3737 108.957 74.6263 108.957 73.8888 110.159L69.5748 117.194C68.4988 118.949 65.7907 117.963 66.0943 115.927L67.3115 107.765C67.5195 106.37 66.181 105.247 64.843 105.694L57.0164 108.31C55.0643 108.962 53.6233 106.467 55.1644 105.102L61.3432 99.6323C62.3995 98.6971 62.0961 96.9763 60.7837 96.4589L53.1066 93.432C51.1918 92.677 51.6923 89.8389 53.7498 89.7843L61.9991 89.5657C63.4094 89.5283 64.2831 88.0151 63.6103 86.7751L59.675 79.5216C58.6935 77.7125 60.9011 75.86 62.5123 77.1408L68.9722 82.2759C70.0766 83.1537 71.7186 82.5561 72.0003 81.1738L73.6481 73.0877Z" fill="#F2994A"/>
</g>
<defs>
<clipPath id="clip0_295_49">
<rect width="801" height="501" fill="white"/>
</clipPath>
</defs>
</svg>
