<svg width="801" height="501" viewBox="0 0 801 501" fill="none" xmlns="http://www.w3.org/2000/svg">
<g clip-path="url(#clip0_295_99)">
<rect width="801" height="501" rx="20" fill="#FAFAFA"/>
<path d="M76.58 163.74C76.58 164.7 75.86 165.87 74.24 165.87H67.91V170.97H75.32V172.2C75.32 173.52 74.27 174.24 73.34 174.24H68.06C68.06 180.21 68.06 183 68.06 183H66.35C64.85 183 63.95 182.22 63.95 180.6V165.63C63.95 163.08 64.97 162.45 67.37 162.45H76.58C76.58 162.57 76.58 163.74 76.58 163.74ZM87.6663 180.72C87.6663 182.46 86.7363 183.15 84.9663 183.15C81.6363 183.15 79.8363 181.38 79.8363 178.11V161.4H80.9763C82.9863 161.4 83.8563 162.57 83.8563 164.1V177.72C83.8563 179.34 84.6963 179.85 86.5863 179.85H87.6663V180.72ZM104.121 172.71C104.121 175.68 101.871 176.64 96.5315 176.64H93.8915C94.1915 178.68 96.0515 179.97 98.4215 179.97C100.101 179.97 102.081 179.64 103.371 178.44H103.521V179.7C103.521 181.77 102.111 183.36 97.6715 183.36C93.6515 183.36 89.7215 180.18 89.7215 175.23C89.7215 169.83 93.0215 166.44 97.6415 166.44C101.001 166.44 104.121 168.84 104.121 172.71ZM100.341 172.23C100.341 170.61 99.1415 169.8 97.2815 169.8C95.3315 169.8 93.9815 171.39 93.8915 173.25L93.8615 173.79H95.6615C99.4715 173.79 100.341 173.37 100.341 172.23ZM122.51 181.23C122.51 182.37 121.64 183.24 119.87 183.24C118.16 183.24 116.99 182.28 115.58 180.15L113.81 177.48C112.79 178.65 112.13 179.55 111.68 180.33C111.14 181.26 110.93 182.07 110.78 183.06H108.95C108.02 183.06 107.3 182.43 107.3 181.62C107.3 179.7 108.41 178.11 110.42 175.95L111.74 174.54L110.03 172.08C108.23 169.47 107.21 168.03 107.15 166.8H109.55C110.33 166.8 111.32 167.31 113.12 169.86L114.77 172.2C117.35 169.29 117.77 168.45 118.04 166.83H119.57C120.74 166.83 121.22 167.64 121.22 168.54C121.22 169.26 120.62 170.52 119.33 172.2C118.67 173.07 117.83 174.06 116.87 175.14L118.64 177.72C120.38 180.27 121.1 180.93 122.51 181.23ZM130.671 163.29C130.671 164.58 129.591 165.66 128.301 165.66C127.011 165.66 125.961 164.58 125.961 163.29C125.961 162 127.011 160.95 128.301 160.95C129.591 160.95 130.671 162 130.671 163.29ZM133.551 180.72C133.551 182.46 132.861 183.15 131.151 183.15C128.031 183.15 126.321 181.38 126.321 178.11C126.321 177.18 126.321 167.16 126.321 167.16H127.461C129.261 167.16 130.341 168.12 130.341 170.16V177.72C130.341 179.34 131.031 179.85 132.801 179.85H133.551V180.72ZM152.522 174.57C152.522 179.43 149.402 183.36 144.482 183.36C140.342 183.36 136.862 179.97 136.862 175.11V161.4H138.242C139.802 161.4 140.882 162.3 140.882 164.19V168.9C141.692 167.73 143.072 166.44 145.262 166.44C149.372 166.44 152.522 169.8 152.522 174.57ZM148.352 175.26C148.352 171.33 146.942 170.01 144.482 170.01C142.442 170.01 140.912 172.02 140.912 174.54C140.912 178.26 142.502 179.79 144.902 179.79C146.912 179.79 148.352 177.87 148.352 175.26ZM164.707 180.72C164.707 182.46 163.777 183.15 162.007 183.15C158.677 183.15 156.877 181.38 156.877 178.11V161.4H158.017C160.027 161.4 160.897 162.57 160.897 164.1V177.72C160.897 179.34 161.737 179.85 163.627 179.85H164.707V180.72ZM181.163 172.71C181.163 175.68 178.913 176.64 173.573 176.64H170.933C171.233 178.68 173.093 179.97 175.463 179.97C177.143 179.97 179.123 179.64 180.413 178.44H180.562V179.7C180.562 181.77 179.153 183.36 174.713 183.36C170.693 183.36 166.763 180.18 166.763 175.23C166.763 169.83 170.063 166.44 174.683 166.44C178.043 166.44 181.163 168.84 181.163 172.71ZM177.383 172.23C177.383 170.61 176.183 169.8 174.323 169.8C172.373 169.8 171.023 171.39 170.933 173.25L170.903 173.79H172.703C176.513 173.79 177.383 173.37 177.383 172.23ZM206.421 180.21C206.421 182.01 205.521 183.18 202.131 183.18H200.541C195.711 183.18 193.041 180.48 193.041 175.56V162.45H194.721C196.401 162.45 197.271 163.41 197.271 165.45V175.29C197.271 178.41 197.991 179.55 201.081 179.55H202.131C204.081 179.55 205.671 179.1 206.421 178.8V180.21ZM223.186 172.71C223.186 175.68 220.936 176.64 215.596 176.64H212.956C213.256 178.68 215.116 179.97 217.486 179.97C219.166 179.97 221.146 179.64 222.436 178.44H222.586V179.7C222.586 181.77 221.176 183.36 216.736 183.36C212.716 183.36 208.786 180.18 208.786 175.23C208.786 169.83 212.086 166.44 216.706 166.44C220.066 166.44 223.186 168.84 223.186 172.71ZM219.406 172.23C219.406 170.61 218.206 169.8 216.346 169.8C214.396 169.8 213.046 171.39 212.956 173.25L212.926 173.79H214.726C218.536 173.79 219.406 173.37 219.406 172.23ZM239.954 177.48C239.954 180.9 237.434 183.27 233.834 183.27H233.024C229.184 183.27 226.544 181.11 226.544 178.14C226.544 175.26 228.644 173.07 234.584 173.07H235.994V172.86C235.994 170.58 234.914 169.89 232.514 169.89C229.604 169.89 227.984 171 227.384 171.75H227.234V170.46C227.234 168.66 228.854 166.5 233.114 166.5C236.714 166.5 239.954 168.18 239.954 173.76V177.48ZM236.024 177.51V175.95H234.584C231.524 175.95 230.654 176.67 230.654 177.99C230.654 179.25 231.674 180 233.444 180C235.184 180 236.024 179.16 236.024 177.51ZM253.473 170.73H253.323C252.723 170.49 252.033 170.25 250.983 170.25C249.183 170.25 248.193 171.24 248.193 173.7V183H247.083C245.283 183 244.143 182.1 244.143 180.42V172.98C244.143 169.74 245.853 166.65 250.113 166.65C252.603 166.65 253.473 168.06 253.473 169.29V170.73ZM270.966 183H269.886C268.086 183 266.946 181.86 266.946 180.36V173.94C266.946 171.21 265.746 170.01 263.676 170.01C261.936 170.01 260.736 171.33 260.736 173.64V183H259.536C257.826 183 256.716 181.86 256.716 180.36V173.37C256.716 169.95 258.966 166.44 264.006 166.44C267.816 166.44 270.966 168.99 270.966 173.58V183ZM280.74 163.29C280.74 164.58 279.66 165.66 278.37 165.66C277.08 165.66 276.03 164.58 276.03 163.29C276.03 162 277.08 160.95 278.37 160.95C279.66 160.95 280.74 162 280.74 163.29ZM283.62 180.72C283.62 182.46 282.93 183.15 281.22 183.15C278.1 183.15 276.39 181.38 276.39 178.11C276.39 177.18 276.39 167.16 276.39 167.16H277.53C279.33 167.16 280.41 168.12 280.41 170.16V177.72C280.41 179.34 281.1 179.85 282.87 179.85H283.62V180.72ZM301.12 183H300.04C298.24 183 297.1 181.86 297.1 180.36V173.94C297.1 171.21 295.9 170.01 293.83 170.01C292.09 170.01 290.89 171.33 290.89 173.64V183H289.69C287.98 183 286.87 181.86 286.87 180.36V173.37C286.87 169.95 289.12 166.44 294.16 166.44C297.97 166.44 301.12 168.99 301.12 173.58V183ZM320.194 176.28C320.194 176.82 320.224 177.75 320.254 178.47C320.284 179.13 320.314 180 320.314 180.54C320.314 184.59 317.614 188.22 312.394 188.22C309.064 188.22 306.784 186.6 306.784 184.68V182.85H306.964C307.924 183.87 309.784 184.59 312.094 184.59C315.004 184.59 316.324 183.21 316.324 180.87C316.324 180.63 316.324 180.3 316.294 180.03C316.294 179.79 316.264 179.37 316.264 179.22V178.83C315.934 180 314.404 181.23 312.094 181.23C308.164 181.23 305.374 178.5 305.374 174.69C305.374 170.13 308.374 166.44 313.594 166.44C317.614 166.44 320.194 169.38 320.194 173.52V176.28ZM313.144 170.01C311.074 170.01 309.514 171.75 309.514 174.18C309.514 176.28 310.804 177.84 312.724 177.84C314.734 177.84 316.174 176.34 316.174 173.76C316.174 171.24 314.914 170.01 313.144 170.01Z" fill="black"/>
<path opacity="0.8" d="M64.384 229.608V239.784H70.112V241H63.04V229.608H64.384ZM73.7095 231.496H72.3495V229.928H73.7095V231.496ZM73.6775 241H72.3975V232.744H73.6775V241ZM80.3606 230.696H79.6246C78.8886 230.696 78.5206 231.085 78.5206 231.864V232.744H80.2806V233.864H78.5206V241H77.2406V233.864H75.8806V232.744H77.2406V231.896C77.2406 230.349 78.0086 229.576 79.5446 229.576C79.7473 229.576 80.0193 229.587 80.3606 229.608V230.696ZM89.285 236.872V237.32H83.013C83.077 238.216 83.3277 238.893 83.765 239.352C84.2023 239.8 84.7997 240.024 85.557 240.024C86.6983 240.024 87.429 239.512 87.749 238.488H89.077C88.853 239.32 88.437 239.981 87.829 240.472C87.221 240.952 86.453 241.192 85.525 241.192C84.3837 241.192 83.461 240.803 82.757 240.024C82.0423 239.245 81.685 238.195 81.685 236.872C81.685 235.571 82.037 234.525 82.741 233.736C83.4343 232.947 84.3517 232.552 85.493 232.552C86.677 232.552 87.605 232.963 88.277 233.784C88.949 234.605 89.285 235.635 89.285 236.872ZM85.493 233.72C84.821 233.72 84.2717 233.933 83.845 234.36C83.4183 234.776 83.1517 235.379 83.045 236.168H87.909C87.845 235.443 87.5997 234.856 87.173 234.408C86.7463 233.949 86.1863 233.72 85.493 233.72ZM97.1626 231.496H95.8026V229.928H97.1626V231.496ZM97.1306 241H95.8506V232.744H97.1306V241ZM102.966 241.192C100.758 241.192 99.5898 240.253 99.4618 238.376H100.758C100.832 238.995 101.035 239.437 101.366 239.704C101.707 239.96 102.24 240.088 102.966 240.088C104.288 240.088 104.95 239.661 104.95 238.808C104.95 238.435 104.811 238.152 104.534 237.96C104.267 237.768 103.776 237.603 103.062 237.464L102.294 237.32C100.576 237 99.7178 236.189 99.7178 234.888C99.7178 234.173 99.9844 233.608 100.518 233.192C101.062 232.765 101.798 232.552 102.726 232.552C104.912 232.552 106.032 233.464 106.086 235.288H104.806C104.774 234.691 104.592 234.269 104.262 234.024C103.931 233.779 103.419 233.656 102.726 233.656C102.171 233.656 101.744 233.763 101.446 233.976C101.147 234.189 100.998 234.488 100.998 234.872C100.998 235.235 101.126 235.507 101.382 235.688C101.638 235.869 102.064 236.024 102.662 236.152L103.398 236.296C104.411 236.499 105.136 236.787 105.574 237.16C106.022 237.533 106.246 238.056 106.246 238.728C106.246 239.507 105.952 240.115 105.366 240.552C104.79 240.979 103.99 241.192 102.966 241.192ZM116.617 232.552C117.78 232.552 118.713 232.941 119.417 233.72C120.111 234.509 120.457 235.56 120.457 236.872C120.457 238.173 120.111 239.219 119.417 240.008C118.713 240.797 117.78 241.192 116.617 241.192C115.391 241.192 114.447 240.701 113.785 239.72V241H112.569V229.608H113.849V233.928C114.511 233.011 115.433 232.552 116.617 232.552ZM116.457 240.04C117.257 240.04 117.897 239.752 118.377 239.176C118.868 238.589 119.113 237.8 119.113 236.808C119.113 235.837 118.873 235.08 118.393 234.536C117.924 233.981 117.279 233.704 116.457 233.704C115.647 233.704 115.001 233.981 114.521 234.536C114.041 235.091 113.801 235.869 113.801 236.872C113.801 237.864 114.041 238.637 114.521 239.192C115.001 239.757 115.647 240.04 116.457 240.04ZM128.181 237.416V232.744H129.461V241H128.245V239.768C127.616 240.717 126.752 241.192 125.653 241.192C124.736 241.192 124.021 240.941 123.509 240.44C122.997 239.939 122.741 239.235 122.741 238.328V232.744H124.021V238.2C124.021 239.427 124.651 240.04 125.909 240.04C126.507 240.04 127.035 239.816 127.493 239.368C127.952 238.92 128.181 238.269 128.181 237.416ZM135.294 241.192C133.086 241.192 131.918 240.253 131.79 238.376H133.086C133.161 238.995 133.363 239.437 133.694 239.704C134.035 239.96 134.569 240.088 135.294 240.088C136.617 240.088 137.278 239.661 137.278 238.808C137.278 238.435 137.139 238.152 136.862 237.96C136.595 237.768 136.105 237.603 135.39 237.464L134.622 237.32C132.905 237 132.046 236.189 132.046 234.888C132.046 234.173 132.313 233.608 132.846 233.192C133.39 232.765 134.126 232.552 135.054 232.552C137.241 232.552 138.361 233.464 138.414 235.288H137.134C137.102 234.691 136.921 234.269 136.59 234.024C136.259 233.779 135.747 233.656 135.054 233.656C134.499 233.656 134.073 233.763 133.774 233.976C133.475 234.189 133.326 234.488 133.326 234.872C133.326 235.235 133.454 235.507 133.71 235.688C133.966 235.869 134.393 236.024 134.99 236.152L135.726 236.296C136.739 236.499 137.465 236.787 137.902 237.16C138.35 237.533 138.574 238.056 138.574 238.728C138.574 239.507 138.281 240.115 137.694 240.552C137.118 240.979 136.318 241.192 135.294 241.192ZM144.758 236.168L145.926 232.744H147.318L143.83 242.296C143.585 242.989 143.249 243.475 142.822 243.752C142.396 244.04 141.836 244.184 141.142 244.184C140.908 244.184 140.652 244.168 140.374 244.136V243.064H141.126C141.862 243.064 142.364 242.723 142.63 242.04L142.918 241.272L139.814 232.744H141.222L142.39 236.184C142.806 237.4 143.201 238.589 143.574 239.752C143.884 238.76 144.278 237.565 144.758 236.168ZM147.673 241V239.4H149.289V241.144C149.289 242.424 148.804 243.112 147.833 243.208L147.673 243.224V242.36L147.785 242.344C148.18 242.301 148.377 241.939 148.377 241.256V241H147.673ZM162.775 239.96H163.239V241C163.025 241.032 162.791 241.048 162.535 241.048C161.671 241.048 161.207 240.653 161.143 239.864C160.567 240.749 159.671 241.192 158.455 241.192C157.548 241.192 156.833 240.984 156.311 240.568C155.799 240.141 155.543 239.544 155.543 238.776C155.543 237.283 156.561 236.429 158.599 236.216L159.783 236.088C160.647 235.992 161.079 235.613 161.079 234.952C161.079 234.493 160.935 234.163 160.647 233.96C160.369 233.757 159.895 233.656 159.223 233.656C158.508 233.656 157.991 233.779 157.671 234.024C157.361 234.259 157.185 234.68 157.143 235.288H155.863C155.969 233.464 157.089 232.552 159.223 232.552C161.292 232.552 162.327 233.352 162.327 234.952V239.56C162.327 239.827 162.476 239.96 162.775 239.96ZM158.519 240.104C159.201 240.104 159.799 239.896 160.311 239.48C160.823 239.075 161.079 238.493 161.079 237.736V236.76C160.844 236.941 160.481 237.059 159.991 237.112L158.791 237.256C158.097 237.341 157.601 237.501 157.303 237.736C157.015 237.971 156.871 238.307 156.871 238.744C156.871 239.171 157.009 239.507 157.287 239.752C157.564 239.987 157.975 240.104 158.519 240.104ZM169.174 232.552C170.092 232.552 170.806 232.803 171.318 233.304C171.83 233.805 172.086 234.509 172.086 235.416V241H170.806V235.544C170.806 234.317 170.177 233.704 168.918 233.704C168.321 233.704 167.793 233.928 167.334 234.376C166.876 234.824 166.646 235.475 166.646 236.328V241H165.366V232.744H166.582V233.976C167.212 233.027 168.076 232.552 169.174 232.552ZM181.215 233.928V229.608H182.495V241H181.279V239.72C180.618 240.701 179.674 241.192 178.447 241.192C177.284 241.192 176.356 240.797 175.663 240.008C174.959 239.219 174.607 238.173 174.607 236.872C174.607 235.549 174.959 234.499 175.663 233.72C176.346 232.941 177.274 232.552 178.447 232.552C179.631 232.552 180.554 233.011 181.215 233.928ZM175.951 236.936C175.951 237.917 176.191 238.68 176.671 239.224C177.151 239.768 177.796 240.04 178.607 240.04C179.418 240.04 180.063 239.757 180.543 239.192C181.023 238.637 181.263 237.864 181.263 236.872C181.263 235.891 181.023 235.117 180.543 234.552C180.063 233.987 179.418 233.704 178.607 233.704C177.807 233.704 177.162 233.997 176.671 234.584C176.191 235.16 175.951 235.944 175.951 236.936ZM198.324 236.472L199.492 232.744H200.868L198.116 241H196.772L195.556 237.176C195.14 235.821 194.863 234.888 194.724 234.376C194.479 235.251 194.196 236.184 193.876 237.176L192.676 241H191.332L188.58 232.744H189.956L191.124 236.472C191.412 237.379 191.711 238.381 192.02 239.48C192.361 238.264 192.655 237.261 192.9 236.472L194.052 232.744H195.396L196.548 236.472C197.135 238.424 197.433 239.416 197.444 239.448C197.529 239.117 197.823 238.125 198.324 236.472ZM209.629 236.872V237.32H203.357C203.421 238.216 203.671 238.893 204.109 239.352C204.546 239.8 205.143 240.024 205.901 240.024C207.042 240.024 207.773 239.512 208.093 238.488H209.421C209.197 239.32 208.781 239.981 208.173 240.472C207.565 240.952 206.797 241.192 205.869 241.192C204.727 241.192 203.805 240.803 203.101 240.024C202.386 239.245 202.029 238.195 202.029 236.872C202.029 235.571 202.381 234.525 203.085 233.736C203.778 232.947 204.695 232.552 205.837 232.552C207.021 232.552 207.949 232.963 208.621 233.784C209.293 234.605 209.629 235.635 209.629 236.872ZM205.837 233.72C205.165 233.72 204.615 233.933 204.189 234.36C203.762 234.776 203.495 235.379 203.389 236.168H208.253C208.189 235.443 207.943 234.856 207.517 234.408C207.09 233.949 206.53 233.72 205.837 233.72ZM221.634 237.416V232.744H222.914V241H221.698V239.768C221.069 240.717 220.205 241.192 219.106 241.192C218.189 241.192 217.474 240.941 216.962 240.44C216.45 239.939 216.194 239.235 216.194 238.328V232.744H217.474V238.2C217.474 239.427 218.104 240.04 219.362 240.04C219.96 240.04 220.488 239.816 220.946 239.368C221.405 238.92 221.634 238.269 221.634 237.416ZM229.643 232.552C230.56 232.552 231.275 232.803 231.787 233.304C232.299 233.805 232.555 234.509 232.555 235.416V241H231.275V235.544C231.275 234.317 230.646 233.704 229.387 233.704C228.79 233.704 228.262 233.928 227.803 234.376C227.344 234.824 227.115 235.475 227.115 236.328V241H225.835V232.744H227.051V233.976C227.68 233.027 228.544 232.552 229.643 232.552ZM241.684 233.928V229.608H242.964V241H241.748V239.72C241.086 240.701 240.142 241.192 238.916 241.192C237.753 241.192 236.825 240.797 236.132 240.008C235.428 239.219 235.076 238.173 235.076 236.872C235.076 235.549 235.428 234.499 236.132 233.72C236.814 232.941 237.742 232.552 238.916 232.552C240.1 232.552 241.022 233.011 241.684 233.928ZM236.42 236.936C236.42 237.917 236.66 238.68 237.14 239.224C237.62 239.768 238.265 240.04 239.076 240.04C239.886 240.04 240.532 239.757 241.012 239.192C241.492 238.637 241.732 237.864 241.732 236.872C241.732 235.891 241.492 235.117 241.012 234.552C240.532 233.987 239.886 233.704 239.076 233.704C238.276 233.704 237.63 233.997 237.14 234.584C236.66 235.16 236.42 235.944 236.42 236.936ZM253.082 236.872V237.32H246.81C246.874 238.216 247.125 238.893 247.562 239.352C247.999 239.8 248.597 240.024 249.354 240.024C250.495 240.024 251.226 239.512 251.546 238.488H252.874C252.65 239.32 252.234 239.981 251.626 240.472C251.018 240.952 250.25 241.192 249.322 241.192C248.181 241.192 247.258 240.803 246.554 240.024C245.839 239.245 245.482 238.195 245.482 236.872C245.482 235.571 245.834 234.525 246.538 233.736C247.231 232.947 248.149 232.552 249.29 232.552C250.474 232.552 251.402 232.963 252.074 233.784C252.746 234.605 253.082 235.635 253.082 236.872ZM249.29 233.72C248.618 233.72 248.069 233.933 247.642 234.36C247.215 234.776 246.949 235.379 246.842 236.168H251.706C251.642 235.443 251.397 234.856 250.97 234.408C250.543 233.949 249.983 233.72 249.29 233.72ZM259.473 232.616C259.686 232.616 259.83 232.621 259.905 232.632V233.864H259.585C258.731 233.864 258.065 234.077 257.585 234.504C257.115 234.92 256.881 235.517 256.881 236.296V241H255.601V232.744H256.817V234.2C257.371 233.144 258.257 232.616 259.473 232.616ZM264.685 241.192C262.477 241.192 261.309 240.253 261.181 238.376H262.477C262.551 238.995 262.754 239.437 263.085 239.704C263.426 239.96 263.959 240.088 264.685 240.088C266.007 240.088 266.669 239.661 266.669 238.808C266.669 238.435 266.53 238.152 266.253 237.96C265.986 237.768 265.495 237.603 264.781 237.464L264.013 237.32C262.295 237 261.437 236.189 261.437 234.888C261.437 234.173 261.703 233.608 262.237 233.192C262.781 232.765 263.517 232.552 264.445 232.552C266.631 232.552 267.751 233.464 267.805 235.288H266.525C266.493 234.691 266.311 234.269 265.981 234.024C265.65 233.779 265.138 233.656 264.445 233.656C263.89 233.656 263.463 233.763 263.164 233.976C262.866 234.189 262.717 234.488 262.717 234.872C262.717 235.235 262.845 235.507 263.101 235.688C263.357 235.869 263.783 236.024 264.381 236.152L265.117 236.296C266.13 236.499 266.855 236.787 267.293 237.16C267.741 237.533 267.965 238.056 267.965 238.728C267.965 239.507 267.671 240.115 267.085 240.552C266.509 240.979 265.709 241.192 264.685 241.192ZM273.701 232.744V233.864H272.005V239.224C272.005 239.693 272.32 239.928 272.949 239.928H273.701V241C273.349 241.032 273.045 241.048 272.789 241.048C271.413 241.048 270.725 240.477 270.725 239.336V233.864H269.365V232.744H270.725V230.408H272.005V232.744H273.701ZM282.728 239.96H283.192V241C282.978 241.032 282.744 241.048 282.488 241.048C281.624 241.048 281.16 240.653 281.096 239.864C280.52 240.749 279.624 241.192 278.408 241.192C277.501 241.192 276.786 240.984 276.264 240.568C275.752 240.141 275.496 239.544 275.496 238.776C275.496 237.283 276.514 236.429 278.552 236.216L279.736 236.088C280.6 235.992 281.032 235.613 281.032 234.952C281.032 234.493 280.888 234.163 280.6 233.96C280.322 233.757 279.848 233.656 279.176 233.656C278.461 233.656 277.944 233.779 277.624 234.024C277.314 234.259 277.138 234.68 277.096 235.288H275.816C275.922 233.464 277.042 232.552 279.176 232.552C281.245 232.552 282.28 233.352 282.28 234.952V239.56C282.28 239.827 282.429 239.96 282.728 239.96ZM278.472 240.104C279.154 240.104 279.752 239.896 280.264 239.48C280.776 239.075 281.032 238.493 281.032 237.736V236.76C280.797 236.941 280.434 237.059 279.944 237.112L278.744 237.256C278.05 237.341 277.554 237.501 277.256 237.736C276.968 237.971 276.824 238.307 276.824 238.744C276.824 239.171 276.962 239.507 277.24 239.752C277.517 239.987 277.928 240.104 278.472 240.104ZM289.127 232.552C290.045 232.552 290.759 232.803 291.271 233.304C291.783 233.805 292.039 234.509 292.039 235.416V241H290.759V235.544C290.759 234.317 290.13 233.704 288.871 233.704C288.274 233.704 287.746 233.928 287.287 234.376C286.829 234.824 286.599 235.475 286.599 236.328V241H285.319V232.744H286.535V233.976C287.165 233.027 288.029 232.552 289.127 232.552ZM301.168 233.928V229.608H302.448V241H301.232V239.72C300.571 240.701 299.627 241.192 298.4 241.192C297.237 241.192 296.309 240.797 295.616 240.008C294.912 239.219 294.56 238.173 294.56 236.872C294.56 235.549 294.912 234.499 295.616 233.72C296.299 232.941 297.227 232.552 298.4 232.552C299.584 232.552 300.507 233.011 301.168 233.928ZM295.904 236.936C295.904 237.917 296.144 238.68 296.624 239.224C297.104 239.768 297.749 240.04 298.56 240.04C299.371 240.04 300.016 239.757 300.496 239.192C300.976 238.637 301.216 237.864 301.216 236.872C301.216 235.891 300.976 235.117 300.496 234.552C300.016 233.987 299.371 233.704 298.56 233.704C297.76 233.704 297.115 233.997 296.624 234.584C296.144 235.16 295.904 235.944 295.904 236.936ZM313.029 232.744V233.864H311.333V239.224C311.333 239.693 311.648 239.928 312.277 239.928H313.029V241C312.677 241.032 312.373 241.048 312.117 241.048C310.741 241.048 310.053 240.477 310.053 239.336V233.864H308.693V232.744H310.053V230.408H311.333V232.744H313.029ZM319.19 232.552C320.107 232.552 320.822 232.803 321.334 233.304C321.846 233.805 322.102 234.509 322.102 235.416V241H320.822V235.544C320.822 234.317 320.193 233.704 318.934 233.704C318.337 233.704 317.809 233.928 317.35 234.376C316.891 234.824 316.662 235.475 316.662 236.328V241H315.382V229.608H316.662V233.88C317.291 232.995 318.134 232.552 319.19 232.552ZM331.775 239.96H332.239V241C332.025 241.032 331.791 241.048 331.535 241.048C330.671 241.048 330.207 240.653 330.143 239.864C329.567 240.749 328.671 241.192 327.455 241.192C326.548 241.192 325.833 240.984 325.311 240.568C324.799 240.141 324.543 239.544 324.543 238.776C324.543 237.283 325.561 236.429 327.599 236.216L328.783 236.088C329.647 235.992 330.079 235.613 330.079 234.952C330.079 234.493 329.935 234.163 329.647 233.96C329.369 233.757 328.895 233.656 328.223 233.656C327.508 233.656 326.991 233.779 326.671 234.024C326.361 234.259 326.185 234.68 326.143 235.288H324.863C324.969 233.464 326.089 232.552 328.223 232.552C330.292 232.552 331.327 233.352 331.327 234.952V239.56C331.327 239.827 331.476 239.96 331.775 239.96ZM327.519 240.104C328.201 240.104 328.799 239.896 329.311 239.48C329.823 239.075 330.079 238.493 330.079 237.736V236.76C329.844 236.941 329.481 237.059 328.991 237.112L327.791 237.256C327.097 237.341 326.601 237.501 326.303 237.736C326.015 237.971 325.871 238.307 325.871 238.744C325.871 239.171 326.009 239.507 326.287 239.752C326.564 239.987 326.975 240.104 327.519 240.104ZM337.67 232.744V233.864H335.974V239.224C335.974 239.693 336.288 239.928 336.918 239.928H337.67V241C337.318 241.032 337.014 241.048 336.758 241.048C335.382 241.048 334.694 240.477 334.694 239.336V233.864H333.334V232.744H334.694V230.408H335.974V232.744H337.67ZM341.399 241H339.783V239.4H341.399V241ZM357.156 239.608C356.153 240.707 354.831 241.256 353.188 241.256C351.545 241.256 350.228 240.707 349.236 239.608C348.233 238.531 347.732 237.096 347.732 235.304C347.732 233.523 348.233 232.083 349.236 230.984C350.228 229.896 351.545 229.352 353.188 229.352C354.831 229.352 356.153 229.896 357.156 230.984C358.148 232.093 358.644 233.533 358.644 235.304C358.644 237.085 358.148 238.52 357.156 239.608ZM350.244 238.744C350.98 239.597 351.961 240.024 353.188 240.024C354.415 240.024 355.396 239.597 356.132 238.744C356.868 237.901 357.236 236.755 357.236 235.304C357.236 233.853 356.868 232.707 356.132 231.864C355.396 231.011 354.415 230.584 353.188 230.584C351.961 230.584 350.98 231.011 350.244 231.864C349.508 232.707 349.14 233.853 349.14 235.304C349.14 236.755 349.508 237.901 350.244 238.744ZM366.525 237.416V232.744H367.805V241H366.589V239.768C365.96 240.717 365.096 241.192 363.997 241.192C363.08 241.192 362.365 240.941 361.853 240.44C361.341 239.939 361.085 239.235 361.085 238.328V232.744H362.365V238.2C362.365 239.427 362.994 240.04 364.253 240.04C364.85 240.04 365.378 239.816 365.837 239.368C366.296 238.92 366.525 238.269 366.525 237.416ZM374.598 232.616C374.811 232.616 374.955 232.621 375.03 232.632V233.864H374.71C373.856 233.864 373.19 234.077 372.71 234.504C372.24 234.92 372.006 235.517 372.006 236.296V241H370.726V232.744H371.942V234.2C372.496 233.144 373.382 232.616 374.598 232.616ZM385.477 232.552C386.639 232.552 387.573 232.941 388.277 233.72C388.97 234.509 389.317 235.56 389.317 236.872C389.317 238.173 388.97 239.219 388.277 240.008C387.573 240.797 386.639 241.192 385.477 241.192C384.293 241.192 383.37 240.733 382.709 239.816V244.136H381.429V232.744H382.645V234.024C383.306 233.043 384.25 232.552 385.477 232.552ZM385.317 240.04C386.117 240.04 386.757 239.752 387.237 239.176C387.727 238.589 387.973 237.8 387.973 236.808C387.973 235.837 387.733 235.08 387.253 234.536C386.783 233.981 386.138 233.704 385.317 233.704C384.506 233.704 383.861 233.981 383.381 234.536C382.901 235.091 382.661 235.869 382.661 236.872C382.661 237.864 382.901 238.637 383.381 239.192C383.861 239.757 384.506 240.04 385.317 240.04ZM393.115 241H391.835V229.608H393.115V241ZM402.79 239.96H403.254V241C403.041 241.032 402.806 241.048 402.55 241.048C401.686 241.048 401.222 240.653 401.158 239.864C400.582 240.749 399.686 241.192 398.47 241.192C397.563 241.192 396.849 240.984 396.326 240.568C395.814 240.141 395.558 239.544 395.558 238.776C395.558 237.283 396.577 236.429 398.614 236.216L399.798 236.088C400.662 235.992 401.094 235.613 401.094 234.952C401.094 234.493 400.95 234.163 400.662 233.96C400.385 233.757 399.91 233.656 399.238 233.656C398.523 233.656 398.006 233.779 397.686 234.024C397.377 234.259 397.201 234.68 397.158 235.288H395.878C395.985 233.464 397.105 232.552 399.238 232.552C401.307 232.552 402.342 233.352 402.342 234.952V239.56C402.342 239.827 402.491 239.96 402.79 239.96ZM398.534 240.104C399.217 240.104 399.814 239.896 400.326 239.48C400.838 239.075 401.094 238.493 401.094 237.736V236.76C400.859 236.941 400.497 237.059 400.006 237.112L398.806 237.256C398.113 237.341 397.617 237.501 397.318 237.736C397.03 237.971 396.886 238.307 396.886 238.744C396.886 239.171 397.025 239.507 397.302 239.752C397.579 239.987 397.99 240.104 398.534 240.104ZM408.685 232.744V233.864H406.989V239.224C406.989 239.693 407.304 239.928 407.933 239.928H408.685V241C408.333 241.032 408.029 241.048 407.773 241.048C406.397 241.048 405.709 240.477 405.709 239.336V233.864H404.349V232.744H405.709V230.408H406.989V232.744H408.685ZM414.798 230.696H414.062C413.326 230.696 412.958 231.085 412.958 231.864V232.744H414.718V233.864H412.958V241H411.678V233.864H410.318V232.744H411.678V231.896C411.678 230.349 412.446 229.576 413.982 229.576C414.185 229.576 414.457 229.587 414.798 229.608V230.696ZM423.003 240.008C422.245 240.797 421.285 241.192 420.123 241.192C418.96 241.192 418 240.797 417.243 240.008C416.496 239.229 416.123 238.184 416.123 236.872C416.123 235.56 416.496 234.515 417.243 233.736C418 232.947 418.96 232.552 420.123 232.552C421.285 232.552 422.245 232.947 423.003 233.736C423.749 234.515 424.123 235.56 424.123 236.872C424.123 238.184 423.749 239.229 423.003 240.008ZM418.187 239.192C418.667 239.757 419.312 240.04 420.123 240.04C420.933 240.04 421.579 239.757 422.059 239.192C422.539 238.637 422.779 237.864 422.779 236.872C422.779 235.869 422.539 235.091 422.059 234.536C421.579 233.981 420.933 233.704 420.123 233.704C419.312 233.704 418.667 233.981 418.187 234.536C417.707 235.091 417.467 235.869 417.467 236.872C417.467 237.864 417.707 238.637 418.187 239.192ZM430.52 232.616C430.733 232.616 430.877 232.621 430.952 232.632V233.864H430.632C429.778 233.864 429.112 234.077 428.632 234.504C428.162 234.92 427.928 235.517 427.928 236.296V241H426.648V232.744H427.864V234.2C428.418 233.144 429.304 232.616 430.52 232.616ZM441.836 232.552C442.732 232.552 443.425 232.813 443.916 233.336C444.417 233.848 444.668 234.536 444.668 235.4V241H443.388V235.528C443.388 234.312 442.812 233.704 441.66 233.704C441.052 233.704 440.545 233.949 440.14 234.44C439.745 234.92 439.548 235.603 439.548 236.488V241H438.268V235.528C438.268 234.312 437.692 233.704 436.54 233.704C435.942 233.704 435.441 233.949 435.036 234.44C434.63 234.92 434.428 235.603 434.428 236.488V241H433.148V232.744H434.364V233.96C434.908 233.021 435.702 232.552 436.748 232.552C437.985 232.552 438.833 233.069 439.292 234.104C439.868 233.069 440.716 232.552 441.836 232.552ZM458.384 239.96H458.848V241C458.635 241.032 458.4 241.048 458.144 241.048C457.28 241.048 456.816 240.653 456.752 239.864C456.176 240.749 455.28 241.192 454.064 241.192C453.157 241.192 452.443 240.984 451.92 240.568C451.408 240.141 451.152 239.544 451.152 238.776C451.152 237.283 452.171 236.429 454.208 236.216L455.392 236.088C456.256 235.992 456.688 235.613 456.688 234.952C456.688 234.493 456.544 234.163 456.256 233.96C455.979 233.757 455.504 233.656 454.832 233.656C454.117 233.656 453.6 233.779 453.28 234.024C452.971 234.259 452.795 234.68 452.752 235.288H451.472C451.579 233.464 452.699 232.552 454.832 232.552C456.901 232.552 457.936 233.352 457.936 234.952V239.56C457.936 239.827 458.085 239.96 458.384 239.96ZM454.128 240.104C454.811 240.104 455.408 239.896 455.92 239.48C456.432 239.075 456.688 238.493 456.688 237.736V236.76C456.453 236.941 456.091 237.059 455.6 237.112L454.4 237.256C453.707 237.341 453.211 237.501 452.912 237.736C452.624 237.971 452.48 238.307 452.48 238.744C452.48 239.171 452.619 239.507 452.896 239.752C453.173 239.987 453.584 240.104 454.128 240.104ZM462.178 241H460.898V229.608H462.178V241ZM466.381 241H465.101V229.608H466.381V241ZM475.784 240.008C475.026 240.797 474.066 241.192 472.904 241.192C471.741 241.192 470.781 240.797 470.024 240.008C469.277 239.229 468.904 238.184 468.904 236.872C468.904 235.56 469.277 234.515 470.024 233.736C470.781 232.947 471.741 232.552 472.904 232.552C474.066 232.552 475.026 232.947 475.784 233.736C476.53 234.515 476.904 235.56 476.904 236.872C476.904 238.184 476.53 239.229 475.784 240.008ZM470.968 239.192C471.448 239.757 472.093 240.04 472.904 240.04C473.714 240.04 474.36 239.757 474.84 239.192C475.32 238.637 475.56 237.864 475.56 236.872C475.56 235.869 475.32 235.091 474.84 234.536C474.36 233.981 473.714 233.704 472.904 233.704C472.093 233.704 471.448 233.981 470.968 234.536C470.488 235.091 470.248 235.869 470.248 236.872C470.248 237.864 470.488 238.637 470.968 239.192ZM487.808 236.472L488.976 232.744H490.352L487.6 241H486.256L485.04 237.176C484.624 235.821 484.347 234.888 484.208 234.376C483.963 235.251 483.68 236.184 483.36 237.176L482.16 241H480.816L478.064 232.744H479.44L480.608 236.472C480.896 237.379 481.195 238.381 481.504 239.48C481.846 238.264 482.139 237.261 482.384 236.472L483.536 232.744H484.88L486.032 236.472C486.619 238.424 486.918 239.416 486.928 239.448C487.014 239.117 487.307 238.125 487.808 236.472ZM495.153 241.192C492.945 241.192 491.777 240.253 491.649 238.376H492.945C493.02 238.995 493.223 239.437 493.553 239.704C493.895 239.96 494.428 240.088 495.153 240.088C496.476 240.088 497.137 239.661 497.137 238.808C497.137 238.435 496.999 238.152 496.721 237.96C496.455 237.768 495.964 237.603 495.249 237.464L494.481 237.32C492.764 237 491.905 236.189 491.905 234.888C491.905 234.173 492.172 233.608 492.705 233.192C493.249 232.765 493.985 232.552 494.913 232.552C497.1 232.552 498.22 233.464 498.273 235.288H496.993C496.961 234.691 496.78 234.269 496.449 234.024C496.119 233.779 495.607 233.656 494.913 233.656C494.359 233.656 493.932 233.763 493.633 233.976C493.335 234.189 493.185 234.488 493.185 234.872C493.185 235.235 493.313 235.507 493.569 235.688C493.825 235.869 494.252 236.024 494.849 236.152L495.585 236.296C496.599 236.499 497.324 236.787 497.761 237.16C498.209 237.533 498.433 238.056 498.433 238.728C498.433 239.507 498.14 240.115 497.553 240.552C496.977 240.979 496.177 241.192 495.153 241.192ZM508.821 236.168L509.989 232.744H511.381L507.893 242.296C507.648 242.989 507.312 243.475 506.885 243.752C506.458 244.04 505.898 244.184 505.205 244.184C504.97 244.184 504.714 244.168 504.437 244.136V243.064H505.189C505.925 243.064 506.426 242.723 506.693 242.04L506.981 241.272L503.877 232.744H505.285L506.453 236.184C506.869 237.4 507.264 238.589 507.637 239.752C507.946 238.76 508.341 237.565 508.821 236.168ZM519.409 240.008C518.651 240.797 517.691 241.192 516.529 241.192C515.366 241.192 514.406 240.797 513.649 240.008C512.902 239.229 512.529 238.184 512.529 236.872C512.529 235.56 512.902 234.515 513.649 233.736C514.406 232.947 515.366 232.552 516.529 232.552C517.691 232.552 518.651 232.947 519.409 233.736C520.155 234.515 520.529 235.56 520.529 236.872C520.529 238.184 520.155 239.229 519.409 240.008ZM514.593 239.192C515.073 239.757 515.718 240.04 516.529 240.04C517.339 240.04 517.985 239.757 518.465 239.192C518.945 238.637 519.185 237.864 519.185 236.872C519.185 235.869 518.945 235.091 518.465 234.536C517.985 233.981 517.339 233.704 516.529 233.704C515.718 233.704 515.073 233.981 514.593 234.536C514.113 235.091 513.873 235.869 513.873 236.872C513.873 237.864 514.113 238.637 514.593 239.192ZM528.259 237.416V232.744H529.539V241H528.323V239.768C527.694 240.717 526.83 241.192 525.731 241.192C524.814 241.192 524.099 240.941 523.587 240.44C523.075 239.939 522.819 239.235 522.819 238.328V232.744H524.099V238.2C524.099 239.427 524.729 240.04 525.987 240.04C526.585 240.04 527.113 239.816 527.571 239.368C528.03 238.92 528.259 238.269 528.259 237.416ZM540.123 232.744V233.864H538.427V239.224C538.427 239.693 538.742 239.928 539.371 239.928H540.123V241C539.771 241.032 539.467 241.048 539.211 241.048C537.835 241.048 537.147 240.477 537.147 239.336V233.864H535.787V232.744H537.147V230.408H538.427V232.744H540.123ZM548.799 240.008C548.042 240.797 547.082 241.192 545.919 241.192C544.757 241.192 543.797 240.797 543.039 240.008C542.293 239.229 541.919 238.184 541.919 236.872C541.919 235.56 542.293 234.515 543.039 233.736C543.797 232.947 544.757 232.552 545.919 232.552C547.082 232.552 548.042 232.947 548.799 233.736C549.546 234.515 549.919 235.56 549.919 236.872C549.919 238.184 549.546 239.229 548.799 240.008ZM543.983 239.192C544.463 239.757 545.109 240.04 545.919 240.04C546.73 240.04 547.375 239.757 547.855 239.192C548.335 238.637 548.575 237.864 548.575 236.872C548.575 235.869 548.335 235.091 547.855 234.536C547.375 233.981 546.73 233.704 545.919 233.704C545.109 233.704 544.463 233.981 543.983 234.536C543.503 235.091 543.263 235.869 543.263 236.872C543.263 237.864 543.503 238.637 543.983 239.192ZM64.24 269H62.96V257.608H64.24V269ZM74.3631 264.872V265.32H68.0911C68.1551 266.216 68.4058 266.893 68.8431 267.352C69.2805 267.8 69.8778 268.024 70.6351 268.024C71.7765 268.024 72.5071 267.512 72.8271 266.488H74.1551C73.9311 267.32 73.5151 267.981 72.9071 268.472C72.2991 268.952 71.5311 269.192 70.6031 269.192C69.4618 269.192 68.5391 268.803 67.8351 268.024C67.1205 267.245 66.7631 266.195 66.7631 264.872C66.7631 263.571 67.1151 262.525 67.8191 261.736C68.5125 260.947 69.4298 260.552 70.5711 260.552C71.7551 260.552 72.6831 260.963 73.3551 261.784C74.0271 262.605 74.3631 263.635 74.3631 264.872ZM70.5711 261.72C69.8991 261.72 69.3498 261.933 68.9231 262.36C68.4965 262.776 68.2298 263.379 68.1231 264.168H72.9871C72.9231 263.443 72.6778 262.856 72.2511 262.408C71.8245 261.949 71.2645 261.72 70.5711 261.72ZM83.5558 267.96H84.0198V269C83.8064 269.032 83.5718 269.048 83.3158 269.048C82.4518 269.048 81.9878 268.653 81.9238 267.864C81.3478 268.749 80.4518 269.192 79.2358 269.192C78.3291 269.192 77.6144 268.984 77.0918 268.568C76.5798 268.141 76.3238 267.544 76.3238 266.776C76.3238 265.283 77.3424 264.429 79.3798 264.216L80.5638 264.088C81.4278 263.992 81.8598 263.613 81.8598 262.952C81.8598 262.493 81.7158 262.163 81.4278 261.96C81.1504 261.757 80.6758 261.656 80.0038 261.656C79.2891 261.656 78.7718 261.779 78.4518 262.024C78.1424 262.259 77.9664 262.68 77.9238 263.288H76.6438C76.7504 261.464 77.8704 260.552 80.0038 260.552C82.0731 260.552 83.1078 261.352 83.1078 262.952V267.56C83.1078 267.827 83.2571 267.96 83.5558 267.96ZM79.2998 268.104C79.9824 268.104 80.5798 267.896 81.0918 267.48C81.6038 267.075 81.8598 266.493 81.8598 265.736V264.76C81.6251 264.941 81.2624 265.059 80.7718 265.112L79.5718 265.256C78.8784 265.341 78.3824 265.501 78.0838 265.736C77.7958 265.971 77.6518 266.307 77.6518 266.744C77.6518 267.171 77.7904 267.507 78.0678 267.752C78.3451 267.987 78.7558 268.104 79.2998 268.104ZM90.0195 260.616C90.2328 260.616 90.3768 260.621 90.4515 260.632V261.864H90.1315C89.2782 261.864 88.6115 262.077 88.1315 262.504C87.6622 262.92 87.4275 263.517 87.4275 264.296V269H86.1475V260.744H87.3635V262.2C87.9182 261.144 88.8035 260.616 90.0195 260.616ZM96.4555 260.552C97.3728 260.552 98.0875 260.803 98.5995 261.304C99.1115 261.805 99.3675 262.509 99.3675 263.416V269H98.0875V263.544C98.0875 262.317 97.4582 261.704 96.1995 261.704C95.6022 261.704 95.0742 261.928 94.6155 262.376C94.1568 262.824 93.9275 263.475 93.9275 264.328V269H92.6475V260.744H93.8635V261.976C94.4928 261.027 95.3568 260.552 96.4555 260.552ZM113.087 267.96H113.551V269C113.338 269.032 113.103 269.048 112.847 269.048C111.983 269.048 111.519 268.653 111.455 267.864C110.879 268.749 109.983 269.192 108.767 269.192C107.86 269.192 107.146 268.984 106.623 268.568C106.111 268.141 105.855 267.544 105.855 266.776C105.855 265.283 106.874 264.429 108.911 264.216L110.095 264.088C110.959 263.992 111.391 263.613 111.391 262.952C111.391 262.493 111.247 262.163 110.959 261.96C110.682 261.757 110.207 261.656 109.535 261.656C108.82 261.656 108.303 261.779 107.983 262.024C107.674 262.259 107.498 262.68 107.455 263.288H106.175C106.282 261.464 107.402 260.552 109.535 260.552C111.604 260.552 112.639 261.352 112.639 262.952V267.56C112.639 267.827 112.788 267.96 113.087 267.96ZM108.831 268.104C109.514 268.104 110.111 267.896 110.623 267.48C111.135 267.075 111.391 266.493 111.391 265.736V264.76C111.156 264.941 110.794 265.059 110.303 265.112L109.103 265.256C108.41 265.341 107.914 265.501 107.615 265.736C107.327 265.971 107.183 266.307 107.183 266.744C107.183 267.171 107.322 267.507 107.599 267.752C107.876 267.987 108.287 268.104 108.831 268.104ZM118.982 260.744V261.864H117.286V267.224C117.286 267.693 117.601 267.928 118.23 267.928H118.982V269C118.63 269.032 118.326 269.048 118.07 269.048C116.694 269.048 116.006 268.477 116.006 267.336V261.864H114.646V260.744H116.006V258.408H117.286V260.744H118.982ZM129.446 264.168L130.614 260.744H132.006L128.518 270.296C128.273 270.989 127.937 271.475 127.51 271.752C127.083 272.04 126.523 272.184 125.83 272.184C125.595 272.184 125.339 272.168 125.062 272.136V271.064H125.814C126.55 271.064 127.051 270.723 127.318 270.04L127.606 269.272L124.502 260.744H125.91L127.078 264.184C127.494 265.4 127.889 266.589 128.262 267.752C128.571 266.76 128.966 265.565 129.446 264.168ZM140.034 268.008C139.276 268.797 138.316 269.192 137.154 269.192C135.991 269.192 135.031 268.797 134.274 268.008C133.527 267.229 133.154 266.184 133.154 264.872C133.154 263.56 133.527 262.515 134.274 261.736C135.031 260.947 135.991 260.552 137.154 260.552C138.316 260.552 139.276 260.947 140.034 261.736C140.78 262.515 141.154 263.56 141.154 264.872C141.154 266.184 140.78 267.229 140.034 268.008ZM135.218 267.192C135.698 267.757 136.343 268.04 137.154 268.04C137.964 268.04 138.61 267.757 139.09 267.192C139.57 266.637 139.81 265.864 139.81 264.872C139.81 263.869 139.57 263.091 139.09 262.536C138.61 261.981 137.964 261.704 137.154 261.704C136.343 261.704 135.698 261.981 135.218 262.536C134.738 263.091 134.498 263.869 134.498 264.872C134.498 265.864 134.738 266.637 135.218 267.192ZM148.884 265.416V260.744H150.164V269H148.948V267.768C148.319 268.717 147.455 269.192 146.356 269.192C145.439 269.192 144.724 268.941 144.212 268.44C143.7 267.939 143.444 267.235 143.444 266.328V260.744H144.724V266.2C144.724 267.427 145.354 268.04 146.612 268.04C147.21 268.04 147.738 267.816 148.196 267.368C148.655 266.92 148.884 266.269 148.884 265.416ZM156.957 260.616C157.17 260.616 157.314 260.621 157.389 260.632V261.864H157.069C156.216 261.864 155.549 262.077 155.069 262.504C154.6 262.92 154.365 263.517 154.365 264.296V269H153.085V260.744H154.301V262.2C154.856 261.144 155.741 260.616 156.957 260.616ZM170.268 268.008C169.511 268.797 168.551 269.192 167.388 269.192C166.225 269.192 165.265 268.797 164.508 268.008C163.761 267.229 163.388 266.184 163.388 264.872C163.388 263.56 163.761 262.515 164.508 261.736C165.265 260.947 166.225 260.552 167.388 260.552C168.551 260.552 169.511 260.947 170.268 261.736C171.015 262.515 171.388 263.56 171.388 264.872C171.388 266.184 171.015 267.229 170.268 268.008ZM165.452 267.192C165.932 267.757 166.577 268.04 167.388 268.04C168.199 268.04 168.844 267.757 169.324 267.192C169.804 266.637 170.044 265.864 170.044 264.872C170.044 263.869 169.804 263.091 169.324 262.536C168.844 261.981 168.199 261.704 167.388 261.704C166.577 261.704 165.932 261.981 165.452 262.536C164.972 263.091 164.732 263.869 164.732 264.872C164.732 265.864 164.972 266.637 165.452 267.192ZM182.293 264.472L183.461 260.744H184.837L182.085 269H180.741L179.525 265.176C179.109 263.821 178.831 262.888 178.693 262.376C178.447 263.251 178.165 264.184 177.845 265.176L176.645 269H175.301L172.549 260.744H173.925L175.093 264.472C175.381 265.379 175.679 266.381 175.989 267.48C176.33 266.264 176.623 265.261 176.869 264.472L178.021 260.744H179.365L180.517 264.472C181.103 266.424 181.402 267.416 181.413 267.448C181.498 267.117 181.791 266.125 182.293 264.472ZM190.612 260.552C191.529 260.552 192.244 260.803 192.756 261.304C193.268 261.805 193.524 262.509 193.524 263.416V269H192.244V263.544C192.244 262.317 191.614 261.704 190.356 261.704C189.758 261.704 189.23 261.928 188.772 262.376C188.313 262.824 188.084 263.475 188.084 264.328V269H186.804V260.744H188.02V261.976C188.649 261.027 189.513 260.552 190.612 260.552ZM204.539 260.552C205.702 260.552 206.635 260.941 207.339 261.72C208.033 262.509 208.379 263.56 208.379 264.872C208.379 266.173 208.033 267.219 207.339 268.008C206.635 268.797 205.702 269.192 204.539 269.192C203.355 269.192 202.433 268.733 201.771 267.816V272.136H200.491V260.744H201.707V262.024C202.369 261.043 203.313 260.552 204.539 260.552ZM204.379 268.04C205.179 268.04 205.819 267.752 206.299 267.176C206.79 266.589 207.035 265.8 207.035 264.808C207.035 263.837 206.795 263.08 206.315 262.536C205.846 261.981 205.201 261.704 204.379 261.704C203.569 261.704 202.923 261.981 202.443 262.536C201.963 263.091 201.723 263.869 201.723 264.872C201.723 265.864 201.963 266.637 202.443 267.192C202.923 267.757 203.569 268.04 204.379 268.04ZM217.493 267.96H217.957V269C217.744 269.032 217.509 269.048 217.253 269.048C216.389 269.048 215.925 268.653 215.861 267.864C215.285 268.749 214.389 269.192 213.173 269.192C212.267 269.192 211.552 268.984 211.029 268.568C210.517 268.141 210.261 267.544 210.261 266.776C210.261 265.283 211.28 264.429 213.317 264.216L214.501 264.088C215.365 263.992 215.797 263.613 215.797 262.952C215.797 262.493 215.653 262.163 215.365 261.96C215.088 261.757 214.613 261.656 213.941 261.656C213.227 261.656 212.709 261.779 212.389 262.024C212.08 262.259 211.904 262.68 211.861 263.288H210.581C210.688 261.464 211.808 260.552 213.941 260.552C216.011 260.552 217.045 261.352 217.045 262.952V267.56C217.045 267.827 217.195 267.96 217.493 267.96ZM213.237 268.104C213.92 268.104 214.517 267.896 215.029 267.48C215.541 267.075 215.797 266.493 215.797 265.736V264.76C215.563 264.941 215.2 265.059 214.709 265.112L213.509 265.256C212.816 265.341 212.32 265.501 212.021 265.736C211.733 265.971 211.589 266.307 211.589 266.744C211.589 267.171 211.728 267.507 212.005 267.752C212.283 267.987 212.693 268.104 213.237 268.104ZM223.431 269.192C222.29 269.192 221.367 268.797 220.663 268.008C219.959 267.219 219.607 266.173 219.607 264.872C219.607 263.549 219.959 262.499 220.663 261.72C221.346 260.941 222.268 260.552 223.431 260.552C224.412 260.552 225.218 260.819 225.847 261.352C226.476 261.885 226.855 262.616 226.983 263.544H225.655C225.559 262.957 225.303 262.504 224.887 262.184C224.482 261.864 223.996 261.704 223.431 261.704C222.674 261.704 222.071 261.981 221.623 262.536C221.175 263.08 220.951 263.859 220.951 264.872C220.951 265.875 221.175 266.653 221.623 267.208C222.082 267.763 222.684 268.04 223.431 268.04C223.996 268.04 224.487 267.875 224.903 267.544C225.319 267.213 225.575 266.755 225.671 266.168H226.983C226.844 267.096 226.45 267.832 225.799 268.376C225.159 268.92 224.37 269.192 223.431 269.192ZM236.551 264.872V265.32H230.279C230.343 266.216 230.593 266.893 231.031 267.352C231.468 267.8 232.065 268.024 232.823 268.024C233.964 268.024 234.695 267.512 235.015 266.488H236.343C236.119 267.32 235.703 267.981 235.095 268.472C234.487 268.952 233.719 269.192 232.791 269.192C231.649 269.192 230.727 268.803 230.023 268.024C229.308 267.245 228.951 266.195 228.951 264.872C228.951 263.571 229.303 262.525 230.007 261.736C230.7 260.947 231.617 260.552 232.759 260.552C233.943 260.552 234.871 260.963 235.543 261.784C236.215 262.605 236.551 263.635 236.551 264.872ZM232.759 261.72C232.087 261.72 231.537 261.933 231.111 262.36C230.684 262.776 230.417 263.379 230.311 264.168H235.175C235.111 263.443 234.865 262.856 234.439 262.408C234.012 261.949 233.452 261.72 232.759 261.72ZM238.189 269V267.4H239.805V269.144C239.805 270.424 239.319 271.112 238.349 271.208L238.189 271.224V270.36L238.301 270.344C238.695 270.301 238.893 269.939 238.893 269.256V269H238.189ZM255.402 264.472L256.57 260.744H257.946L255.194 269H253.85L252.634 265.176C252.218 263.821 251.941 262.888 251.802 262.376C251.557 263.251 251.274 264.184 250.954 265.176L249.754 269H248.41L245.658 260.744H247.034L248.202 264.472C248.49 265.379 248.789 266.381 249.098 267.48C249.439 266.264 249.733 265.261 249.978 264.472L251.13 260.744H252.474L253.626 264.472C254.213 266.424 254.511 267.416 254.522 267.448C254.607 267.117 254.901 266.125 255.402 264.472ZM263.643 260.552C264.56 260.552 265.275 260.803 265.787 261.304C266.299 261.805 266.555 262.509 266.555 263.416V269H265.275V263.544C265.275 262.317 264.646 261.704 263.387 261.704C262.79 261.704 262.262 261.928 261.803 262.376C261.344 262.824 261.115 263.475 261.115 264.328V269H259.835V257.608H261.115V261.88C261.744 260.995 262.587 260.552 263.643 260.552ZM276.676 264.872V265.32H270.404C270.468 266.216 270.718 266.893 271.156 267.352C271.593 267.8 272.19 268.024 272.948 268.024C274.089 268.024 274.82 267.512 275.14 266.488H276.468C276.244 267.32 275.828 267.981 275.22 268.472C274.612 268.952 273.844 269.192 272.916 269.192C271.774 269.192 270.852 268.803 270.148 268.024C269.433 267.245 269.076 266.195 269.076 264.872C269.076 263.571 269.428 262.525 270.132 261.736C270.825 260.947 271.742 260.552 272.884 260.552C274.068 260.552 274.996 260.963 275.668 261.784C276.34 262.605 276.676 263.635 276.676 264.872ZM272.884 261.72C272.212 261.72 271.662 261.933 271.236 262.36C270.809 262.776 270.542 263.379 270.436 264.168H275.3C275.236 263.443 274.99 262.856 274.564 262.408C274.137 261.949 273.577 261.72 272.884 261.72ZM283.002 260.552C283.92 260.552 284.634 260.803 285.146 261.304C285.658 261.805 285.914 262.509 285.914 263.416V269H284.634V263.544C284.634 262.317 284.005 261.704 282.746 261.704C282.149 261.704 281.621 261.928 281.162 262.376C280.704 262.824 280.474 263.475 280.474 264.328V269H279.194V260.744H280.41V261.976C281.04 261.027 281.904 260.552 283.002 260.552ZM296.035 264.872V265.32H289.763C289.827 266.216 290.078 266.893 290.515 267.352C290.952 267.8 291.55 268.024 292.307 268.024C293.448 268.024 294.179 267.512 294.499 266.488H295.827C295.603 267.32 295.187 267.981 294.579 268.472C293.971 268.952 293.203 269.192 292.275 269.192C291.134 269.192 290.211 268.803 289.507 268.024C288.792 267.245 288.435 266.195 288.435 264.872C288.435 263.571 288.787 262.525 289.491 261.736C290.184 260.947 291.102 260.552 292.243 260.552C293.427 260.552 294.355 260.963 295.027 261.784C295.699 262.605 296.035 263.635 296.035 264.872ZM292.243 261.72C291.571 261.72 291.022 261.933 290.595 262.36C290.168 262.776 289.902 263.379 289.795 264.168H294.659C294.595 263.443 294.35 262.856 293.923 262.408C293.496 261.949 292.936 261.72 292.243 261.72ZM302.356 264.408L303.716 260.744H305.092L301.844 269H300.5L297.268 260.744H298.66L300.02 264.424C300.692 266.227 301.081 267.293 301.188 267.624C301.38 267.059 301.769 265.987 302.356 264.408ZM313.848 264.872V265.32H307.576C307.64 266.216 307.89 266.893 308.328 267.352C308.765 267.8 309.362 268.024 310.12 268.024C311.261 268.024 311.992 267.512 312.312 266.488H313.64C313.416 267.32 313 267.981 312.392 268.472C311.784 268.952 311.016 269.192 310.088 269.192C308.946 269.192 308.024 268.803 307.32 268.024C306.605 267.245 306.248 266.195 306.248 264.872C306.248 263.571 306.6 262.525 307.304 261.736C307.997 260.947 308.914 260.552 310.056 260.552C311.24 260.552 312.168 260.963 312.84 261.784C313.512 262.605 313.848 263.635 313.848 264.872ZM310.056 261.72C309.384 261.72 308.834 261.933 308.408 262.36C307.981 262.776 307.714 263.379 307.608 264.168H312.472C312.408 263.443 312.162 262.856 311.736 262.408C311.309 261.949 310.749 261.72 310.056 261.72ZM320.238 260.616C320.452 260.616 320.596 260.621 320.67 260.632V261.864H320.35C319.497 261.864 318.83 262.077 318.35 262.504C317.881 262.92 317.646 263.517 317.646 264.296V269H316.366V260.744H317.582V262.2C318.137 261.144 319.022 260.616 320.238 260.616ZM333.821 267.96H334.285V269C334.072 269.032 333.837 269.048 333.581 269.048C332.717 269.048 332.253 268.653 332.189 267.864C331.613 268.749 330.717 269.192 329.501 269.192C328.595 269.192 327.88 268.984 327.357 268.568C326.845 268.141 326.589 267.544 326.589 266.776C326.589 265.283 327.608 264.429 329.645 264.216L330.829 264.088C331.693 263.992 332.125 263.613 332.125 262.952C332.125 262.493 331.981 262.163 331.693 261.96C331.416 261.757 330.941 261.656 330.269 261.656C329.555 261.656 329.037 261.779 328.717 262.024C328.408 262.259 328.232 262.68 328.189 263.288H326.909C327.016 261.464 328.136 260.552 330.269 260.552C332.339 260.552 333.373 261.352 333.373 262.952V267.56C333.373 267.827 333.523 267.96 333.821 267.96ZM329.565 268.104C330.248 268.104 330.845 267.896 331.357 267.48C331.869 267.075 332.125 266.493 332.125 265.736V264.76C331.891 264.941 331.528 265.059 331.037 265.112L329.837 265.256C329.144 265.341 328.648 265.501 328.349 265.736C328.061 265.971 327.917 266.307 327.917 266.744C327.917 267.171 328.056 267.507 328.333 267.752C328.611 267.987 329.021 268.104 329.565 268.104ZM340.221 260.552C341.138 260.552 341.853 260.803 342.365 261.304C342.877 261.805 343.133 262.509 343.133 263.416V269H341.853V263.544C341.853 262.317 341.224 261.704 339.965 261.704C339.368 261.704 338.84 261.928 338.381 262.376C337.922 262.824 337.693 263.475 337.693 264.328V269H336.413V260.744H337.629V261.976C338.258 261.027 339.122 260.552 340.221 260.552ZM352.262 261.928V257.608H353.542V269H352.326V267.72C351.664 268.701 350.72 269.192 349.494 269.192C348.331 269.192 347.403 268.797 346.71 268.008C346.006 267.219 345.654 266.173 345.654 264.872C345.654 263.549 346.006 262.499 346.71 261.72C347.392 260.941 348.32 260.552 349.494 260.552C350.678 260.552 351.6 261.011 352.262 261.928ZM346.998 264.936C346.998 265.917 347.238 266.68 347.718 267.224C348.198 267.768 348.843 268.04 349.654 268.04C350.464 268.04 351.11 267.757 351.59 267.192C352.07 266.637 352.31 265.864 352.31 264.872C352.31 263.891 352.07 263.117 351.59 262.552C351.11 261.987 350.464 261.704 349.654 261.704C348.854 261.704 348.208 261.997 347.718 262.584C347.238 263.16 346.998 263.944 346.998 264.936ZM369.371 264.472L370.539 260.744H371.915L369.163 269H367.819L366.603 265.176C366.187 263.821 365.91 262.888 365.771 262.376C365.526 263.251 365.243 264.184 364.923 265.176L363.723 269H362.379L359.627 260.744H361.003L362.171 264.472C362.459 265.379 362.758 266.381 363.067 267.48C363.408 266.264 363.702 265.261 363.947 264.472L365.099 260.744H366.443L367.595 264.472C368.182 266.424 368.48 267.416 368.491 267.448C368.576 267.117 368.87 266.125 369.371 264.472ZM377.612 260.552C378.529 260.552 379.244 260.803 379.756 261.304C380.268 261.805 380.524 262.509 380.524 263.416V269H379.244V263.544C379.244 262.317 378.614 261.704 377.356 261.704C376.758 261.704 376.23 261.928 375.772 262.376C375.313 262.824 375.084 263.475 375.084 264.328V269H373.804V257.608H375.084V261.88C375.713 260.995 376.556 260.552 377.612 260.552ZM390.644 264.872V265.32H384.372C384.436 266.216 384.687 266.893 385.124 267.352C385.562 267.8 386.159 268.024 386.916 268.024C388.058 268.024 388.788 267.512 389.108 266.488H390.436C390.212 267.32 389.796 267.981 389.188 268.472C388.58 268.952 387.812 269.192 386.884 269.192C385.743 269.192 384.82 268.803 384.116 268.024C383.402 267.245 383.044 266.195 383.044 264.872C383.044 263.571 383.396 262.525 384.1 261.736C384.794 260.947 385.711 260.552 386.852 260.552C388.036 260.552 388.964 260.963 389.636 261.784C390.308 262.605 390.644 263.635 390.644 264.872ZM386.852 261.72C386.18 261.72 385.631 261.933 385.204 262.36C384.778 262.776 384.511 263.379 384.404 264.168H389.268C389.204 263.443 388.959 262.856 388.532 262.408C388.106 261.949 387.546 261.72 386.852 261.72ZM397.035 260.616C397.248 260.616 397.392 260.621 397.467 260.632V261.864H397.147C396.294 261.864 395.627 262.077 395.147 262.504C394.678 262.92 394.443 263.517 394.443 264.296V269H393.163V260.744H394.379V262.2C394.934 261.144 395.819 260.616 397.035 260.616ZM406.379 264.872V265.32H400.107C400.171 266.216 400.421 266.893 400.859 267.352C401.296 267.8 401.893 268.024 402.651 268.024C403.792 268.024 404.523 267.512 404.843 266.488H406.171C405.947 267.32 405.531 267.981 404.923 268.472C404.315 268.952 403.547 269.192 402.619 269.192C401.477 269.192 400.555 268.803 399.851 268.024C399.136 267.245 398.779 266.195 398.779 264.872C398.779 263.571 399.131 262.525 399.835 261.736C400.528 260.947 401.445 260.552 402.587 260.552C403.771 260.552 404.699 260.963 405.371 261.784C406.043 262.605 406.379 263.635 406.379 264.872ZM402.587 261.72C401.915 261.72 401.365 261.933 400.939 262.36C400.512 262.776 400.245 263.379 400.139 264.168H405.003C404.939 263.443 404.693 262.856 404.267 262.408C403.84 261.949 403.28 261.72 402.587 261.72ZM412.699 264.408L414.059 260.744H415.435L412.187 269H410.843L407.611 260.744H409.003L410.363 264.424C411.035 266.227 411.425 267.293 411.531 267.624C411.723 267.059 412.113 265.987 412.699 264.408ZM424.191 264.872V265.32H417.919C417.983 266.216 418.234 266.893 418.671 267.352C419.109 267.8 419.706 268.024 420.463 268.024C421.605 268.024 422.335 267.512 422.655 266.488H423.983C423.759 267.32 423.343 267.981 422.735 268.472C422.127 268.952 421.359 269.192 420.431 269.192C419.29 269.192 418.367 268.803 417.663 268.024C416.949 267.245 416.591 266.195 416.591 264.872C416.591 263.571 416.943 262.525 417.647 261.736C418.341 260.947 419.258 260.552 420.399 260.552C421.583 260.552 422.511 260.963 423.183 261.784C423.855 262.605 424.191 263.635 424.191 264.872ZM420.399 261.72C419.727 261.72 419.178 261.933 418.751 262.36C418.325 262.776 418.058 263.379 417.951 264.168H422.815C422.751 263.443 422.506 262.856 422.079 262.408C421.653 261.949 421.093 261.72 420.399 261.72ZM430.582 260.616C430.795 260.616 430.939 260.621 431.014 260.632V261.864H430.694C429.841 261.864 429.174 262.077 428.694 262.504C428.225 262.92 427.99 263.517 427.99 264.296V269H426.71V260.744H427.926V262.2C428.481 261.144 429.366 260.616 430.582 260.616ZM440.325 269.192C438.117 269.192 436.949 268.253 436.821 266.376H438.117C438.192 266.995 438.394 267.437 438.725 267.704C439.066 267.96 439.6 268.088 440.325 268.088C441.648 268.088 442.309 267.661 442.309 266.808C442.309 266.435 442.17 266.152 441.893 265.96C441.626 265.768 441.136 265.603 440.421 265.464L439.653 265.32C437.936 265 437.077 264.189 437.077 262.888C437.077 262.173 437.344 261.608 437.877 261.192C438.421 260.765 439.157 260.552 440.085 260.552C442.272 260.552 443.392 261.464 443.445 263.288H442.165C442.133 262.691 441.952 262.269 441.621 262.024C441.29 261.779 440.778 261.656 440.085 261.656C439.53 261.656 439.104 261.763 438.805 261.976C438.506 262.189 438.357 262.488 438.357 262.872C438.357 263.235 438.485 263.507 438.741 263.688C438.997 263.869 439.424 264.024 440.021 264.152L440.757 264.296C441.77 264.499 442.496 264.787 442.933 265.16C443.381 265.533 443.605 266.056 443.605 266.728C443.605 267.507 443.312 268.115 442.725 268.552C442.149 268.979 441.349 269.192 440.325 269.192ZM451.322 265.416V260.744H452.602V269H451.386V267.768C450.757 268.717 449.893 269.192 448.794 269.192C447.877 269.192 447.162 268.941 446.65 268.44C446.138 267.939 445.882 267.235 445.882 266.328V260.744H447.162V266.2C447.162 267.427 447.791 268.04 449.05 268.04C449.647 268.04 450.175 267.816 450.634 267.368C451.093 266.92 451.322 266.269 451.322 265.416ZM456.835 259.496H455.475V257.928H456.835V259.496ZM456.803 269H455.523V260.744H456.803V269ZM463.342 260.744V261.864H461.646V267.224C461.646 267.693 461.96 267.928 462.59 267.928H463.342V269C462.99 269.032 462.686 269.048 462.43 269.048C461.054 269.048 460.366 268.477 460.366 267.336V261.864H459.006V260.744H460.366V258.408H461.646V260.744H463.342ZM468.528 269.192C466.32 269.192 465.152 268.253 465.024 266.376H466.32C466.395 266.995 466.598 267.437 466.928 267.704C467.27 267.96 467.803 268.088 468.528 268.088C469.851 268.088 470.512 267.661 470.512 266.808C470.512 266.435 470.374 266.152 470.096 265.96C469.83 265.768 469.339 265.603 468.624 265.464L467.856 265.32C466.139 265 465.28 264.189 465.28 262.888C465.28 262.173 465.547 261.608 466.08 261.192C466.624 260.765 467.36 260.552 468.288 260.552C470.475 260.552 471.595 261.464 471.648 263.288H470.368C470.336 262.691 470.155 262.269 469.824 262.024C469.494 261.779 468.982 261.656 468.288 261.656C467.734 261.656 467.307 261.763 467.008 261.976C466.71 262.189 466.56 262.488 466.56 262.872C466.56 263.235 466.688 263.507 466.944 263.688C467.2 263.869 467.627 264.024 468.224 264.152L468.96 264.296C469.974 264.499 470.699 264.787 471.136 265.16C471.584 265.533 471.808 266.056 471.808 266.728C471.808 267.507 471.515 268.115 470.928 268.552C470.352 268.979 469.552 269.192 468.528 269.192ZM482.196 264.168L483.364 260.744H484.756L481.268 270.296C481.023 270.989 480.687 271.475 480.26 271.752C479.833 272.04 479.273 272.184 478.58 272.184C478.345 272.184 478.089 272.168 477.812 272.136V271.064H478.564C479.3 271.064 479.801 270.723 480.068 270.04L480.356 269.272L477.252 260.744H478.66L479.828 264.184C480.244 265.4 480.639 266.589 481.012 267.752C481.321 266.76 481.716 265.565 482.196 264.168ZM492.784 268.008C492.026 268.797 491.066 269.192 489.904 269.192C488.741 269.192 487.781 268.797 487.024 268.008C486.277 267.229 485.904 266.184 485.904 264.872C485.904 263.56 486.277 262.515 487.024 261.736C487.781 260.947 488.741 260.552 489.904 260.552C491.066 260.552 492.026 260.947 492.784 261.736C493.53 262.515 493.904 263.56 493.904 264.872C493.904 266.184 493.53 267.229 492.784 268.008ZM487.968 267.192C488.448 267.757 489.093 268.04 489.904 268.04C490.714 268.04 491.36 267.757 491.84 267.192C492.32 266.637 492.56 265.864 492.56 264.872C492.56 263.869 492.32 263.091 491.84 262.536C491.36 261.981 490.714 261.704 489.904 261.704C489.093 261.704 488.448 261.981 487.968 262.536C487.488 263.091 487.248 263.869 487.248 264.872C487.248 265.864 487.488 266.637 487.968 267.192ZM501.634 265.416V260.744H502.914V269H501.698V267.768C501.069 268.717 500.205 269.192 499.106 269.192C498.189 269.192 497.474 268.941 496.962 268.44C496.45 267.939 496.194 267.235 496.194 266.328V260.744H497.474V266.2C497.474 267.427 498.104 268.04 499.362 268.04C499.96 268.04 500.488 267.816 500.946 267.368C501.405 266.92 501.634 266.269 501.634 265.416ZM507.211 269H505.595V267.4H507.211V269ZM523.88 269H522.456L521.128 265.688H515.944L514.632 269H513.224L517.768 257.608H519.272L523.88 269ZM516.472 264.344L516.424 264.472H520.648L520.584 264.328C520.318 263.677 519.624 261.923 518.504 259.064C517.747 261.091 517.07 262.851 516.472 264.344ZM529.275 269.192C528.133 269.192 527.211 268.797 526.507 268.008C525.803 267.219 525.451 266.173 525.451 264.872C525.451 263.549 525.803 262.499 526.507 261.72C527.189 260.941 528.112 260.552 529.275 260.552C530.256 260.552 531.061 260.819 531.691 261.352C532.32 261.885 532.699 262.616 532.827 263.544H531.499C531.403 262.957 531.147 262.504 530.731 262.184C530.325 261.864 529.84 261.704 529.275 261.704C528.517 261.704 527.915 261.981 527.467 262.536C527.019 263.08 526.795 263.859 526.795 264.872C526.795 265.875 527.019 266.653 527.467 267.208C527.925 267.763 528.528 268.04 529.275 268.04C529.84 268.04 530.331 267.875 530.747 267.544C531.163 267.213 531.419 266.755 531.515 266.168H532.827C532.688 267.096 532.293 267.832 531.643 268.376C531.003 268.92 530.213 269.192 529.275 269.192ZM538.618 269.192C537.477 269.192 536.554 268.797 535.85 268.008C535.146 267.219 534.794 266.173 534.794 264.872C534.794 263.549 535.146 262.499 535.85 261.72C536.533 260.941 537.456 260.552 538.618 260.552C539.6 260.552 540.405 260.819 541.034 261.352C541.664 261.885 542.042 262.616 542.17 263.544H540.842C540.746 262.957 540.49 262.504 540.074 262.184C539.669 261.864 539.184 261.704 538.618 261.704C537.861 261.704 537.258 261.981 536.81 262.536C536.362 263.08 536.138 263.859 536.138 264.872C536.138 265.875 536.362 266.653 536.81 267.208C537.269 267.763 537.872 268.04 538.618 268.04C539.184 268.04 539.674 267.875 540.09 267.544C540.506 267.213 540.762 266.755 540.858 266.168H542.17C542.032 267.096 541.637 267.832 540.986 268.376C540.346 268.92 539.557 269.192 538.618 269.192ZM551.738 264.872V265.32H545.466C545.53 266.216 545.781 266.893 546.218 267.352C546.655 267.8 547.253 268.024 548.01 268.024C549.151 268.024 549.882 267.512 550.202 266.488H551.53C551.306 267.32 550.89 267.981 550.282 268.472C549.674 268.952 548.906 269.192 547.978 269.192C546.837 269.192 545.914 268.803 545.21 268.024C544.495 267.245 544.138 266.195 544.138 264.872C544.138 263.571 544.49 262.525 545.194 261.736C545.887 260.947 546.805 260.552 547.946 260.552C549.13 260.552 550.058 260.963 550.73 261.784C551.402 262.605 551.738 263.635 551.738 264.872ZM547.946 261.72C547.274 261.72 546.725 261.933 546.298 262.36C545.871 262.776 545.605 263.379 545.498 264.168H550.362C550.298 263.443 550.053 262.856 549.626 262.408C549.199 261.949 548.639 261.72 547.946 261.72ZM557.091 269.192C554.883 269.192 553.715 268.253 553.587 266.376H554.883C554.957 266.995 555.16 267.437 555.491 267.704C555.832 267.96 556.365 268.088 557.091 268.088C558.413 268.088 559.075 267.661 559.075 266.808C559.075 266.435 558.936 266.152 558.659 265.96C558.392 265.768 557.901 265.603 557.187 265.464L556.419 265.32C554.701 265 553.843 264.189 553.843 262.888C553.843 262.173 554.109 261.608 554.643 261.192C555.187 260.765 555.923 260.552 556.851 260.552C559.037 260.552 560.157 261.464 560.211 263.288H558.931C558.899 262.691 558.717 262.269 558.387 262.024C558.056 261.779 557.544 261.656 556.851 261.656C556.296 261.656 555.869 261.763 555.571 261.976C555.272 262.189 555.123 262.488 555.123 262.872C555.123 263.235 555.251 263.507 555.507 263.688C555.763 263.869 556.189 264.024 556.787 264.152L557.523 264.296C558.536 264.499 559.261 264.787 559.699 265.16C560.147 265.533 560.371 266.056 560.371 266.728C560.371 267.507 560.077 268.115 559.491 268.552C558.915 268.979 558.115 269.192 557.091 269.192ZM565.716 269.192C563.508 269.192 562.34 268.253 562.212 266.376H563.508C563.582 266.995 563.785 267.437 564.116 267.704C564.457 267.96 564.99 268.088 565.716 268.088C567.038 268.088 567.7 267.661 567.7 266.808C567.7 266.435 567.561 266.152 567.284 265.96C567.017 265.768 566.526 265.603 565.812 265.464L565.044 265.32C563.326 265 562.468 264.189 562.468 262.888C562.468 262.173 562.734 261.608 563.268 261.192C563.812 260.765 564.548 260.552 565.476 260.552C567.662 260.552 568.782 261.464 568.836 263.288H567.556C567.524 262.691 567.342 262.269 567.012 262.024C566.681 261.779 566.169 261.656 565.476 261.656C564.921 261.656 564.494 261.763 564.196 261.976C563.897 262.189 563.748 262.488 563.748 262.872C563.748 263.235 563.876 263.507 564.132 263.688C564.388 263.869 564.814 264.024 565.412 264.152L566.148 264.296C567.161 264.499 567.886 264.787 568.324 265.16C568.772 265.533 568.996 266.056 568.996 266.728C568.996 267.507 568.702 268.115 568.116 268.552C567.54 268.979 566.74 269.192 565.716 269.192ZM66.384 297.192C65.2427 297.192 64.32 296.797 63.616 296.008C62.912 295.219 62.56 294.173 62.56 292.872C62.56 291.549 62.912 290.499 63.616 289.72C64.2987 288.941 65.2213 288.552 66.384 288.552C67.3653 288.552 68.1707 288.819 68.8 289.352C69.4293 289.885 69.808 290.616 69.936 291.544H68.608C68.512 290.957 68.256 290.504 67.84 290.184C67.4347 289.864 66.9493 289.704 66.384 289.704C65.6267 289.704 65.024 289.981 64.576 290.536C64.128 291.08 63.904 291.859 63.904 292.872C63.904 293.875 64.128 294.653 64.576 295.208C65.0347 295.763 65.6373 296.04 66.384 296.04C66.9493 296.04 67.44 295.875 67.856 295.544C68.272 295.213 68.528 294.755 68.624 294.168H69.936C69.7973 295.096 69.4027 295.832 68.752 296.376C68.112 296.92 67.3227 297.192 66.384 297.192ZM78.7838 296.008C78.0264 296.797 77.0664 297.192 75.9038 297.192C74.7411 297.192 73.7811 296.797 73.0238 296.008C72.2771 295.229 71.9038 294.184 71.9038 292.872C71.9038 291.56 72.2771 290.515 73.0238 289.736C73.7811 288.947 74.7411 288.552 75.9038 288.552C77.0664 288.552 78.0264 288.947 78.7838 289.736C79.5304 290.515 79.9038 291.56 79.9038 292.872C79.9038 294.184 79.5304 295.229 78.7838 296.008ZM73.9678 295.192C74.4478 295.757 75.0931 296.04 75.9038 296.04C76.7144 296.04 77.3598 295.757 77.8398 295.192C78.3198 294.637 78.5598 293.864 78.5598 292.872C78.5598 291.869 78.3198 291.091 77.8398 290.536C77.3598 289.981 76.7144 289.704 75.9038 289.704C75.0931 289.704 74.4478 289.981 73.9678 290.536C73.4878 291.091 73.2478 291.869 73.2478 292.872C73.2478 293.864 73.4878 294.637 73.9678 295.192ZM87.6344 293.416V288.744H88.9144V297H87.6984V295.768C87.069 296.717 86.205 297.192 85.1064 297.192C84.189 297.192 83.4744 296.941 82.9624 296.44C82.4504 295.939 82.1944 295.235 82.1944 294.328V288.744H83.4744V294.2C83.4744 295.427 84.1037 296.04 85.3624 296.04C85.9597 296.04 86.4877 295.816 86.9464 295.368C87.405 294.92 87.6344 294.269 87.6344 293.416ZM95.707 288.616C95.9203 288.616 96.0643 288.621 96.139 288.632V289.864H95.819C94.9657 289.864 94.299 290.077 93.819 290.504C93.3497 290.92 93.115 291.517 93.115 292.296V297H91.835V288.744H93.051V290.2C93.6057 289.144 94.491 288.616 95.707 288.616ZM100.919 297.192C98.7109 297.192 97.5429 296.253 97.4149 294.376H98.7109C98.7855 294.995 98.9882 295.437 99.3189 295.704C99.6602 295.96 100.194 296.088 100.919 296.088C102.242 296.088 102.903 295.661 102.903 294.808C102.903 294.435 102.764 294.152 102.487 293.96C102.22 293.768 101.73 293.603 101.015 293.464L100.247 293.32C98.5295 293 97.6709 292.189 97.6709 290.888C97.6709 290.173 97.9375 289.608 98.4709 289.192C99.0149 288.765 99.7509 288.552 100.679 288.552C102.866 288.552 103.986 289.464 104.039 291.288H102.759C102.727 290.691 102.546 290.269 102.215 290.024C101.884 289.779 101.372 289.656 100.679 289.656C100.124 289.656 99.6975 289.763 99.3989 289.976C99.1002 290.189 98.9509 290.488 98.9509 290.872C98.9509 291.235 99.0789 291.507 99.3349 291.688C99.5909 291.869 100.018 292.024 100.615 292.152L101.351 292.296C102.364 292.499 103.09 292.787 103.527 293.16C103.975 293.533 104.199 294.056 104.199 294.728C104.199 295.507 103.906 296.115 103.319 296.552C102.743 296.979 101.943 297.192 100.919 297.192ZM113.676 292.872V293.32H107.404C107.468 294.216 107.718 294.893 108.156 295.352C108.593 295.8 109.19 296.024 109.948 296.024C111.089 296.024 111.82 295.512 112.14 294.488H113.468C113.244 295.32 112.828 295.981 112.22 296.472C111.612 296.952 110.844 297.192 109.916 297.192C108.774 297.192 107.852 296.803 107.148 296.024C106.433 295.245 106.076 294.195 106.076 292.872C106.076 291.571 106.428 290.525 107.132 289.736C107.825 288.947 108.742 288.552 109.884 288.552C111.068 288.552 111.996 288.963 112.668 289.784C113.34 290.605 113.676 291.635 113.676 292.872ZM109.884 289.72C109.212 289.72 108.662 289.933 108.236 290.36C107.809 290.776 107.542 291.379 107.436 292.168H112.3C112.236 291.443 111.99 290.856 111.564 290.408C111.137 289.949 110.577 289.72 109.884 289.72ZM119.028 297.192C116.82 297.192 115.652 296.253 115.524 294.376H116.82C116.895 294.995 117.098 295.437 117.428 295.704C117.77 295.96 118.303 296.088 119.028 296.088C120.351 296.088 121.012 295.661 121.012 294.808C121.012 294.435 120.874 294.152 120.596 293.96C120.33 293.768 119.839 293.603 119.124 293.464L118.356 293.32C116.639 293 115.78 292.189 115.78 290.888C115.78 290.173 116.047 289.608 116.58 289.192C117.124 288.765 117.86 288.552 118.788 288.552C120.975 288.552 122.095 289.464 122.148 291.288H120.868C120.836 290.691 120.655 290.269 120.324 290.024C119.994 289.779 119.482 289.656 118.788 289.656C118.234 289.656 117.807 289.763 117.508 289.976C117.21 290.189 117.06 290.488 117.06 290.872C117.06 291.235 117.188 291.507 117.444 291.688C117.7 291.869 118.127 292.024 118.724 292.152L119.46 292.296C120.474 292.499 121.199 292.787 121.636 293.16C122.084 293.533 122.308 294.056 122.308 294.728C122.308 295.507 122.015 296.115 121.428 296.552C120.852 296.979 120.052 297.192 119.028 297.192ZM135.112 296.008C134.355 296.797 133.395 297.192 132.232 297.192C131.069 297.192 130.109 296.797 129.352 296.008C128.605 295.229 128.232 294.184 128.232 292.872C128.232 291.56 128.605 290.515 129.352 289.736C130.109 288.947 131.069 288.552 132.232 288.552C133.395 288.552 134.355 288.947 135.112 289.736C135.859 290.515 136.232 291.56 136.232 292.872C136.232 294.184 135.859 295.229 135.112 296.008ZM130.296 295.192C130.776 295.757 131.421 296.04 132.232 296.04C133.043 296.04 133.688 295.757 134.168 295.192C134.648 294.637 134.888 293.864 134.888 292.872C134.888 291.869 134.648 291.091 134.168 290.536C133.688 289.981 133.043 289.704 132.232 289.704C131.421 289.704 130.776 289.981 130.296 290.536C129.816 291.091 129.576 291.869 129.576 292.872C129.576 293.864 129.816 294.637 130.296 295.192ZM142.565 288.552C143.482 288.552 144.197 288.803 144.709 289.304C145.221 289.805 145.477 290.509 145.477 291.416V297H144.197V291.544C144.197 290.317 143.568 289.704 142.309 289.704C141.712 289.704 141.184 289.928 140.725 290.376C140.266 290.824 140.037 291.475 140.037 292.328V297H138.757V288.744H139.973V289.976C140.602 289.027 141.466 288.552 142.565 288.552ZM159.196 295.96H159.66V297C159.447 297.032 159.212 297.048 158.956 297.048C158.092 297.048 157.628 296.653 157.564 295.864C156.988 296.749 156.092 297.192 154.876 297.192C153.97 297.192 153.255 296.984 152.732 296.568C152.22 296.141 151.964 295.544 151.964 294.776C151.964 293.283 152.983 292.429 155.02 292.216L156.204 292.088C157.068 291.992 157.5 291.613 157.5 290.952C157.5 290.493 157.356 290.163 157.068 289.96C156.791 289.757 156.316 289.656 155.644 289.656C154.93 289.656 154.412 289.779 154.092 290.024C153.783 290.259 153.607 290.68 153.564 291.288H152.284C152.391 289.464 153.511 288.552 155.644 288.552C157.714 288.552 158.748 289.352 158.748 290.952V295.56C158.748 295.827 158.898 295.96 159.196 295.96ZM154.94 296.104C155.623 296.104 156.22 295.896 156.732 295.48C157.244 295.075 157.5 294.493 157.5 293.736V292.76C157.266 292.941 156.903 293.059 156.412 293.112L155.212 293.256C154.519 293.341 154.023 293.501 153.724 293.736C153.436 293.971 153.292 294.307 153.292 294.744C153.292 295.171 153.431 295.507 153.708 295.752C153.986 295.987 154.396 296.104 154.94 296.104ZM165.596 288.552C166.513 288.552 167.228 288.803 167.74 289.304C168.252 289.805 168.508 290.509 168.508 291.416V297H167.228V291.544C167.228 290.317 166.599 289.704 165.34 289.704C164.743 289.704 164.215 289.928 163.756 290.376C163.297 290.824 163.068 291.475 163.068 292.328V297H161.788V288.744H163.004V289.976C163.633 289.027 164.497 288.552 165.596 288.552ZM175.087 292.168L176.255 288.744H177.647L174.159 298.296C173.913 298.989 173.577 299.475 173.151 299.752C172.724 300.04 172.164 300.184 171.471 300.184C171.236 300.184 170.98 300.168 170.703 300.136V299.064H171.455C172.191 299.064 172.692 298.723 172.959 298.04L173.247 297.272L170.143 288.744H171.551L172.719 292.184C173.135 293.4 173.529 294.589 173.903 295.752C174.212 294.76 174.607 293.565 175.087 292.168ZM189.934 289.928V285.608H191.214V297H189.998V295.72C189.336 296.701 188.392 297.192 187.166 297.192C186.003 297.192 185.075 296.797 184.382 296.008C183.678 295.219 183.326 294.173 183.326 292.872C183.326 291.549 183.678 290.499 184.382 289.72C185.064 288.941 185.992 288.552 187.166 288.552C188.35 288.552 189.272 289.011 189.934 289.928ZM184.67 292.936C184.67 293.917 184.91 294.68 185.39 295.224C185.87 295.768 186.515 296.04 187.326 296.04C188.136 296.04 188.782 295.757 189.262 295.192C189.742 294.637 189.982 293.864 189.982 292.872C189.982 291.891 189.742 291.117 189.262 290.552C188.782 289.987 188.136 289.704 187.326 289.704C186.526 289.704 185.88 289.997 185.39 290.584C184.91 291.16 184.67 291.944 184.67 292.936ZM201.332 292.872V293.32H195.06C195.124 294.216 195.375 294.893 195.812 295.352C196.249 295.8 196.847 296.024 197.604 296.024C198.745 296.024 199.476 295.512 199.796 294.488H201.124C200.9 295.32 200.484 295.981 199.876 296.472C199.268 296.952 198.5 297.192 197.572 297.192C196.431 297.192 195.508 296.803 194.804 296.024C194.089 295.245 193.732 294.195 193.732 292.872C193.732 291.571 194.084 290.525 194.788 289.736C195.481 288.947 196.399 288.552 197.54 288.552C198.724 288.552 199.652 288.963 200.324 289.784C200.996 290.605 201.332 291.635 201.332 292.872ZM197.54 289.72C196.868 289.72 196.319 289.933 195.892 290.36C195.465 290.776 195.199 291.379 195.092 292.168H199.956C199.892 291.443 199.647 290.856 199.22 290.408C198.793 289.949 198.233 289.72 197.54 289.72ZM207.652 292.408L209.012 288.744H210.388L207.14 297H205.796L202.564 288.744H203.956L205.316 292.424C205.988 294.227 206.378 295.293 206.484 295.624C206.676 295.059 207.066 293.987 207.652 292.408ZM213.663 287.496H212.303V285.928H213.663V287.496ZM213.631 297H212.351V288.744H213.631V297ZM219.978 297.192C218.836 297.192 217.914 296.797 217.21 296.008C216.506 295.219 216.154 294.173 216.154 292.872C216.154 291.549 216.506 290.499 217.21 289.72C217.892 288.941 218.815 288.552 219.978 288.552C220.959 288.552 221.764 288.819 222.394 289.352C223.023 289.885 223.402 290.616 223.53 291.544H222.202C222.106 290.957 221.85 290.504 221.434 290.184C221.028 289.864 220.543 289.704 219.978 289.704C219.22 289.704 218.618 289.981 218.17 290.536C217.722 291.08 217.498 291.859 217.498 292.872C217.498 293.875 217.722 294.653 218.17 295.208C218.628 295.763 219.231 296.04 219.978 296.04C220.543 296.04 221.034 295.875 221.45 295.544C221.866 295.213 222.122 294.755 222.218 294.168H223.53C223.391 295.096 222.996 295.832 222.346 296.376C221.706 296.92 220.916 297.192 219.978 297.192ZM233.098 292.872V293.32H226.826C226.89 294.216 227.14 294.893 227.578 295.352C228.015 295.8 228.612 296.024 229.37 296.024C230.511 296.024 231.242 295.512 231.562 294.488H232.89C232.666 295.32 232.25 295.981 231.642 296.472C231.034 296.952 230.266 297.192 229.338 297.192C228.196 297.192 227.274 296.803 226.57 296.024C225.855 295.245 225.498 294.195 225.498 292.872C225.498 291.571 225.85 290.525 226.554 289.736C227.247 288.947 228.164 288.552 229.306 288.552C230.49 288.552 231.418 288.963 232.09 289.784C232.762 290.605 233.098 291.635 233.098 292.872ZM229.306 289.72C228.634 289.72 228.084 289.933 227.658 290.36C227.231 290.776 226.964 291.379 226.858 292.168H231.722C231.658 291.443 231.412 290.856 230.986 290.408C230.559 289.949 229.999 289.72 229.306 289.72ZM234.736 297V295.4H236.352V297.144C236.352 298.424 235.866 299.112 234.896 299.208L234.736 299.224V298.36L234.848 298.344C235.242 298.301 235.44 297.939 235.44 297.256V297H234.736ZM244.397 287.496H243.037V285.928H244.397V287.496ZM244.365 297H243.085V288.744H244.365V297ZM251.096 288.552C252.013 288.552 252.728 288.803 253.24 289.304C253.752 289.805 254.008 290.509 254.008 291.416V297H252.728V291.544C252.728 290.317 252.099 289.704 250.84 289.704C250.243 289.704 249.715 289.928 249.256 290.376C248.797 290.824 248.568 291.475 248.568 292.328V297H247.288V288.744H248.504V289.976C249.133 289.027 249.997 288.552 251.096 288.552ZM260.353 297.192C259.211 297.192 258.289 296.797 257.585 296.008C256.881 295.219 256.529 294.173 256.529 292.872C256.529 291.549 256.881 290.499 257.585 289.72C258.267 288.941 259.19 288.552 260.353 288.552C261.334 288.552 262.139 288.819 262.769 289.352C263.398 289.885 263.777 290.616 263.905 291.544H262.577C262.481 290.957 262.225 290.504 261.809 290.184C261.403 289.864 260.918 289.704 260.353 289.704C259.595 289.704 258.993 289.981 258.545 290.536C258.097 291.08 257.873 291.859 257.873 292.872C257.873 293.875 258.097 294.653 258.545 295.208C259.003 295.763 259.606 296.04 260.353 296.04C260.918 296.04 261.409 295.875 261.825 295.544C262.241 295.213 262.497 294.755 262.593 294.168H263.905C263.766 295.096 263.371 295.832 262.721 296.376C262.081 296.92 261.291 297.192 260.353 297.192ZM267.553 297H266.273V285.608H267.553V297ZM275.916 293.416V288.744H277.196V297H275.98V295.768C275.35 296.717 274.486 297.192 273.388 297.192C272.47 297.192 271.756 296.941 271.244 296.44C270.732 295.939 270.476 295.235 270.476 294.328V288.744H271.756V294.2C271.756 295.427 272.385 296.04 273.644 296.04C274.241 296.04 274.769 295.816 275.228 295.368C275.686 294.92 275.916 294.269 275.916 293.416ZM286.324 289.928V285.608H287.604V297H286.388V295.72C285.727 296.701 284.783 297.192 283.556 297.192C282.394 297.192 281.466 296.797 280.772 296.008C280.068 295.219 279.716 294.173 279.716 292.872C279.716 291.549 280.068 290.499 280.772 289.72C281.455 288.941 282.383 288.552 283.556 288.552C284.74 288.552 285.663 289.011 286.324 289.928ZM281.06 292.936C281.06 293.917 281.3 294.68 281.78 295.224C282.26 295.768 282.906 296.04 283.716 296.04C284.527 296.04 285.172 295.757 285.652 295.192C286.132 294.637 286.372 293.864 286.372 292.872C286.372 291.891 286.132 291.117 285.652 290.552C285.172 289.987 284.527 289.704 283.716 289.704C282.916 289.704 282.271 289.997 281.78 290.584C281.3 291.16 281.06 291.944 281.06 292.936ZM291.835 287.496H290.475V285.928H291.835V287.496ZM291.803 297H290.523V288.744H291.803V297ZM298.534 288.552C299.451 288.552 300.166 288.803 300.678 289.304C301.19 289.805 301.446 290.509 301.446 291.416V297H300.166V291.544C300.166 290.317 299.536 289.704 298.278 289.704C297.68 289.704 297.152 289.928 296.694 290.376C296.235 290.824 296.006 291.475 296.006 292.328V297H294.726V288.744H295.942V289.976C296.571 289.027 297.435 288.552 298.534 288.552ZM310.638 289.944V288.744H311.854V296.68C311.854 297.811 311.524 298.701 310.862 299.352C310.201 300.003 309.252 300.328 308.014 300.328C306.99 300.328 306.169 300.093 305.55 299.624C304.932 299.155 304.58 298.504 304.494 297.672H305.774C305.934 298.717 306.681 299.24 308.014 299.24C309.721 299.24 310.574 298.387 310.574 296.68V295.88C309.924 296.755 309.001 297.192 307.806 297.192C306.644 297.192 305.716 296.797 305.022 296.008C304.318 295.219 303.966 294.173 303.966 292.872C303.966 291.549 304.318 290.499 305.022 289.72C305.705 288.941 306.633 288.552 307.806 288.552C309.033 288.552 309.977 289.016 310.638 289.944ZM307.966 296.04C308.777 296.04 309.422 295.757 309.902 295.192C310.382 294.627 310.622 293.853 310.622 292.872C310.622 291.891 310.382 291.117 309.902 290.552C309.422 289.987 308.777 289.704 307.966 289.704C307.166 289.704 306.521 289.992 306.03 290.568C305.55 291.144 305.31 291.912 305.31 292.872C305.31 293.832 305.55 294.6 306.03 295.176C306.521 295.752 307.166 296.04 307.966 296.04ZM325.027 289.928V285.608H326.307V297H325.091V295.72C324.43 296.701 323.486 297.192 322.259 297.192C321.097 297.192 320.169 296.797 319.475 296.008C318.771 295.219 318.419 294.173 318.419 292.872C318.419 291.549 318.771 290.499 319.475 289.72C320.158 288.941 321.086 288.552 322.259 288.552C323.443 288.552 324.366 289.011 325.027 289.928ZM319.763 292.936C319.763 293.917 320.003 294.68 320.483 295.224C320.963 295.768 321.609 296.04 322.419 296.04C323.23 296.04 323.875 295.757 324.355 295.192C324.835 294.637 325.075 293.864 325.075 292.872C325.075 291.891 324.835 291.117 324.355 290.552C323.875 289.987 323.23 289.704 322.419 289.704C321.619 289.704 320.974 289.997 320.483 290.584C320.003 291.16 319.763 291.944 319.763 292.936ZM336.426 292.872V293.32H330.154C330.218 294.216 330.468 294.893 330.906 295.352C331.343 295.8 331.94 296.024 332.698 296.024C333.839 296.024 334.57 295.512 334.89 294.488H336.218C335.994 295.32 335.578 295.981 334.97 296.472C334.362 296.952 333.594 297.192 332.666 297.192C331.524 297.192 330.602 296.803 329.898 296.024C329.183 295.245 328.826 294.195 328.826 292.872C328.826 291.571 329.178 290.525 329.882 289.736C330.575 288.947 331.492 288.552 332.634 288.552C333.818 288.552 334.746 288.963 335.418 289.784C336.09 290.605 336.426 291.635 336.426 292.872ZM332.634 289.72C331.962 289.72 331.412 289.933 330.986 290.36C330.559 290.776 330.292 291.379 330.186 292.168H335.05C334.986 291.443 334.74 290.856 334.314 290.408C333.887 289.949 333.327 289.72 332.634 289.72ZM341.778 297.192C339.57 297.192 338.402 296.253 338.274 294.376H339.57C339.645 294.995 339.848 295.437 340.178 295.704C340.52 295.96 341.053 296.088 341.778 296.088C343.101 296.088 343.762 295.661 343.762 294.808C343.762 294.435 343.624 294.152 343.346 293.96C343.08 293.768 342.589 293.603 341.874 293.464L341.106 293.32C339.389 293 338.53 292.189 338.53 290.888C338.53 290.173 338.797 289.608 339.33 289.192C339.874 288.765 340.61 288.552 341.538 288.552C343.725 288.552 344.845 289.464 344.898 291.288H343.618C343.586 290.691 343.405 290.269 343.074 290.024C342.744 289.779 342.232 289.656 341.538 289.656C340.984 289.656 340.557 289.763 340.258 289.976C339.96 290.189 339.81 290.488 339.81 290.872C339.81 291.235 339.938 291.507 340.194 291.688C340.45 291.869 340.877 292.024 341.474 292.152L342.21 292.296C343.224 292.499 343.949 292.787 344.386 293.16C344.834 293.533 345.058 294.056 345.058 294.728C345.058 295.507 344.765 296.115 344.178 296.552C343.602 296.979 342.802 297.192 341.778 297.192ZM354.359 297H352.871L350.087 292.568L348.615 293.944V297H347.335V285.608H348.615V292.44L352.439 288.744H354.135L350.999 291.72L354.359 297ZM359.857 288.744V289.864H358.161V295.224C358.161 295.693 358.476 295.928 359.105 295.928H359.857V297C359.505 297.032 359.201 297.048 358.945 297.048C357.569 297.048 356.881 296.477 356.881 295.336V289.864H355.521V288.744H356.881V286.408H358.161V288.744H359.857ZM368.534 296.008C367.776 296.797 366.816 297.192 365.654 297.192C364.491 297.192 363.531 296.797 362.774 296.008C362.027 295.229 361.654 294.184 361.654 292.872C361.654 291.56 362.027 290.515 362.774 289.736C363.531 288.947 364.491 288.552 365.654 288.552C366.816 288.552 367.776 288.947 368.534 289.736C369.28 290.515 369.654 291.56 369.654 292.872C369.654 294.184 369.28 295.229 368.534 296.008ZM363.718 295.192C364.198 295.757 364.843 296.04 365.654 296.04C366.464 296.04 367.11 295.757 367.59 295.192C368.07 294.637 368.31 293.864 368.31 292.872C368.31 291.869 368.07 291.091 367.59 290.536C367.11 289.981 366.464 289.704 365.654 289.704C364.843 289.704 364.198 289.981 363.718 290.536C363.238 291.091 362.998 291.869 362.998 292.872C362.998 293.864 363.238 294.637 363.718 295.192ZM376.227 288.552C377.389 288.552 378.323 288.941 379.027 289.72C379.72 290.509 380.067 291.56 380.067 292.872C380.067 294.173 379.72 295.219 379.027 296.008C378.323 296.797 377.389 297.192 376.227 297.192C375.043 297.192 374.12 296.733 373.459 295.816V300.136H372.179V288.744H373.395V290.024C374.056 289.043 375 288.552 376.227 288.552ZM376.067 296.04C376.867 296.04 377.507 295.752 377.987 295.176C378.477 294.589 378.723 293.8 378.723 292.808C378.723 291.837 378.483 291.08 378.003 290.536C377.533 289.981 376.888 289.704 376.067 289.704C375.256 289.704 374.611 289.981 374.131 290.536C373.651 291.091 373.411 291.869 373.411 292.872C373.411 293.864 373.651 294.637 374.131 295.192C374.611 295.757 375.256 296.04 376.067 296.04ZM381.704 297V295.4H383.32V297.144C383.32 298.424 382.835 299.112 381.864 299.208L381.704 299.224V298.36L381.816 298.344C382.211 298.301 382.408 297.939 382.408 297.256V297H381.704ZM393.67 288.744V289.864H391.974V295.224C391.974 295.693 392.288 295.928 392.918 295.928H393.67V297C393.318 297.032 393.014 297.048 392.758 297.048C391.382 297.048 390.694 296.477 390.694 295.336V289.864H389.334V288.744H390.694V286.408H391.974V288.744H393.67ZM402.696 295.96H403.16V297C402.947 297.032 402.712 297.048 402.456 297.048C401.592 297.048 401.128 296.653 401.064 295.864C400.488 296.749 399.592 297.192 398.376 297.192C397.47 297.192 396.755 296.984 396.232 296.568C395.72 296.141 395.464 295.544 395.464 294.776C395.464 293.283 396.483 292.429 398.52 292.216L399.704 292.088C400.568 291.992 401 291.613 401 290.952C401 290.493 400.856 290.163 400.568 289.96C400.291 289.757 399.816 289.656 399.144 289.656C398.43 289.656 397.912 289.779 397.592 290.024C397.283 290.259 397.107 290.68 397.064 291.288H395.784C395.891 289.464 397.011 288.552 399.144 288.552C401.214 288.552 402.248 289.352 402.248 290.952V295.56C402.248 295.827 402.398 295.96 402.696 295.96ZM398.44 296.104C399.123 296.104 399.72 295.896 400.232 295.48C400.744 295.075 401 294.493 401 293.736V292.76C400.766 292.941 400.403 293.059 399.912 293.112L398.712 293.256C398.019 293.341 397.523 293.501 397.224 293.736C396.936 293.971 396.792 294.307 396.792 294.744C396.792 295.171 396.931 295.507 397.208 295.752C397.486 295.987 397.896 296.104 398.44 296.104ZM409.258 288.552C410.421 288.552 411.354 288.941 412.058 289.72C412.751 290.509 413.098 291.56 413.098 292.872C413.098 294.173 412.751 295.219 412.058 296.008C411.354 296.797 410.421 297.192 409.258 297.192C408.031 297.192 407.087 296.701 406.426 295.72V297H405.21V285.608H406.49V289.928C407.151 289.011 408.074 288.552 409.258 288.552ZM409.098 296.04C409.898 296.04 410.538 295.752 411.018 295.176C411.509 294.589 411.754 293.8 411.754 292.808C411.754 291.837 411.514 291.08 411.034 290.536C410.565 289.981 409.919 289.704 409.098 289.704C408.287 289.704 407.642 289.981 407.162 290.536C406.682 291.091 406.442 291.869 406.442 292.872C406.442 293.864 406.682 294.637 407.162 295.192C407.642 295.757 408.287 296.04 409.098 296.04ZM416.896 297H415.616V285.608H416.896V297ZM427.019 292.872V293.32H420.747C420.811 294.216 421.062 294.893 421.499 295.352C421.937 295.8 422.534 296.024 423.291 296.024C424.433 296.024 425.163 295.512 425.483 294.488H426.811C426.587 295.32 426.171 295.981 425.563 296.472C424.955 296.952 424.187 297.192 423.259 297.192C422.118 297.192 421.195 296.803 420.491 296.024C419.777 295.245 419.419 294.195 419.419 292.872C419.419 291.571 419.771 290.525 420.475 289.736C421.169 288.947 422.086 288.552 423.227 288.552C424.411 288.552 425.339 288.963 426.011 289.784C426.683 290.605 427.019 291.635 427.019 292.872ZM423.227 289.72C422.555 289.72 422.006 289.933 421.579 290.36C421.153 290.776 420.886 291.379 420.779 292.168H425.643C425.579 291.443 425.334 290.856 424.907 290.408C424.481 289.949 423.921 289.72 423.227 289.72ZM432.67 288.744V289.864H430.974V295.224C430.974 295.693 431.288 295.928 431.918 295.928H432.67V297C432.318 297.032 432.014 297.048 431.758 297.048C430.382 297.048 429.694 296.477 429.694 295.336V289.864H428.334V288.744H429.694V286.408H430.974V288.744H432.67ZM434.783 297V295.4H436.399V297.144C436.399 298.424 435.913 299.112 434.943 299.208L434.783 299.224V298.36L434.895 298.344C435.289 298.301 435.487 297.939 435.487 297.256V297H434.783ZM449.612 296.008C448.855 296.797 447.895 297.192 446.732 297.192C445.569 297.192 444.609 296.797 443.852 296.008C443.105 295.229 442.732 294.184 442.732 292.872C442.732 291.56 443.105 290.515 443.852 289.736C444.609 288.947 445.569 288.552 446.732 288.552C447.895 288.552 448.855 288.947 449.612 289.736C450.359 290.515 450.732 291.56 450.732 292.872C450.732 294.184 450.359 295.229 449.612 296.008ZM444.796 295.192C445.276 295.757 445.921 296.04 446.732 296.04C447.543 296.04 448.188 295.757 448.668 295.192C449.148 294.637 449.388 293.864 449.388 292.872C449.388 291.869 449.148 291.091 448.668 290.536C448.188 289.981 447.543 289.704 446.732 289.704C445.921 289.704 445.276 289.981 444.796 290.536C444.316 291.091 444.076 291.869 444.076 292.872C444.076 293.864 444.316 294.637 444.796 295.192ZM457.129 288.616C457.342 288.616 457.486 288.621 457.561 288.632V289.864H457.241C456.388 289.864 455.721 290.077 455.241 290.504C454.772 290.92 454.537 291.517 454.537 292.296V297H453.257V288.744H454.473V290.2C455.028 289.144 455.913 288.616 457.129 288.616ZM472.648 288.552C473.544 288.552 474.237 288.813 474.728 289.336C475.229 289.848 475.48 290.536 475.48 291.4V297H474.2V291.528C474.2 290.312 473.624 289.704 472.472 289.704C471.864 289.704 471.357 289.949 470.952 290.44C470.557 290.92 470.36 291.603 470.36 292.488V297H469.08V291.528C469.08 290.312 468.504 289.704 467.352 289.704C466.755 289.704 466.253 289.949 465.848 290.44C465.443 290.92 465.24 291.603 465.24 292.488V297H463.96V288.744H465.176V289.96C465.72 289.021 466.515 288.552 467.56 288.552C468.797 288.552 469.645 289.069 470.104 290.104C470.68 289.069 471.528 288.552 472.648 288.552ZM484.878 296.008C484.12 296.797 483.16 297.192 481.998 297.192C480.835 297.192 479.875 296.797 479.118 296.008C478.371 295.229 477.998 294.184 477.998 292.872C477.998 291.56 478.371 290.515 479.118 289.736C479.875 288.947 480.835 288.552 481.998 288.552C483.16 288.552 484.12 288.947 484.878 289.736C485.624 290.515 485.998 291.56 485.998 292.872C485.998 294.184 485.624 295.229 484.878 296.008ZM480.062 295.192C480.542 295.757 481.187 296.04 481.998 296.04C482.808 296.04 483.454 295.757 483.934 295.192C484.414 294.637 484.654 293.864 484.654 292.872C484.654 291.869 484.414 291.091 483.934 290.536C483.454 289.981 482.808 289.704 481.998 289.704C481.187 289.704 480.542 289.981 480.062 290.536C479.582 291.091 479.342 291.869 479.342 292.872C479.342 293.864 479.582 294.637 480.062 295.192ZM492.571 288.552C493.733 288.552 494.667 288.941 495.371 289.72C496.064 290.509 496.411 291.56 496.411 292.872C496.411 294.173 496.064 295.219 495.371 296.008C494.667 296.797 493.733 297.192 492.571 297.192C491.344 297.192 490.4 296.701 489.739 295.72V297H488.523V285.608H489.803V289.928C490.464 289.011 491.387 288.552 492.571 288.552ZM492.411 296.04C493.211 296.04 493.851 295.752 494.331 295.176C494.821 294.589 495.067 293.8 495.067 292.808C495.067 291.837 494.827 291.08 494.347 290.536C493.877 289.981 493.232 289.704 492.411 289.704C491.6 289.704 490.955 289.981 490.475 290.536C489.995 291.091 489.755 291.869 489.755 292.872C489.755 293.864 489.995 294.637 490.475 295.192C490.955 295.757 491.6 296.04 492.411 296.04ZM500.241 287.496H498.881V285.928H500.241V287.496ZM500.209 297H498.929V288.744H500.209V297ZM504.412 297H503.132V285.608H504.412V297ZM514.535 292.872V293.32H508.263C508.327 294.216 508.578 294.893 509.015 295.352C509.452 295.8 510.05 296.024 510.807 296.024C511.948 296.024 512.679 295.512 512.999 294.488H514.327C514.103 295.32 513.687 295.981 513.079 296.472C512.471 296.952 511.703 297.192 510.775 297.192C509.634 297.192 508.711 296.803 508.007 296.024C507.292 295.245 506.935 294.195 506.935 292.872C506.935 291.571 507.287 290.525 507.991 289.736C508.684 288.947 509.602 288.552 510.743 288.552C511.927 288.552 512.855 288.963 513.527 289.784C514.199 290.605 514.535 291.635 514.535 292.872ZM510.743 289.72C510.071 289.72 509.522 289.933 509.095 290.36C508.668 290.776 508.402 291.379 508.295 292.168H513.159C513.095 291.443 512.85 290.856 512.423 290.408C511.996 289.949 511.436 289.72 510.743 289.72ZM517.789 297H516.173V295.4H517.789V297Z" fill="#1A1A1A"/>
<path d="M83.6481 82.0877C84.0591 80.0709 86.9409 80.0709 87.3519 82.0877L88.9997 90.1738C89.2814 91.5561 90.9234 92.1537 92.0278 91.2759L98.4877 86.1408C100.099 84.86 102.307 86.7125 101.325 88.5216L97.3897 95.7751C96.7169 97.0151 97.5906 98.5283 99.0009 98.5657L107.25 98.7843C109.308 98.8389 109.808 101.677 107.893 102.432L100.216 105.459C98.9039 105.976 98.6005 107.697 99.6568 108.632L105.836 114.102C107.377 115.467 105.936 117.962 103.984 117.31L96.157 114.694C94.819 114.247 93.4805 115.37 93.6885 116.765L94.9057 124.927C95.2093 126.963 92.5012 127.949 91.4252 126.194L87.1112 119.159C86.3737 117.957 84.6263 117.957 83.8888 119.159L79.5748 126.194C78.4988 127.949 75.7907 126.963 76.0943 124.927L77.3115 116.765C77.5195 115.37 76.181 114.247 74.843 114.694L67.0164 117.31C65.0643 117.962 63.6233 115.467 65.1644 114.102L71.3432 108.632C72.3995 107.697 72.0961 105.976 70.7837 105.459L63.1066 102.432C61.1918 101.677 61.6923 98.8389 63.7498 98.7843L71.9991 98.5657C73.4094 98.5283 74.2831 97.0151 73.6103 95.7751L69.675 88.5216C68.6935 86.7125 70.9011 84.86 72.5123 86.1408L78.9722 91.2759C80.0766 92.1537 81.7186 91.5561 82.0003 90.1738L83.6481 82.0877Z" fill="#114F3C"/>
</g>
<defs>
<clipPath id="clip0_295_99">
<rect width="801" height="501" fill="white"/>
</clipPath>
</defs>
</svg>
