<svg width="160" height="160" viewBox="0 0 160 160" fill="none" xmlns="http://www.w3.org/2000/svg">
<path d="M27.2846 105.515C27.2846 105.515 27.2846 105.515 27.2846 105.515C26.038 105.93 25.2326 104.217 26.3473 103.521C26.3473 103.521 26.3473 103.521 26.3473 103.521L39.9151 95.0605C57.6309 84.0129 65.4687 62.2652 58.8737 42.4563L53.8229 27.2852C53.4079 26.0384 55.1211 25.233 55.8165 26.3479L64.2774 39.9157C75.3248 57.6313 97.0725 65.4692 116.881 58.8742L132.053 53.8233C133.299 53.4084 134.105 55.1216 132.99 55.817L119.422 64.2779C101.706 75.3253 93.8686 97.073 100.464 116.882L105.515 132.053C105.515 132.053 105.515 132.053 105.515 132.053C105.929 133.3 104.216 134.105 103.521 132.991C103.521 132.99 103.521 132.99 103.521 132.99L95.06 119.423C84.0125 101.707 62.2648 93.869 42.4556 100.464L27.2846 105.515Z" fill="#EF4C0D" stroke="#F6DEAE"/>
<path d="M68.719 77.2305C68.9691 77.8413 68.6177 78.936 67.7848 79.277L65.4527 80.2318L69.734 90.6894L68.7161 91.1061C67.8276 91.4699 66.9449 91.1613 66.4827 90.0323L62.8984 81.2775L59.2522 82.7703L58.9112 81.9374C58.6611 81.3267 58.8426 80.3447 59.8791 79.9203L68.3932 76.4346L68.719 77.2305ZM81.3457 81.959C82.2096 84.069 81.2535 86.1677 79.0324 87.077L78.5326 87.2816C76.1635 88.2516 73.9891 87.5858 73.2389 85.7534C72.5115 83.9765 73.2539 82.095 76.9187 80.5946L77.7886 80.2384L77.7356 80.1089C77.1597 78.7022 76.3191 78.5493 74.8384 79.1555C73.043 79.8905 72.3239 80.9846 72.1432 81.5988L72.0506 81.6367L71.7248 80.8408C71.2701 79.7303 71.724 77.9885 74.3523 76.9124C76.5733 76.0031 78.9966 76.2212 80.4061 79.6639L81.3457 81.959ZM78.9286 82.9702L78.5346 82.0077L77.6462 82.3714C75.7583 83.1444 75.4034 83.8083 75.7368 84.6227C76.055 85.4001 76.8738 85.6052 77.9658 85.1581C79.0393 84.7186 79.3454 83.9882 78.9286 82.9702ZM92.0723 75.3631C93.3832 78.5651 92.7387 81.5304 89.8328 82.7201C88.7223 83.1748 87.5577 82.9168 86.7094 82.27C87.2777 83.6581 88.5129 86.6751 88.5129 86.6751L87.7355 86.9933C86.8471 87.3571 85.7304 87.0578 85.2909 85.9843L82.8206 79.9504C81.4642 76.6373 82.0053 73.736 85.522 72.2963C88.1687 71.2127 91.0417 72.8459 92.0723 75.3631ZM89.7833 77.0566C88.8209 74.706 87.6268 74.0063 86.035 74.6579C84.6654 75.2187 84.3915 76.714 85.0962 78.4353C85.9146 80.4342 87.3578 81.1617 88.8385 80.5554C90.0416 80.0629 90.435 78.6484 89.7833 77.0566ZM94.5553 67.539L97.1437 74.389L96.3848 74.6997C95.4964 75.0634 94.7247 74.7094 94.3046 73.736L91.3461 67.0375L92.4751 66.5753C93.3636 66.2116 94.1722 66.5504 94.5553 67.539ZM98.9021 76.8892C99.2582 77.7591 98.8319 78.7765 97.962 79.1326C97.0921 79.4888 96.0747 79.0625 95.7185 78.1926C95.3624 77.3226 95.7887 76.3053 96.6586 75.9491C97.5285 75.593 98.5459 76.0193 98.9021 76.8892Z" fill="white"/>
</svg>
