<svg width="81" height="81" viewBox="0 0 81 81" fill="none" xmlns="http://www.w3.org/2000/svg">
<path d="M79.1547 40.2549C79.1547 49.4319 75.9758 57.8693 70.6577 64.5218C64.5322 72.183 55.5734 77.4784 45.368 78.8129C43.6992 79.0338 41.9964 79.1472 40.2653 79.1472C40.1633 79.1472 40.0613 79.1472 39.9621 79.1443C38.3925 79.133 36.8427 79.0282 35.3212 78.8327C34.9104 78.7845 34.5053 78.725 34.1001 78.6599C24.1157 77.0704 15.4005 71.6815 9.47902 64.0232C4.39614 57.45 1.37305 49.2052 1.37305 40.2549C1.37305 18.7759 18.7863 1.36267 40.2653 1.36267C61.7414 1.36267 79.1547 18.7731 79.1547 40.2549Z" fill="#AD5000"/>
<path d="M32.9218 36.447C32.9218 36.447 34.5849 51.3925 36.8175 51.5427C39.0501 51.6928 35.2762 69.1968 29.3604 60.6205C27.2864 57.6172 27.3799 37.9543 32.3268 33.7469C37.2737 29.5424 32.9218 36.447 32.9218 36.447Z" fill="#2F0E1B"/>
<path d="M32.1132 32.6931C32.1132 32.6931 30.0591 46.8141 31.9092 49.3272C31.9092 49.3272 32.8131 50.6645 35.0173 50.7353L34.8445 59.034L44.8204 57.8922L45.1548 34.291C45.1548 34.291 42.3102 28.4573 42.3073 28.6982C42.3045 28.939 32.1132 32.6931 32.1132 32.6931Z" fill="#FE9F73"/>
<path d="M35.1391 44.4766C35.1674 44.4766 35.1957 44.4482 35.2014 44.4057C35.2099 44.3576 35.1872 44.3094 35.1532 44.2981C34.7424 44.1677 34.4931 43.4481 34.4222 43.2129C35.0144 42.7794 35.3799 42.2128 35.5074 41.5243C35.717 40.4023 35.2269 39.3767 35.2042 39.3342C35.1844 39.2945 35.1447 39.2832 35.1164 39.3115C35.0881 39.3398 35.0796 39.3965 35.0994 39.4362C35.1051 39.4475 35.5782 40.4392 35.3827 41.479C35.258 42.1334 34.8982 42.6774 34.3117 43.0883L34.2607 43.1251L34.2806 43.2016C34.2919 43.2469 34.5696 44.2952 35.1249 44.4737C35.1306 44.4766 35.1362 44.4766 35.1391 44.4766Z" fill="#FB554B"/>
<path d="M34.9746 53.5571L35.0143 50.7352C35.0143 50.7352 39.7912 50.5227 42.7434 48.7179C42.7434 48.7179 38.7174 52.4833 34.9746 53.5571Z" fill="#FB554B"/>
<path d="M37.631 45.3123C37.5744 45.3094 34.0781 45.6976 34.0781 45.6976C34.0781 45.6976 34.7099 47.0802 36.0104 46.9386C37.3081 46.7997 37.631 45.3123 37.631 45.3123Z" fill="#FBFDFA"/>
<path d="M36.438 32.9679L38.8604 29.6077C38.8604 29.6077 34.9675 32.0443 35.2905 32.1434C35.6135 32.2426 36.438 32.9679 36.438 32.9679Z" fill="#FC8759"/>
<path d="M43.7138 31.3754C43.7138 31.3754 43.0197 36.6396 30.406 37.7049C30.406 37.7049 27.4764 29.9134 36.6335 27.3096C45.7935 24.7058 46.6236 31.7295 46.4394 31.6644C46.2553 31.5964 43.7138 31.3754 43.7138 31.3754Z" fill="#2F0E1B"/>
<path d="M41.81 34.3276C41.81 34.3276 43.8245 37.7955 44.9068 40.2944C44.9068 40.2944 41.0111 62.3429 49.5024 61.1076L51.021 61.0878C58.532 60.9858 53.3329 44.7285 53.2054 36.1012C53.1261 30.701 46.5671 25.2158 42.303 28.5052C38.0333 31.7975 41.81 34.3276 41.81 34.3276Z" fill="#2F0E1B"/>
<path d="M43.0521 42.9861C43.0294 44.5416 44.2732 45.8222 45.8315 45.8449C47.387 45.8675 48.6676 44.6237 48.6903 43.0654C48.7129 41.51 47.4691 40.2293 45.9108 40.2067C44.3525 40.1868 43.0747 41.4306 43.0521 42.9861Z" fill="#FE9F73"/>
<path d="M46.0551 44.7682C46.6472 44.7767 47.0467 44.3375 47.1855 43.8955C47.347 43.3714 47.177 42.8586 46.7549 42.5894C46.1514 42.2041 45.5961 42.4166 45.2929 42.6007C45.4176 42.3032 45.6074 42.0851 45.8539 41.9548C46.4092 41.6601 47.0892 41.8896 47.0949 41.8924C47.143 41.9094 47.194 41.8839 47.211 41.8358C47.228 41.7876 47.2025 41.7366 47.1544 41.7196C47.1232 41.7083 46.3951 41.4589 45.7689 41.7933C45.4063 41.9859 45.1598 42.3287 45.0294 42.8161L44.9473 43.1277L45.1796 42.9039C45.2079 42.8756 45.8822 42.2409 46.6586 42.7367C47.0864 43.0116 47.1175 43.5017 47.0156 43.8389C46.9079 44.193 46.5877 44.5982 46.0466 44.584C45.9984 44.5812 45.9559 44.6209 45.9531 44.6719C45.9502 44.7229 45.9899 44.7625 46.0409 44.7654C46.0466 44.7682 46.0522 44.7682 46.0551 44.7682Z" fill="#FB554B"/>
<path d="M31.5456 30.3074C31.5456 30.3074 27.1739 34.9228 28.1769 48.1966L31.1914 35.1013L31.5456 30.3074Z" fill="#2F0E1B"/>
<path d="M45.3671 78.8129C43.6983 79.0339 41.9955 79.1472 40.2644 79.1472C40.1624 79.1472 40.0604 79.1472 39.9612 79.1444C38.3916 79.1331 36.8418 79.0282 35.3203 78.8327L35.5441 77.8864L39.0206 63.2894L39.9612 59.3342L40.1765 58.4219L40.5562 56.8296H57.1166C58.8761 56.8296 61.2957 57.9884 61.4005 58.0394C63.6501 59.235 67.1039 61.5243 70.6568 64.5219C64.5313 72.1831 55.5725 77.4756 45.3671 78.8129Z" fill="#7FC6A6"/>
<path d="M39.9558 56.8297V79.1445C38.3861 79.1332 36.8363 79.0283 35.3149 78.8329C34.9041 78.7847 34.4989 78.7252 34.0937 78.66C24.1093 77.0706 15.3942 71.6817 9.47266 64.0234C13.2182 61.3176 16.8391 59.2493 19.1114 58.0395C19.2134 57.9885 21.6359 56.8297 23.3925 56.8297H39.9558Z" fill="#7FC6A6"/>
<path d="M30.3672 56.8296H51.3164C51.3164 56.8296 47.5283 63.3886 40.2893 63.3603C36.9687 63.3461 33.4186 62.125 30.3672 56.8296Z" fill="#FE9F73"/>
<path d="M15.9465 65.1561C16.0456 65.1561 16.142 65.1079 16.2043 65.0229C18.5588 61.64 20.5675 61.6343 20.5675 61.6343C20.7404 61.6343 20.8792 61.4955 20.8792 61.3227C20.8792 61.1498 20.7404 61.011 20.5675 61.0082C20.5675 61.0082 20.5675 61.0082 20.5647 61.0082C20.4514 61.0082 18.1989 61.0563 15.6887 64.6659C15.5895 64.8076 15.6263 65.0031 15.768 65.1022C15.8247 65.1362 15.887 65.1561 15.9465 65.1561Z" fill="#0D060E"/>
<path d="M16.6238 68.3324C16.7399 68.3324 16.8504 68.27 16.9043 68.1595C18.7091 64.5301 20.7065 64.1703 20.7263 64.1675C20.8963 64.1391 21.0125 63.9805 20.987 63.8133C20.9615 63.6433 20.8057 63.5272 20.6357 63.5498C20.5422 63.564 18.3124 63.9266 16.3461 67.8819C16.2696 68.0377 16.3319 68.2247 16.4878 68.3012C16.5274 68.321 16.5756 68.3324 16.6238 68.3324Z" fill="#0D060E"/>
<path d="M40.2579 80.5073C40.1474 80.5073 40.0369 80.5073 39.9264 80.5044C38.3256 80.4931 36.7106 80.3854 35.1382 80.1814C34.7472 80.1333 34.3307 80.0766 33.8745 80.0029C23.7513 78.3908 14.699 73.0104 8.39214 64.8563C2.90126 57.759 0 49.2507 0 40.255C0 29.5028 4.18757 19.3937 11.7892 11.7892C19.3965 4.18757 29.5056 0 40.2579 0C51.0101 0 61.1192 4.18757 68.7209 11.7892C76.3225 19.3937 80.5101 29.5 80.5101 40.2522C80.5101 49.4858 77.4672 58.1726 71.7128 65.3691C65.168 73.5544 55.872 78.8073 45.5363 80.1588C43.8165 80.3911 42.04 80.5073 40.2579 80.5073ZM40.2579 2.72277C19.5637 2.72277 2.72844 19.5609 2.72844 40.255C2.72844 48.6443 5.43421 56.5747 10.5511 63.1903C16.4329 70.7948 24.8704 75.8125 34.308 77.3142C34.7273 77.3822 35.1098 77.436 35.4782 77.4785C36.9515 77.6683 38.4588 77.7703 39.9661 77.7788C40.0737 77.7817 40.1672 77.7817 40.2607 77.7817C41.921 77.7817 43.5785 77.674 45.1849 77.4587C54.8237 76.1979 63.4878 71.2991 69.5907 63.6663C74.9541 56.9572 77.7902 48.8597 77.7902 40.2494C77.7902 19.5609 60.9521 2.72277 40.2579 2.72277Z" fill="white"/>
</svg>
