<svg width="93" height="93" viewBox="0 0 93 93" fill="none" xmlns="http://www.w3.org/2000/svg">
<path d="M91.056 47.8229C91.056 53.8322 89.8717 59.5667 87.7241 64.7998C87.6731 64.9216 87.6221 65.0435 87.5711 65.1681C87.5598 65.1936 87.5484 65.222 87.5371 65.2446C85.4971 70.0697 82.6355 74.4584 79.1308 78.2408C79.0259 78.3513 78.9211 78.4646 78.8163 78.5723C78.7058 78.6913 78.5925 78.8075 78.4763 78.9265C70.3448 87.3384 58.9409 92.5686 46.3102 92.5686C39.4084 92.5686 32.872 91.0075 27.0327 88.2167C25.939 87.6954 24.8709 87.1288 23.8311 86.5225C23.6554 86.4205 23.4769 86.3185 23.3013 86.2108C22.8281 85.9275 22.3606 85.6328 21.896 85.3325C21.7373 85.2276 21.5786 85.1228 21.4228 85.018C18.2014 82.8562 15.2746 80.2864 12.719 77.3852C11.7897 76.3312 10.9114 75.2375 10.0869 74.0986C8.29629 71.6308 6.7465 68.9704 5.48286 66.1598C2.96692 60.5641 1.56445 54.3592 1.56445 47.8257C1.56445 23.1168 21.5956 3.08276 46.3074 3.08276C71.0248 3.07993 91.056 23.1111 91.056 47.8229Z" fill="#FFAE0E"/>
<path d="M32.1166 27.2054C32.1166 27.2054 28.6968 19.3289 37.7094 12.8124C46.7249 6.29593 48.1132 17.4732 51.5839 18.5356C55.0547 19.5981 61.3474 18.3883 63.6253 24.9048C65.9033 31.4213 64.549 36.1784 68.201 37.2295C71.8531 38.2778 83.7812 47.6956 80.5484 59.856C77.3157 72.0164 65.4499 71.2202 65.4499 71.2202C65.4499 71.2202 18.82 72.6652 15.8111 60.5076C12.8022 48.3501 17.3694 43.1567 23.3306 39.1307C26.9968 36.6572 34.3265 34.6541 32.1166 27.2054Z" fill="#2D0F28"/>
<path d="M36.9052 31.0557C36.9052 31.0557 32.7856 47.5906 35.2449 51.5827C35.2449 51.5827 36.4349 53.6963 39.7271 54.0731L38.7128 64.5704L53.528 66.0012L56.8542 31.5572L36.9052 31.0557Z" fill="#FE9F73"/>
<path d="M40.4735 44.6952C40.5358 44.7008 40.5953 44.664 40.6152 44.6017C40.6378 44.5308 40.5982 44.4543 40.5273 44.4317C39.6773 44.1625 39.2325 43.0377 39.1079 42.6722C40.4055 42.1311 41.2413 41.3491 41.5926 40.3404C42.1649 38.6971 41.2441 37.0708 41.2045 37.0028C41.1676 36.9377 41.0855 36.915 41.0203 36.9518C40.9551 36.9887 40.9325 37.0709 40.9693 37.136C40.9778 37.153 41.8675 38.7255 41.3348 40.2498C41.0005 41.2102 40.176 41.9554 38.8897 42.4654L38.7764 42.5107L38.8075 42.6269C38.8274 42.6949 39.2892 44.3212 40.4423 44.6867C40.4537 44.6923 40.4622 44.6952 40.4735 44.6952Z" fill="#FB554B"/>
<path d="M39.3213 58.2978L39.7293 54.0762C39.7293 54.0762 46.9088 54.3454 51.5553 52.0079C51.5553 52.0079 45.0587 57.1475 39.3213 58.2978Z" fill="#F07162"/>
<path d="M52.7209 43.4628C52.4971 45.7917 54.1999 47.86 56.5288 48.0867C58.8578 48.3105 60.9261 46.6077 61.1527 44.2787C61.3766 41.9498 59.6709 39.8815 57.3448 39.6549C55.0131 39.4282 52.9448 41.1338 52.7209 43.4628Z" fill="#FE9F73"/>
<path d="M57.0002 46.4998C57.8842 46.5848 58.5415 45.9785 58.7994 45.3325C59.1054 44.5675 58.9155 43.7799 58.3149 43.3209C57.4592 42.6692 56.6008 42.9186 56.1248 43.1566C56.3486 42.7259 56.6574 42.4228 57.0427 42.2584C57.9126 41.8844 58.8985 42.3151 58.9099 42.3179C58.9779 42.3491 59.0572 42.3179 59.0884 42.2499C59.1195 42.1819 59.0884 42.1026 59.0204 42.0714C58.975 42.0516 57.9154 41.5898 56.9379 42.0091C56.3741 42.2528 55.9576 42.7372 55.7054 43.4512L55.5439 43.9102L55.9208 43.6014C55.9661 43.5646 57.0541 42.6947 58.1562 43.5362C58.7654 44.0009 58.7512 44.7404 58.5529 45.2305C58.346 45.7462 57.8191 46.3157 57.0116 46.2278C56.9379 46.2193 56.8699 46.2732 56.8614 46.3468C56.8529 46.4205 56.9067 46.4885 56.9804 46.497C56.9832 46.497 56.9917 46.4998 57.0002 46.4998Z" fill="#FB554B"/>
<path d="M36.9004 31.0557C36.9004 31.0557 38.81 24.6922 47.5591 24.814C56.3111 24.9386 56.8494 31.56 56.8494 31.56L46.7488 32.614L37.5435 31.0727L36.9004 31.0557Z" fill="#FE9F73"/>
<path d="M37.4326 25.5591C37.4326 25.5591 42.32 31.3673 49.4428 30.8459C49.4428 30.8459 50.953 39.6291 56.0613 39.7254C61.1697 39.8189 59.5548 27.6953 59.5548 27.6953C59.5548 27.6953 50.4486 22.9185 49.848 22.8618C49.2473 22.8051 39.2516 21.2327 39.2516 21.2327L37.4326 25.5591Z" fill="#2D0F28"/>
<path d="M38.9551 46.435C39.0344 46.4123 44.0975 45.891 44.0975 45.891C44.0975 45.891 43.6271 48.0386 41.7458 48.2398C39.8646 48.4381 38.9551 46.435 38.9551 46.435Z" fill="#FBFDFA"/>
<path d="M80.8047 62.5985C83.1308 63.0716 85.4144 63.9443 87.5677 65.1682C87.5564 65.1937 87.545 65.222 87.5337 65.2447C85.4938 70.0698 82.6322 74.4585 79.1274 78.2409C79.0226 78.3514 78.9177 78.4647 78.8129 78.5724C78.7024 78.6914 78.5891 78.8076 78.4729 78.9266C70.3415 87.3385 58.9376 92.5687 46.3069 92.5687C39.405 92.5687 32.8687 91.0076 27.0293 88.2168C25.9357 87.6955 24.8675 87.1289 23.8277 86.5226C23.6521 86.4206 23.4736 86.3186 23.2979 86.2109C22.8247 85.9276 22.3573 85.6329 21.8926 85.3326C21.7339 85.2277 21.5753 85.1229 21.4194 85.0181C18.198 82.8563 15.2713 80.2865 12.7157 77.3853C11.7863 76.3313 10.908 75.2376 10.0835 74.0987C8.29293 71.6309 6.74313 68.9705 5.47949 66.1599C7.68944 64.6837 12.03 63.5873 16.9769 62.7769C20.8188 62.148 25.0262 61.689 28.8964 61.3603C32.9282 61.0147 36.5888 60.8107 39.0792 60.6973C41.1418 60.6038 42.3998 60.5698 42.3998 60.5698C42.3998 60.5698 47.4572 60.5925 54.0275 60.7596C56.9911 60.8333 60.2664 60.9381 63.5246 61.0798C63.5359 61.0798 63.5416 61.0826 63.5473 61.0826H63.5501C66.0462 61.1931 68.5282 61.3263 70.8543 61.485C74.2967 61.723 77.3963 62.0205 79.6771 62.3973C79.8584 62.4256 80.0341 62.4568 80.2012 62.488C80.2211 62.4908 80.2409 62.4936 80.2579 62.4993C80.3967 62.5219 80.5299 62.5474 80.6574 62.5729C80.7112 62.5758 80.7565 62.5871 80.8047 62.5985Z" fill="#ED2B47"/>
<path d="M87.7218 64.7999C87.6708 64.9217 87.6198 65.0435 87.5688 65.1682C87.5575 65.1937 87.5461 65.222 87.5348 65.2447C86.699 64.8055 85.8434 64.4372 84.982 64.1539C83.4832 63.6609 81.6473 63.2217 79.4827 62.8364C77.0744 62.4114 74.2666 62.0544 71.0735 61.7711C70.9432 61.7569 70.844 61.6436 70.8554 61.5076C70.8554 61.4991 70.8582 61.4906 70.861 61.4821C70.8837 61.3631 70.997 61.2753 71.1189 61.2895C74.3771 61.5813 77.2387 61.9468 79.6867 62.3859C79.8623 62.4171 80.038 62.4483 80.208 62.4823C80.2278 62.4851 80.2477 62.4879 80.2647 62.4936C80.4516 62.5276 80.633 62.5644 80.8086 62.5984C82.4661 62.9271 83.9111 63.2954 85.135 63.6977C86.0077 63.9867 86.8718 64.355 87.7218 64.7999Z" fill="#010103"/>
<path d="M28.9014 61.3575C28.9014 61.3575 45.9265 78.3287 63.5579 61.0798C63.5579 61.0798 43.4077 58.8132 28.9014 61.3575Z" fill="#FE9F73"/>
<path d="M46.3097 92.6195C46.1851 92.6195 46.0547 92.6195 45.9301 92.6166C44.0885 92.6025 42.2298 92.4778 40.4222 92.2455C39.9717 92.1916 39.4929 92.1236 38.9687 92.0387C27.3212 90.1829 16.9089 83.995 9.65294 74.6112C3.33759 66.4457 0 56.6596 0 46.3097C0 33.9397 4.81655 22.3091 13.5628 13.5628C22.3091 4.81655 33.9397 0 46.3097 0C58.6798 0 70.3075 4.81655 79.0538 13.5628C87.8001 22.3091 92.6166 33.9397 92.6166 46.3097C92.6166 56.9345 89.1176 66.9246 82.4962 75.2062C74.9682 84.624 64.2726 90.6674 52.3814 92.2228C50.4038 92.4835 48.3582 92.6195 46.3097 92.6195ZM46.3097 3.13076C22.5018 3.13076 3.13076 22.5018 3.13076 46.3097C3.13076 55.9598 6.24169 65.0858 12.1292 72.6959C18.8951 81.4451 28.6018 87.2164 39.4617 88.9447C39.9462 89.0212 40.3854 89.0835 40.8075 89.1346C42.5047 89.3527 44.2358 89.4689 45.9726 89.483C46.0972 89.4859 46.2049 89.4859 46.3097 89.4859C48.2194 89.4859 50.1261 89.3612 51.9734 89.1147C63.06 87.6641 73.0303 82.0287 80.0511 73.2484C86.222 65.5306 89.4859 56.2148 89.4859 46.3097C89.4887 22.5018 70.1177 3.13076 46.3097 3.13076Z" fill="white"/>
</svg>
