<svg width="79" height="79" viewBox="0 0 79 79" fill="none" xmlns="http://www.w3.org/2000/svg">
<path d="M1.24512 38.1784C1.24512 48.1288 5.07853 57.1811 11.3457 63.9441C11.4335 64.0376 11.5242 64.1339 11.612 64.2246C11.7055 64.3266 11.8019 64.4258 11.8982 64.5249C18.7859 71.6506 28.4473 76.079 39.1429 76.079C44.9879 76.079 50.527 74.7559 55.471 72.3929C60.1119 70.1716 64.2315 67.0352 67.5945 63.2188C68.3822 62.3263 69.1245 61.3998 69.8243 60.4365C74.3632 54.1864 77.0407 46.4969 77.0407 38.1812C77.0407 17.2519 60.0722 0.283449 39.1429 0.283449C18.2136 0.277782 1.24512 17.2462 1.24512 38.1784Z" fill="#65CC94"/>
<path d="M46.8379 55.8496C46.8379 55.8496 47.1241 56.3908 47.6199 57.3456C47.804 57.6941 48.0137 58.0964 48.2489 58.5469C49.0507 60.0825 50.1472 62.1791 51.4023 64.5846C51.51 64.7914 51.6176 65.0011 51.7309 65.2136C52.8926 67.4348 54.1704 69.8913 55.468 72.3902C60.1089 70.1689 64.2285 67.0325 67.5916 63.2161C68.3792 62.3236 69.1215 61.3971 69.8213 60.4338C69.3482 59.972 68.8354 59.5839 68.2857 59.2694C62.6872 56.0989 52.1418 55.8184 48.2914 55.8298C47.3762 55.8298 46.8379 55.8496 46.8379 55.8496Z" fill="#5B2750"/>
<path d="M67.5987 63.2159C65.8194 60.6347 63.6152 58.847 60.8981 58.4701C57.9175 58.0565 53.1689 57.6882 48.3212 57.3907C48.0917 57.3765 47.8594 57.3623 47.627 57.3482C40.7309 56.9317 33.795 56.6512 31.5907 56.5662C31.1261 56.5463 30.8739 56.5378 30.8739 56.5378C30.8739 56.5378 30.8116 56.5548 30.7068 56.5803C30.1061 56.7362 28.1257 57.232 28.9076 56.8693C21.1048 58.2491 15.5545 61.0541 11.6162 64.2217C11.7097 64.3237 11.806 64.4228 11.9024 64.522C18.79 71.6476 28.4515 76.076 39.1471 76.076C44.9921 76.076 50.5311 74.7529 55.4752 72.39C60.1161 70.1715 64.2356 67.0351 67.5987 63.2159Z" fill="#5B2750"/>
<path d="M38.6004 71.6396C38.2916 71.6707 37.9771 71.699 37.6569 71.7217C37.4728 71.7359 37.3141 71.5971 37.3028 71.4129C37.2886 71.2316 37.4218 71.0729 37.6116 71.0587C51.3699 70.0926 53.9256 60.0203 53.9426 59.9212C53.9766 59.7455 54.1465 59.6208 54.325 59.652C54.5035 59.6832 54.6254 59.8447 54.5999 60.0232C54.5829 60.1252 52.0443 70.2484 38.6004 71.6396Z" fill="#0D060E"/>
<path d="M30.762 56.1697C21.7267 57.4362 15.536 60.5755 11.3428 63.9414C11.4306 64.0349 11.5213 64.1312 11.6091 64.2219C11.7026 64.3239 11.7989 64.423 11.8953 64.5222C15.9525 61.281 21.9307 58.2494 30.6373 56.9942C30.8385 56.9659 31.0396 56.9376 31.2408 56.9092C31.425 56.8837 31.5638 56.7392 31.5836 56.5664C31.5893 56.5324 31.5893 56.4984 31.5865 56.4616C31.5581 56.2434 31.3541 56.0904 31.136 56.1187C31.0113 56.1357 30.8866 56.1527 30.762 56.1697Z" fill="#0D060E"/>
<path d="M27.5832 26.5763L27.1327 43.9612C27.1327 43.9612 26.7559 49.5428 31.6263 50.3701L30.5213 57.8017C30.1105 60.5642 31.6971 63.2615 34.3377 64.1738C35.6297 64.6186 37.1739 64.9614 38.9361 65.0068C44.5233 65.1513 47.6598 61.0373 48.1811 58.9549C48.7024 56.8724 47.5634 46.8228 47.5634 46.8228L47.8609 41.9071L47.7193 22.8251L27.5832 26.5763Z" fill="#FE9F73"/>
<path d="M43.0949 45.9163C43.0949 45.9163 42.5254 55.2632 30.8184 55.8525L31.6343 50.3701C31.6343 50.3701 39.1708 52.0871 43.0949 45.9163Z" fill="#F07162"/>
<path d="M48.9301 33.8095L43.8784 34.7247L42.9463 35.6427C42.9463 35.6427 43.6008 27.2279 44.5896 25.5959C45.5756 23.9639 48.9301 33.8095 48.9301 33.8095Z" fill="#2F0E1B"/>
<path d="M41.8852 36.7703C41.8257 39.0851 43.6532 41.0117 45.9679 41.0712C48.2827 41.1307 50.2093 39.3032 50.2688 36.9885C50.3283 34.6737 48.5009 32.7471 46.1861 32.6876C43.8713 32.6281 41.9447 34.4555 41.8852 36.7703Z" fill="#FE9F73"/>
<path d="M46.7507 39.2237C47.6205 39.2463 48.2212 38.606 48.428 37.9572C48.6745 37.1894 48.4336 36.4301 47.816 36.0249C46.9037 35.4243 46.0509 35.7727 45.6146 36.0447C45.8072 35.5744 46.1019 35.2344 46.4872 35.0361C47.3258 34.6026 48.3402 34.9596 48.3515 34.9653C48.411 34.9879 48.479 34.9568 48.5017 34.8944C48.5243 34.8349 48.4932 34.7669 48.4308 34.7443C48.3855 34.7273 47.3117 34.3476 46.3824 34.8264C45.8469 35.1041 45.4729 35.6084 45.2746 36.3252L45.1641 36.7275L45.4672 36.4414C45.5097 36.4017 46.5325 35.4582 47.6913 36.2176C48.3316 36.6397 48.3713 37.3792 48.2098 37.8835C48.0427 38.4077 47.561 39.0083 46.762 38.9885C46.7535 38.9885 46.7479 38.9885 46.7394 38.9885C46.677 38.9857 46.6232 39.0367 46.6204 39.099C46.6175 39.1642 46.6685 39.218 46.7309 39.2208C46.7337 39.2237 46.7422 39.2237 46.7507 39.2237Z" fill="#FB554B"/>
<path d="M33.5252 41.5103C33.5734 41.5103 33.6216 41.482 33.6386 41.4338C33.6612 41.3743 33.6301 41.3063 33.5677 41.2837L31.253 40.4507L32.1341 34.9768C32.1454 34.9145 32.1001 34.8522 32.0378 34.8437C31.9726 34.8323 31.9131 34.8777 31.9046 34.94L30.9951 40.6037L33.4912 41.5018C33.5026 41.5103 33.5139 41.5103 33.5252 41.5103Z" fill="#FB554B"/>
<path d="M35.2788 43.8252C35.2079 43.8082 30.6719 43.5844 30.6719 43.5844C30.6719 43.5844 31.1932 45.477 32.879 45.5648C34.5619 45.6526 35.2788 43.8252 35.2788 43.8252Z" fill="#FBFDFA"/>
<path d="M48.9257 33.8097C48.9257 33.8097 50.552 25.6839 48.1324 22.5786C45.7128 19.4705 31.5097 13.7757 29.7304 15.2518C27.9539 16.7279 29.6425 18.6205 29.6425 18.6205C29.6425 18.6205 23.9335 16.6231 22.497 21.6975C21.0606 26.769 33.391 29.2651 40.8396 27.0665C40.8396 27.0637 45.6902 28.6163 48.9257 33.8097Z" fill="#2F0E1B"/>
<path d="M39.2266 78.4531C39.1189 78.4531 39.0112 78.4531 38.9036 78.4503C37.3425 78.439 35.77 78.3341 34.2372 78.1358C33.8547 78.0905 33.4496 78.0338 33.0076 77.963C23.1421 76.3934 14.3222 71.149 8.17681 63.2017C2.8276 56.2857 0 47.9955 0 39.2266C0 28.7491 4.07991 18.8979 11.4889 11.4889C18.8979 4.07991 28.7491 0 39.2266 0C49.704 0 59.5553 4.07991 66.9642 11.4889C74.3732 18.8979 78.4531 28.7491 78.4531 39.2266C78.4531 48.225 75.4895 56.688 69.8797 63.7032C63.502 71.6788 54.444 76.7985 44.3718 78.116C42.6917 78.3398 40.9605 78.4531 39.2266 78.4531ZM39.2266 2.65194C19.0594 2.65194 2.65194 19.0594 2.65194 39.2266C2.65194 47.4005 5.28688 55.1297 10.2763 61.5782C16.008 68.99 24.2301 73.8774 33.4269 75.3422C33.8377 75.4074 34.2089 75.4612 34.5659 75.5037C36.0023 75.6879 37.47 75.787 38.9404 75.7984C39.0452 75.8012 39.1359 75.8012 39.2266 75.8012C40.8444 75.8012 42.4593 75.6964 44.0233 75.4867C53.4156 74.2571 61.8615 69.4859 67.8057 62.0485C73.0331 55.5094 75.7984 47.6187 75.7984 39.2294C75.7984 19.0594 59.3938 2.65194 39.2266 2.65194Z" fill="white"/>
</svg>
