<svg width="24" height="25" viewBox="0 0 24 25" fill="none" xmlns="http://www.w3.org/2000/svg">
<mask id="path-1-inside-1_1365_3199" fill="white">
<path d="M16.6292 14.391L17.0852 13.938L16.0262 12.874L15.5722 13.327L16.6292 14.391ZM18.6142 13.748L20.5252 14.787L21.2402 13.469L19.3302 12.431L18.6142 13.748ZM20.8922 16.851L19.4722 18.264L20.5292 19.327L21.9492 17.915L20.8922 16.851ZM18.6062 18.718C17.1562 18.854 13.4062 18.733 9.34417 14.695L8.28617 15.758C12.7182 20.165 16.9372 20.381 18.7462 20.212L18.6062 18.718ZM9.34417 14.695C5.47317 10.845 4.83117 7.608 4.75117 6.203L3.25317 6.288C3.35317 8.056 4.14817 11.644 8.28617 15.758L9.34417 14.695ZM10.7192 8.515L11.0062 8.229L9.95017 7.166L9.66317 7.451L10.7192 8.515ZM11.2342 4.594L9.97417 2.91L8.77317 3.81L10.0332 5.493L11.2342 4.594ZM5.73317 2.543L4.16317 4.103L5.22117 5.167L6.79017 3.607L5.73317 2.543ZM10.1912 7.983C9.66117 7.451 9.66117 7.451 9.66117 7.453H9.65917L9.65617 7.457C9.60896 7.50519 9.56643 7.55776 9.52917 7.614C9.47517 7.694 9.41617 7.799 9.36617 7.932C9.2444 8.27531 9.21408 8.64441 9.27817 9.003C9.41217 9.868 10.0082 11.011 11.5342 12.529L12.5922 11.465C11.1632 10.045 10.8232 9.181 10.7602 8.773C10.7302 8.579 10.7612 8.483 10.7702 8.461C10.7752 8.447 10.7772 8.446 10.7702 8.455C10.7614 8.46887 10.7513 8.48192 10.7402 8.494L10.7302 8.504C10.7269 8.50711 10.7236 8.51011 10.7202 8.513L10.1912 7.983ZM11.5342 12.529C13.0612 14.047 14.2102 14.639 15.0762 14.771C15.5192 14.839 15.8762 14.785 16.1472 14.684C16.2987 14.6279 16.4405 14.5483 16.5672 14.448C16.5844 14.4336 16.6011 14.4186 16.6172 14.403L16.6242 14.397L16.6272 14.394L16.6282 14.392C16.6282 14.392 16.6292 14.391 16.1002 13.859C15.5702 13.327 15.5732 13.326 15.5732 13.326L15.5752 13.324L15.5772 13.322L15.5832 13.317L15.5932 13.307C15.6052 13.2962 15.6179 13.2862 15.6312 13.277C15.6412 13.27 15.6382 13.273 15.6242 13.279C15.5992 13.288 15.5012 13.319 15.3042 13.289C14.8902 13.225 14.0202 12.885 12.5922 11.465L11.5342 12.529ZM9.97417 2.909C8.95417 1.549 6.95017 1.333 5.73317 2.543L6.79017 3.607C7.32217 3.078 8.26617 3.133 8.77317 3.81L9.97417 2.909ZM4.75217 6.204C4.73217 5.858 4.89117 5.496 5.22117 5.168L4.16217 4.104C3.62517 4.638 3.20217 5.394 3.25317 6.288L4.75217 6.204ZM19.4722 18.264C19.1982 18.538 18.9022 18.692 18.6072 18.719L18.7462 20.212C19.4812 20.143 20.0822 19.773 20.5302 19.328L19.4722 18.264ZM11.0062 8.229C11.9912 7.25 12.0642 5.703 11.2352 4.595L10.0342 5.494C10.4372 6.033 10.3772 6.74 9.94917 7.167L11.0062 8.229ZM20.5262 14.788C21.3432 15.232 21.4702 16.278 20.8932 16.852L21.9512 17.915C23.2912 16.582 22.8782 14.359 21.2412 13.47L20.5262 14.788ZM17.0852 13.939C17.4692 13.557 18.0872 13.463 18.6152 13.749L19.3312 12.432C18.2472 11.842 16.9032 12.005 16.0272 12.875L17.0852 13.939Z"/>
</mask>
<path d="M16.6292 14.391L17.0852 13.938L16.0262 12.874L15.5722 13.327L16.6292 14.391ZM18.6142 13.748L20.5252 14.787L21.2402 13.469L19.3302 12.431L18.6142 13.748ZM20.8922 16.851L19.4722 18.264L20.5292 19.327L21.9492 17.915L20.8922 16.851ZM18.6062 18.718C17.1562 18.854 13.4062 18.733 9.34417 14.695L8.28617 15.758C12.7182 20.165 16.9372 20.381 18.7462 20.212L18.6062 18.718ZM9.34417 14.695C5.47317 10.845 4.83117 7.608 4.75117 6.203L3.25317 6.288C3.35317 8.056 4.14817 11.644 8.28617 15.758L9.34417 14.695ZM10.7192 8.515L11.0062 8.229L9.95017 7.166L9.66317 7.451L10.7192 8.515ZM11.2342 4.594L9.97417 2.91L8.77317 3.81L10.0332 5.493L11.2342 4.594ZM5.73317 2.543L4.16317 4.103L5.22117 5.167L6.79017 3.607L5.73317 2.543ZM10.1912 7.983C9.66117 7.451 9.66117 7.451 9.66117 7.453H9.65917L9.65617 7.457C9.60896 7.50519 9.56643 7.55776 9.52917 7.614C9.47517 7.694 9.41617 7.799 9.36617 7.932C9.2444 8.27531 9.21408 8.64441 9.27817 9.003C9.41217 9.868 10.0082 11.011 11.5342 12.529L12.5922 11.465C11.1632 10.045 10.8232 9.181 10.7602 8.773C10.7302 8.579 10.7612 8.483 10.7702 8.461C10.7752 8.447 10.7772 8.446 10.7702 8.455C10.7614 8.46887 10.7513 8.48192 10.7402 8.494L10.7302 8.504C10.7269 8.50711 10.7236 8.51011 10.7202 8.513L10.1912 7.983ZM11.5342 12.529C13.0612 14.047 14.2102 14.639 15.0762 14.771C15.5192 14.839 15.8762 14.785 16.1472 14.684C16.2987 14.6279 16.4405 14.5483 16.5672 14.448C16.5844 14.4336 16.6011 14.4186 16.6172 14.403L16.6242 14.397L16.6272 14.394L16.6282 14.392C16.6282 14.392 16.6292 14.391 16.1002 13.859C15.5702 13.327 15.5732 13.326 15.5732 13.326L15.5752 13.324L15.5772 13.322L15.5832 13.317L15.5932 13.307C15.6052 13.2962 15.6179 13.2862 15.6312 13.277C15.6412 13.27 15.6382 13.273 15.6242 13.279C15.5992 13.288 15.5012 13.319 15.3042 13.289C14.8902 13.225 14.0202 12.885 12.5922 11.465L11.5342 12.529ZM9.97417 2.909C8.95417 1.549 6.95017 1.333 5.73317 2.543L6.79017 3.607C7.32217 3.078 8.26617 3.133 8.77317 3.81L9.97417 2.909ZM4.75217 6.204C4.73217 5.858 4.89117 5.496 5.22117 5.168L4.16217 4.104C3.62517 4.638 3.20217 5.394 3.25317 6.288L4.75217 6.204ZM19.4722 18.264C19.1982 18.538 18.9022 18.692 18.6072 18.719L18.7462 20.212C19.4812 20.143 20.0822 19.773 20.5302 19.328L19.4722 18.264ZM11.0062 8.229C11.9912 7.25 12.0642 5.703 11.2352 4.595L10.0342 5.494C10.4372 6.033 10.3772 6.74 9.94917 7.167L11.0062 8.229ZM20.5262 14.788C21.3432 15.232 21.4702 16.278 20.8932 16.852L21.9512 17.915C23.2912 16.582 22.8782 14.359 21.2412 13.47L20.5262 14.788ZM17.0852 13.939C17.4692 13.557 18.0872 13.463 18.6152 13.749L19.3312 12.432C18.2472 11.842 16.9032 12.005 16.0272 12.875L17.0852 13.939Z" fill="#114F3C"/>
<path d="M9.34417 14.695L10.0539 15.3994L8.6354 13.9896L9.34417 14.695ZM6.79017 3.607L6.08174 4.31277L7.49961 2.90223L6.79017 3.607ZM16.8099 13.1546L16.2819 12.6226L14.8624 14.0314L15.3904 14.5634L16.8099 13.1546ZM15.8471 14.1111L16.3761 14.6431L17.7943 13.2329L17.2653 12.7009L15.8471 14.1111ZM18.0942 12.6122L17.7362 13.2722L19.4942 14.2258L19.8522 13.5658L18.0942 12.6122ZM20.0045 13.6506L19.6465 14.3096L21.4039 15.2644L21.7619 14.6054L20.0045 13.6506ZM20.7131 18.0881L21.2421 18.6201L22.6603 17.2099L22.1313 16.6779L20.7131 18.0881ZM20.7099 18.0886L20.1799 17.5576L18.7644 18.9704L19.2944 19.5014L20.7099 18.0886ZM17.6805 19.5583L17.7505 20.3053L19.7418 20.1187L19.6718 19.3717L17.6805 19.5583ZM9.52594 15.9314L10.0539 15.3994L8.6344 13.9906L8.1064 14.5226L9.52594 15.9314ZM3.94619 5.24757L3.19719 5.28957L3.30916 7.28643L4.05816 7.24443L3.94619 5.24757ZM9.76774 8.40277L10.2977 8.93477L11.7146 7.52322L11.1846 6.99122L9.76774 8.40277ZM11.2323 5.84364L11.8323 5.39464L10.634 3.79336L10.034 4.24236L11.2323 5.84364ZM8.77481 2.55952L8.17381 3.00952L9.37253 4.61048L9.97353 4.16048L8.77481 2.55952ZM5.55174 3.78077L6.08174 4.31277L7.49861 2.90122L6.96861 2.36922L5.55174 3.78077ZM5.39928 3.9299L4.87128 3.3989L3.45307 4.8091L3.98107 5.3401L5.39928 3.9299ZM12.7713 12.7021L13.3003 12.1701L11.8821 10.7599L11.3531 11.2919L12.7713 12.7021ZM8.6354 13.9896L7.5774 15.0526L8.99495 16.4634L10.0529 15.4004L8.6354 13.9896ZM7.49961 2.90223L6.44261 1.83823L5.02374 3.24777L6.08074 4.31177L7.49961 2.90223ZM12.2433 13.2341L13.3013 12.1701L11.8831 10.7599L10.8251 11.8239L12.2433 13.2341ZM16.1002 13.859L17.5184 12.4488L17.517 12.4475L16.1002 13.859ZM15.5722 13.327L14.1595 11.9112L12.7469 13.3208L14.1533 14.7365L15.5722 13.327ZM17.0852 13.938L18.4947 15.3569L19.9149 13.946L18.5027 12.5271L17.0852 13.938ZM18.6152 13.749L17.6626 15.5076L19.4185 16.4587L20.3723 14.7043L18.6152 13.749ZM20.5252 14.787L19.5699 16.5441L21.3286 17.5003L22.2832 15.7407L20.5252 14.787ZM21.9512 17.915L20.5336 19.3259L21.9441 20.743L23.3617 19.3329L21.9512 17.915ZM19.4722 18.264L18.0615 16.8463L18.058 16.8498L19.4722 18.264ZM18.7462 20.212L18.9322 22.2033L18.9331 22.2032L18.7462 20.212ZM9.34417 14.695L7.93381 16.1131L7.93416 16.1134L9.34417 14.695ZM6.79017 3.607L8.20031 5.02527L8.20038 5.0252L6.79017 3.607ZM4.16217 4.104L5.57971 2.69312L4.16946 1.27621L2.75193 2.68583L4.16217 4.104ZM16.6292 14.391L15.2103 15.8005L16.6198 17.2194L18.0387 15.8099L16.6292 14.391ZM16.0262 12.874L17.4437 11.4631L16.0311 10.0438L14.6135 11.4582L16.0262 12.874ZM18.6142 13.748L16.8571 12.7927L15.9018 14.5498L17.6589 15.5051L18.6142 13.748ZM21.2402 13.469L22.9982 14.4227L23.9511 12.666L22.1952 11.7117L21.2402 13.469ZM19.3302 12.431L20.2852 10.6737L18.5282 9.71889L17.5731 11.4757L19.3302 12.431ZM20.8922 16.851L22.311 15.4415L20.9003 14.0214L19.4815 15.4333L20.8922 16.851ZM20.5292 19.327L19.111 20.7372L20.5212 22.1554L21.9394 20.7452L20.5292 19.327ZM21.9492 17.915L23.3594 19.3332L24.7769 17.9237L23.368 16.5055L21.9492 17.915ZM18.6062 18.718L20.5975 18.5314L20.4108 16.54L18.4194 16.7267L18.6062 18.718ZM8.28617 15.758L9.69638 14.3398L9.69627 14.3397L8.28617 15.758ZM4.75117 6.203L6.74794 6.0893L6.63427 4.09293L4.63787 4.20621L4.75117 6.203ZM10.7192 8.515L9.29963 9.92387L10.7114 11.3463L12.1309 9.93168L10.7192 8.515ZM9.95017 7.166L11.3691 5.75646L9.95979 4.33786L8.54091 5.74685L9.95017 7.166ZM9.66317 7.451L8.25391 6.03185L6.83516 7.44072L8.24363 8.85986L9.66317 7.451ZM11.2342 4.594L12.4327 6.19512L14.0335 4.99686L12.8355 3.39582L11.2342 4.594ZM9.97417 2.91L11.5755 1.71182L10.3765 0.109269L8.77481 1.30952L9.97417 2.91ZM10.0332 5.493L8.43215 6.69163L9.63068 8.29253L11.2317 7.09412L10.0332 5.493ZM5.73317 2.543L7.14286 3.96172L7.1433 3.96128L5.73317 2.543ZM4.16317 4.103L2.75349 2.68427L1.33424 4.09448L2.74497 5.51321L4.16317 4.103ZM5.22117 5.167L3.80297 6.57721L5.21311 7.99534L6.63131 6.58527L5.22117 5.167ZM10.1912 7.983L8.7743 9.39455L8.77563 9.39588L10.1912 7.983ZM9.66117 7.453V9.453H11.6612V7.453H9.66117ZM9.65917 7.453V5.453H8.65927L8.05927 6.25288L9.65917 7.453ZM9.65617 7.457L11.0847 8.8567L11.177 8.76256L11.2561 8.65712L9.65617 7.457ZM9.52917 7.614L11.1869 8.73294L11.1917 8.72579L11.1965 8.71859L9.52917 7.614ZM9.36617 7.932L7.49409 7.22821L7.4875 7.24576L7.48123 7.26343L9.36617 7.932ZM9.27817 9.003L11.2546 8.69682L11.251 8.67391L11.247 8.65108L9.27817 9.003ZM11.5342 12.529L10.1237 13.9469L10.1241 13.9474L11.5342 12.529ZM12.5922 11.465L14.0024 10.0468L14.0019 10.0463L12.5922 11.465ZM10.7602 8.773L12.7367 8.46779L12.7367 8.46735L10.7602 8.773ZM10.7702 8.461L12.6213 9.21826L12.6384 9.17633L12.6537 9.13367L10.7702 8.461ZM10.7702 8.455L9.19147 7.22712L9.13335 7.30185L9.08254 7.38173L10.7702 8.455ZM10.7402 8.494L12.1544 9.90825L12.183 9.87963L12.2104 9.84987L10.7402 8.494ZM10.7302 8.504L12.1166 9.94543L12.1306 9.93197L12.1444 9.91825L10.7302 8.504ZM10.7202 8.513L9.30463 9.92588L10.6025 11.2262L12.0081 10.0431L10.7202 8.513ZM15.0762 14.771L15.3796 12.7942L15.3775 12.7938L15.0762 14.771ZM16.1472 14.684L15.453 12.8083L15.4487 12.8099L16.1472 14.684ZM16.5672 14.448L17.8082 16.0164L17.8294 15.9996L17.85 15.9824L16.5672 14.448ZM16.6172 14.403L15.3156 12.8844L15.2696 12.9239L15.226 12.9662L16.6172 14.403ZM16.6242 14.397L17.9257 15.9156L17.9841 15.8655L18.0384 15.8112L16.6242 14.397ZM16.6272 14.394L18.0414 15.8082L18.271 15.5786L18.4162 15.2881L16.6272 14.394ZM16.6282 14.392L15.214 12.9777L14.9844 13.2074L14.8391 13.4979L16.6282 14.392ZM15.5732 13.326L16.2057 15.2233L16.6536 15.074L16.9874 14.7402L15.5732 13.326ZM15.5752 13.324L16.9894 14.7382L16.9897 14.7379L15.5752 13.324ZM15.5772 13.322L14.297 11.7854L14.227 11.8437L14.1626 11.9081L15.5772 13.322ZM15.5832 13.317L16.8633 14.8536L16.9331 14.7955L16.9974 14.7312L15.5832 13.317ZM15.5932 13.307L14.2571 11.8187L14.2171 11.8547L14.179 11.8928L15.5932 13.307ZM15.6312 13.277L16.7688 14.922L16.7781 14.9155L15.6312 13.277ZM15.6242 13.279L16.3016 15.1608L16.3575 15.1407L16.412 15.1173L15.6242 13.279ZM15.3042 13.289L14.9986 15.2655L15.0031 15.2662L15.3042 13.289ZM9.97417 2.909L11.1744 4.50884L12.774 3.30879L11.5742 1.709L9.97417 2.909ZM4.75217 6.204L4.86407 8.20087L6.86446 8.08877L6.74884 6.08858L4.75217 6.204ZM5.22117 5.168L6.63108 6.5865L8.05056 5.17563L6.63871 3.75712L5.22117 5.168ZM18.6072 18.719L18.4249 16.7273L16.4301 16.9099L16.6158 18.9044L18.6072 18.719ZM20.5302 19.328L21.9396 20.747L23.3593 19.3367L21.9484 17.9178L20.5302 19.328ZM11.2352 4.595L12.8366 3.39685L11.6381 1.7951L10.0367 2.99388L11.2352 4.595ZM10.0342 5.494L8.83567 3.89288L7.23543 5.09072L8.43239 6.69162L10.0342 5.494ZM9.94917 7.167L8.53662 5.75113L7.12243 7.16201L8.53163 8.57787L9.94917 7.167ZM20.5262 14.788L18.7682 13.8343L17.8152 15.591L19.5712 16.5453L20.5262 14.788ZM20.8932 16.852L19.4827 15.4341L18.0644 16.845L19.4756 18.2629L20.8932 16.852ZM21.2412 13.47L22.1956 11.7124L20.4373 10.7576L19.4832 12.5163L21.2412 13.47ZM17.0852 13.939L15.667 15.3492L17.0775 16.7677L18.4957 15.3569L17.0852 13.939ZM19.3312 12.432L21.0883 13.3873L22.0431 11.631L20.2873 10.6753L19.3312 12.432ZM16.0272 12.875L14.6178 11.4559L13.1979 12.8661L14.609 14.2852L16.0272 12.875ZM18.0387 15.8099L18.4947 15.3569L15.6756 12.5191L15.2196 12.9721L18.0387 15.8099ZM18.5027 12.5271L17.4437 11.4631L14.6086 14.2849L15.6676 15.3489L18.5027 12.5271ZM14.6135 11.4582L14.1595 11.9112L16.9848 14.7428L17.4388 14.2898L14.6135 11.4582ZM14.1533 14.7365L15.2103 15.8005L18.048 12.9815L16.991 11.9175L14.1533 14.7365ZM17.6589 15.5051L19.5699 16.5441L21.4805 13.0299L19.5695 11.9909L17.6589 15.5051ZM22.2832 15.7407L22.9982 14.4227L19.4822 12.5153L18.7672 13.8333L22.2832 15.7407ZM22.1952 11.7117L20.2852 10.6737L18.3752 14.1883L20.2852 15.2263L22.1952 11.7117ZM17.5731 11.4757L16.8571 12.7927L20.3713 14.7033L21.0873 13.3863L17.5731 11.4757ZM19.4815 15.4333L18.0615 16.8463L20.8829 19.6817L22.3029 18.2687L19.4815 15.4333ZM18.054 19.6742L19.111 20.7372L21.9474 17.9168L20.8904 16.8538L18.054 19.6742ZM21.9394 20.7452L23.3594 19.3332L20.539 16.4968L19.119 17.9088L21.9394 20.7452ZM23.368 16.5055L22.311 15.4415L19.4733 18.2605L20.5303 19.3245L23.368 16.5055ZM18.4194 16.7267C17.4503 16.8176 14.3227 16.8241 10.7542 13.2766L7.93416 16.1134C12.4896 20.6419 16.8621 20.8904 18.7929 20.7093L18.4194 16.7267ZM6.87597 17.1762C11.8023 22.0747 16.6442 22.4171 18.9322 22.2033L18.5601 18.2207C17.2301 18.3449 13.6341 18.2553 9.69638 14.3398L6.87597 17.1762ZM20.7374 20.0254L20.5975 18.5314L16.6149 18.9046L16.7549 20.3986L20.7374 20.0254ZM10.7545 13.2769C7.23853 9.78001 6.80035 7.00983 6.74794 6.0893L2.75441 6.31669C2.86199 8.20617 3.70781 11.91 7.93381 16.1131L10.7545 13.2769ZM4.63787 4.20621L3.13987 4.29121L3.36648 8.28479L4.86448 8.19979L4.63787 4.20621ZM1.25636 6.40094C1.3838 8.65405 2.38291 12.7092 6.87608 17.1763L9.69627 14.3397C5.91344 10.5788 5.32254 7.45794 5.24998 6.17506L1.25636 6.40094ZM12.1309 9.93168L12.4179 9.64568L9.59443 6.81232L9.30743 7.09832L12.1309 9.93168ZM12.4251 6.81946L11.3691 5.75646L8.5313 8.57553L9.5873 9.63853L12.4251 6.81946ZM8.54091 5.74685L8.25391 6.03185L11.0724 8.87015L11.3594 8.58515L8.54091 5.74685ZM8.24363 8.85986L9.29963 9.92387L12.1387 7.10613L11.0827 6.04213L8.24363 8.85986ZM12.8355 3.39582L11.5755 1.71182L8.37281 4.10817L9.63281 5.79217L12.8355 3.39582ZM8.77481 1.30952L7.57381 2.20952L9.97253 5.41048L11.1735 4.51048L8.77481 1.30952ZM7.17215 5.00863L8.43215 6.69163L11.6342 4.29437L10.3742 2.61137L7.17215 5.00863ZM11.2317 7.09412L12.4327 6.19512L10.0357 2.99288L8.83467 3.89188L11.2317 7.09412ZM4.32348 1.12427L2.75349 2.68427L5.57286 5.52172L7.14286 3.96172L4.32348 1.12427ZM2.74497 5.51321L3.80297 6.57721L6.63938 3.75679L5.58138 2.69279L2.74497 5.51321ZM6.63131 6.58527L8.20031 5.02527L5.38003 2.18872L3.81103 3.74872L6.63131 6.58527ZM11.608 6.57145C11.3441 6.30648 11.2096 6.17152 11.1416 6.10353C11.1117 6.07356 11.0834 6.04532 11.0618 6.02444C11.0555 6.01828 11.0436 6.00678 11.029 5.99316C11.0212 5.98595 10.9819 5.94902 10.9293 5.90598C10.9058 5.88671 10.8415 5.83456 10.7529 5.77692C10.7345 5.76488 10.4241 5.54698 9.96707 5.47629C9.68955 5.43335 9.20004 5.42064 8.68878 5.70512C8.16118 5.99869 7.90562 6.4434 7.79242 6.74031C7.68988 7.00923 7.67162 7.23551 7.66628 7.31015C7.66275 7.35949 7.6618 7.39882 7.66145 7.41955C7.66127 7.43066 7.66121 7.43959 7.66119 7.44479C7.66118 7.44685 7.66118 7.44993 7.66117 7.45096C7.66117 7.45198 7.66117 7.45299 7.66117 7.453H11.6612C11.6612 7.43635 11.6621 7.51104 11.6561 7.59566C11.6507 7.67025 11.6325 7.89648 11.53 8.16536C11.4168 8.46223 11.1612 8.9069 10.6337 9.20045C10.1224 9.48491 9.63299 9.47219 9.35553 9.42926C8.89868 9.35859 8.58847 9.14078 8.57028 9.12893C8.48204 9.07148 8.41812 9.01962 8.3951 9.00077C8.34358 8.95859 8.30576 8.92304 8.30036 8.91799C8.28808 8.90654 8.27928 8.89801 8.27708 8.89587C8.27211 8.89105 8.27694 8.89569 8.31321 8.93196C8.37773 8.99648 8.50827 9.12751 8.7743 9.39455L11.608 6.57145ZM9.66117 5.453H9.65917V9.453H9.66117V5.453ZM8.05927 6.25288L8.05627 6.25688L11.2561 8.65712L11.2591 8.65312L8.05927 6.25288ZM8.2276 6.05729C8.09163 6.19606 7.96918 6.34745 7.86188 6.5094L11.1965 8.71859C11.1637 8.76806 11.1263 8.81431 11.0847 8.8567L8.2276 6.05729ZM7.87148 6.49505C7.74029 6.6894 7.60518 6.93272 7.49409 7.22821L11.2383 8.63579C11.2272 8.66528 11.2101 8.69859 11.1869 8.73294L7.87148 6.49505ZM7.48123 7.26343C7.24343 7.93387 7.18421 8.65465 7.30938 9.35492L11.247 8.65108C11.2439 8.63417 11.2454 8.61676 11.2511 8.60056L7.48123 7.26343ZM7.30175 9.30917C7.53037 10.785 8.46756 12.2995 10.1237 13.9469L12.9447 11.1111C11.5488 9.72251 11.294 8.95102 11.2546 8.69682L7.30175 9.30917ZM14.0019 10.0463C12.7037 8.75631 12.7053 8.26428 12.7367 8.46779L8.7836 9.0782C8.94102 10.0977 9.62263 11.3337 11.1824 12.8837L14.0019 10.0463ZM12.7367 8.46735C12.7547 8.5837 12.7674 8.86102 12.6213 9.21826L8.91908 7.70373C8.75493 8.10498 8.70567 8.57429 8.78367 9.07864L12.7367 8.46735ZM12.6537 9.13367C12.6428 9.16402 12.633 9.18902 12.626 9.20605C12.6246 9.20963 12.6235 9.21236 12.6232 9.21291C12.6222 9.2153 12.6243 9.21024 12.626 9.20615C12.6273 9.20303 12.634 9.18667 12.642 9.1658C12.645 9.15783 12.672 9.08869 12.6977 8.99881C12.708 8.96272 12.7429 8.83995 12.7616 8.67813C12.7707 8.59917 12.7855 8.43447 12.7624 8.22748C12.7431 8.05465 12.6718 7.59646 12.3036 7.15982C11.8432 6.61389 11.1979 6.42007 10.6545 6.45279C10.2197 6.47897 9.91097 6.64054 9.79679 6.70453C9.55254 6.84144 9.39608 6.99975 9.37058 7.02489C9.27846 7.11569 9.21457 7.19765 9.2111 7.20201C9.19335 7.22424 9.17987 7.24215 9.17698 7.24598C9.15658 7.27304 9.18155 7.23987 9.19147 7.22712L12.3489 9.68288C12.3623 9.66563 12.3896 9.62921 12.3707 9.65436C12.3681 9.65772 12.355 9.67523 12.3375 9.69716C12.3342 9.70121 12.2705 9.78294 12.1786 9.87361C12.1531 9.89868 11.9967 10.057 11.7525 10.1938C11.6384 10.2578 11.3297 10.4194 10.8949 10.4456C10.3515 10.4783 9.70617 10.2845 9.24579 9.73854C8.87757 9.30191 8.80631 8.84373 8.78703 8.67092C8.76395 8.46395 8.77875 8.29929 8.78784 8.22035C8.80648 8.0586 8.84134 7.93592 8.85162 7.89994C8.87724 7.81028 8.90415 7.74144 8.90706 7.73387C8.9149 7.7134 8.9214 7.69754 8.92243 7.695C8.92386 7.6915 8.92567 7.68711 8.92437 7.69027C8.92383 7.69159 8.92235 7.69519 8.9205 7.69973C8.91201 7.7206 8.90003 7.75098 8.88669 7.78833L12.6537 9.13367ZM9.08254 7.38173C9.13765 7.29508 9.20037 7.21356 9.26993 7.13813L12.2104 9.84987C12.3023 9.75028 12.3851 9.64265 12.4578 9.52826L9.08254 7.38173ZM9.32599 7.07975L9.31599 7.08975L12.1444 9.91825L12.1544 9.90825L9.32599 7.07975ZM9.34372 7.06256C9.37226 7.03511 9.40178 7.00853 9.43224 6.98289L12.0081 10.0431C12.0454 10.0117 12.0816 9.97911 12.1166 9.94543L9.34372 7.06256ZM12.1357 7.10012L11.6067 6.57012L8.77563 9.39588L9.30463 9.92588L12.1357 7.10012ZM10.1241 13.9474C11.782 15.5954 13.302 16.5237 14.7748 16.7482L15.3775 12.7938C15.1183 12.7543 14.3404 12.4986 12.9442 11.1106L10.1241 13.9474ZM14.7727 16.7478C15.5426 16.866 16.2452 16.7819 16.8456 16.5581L15.4487 12.8099C15.4741 12.8005 15.4858 12.7999 15.4797 12.8006C15.4737 12.8011 15.4418 12.8037 15.3796 12.7942L14.7727 16.7478ZM16.8413 16.5597C17.1902 16.4306 17.5165 16.2472 17.8082 16.0164L15.3261 12.8796C15.3644 12.8493 15.4072 12.8253 15.453 12.8083L16.8413 16.5597ZM17.85 15.9824C17.9045 15.9368 17.9573 15.8893 18.0084 15.8398L15.226 12.9662C15.2448 12.9479 15.2643 12.9304 15.2843 12.9136L17.85 15.9824ZM17.9187 15.9216L17.9257 15.9156L15.3226 12.8784L15.3156 12.8844L17.9187 15.9216ZM18.0384 15.8112L18.0414 15.8082L15.213 12.9798L15.21 12.9828L18.0384 15.8112ZM18.4162 15.2881L18.4172 15.2861L14.8391 13.4979L14.8381 13.4999L18.4162 15.2881ZM16.6282 14.392C18.0423 15.8063 18.337 15.4312 18.5345 14.9969C18.5689 14.8751 18.6216 14.5543 18.6278 14.3556C18.6224 14.0547 18.5495 13.8273 18.516 13.7316C18.445 13.5286 18.3565 13.3847 18.3337 13.3474C18.2709 13.2449 18.2122 13.1709 18.2004 13.1559C18.1621 13.1072 18.1297 13.0708 18.1236 13.064C18.1028 13.0405 18.0857 13.0224 18.0821 13.0186C18.0704 13.0062 18.0598 12.9953 18.0541 12.9894C18.0405 12.9754 18.0198 12.9543 17.9861 12.9201C17.9174 12.8506 17.7833 12.7152 17.5184 12.4488L14.682 15.2692C14.9461 15.5348 15.0759 15.6659 15.139 15.7299C15.1712 15.7624 15.1833 15.7748 15.186 15.7776C15.1885 15.7802 15.182 15.7735 15.1723 15.7632C15.1697 15.7605 15.1531 15.7429 15.1325 15.7198C15.1265 15.713 15.0941 15.6768 15.0559 15.6281C15.0441 15.6131 14.9854 15.5391 14.9226 15.4365C14.8998 15.3993 14.8114 15.2554 14.7404 15.0524C14.7069 14.9566 14.634 14.7292 14.6285 14.4284C14.6348 14.2297 14.6874 13.9089 14.7218 13.7871C14.9193 13.3528 15.214 12.9777 16.6282 14.392ZM17.517 12.4475C17.2528 12.1822 17.1254 12.0534 17.0654 11.9922C17.0342 11.9604 17.0268 11.9526 17.0298 11.9557C17.031 11.957 17.0345 11.9607 17.0393 11.9659C17.0435 11.9703 17.053 11.9806 17.0653 11.9943C17.0703 11.9999 17.1061 12.0396 17.148 12.0932C17.1579 12.1058 17.2303 12.1966 17.3039 12.3237C17.3229 12.3565 17.4513 12.5706 17.5218 12.8757C17.5547 13.0179 17.6329 13.4124 17.4914 13.8919C17.4132 14.1571 17.2663 14.4502 17.0163 14.7107C16.8915 14.83 16.6886 14.9861 16.6183 15.0312C16.4175 15.1391 16.2057 15.2233 15.5732 13.326C14.9406 11.4287 14.7289 11.5129 14.5281 11.6208C14.4578 11.6659 14.2548 11.822 14.13 11.9413C13.8801 12.2018 13.7331 12.4949 13.6549 12.7601C13.5135 13.2396 13.5917 13.6341 13.6245 13.7763C13.695 14.0814 13.8235 14.2956 13.8425 14.3284C13.9161 14.4554 13.9885 14.5463 13.9985 14.5591C14.0407 14.6129 14.0769 14.6532 14.0829 14.6599C14.1056 14.6853 14.1252 14.7059 14.1322 14.7132C14.1512 14.7332 14.1761 14.7589 14.2104 14.7938C14.2814 14.8661 14.4175 15.0038 14.6833 15.2705L17.517 12.4475ZM16.9874 14.7402L16.9894 14.7382L14.161 11.9098L14.159 11.9118L16.9874 14.7402ZM16.9897 14.7379L16.9917 14.7359L14.1626 11.9081L14.1606 11.9101L16.9897 14.7379ZM16.8573 14.8586L16.8633 14.8536L14.303 11.7804L14.297 11.7854L16.8573 14.8586ZM16.9974 14.7312L17.0074 14.7212L14.179 11.8928L14.169 11.9028L16.9974 14.7312ZM16.9292 14.7953C16.8785 14.8408 16.8249 14.8831 16.7688 14.922L14.4936 11.632C14.4109 11.6892 14.3319 11.7516 14.2571 11.8187L16.9292 14.7953ZM16.7781 14.9155C16.763 14.926 16.7498 14.9348 16.7523 14.9332C16.7531 14.9326 16.7556 14.931 16.7587 14.9289C16.7614 14.927 16.7676 14.9228 16.7754 14.9174C16.7816 14.9131 16.7984 14.9015 16.8195 14.886C16.8218 14.8843 16.8983 14.8295 16.9846 14.7508C17.011 14.7268 17.0565 14.6841 17.1091 14.6269C17.149 14.5835 17.2596 14.4611 17.3652 14.2796C17.4015 14.2174 17.8073 13.5655 17.5561 12.7096C17.2173 11.5556 16.1724 11.3259 15.896 11.2898C15.5756 11.248 15.3245 11.2964 15.2605 11.3087C15.1592 11.3281 15.0806 11.3515 15.0402 11.3641C14.9579 11.3898 14.8955 11.4153 14.873 11.4246C14.8213 11.446 14.7818 11.465 14.7733 11.4691C14.7585 11.4762 14.7469 11.4819 14.7423 11.4843C14.7224 11.4942 14.7773 11.466 14.8363 11.4407L16.412 15.1173C16.485 15.086 16.5485 15.0533 16.5311 15.062C16.5266 15.0642 16.5152 15.0699 16.5005 15.077C16.4921 15.081 16.4526 15.1 16.401 15.1213C16.3785 15.1306 16.3161 15.1561 16.2338 15.1818C16.1935 15.1944 16.1149 15.2178 16.0136 15.2372C15.9496 15.2495 15.6985 15.2979 15.3781 15.2561C15.1017 15.22 14.0568 14.9903 13.718 13.8363C13.4668 12.9804 13.8726 12.3285 13.9089 12.2663C14.0146 12.0849 14.1251 11.9624 14.165 11.919C14.2176 11.8618 14.2631 11.8191 14.2895 11.7951C14.3757 11.7165 14.4522 11.6617 14.4544 11.6601C14.4755 11.6447 14.4922 11.6331 14.4982 11.6289C14.5058 11.6236 14.5119 11.6195 14.5145 11.6177C14.5174 11.6158 14.5196 11.6143 14.5203 11.6138C14.5209 11.6134 14.5043 11.6245 14.4842 11.6385L16.7781 14.9155ZM14.9467 11.3972C15.0668 11.354 15.1983 11.3214 15.3334 11.3082C15.459 11.2959 15.5524 11.3037 15.6053 11.3118L15.0031 15.2662C15.5306 15.3465 15.9649 15.282 16.3016 15.1608L14.9467 11.3972ZM15.6097 11.3125C15.7984 11.3417 15.2978 11.335 14.0024 10.0468L11.1819 12.8832C12.7425 14.435 13.9819 15.1083 14.9986 15.2655L15.6097 11.3125ZM11.5742 1.709C9.87582 -0.555479 6.46013 -1.00009 4.32304 1.12471L7.1433 3.96128C7.44021 3.66608 8.03253 3.65347 8.37417 4.109L11.5742 1.709ZM8.20038 5.0252C7.82702 5.39646 7.35659 5.25491 7.17232 5.00886L10.374 2.61113C9.17576 1.01109 6.81733 0.759533 5.37996 2.18879L8.20038 5.0252ZM9.97339 5.40984L11.1744 4.50884L8.77396 1.30916L7.57296 2.21016L9.97339 5.40984ZM6.74884 6.08858C6.77087 6.46974 6.58196 6.63533 6.63108 6.5865L3.81127 3.74949C3.20039 4.35667 2.69347 5.24626 2.75551 6.31941L6.74884 6.08858ZM6.63871 3.75712L5.57971 2.69312L2.74463 5.51488L3.80363 6.57888L6.63871 3.75712ZM2.75193 2.68583C1.94146 3.49177 1.16355 4.77401 1.25642 6.40191L5.24993 6.17409C5.24079 6.01399 5.30889 5.78423 5.57242 5.52217L2.75193 2.68583ZM3.36507 8.28487L4.86407 8.20087L4.64027 4.20713L3.14127 4.29113L3.36507 8.28487ZM18.058 16.8498C18.0192 16.8885 18.1358 16.7538 18.4249 16.7273L18.7895 20.7107C19.6685 20.6302 20.3771 20.1875 20.8864 19.6782L18.058 16.8498ZM16.6158 18.9044L16.7548 20.3974L20.7376 20.0266L20.5986 18.5336L16.6158 18.9044ZM18.9331 22.2032C20.2516 22.0795 21.2617 21.4204 21.9396 20.747L19.1207 17.909C18.9027 18.1256 18.7108 18.2065 18.5592 18.2208L18.9331 22.2032ZM21.9484 17.9178L20.8904 16.8538L18.054 19.6742L19.112 20.7382L21.9484 17.9178ZM12.4161 9.64753C14.1449 7.92926 14.231 5.26063 12.8366 3.39685L9.63379 5.79315C9.89732 6.14537 9.83749 6.57073 9.59629 6.81047L12.4161 9.64753ZM10.0367 2.99388L8.83567 3.89288L11.2327 7.09512L12.4337 6.19612L10.0367 2.99388ZM8.43239 6.69162C8.26385 6.4662 8.23182 6.05522 8.53662 5.75113L11.3617 8.58286C12.5225 7.42478 12.6105 5.5998 11.636 4.29638L8.43239 6.69162ZM8.53163 8.57787L9.58863 9.63987L12.4237 6.81813L11.3667 5.75613L8.53163 8.57787ZM19.5712 16.5453C19.2713 16.3823 19.0633 15.8513 19.4827 15.4341L22.3037 18.2699C23.877 16.7047 23.4151 14.0817 21.4812 13.0307L19.5712 16.5453ZM19.4756 18.2629L20.5336 19.3259L23.3687 16.5041L22.3107 15.4411L19.4756 18.2629ZM23.3617 19.3329C25.7269 16.9801 24.9134 13.1884 22.1956 11.7124L20.2867 15.2276C20.8429 15.5296 20.8555 16.1839 20.5407 16.4971L23.3617 19.3329ZM19.4832 12.5163L18.7682 13.8343L22.2842 15.7417L22.9992 14.4237L19.4832 12.5163ZM18.4957 15.3569C18.2262 15.625 17.8766 15.6235 17.6626 15.5076L19.5677 11.9904C18.2978 11.3025 16.7122 11.489 15.6747 12.5211L18.4957 15.3569ZM20.3723 14.7043L21.0883 13.3873L17.5741 11.4767L16.8581 12.7937L20.3723 14.7043ZM20.2873 10.6753C18.4625 9.68215 16.1494 9.93485 14.6178 11.4559L17.4365 14.2941C17.6569 14.0751 18.0318 14.0018 18.3751 14.1887L20.2873 10.6753ZM14.609 14.2852L15.667 15.3492L18.5034 12.5288L17.4454 11.4648L14.609 14.2852Z" fill="#114F3C" mask="url(#path-1-inside-1_1365_3199)"/>
</svg>
