<svg width="160" height="160" viewBox="0 0 160 160" fill="none" xmlns="http://www.w3.org/2000/svg">
<path d="M27.4425 105.989C25.634 106.591 24.4655 104.105 26.0827 103.097L39.6505 94.6358C57.1702 83.7106 64.9213 62.2036 58.3993 42.6138L53.3485 27.4428C52.7465 25.6341 55.232 24.4655 56.2408 26.083L64.7017 39.6508C75.6268 57.1703 97.1338 64.9214 116.724 58.3995L131.895 53.3486C133.703 52.7466 134.872 55.2321 133.254 56.2409L119.687 64.7018C102.167 75.6269 94.416 97.1339 100.938 116.724L105.989 131.895C106.591 133.703 104.105 134.872 103.097 133.255L94.6357 119.687C83.7105 102.167 62.2035 94.4161 42.6136 100.938L27.4425 105.989Z" fill="#114F3C"/>
<path d="M68.719 77.231C68.9691 77.8418 68.6177 78.9365 67.7848 79.2775L65.4527 80.2323L69.734 90.6898L68.7161 91.1066C67.8276 91.4703 66.9449 91.1618 66.4827 90.0327L62.8984 81.278L59.2522 82.7708L58.9112 81.9379C58.6611 81.3271 58.8426 80.3452 59.8791 79.9208L68.3932 76.4351L68.719 77.231ZM81.3457 81.9595C82.2096 84.0695 81.2535 86.1682 79.0324 87.0775L78.5326 87.2821C76.1635 88.2521 73.9891 87.5863 73.2389 85.7539C72.5115 83.977 73.2539 82.0954 76.9187 80.5951L77.7886 80.2389L77.7356 80.1094C77.1597 78.7027 76.3191 78.5498 74.8384 79.156C73.043 79.891 72.3239 80.985 72.1432 81.5993L72.0506 81.6372L71.7248 80.8413C71.2701 79.7308 71.724 77.989 74.3523 76.9129C76.5733 76.0036 78.9966 76.2217 80.4061 79.6644L81.3457 81.9595ZM78.9286 82.9707L78.5346 82.0082L77.6462 82.3719C75.7583 83.1448 75.4034 83.8088 75.7368 84.6232C76.055 85.4006 76.8738 85.6057 77.9658 85.1586C79.0393 84.7191 79.3454 83.9886 78.9286 82.9707ZM92.0723 75.3636C93.3832 78.5656 92.7387 81.5309 89.8328 82.7206C88.7223 83.1753 87.5577 82.9173 86.7094 82.2705C87.2777 83.6586 88.5129 86.6756 88.5129 86.6756L87.7355 86.9938C86.8471 87.3576 85.7304 87.0583 85.2909 85.9848L82.8206 79.9509C81.4642 76.6378 82.0053 73.7365 85.522 72.2967C88.1687 71.2131 91.0417 72.8464 92.0723 75.3636ZM89.7833 77.0571C88.8209 74.7065 87.6268 74.0068 86.035 74.6584C84.6654 75.2192 84.3915 76.7144 85.0962 78.4358C85.9146 80.4347 87.3578 81.1622 88.8385 80.5559C90.0416 80.0634 90.435 78.6489 89.7833 77.0571ZM94.5553 67.5395L97.1437 74.3895L96.3848 74.7002C95.4964 75.0639 94.7247 74.7099 94.3046 73.7365L91.3461 67.038L92.4751 66.5758C93.3636 66.2121 94.1722 66.5509 94.5553 67.5395ZM98.9021 76.8897C99.2582 77.7596 98.8319 78.777 97.962 79.1331C97.0921 79.4893 96.0747 79.063 95.7185 78.193C95.3624 77.3231 95.7887 76.3058 96.6586 75.9496C97.5285 75.5934 98.5459 76.0198 98.9021 76.8897Z" fill="white"/>
</svg>
