<svg width="150" height="29" viewBox="0 0 150 29" fill="none" xmlns="http://www.w3.org/2000/svg">
<g style="mix-blend-mode:luminosity" opacity="0.5" clip-path="url(#clip0_1587_2351)">
<path d="M13.8401 0.75H6.06327L5.00879 2.71429H13.8401C20.3647 2.71429 25.703 8.01786 25.703 14.5C25.703 20.9821 20.3647 26.2857 13.8401 26.2857C7.31547 26.2857 1.97715 20.9821 1.97715 14.5C1.97715 13.256 2.17487 12.0119 2.5703 10.8988H4.81107C3.22935 14.8274 4.41564 19.3452 7.7109 22.0298C11.0062 24.7143 15.7513 24.9107 19.2443 22.5536C22.8032 20.1964 24.3849 15.744 23.1327 11.6845C21.8805 7.625 18.1239 4.80952 13.8401 4.80952H3.8225L2.76801 6.77381H13.8401C17.333 6.77381 20.3647 9.06548 21.2873 12.4048C22.21 15.744 20.7601 19.2798 17.7944 21.0476C14.8286 22.8155 11.0062 22.4226 8.43585 20C5.93146 17.6429 5.27241 13.8452 6.92003 10.7679H9.49033C5.60193 15.3512 10.6766 21.9643 16.1467 19.4762C21.6169 16.9881 19.8374 8.80357 13.7742 8.80357H1.58172L0.527241 10.7679C0.13181 12.0774 0 13.256 0 14.5C0 22.0952 6.19508 28.25 13.8401 28.25C21.4851 28.25 27.6801 22.0952 27.6801 14.5C27.6801 6.90476 21.4851 0.75 13.8401 0.75ZM13.8401 10.8988C15.8831 10.8988 17.5308 12.4702 17.5308 14.5C17.5308 16.5298 15.8831 18.1667 13.8401 18.1012C9.029 18.0357 9.029 10.9643 13.8401 10.8988ZM33.7434 14.7619C33.7434 10.9643 36.3137 8.27976 40.2021 8.27976C42.5747 8.27976 44.5518 9.32738 45.5404 11.0952L43.2996 12.6667C42.5747 11.5536 41.5202 11.0298 40.268 11.0298C38.159 11.0298 36.775 12.4702 36.775 14.8274C36.775 17.119 38.159 18.625 40.268 18.625C41.5202 18.625 42.5747 18.0357 43.2996 16.9881L45.5404 18.5595C44.4859 20.3274 42.5747 21.3095 40.2021 21.3095C36.3137 21.244 33.7434 18.5595 33.7434 14.7619ZM46.0018 14.7619C46.0018 11.1607 48.5721 8.27976 52.5264 8.27976C56.5466 8.27976 59.051 11.2262 59.051 14.7619C59.051 18.2976 56.5466 21.244 52.5264 21.244C48.5721 21.244 46.0018 18.3631 46.0018 14.7619ZM56.0193 14.7619C56.0193 12.5357 54.7012 10.9643 52.5264 10.9643C50.4174 10.9643 49.0334 12.5357 49.0334 14.7619C49.0334 16.9881 50.3515 18.5595 52.5264 18.5595C54.6353 18.5595 56.0193 16.9881 56.0193 14.7619ZM78.493 8.60714L74.6705 20.9167H71.4411L68.739 12.2083L66.0369 20.9167H62.8076L59.1169 8.60714H62.0826L64.6529 17.5119L67.4209 8.60714H70.2548L73.0229 17.5119L75.5931 8.60714H78.493ZM120.211 8.60714L116.388 20.9167H113.159L110.457 12.2083L107.755 20.9167H104.525L100.835 8.60714H103.801L106.371 17.4464L109.139 8.54167H111.973L114.741 17.4464L117.311 8.54167H120.211V8.60714ZM87.3902 8.60714V11.3571C86.9288 11.2917 86.4675 11.2262 86.0061 11.2262C83.8313 11.2262 82.7109 12.3393 82.7109 14.8929V20.9821H79.7452V8.60714H82.645V10.6369C83.2381 9.19643 84.6221 8.34524 86.2698 8.34524C86.6652 8.41071 87.0606 8.47619 87.3902 8.60714ZM99.7144 8.60714V19.6726C99.7144 23.7976 97.4077 26.0893 93.3216 26.0893C91.2127 26.0893 89.2355 25.4345 88.1151 24.3869L89.4332 22.2262C90.4877 23.0774 91.8717 23.4702 93.1239 23.4702C95.4306 23.4702 96.7487 22.1607 96.7487 19.6726V18.625C96.0237 20 94.5079 20.7857 92.7285 20.7857C90.0923 20.7857 88.4446 19.1488 88.4446 16.1369V8.60714H91.4104V15.4167C91.4104 17.3155 92.2012 18.1012 93.717 18.1012C95.4965 18.1012 96.6828 16.9881 96.6828 15.2202V8.60714H99.7144ZM121.002 4.74405C121.002 3.69643 121.727 2.91071 122.913 2.91071C124.033 2.91071 124.758 3.69643 124.758 4.74405C124.758 5.79167 124.033 6.57738 122.913 6.57738C121.793 6.57738 121.002 5.79167 121.002 4.74405ZM121.397 8.60714H124.363V20.9167H121.397V8.60714ZM125.879 18.9524L127.46 17.119C128.449 18.1667 129.965 18.8214 131.547 18.8214C132.931 18.8214 133.721 18.2976 133.721 17.5119C133.721 16.8571 133.26 16.4643 132.008 16.1369L129.965 15.6786C127.395 15.0893 126.274 13.9107 126.274 12.2083C126.274 9.91667 128.185 8.34524 131.415 8.34524C133.59 8.34524 135.435 9.06548 136.489 10.3095L134.908 12.2083C133.853 11.2917 132.601 10.8333 131.349 10.8333C129.965 10.8333 129.306 11.3571 129.306 12.0774C129.306 12.6667 129.701 12.994 131.019 13.3214L133.128 13.8452C135.764 14.4345 136.687 15.6131 136.687 17.3155C136.687 19.7381 134.776 21.3095 131.481 21.3095C129.108 21.244 126.999 20.3274 125.879 18.9524ZM149.934 15.6786H140.707C141.037 17.6429 142.355 18.6905 144.332 18.6905C145.716 18.6905 146.902 18.1667 147.759 17.119L149.539 18.8869C148.352 20.3929 146.507 21.244 144.2 21.244C140.246 21.244 137.61 18.6905 137.61 14.8274C137.61 11.0298 140.114 8.27976 143.871 8.27976C147.496 8.27976 149.934 10.7679 149.934 14.5C150 14.8929 149.934 15.2857 149.934 15.6786ZM140.707 13.6488H147.034C146.902 11.8155 145.782 10.8333 144.003 10.8333C142.157 10.8333 140.971 11.881 140.707 13.6488Z" fill="#0066F5"/>
</g>
<defs>
<clipPath id="clip0_1587_2351">
<rect width="150" height="27.5" fill="white" transform="translate(0 0.75)"/>
</clipPath>
</defs>
</svg>
