<svg width="171" height="33" viewBox="0 0 171 33" fill="none" xmlns="http://www.w3.org/2000/svg">
<g style="mix-blend-mode:luminosity" opacity="0.5" clip-path="url(#clip0_1587_2362)">
<path d="M22.3522 14.102C26.4698 10.736 34.8791 -1.39327 21.7143 0.754019C15.9728 1.62454 7.56347 7.19589 5.88161 13.6378C5.01169 11.8967 4.02578 10.2717 2.98187 8.64676C1.35801 6.44144 -0.439837 8.18249 1.30001 10.3878C6.45753 16.6365 9.43112 24.4016 9.76727 32.4991C10.1732 28.6108 9.5353 23.8519 7.96943 19.2091C8.72337 19.4412 9.59329 19.5573 10.3472 19.5573C13.015 23.968 17.1327 27.7402 21.7143 29.4812C25.9478 31.1642 31.5733 30.1777 29.2536 23.3876C28.0357 19.6734 25.194 16.4235 22.3522 14.102ZM22.9321 2.32097C30.2395 1.50847 22.4101 10.6199 19.8584 12.3029C17.4806 10.736 14.4649 9.34317 11.5651 9.74942C13.6529 7.02179 18.7565 2.84327 22.9321 2.32097ZM11.5071 11.7226C13.4789 11.5485 15.6247 12.6512 17.3066 13.8119C15.6827 14.6243 13.9429 15.0886 12.145 15.2628C9.47729 15.2628 8.89735 11.9547 11.5071 11.7226ZM21.5982 25.8832C18.1766 24.8966 14.9289 22.1109 12.609 19.3251C14.5228 18.919 16.4367 18.1645 18.1766 17.1198C18.8145 16.8297 19.4524 16.3654 20.0324 15.9592C22.0622 17.8162 24.208 20.3118 25.0199 23.1554C25.8319 26.2313 23.6281 26.4635 21.5982 25.8832Z" fill="#FFAF2C"/>
<path d="M50.3634 6.44139H40.3883C40.0404 6.44139 39.7504 6.73156 39.7504 7.07978H39.6924V22.7492C39.6924 23.0974 39.9824 23.3875 40.3303 23.3875C40.6203 23.3875 40.9103 23.0974 40.9683 22.7492V15.6689H49.4356C49.7835 15.6689 49.9575 15.3787 49.9575 15.0886C49.9575 14.7403 49.7255 14.5663 49.4356 14.5663H40.9103V7.66013H50.3634C50.7115 7.66013 50.8854 7.36994 50.8854 7.07978C50.8854 6.90567 50.7115 6.67353 50.3634 6.44139ZM54.945 5.62891H54.8871C54.5971 5.62891 54.4231 5.86104 54.4231 6.15122V22.6911C54.4231 23.0394 54.6551 23.2715 54.945 23.2715C55.2931 23.2715 55.467 22.9814 55.467 22.6911V6.26729C55.467 5.86104 55.2931 5.62891 54.945 5.62891ZM69.3858 11.5484C69.3858 11.2003 69.1538 10.9681 68.8639 10.9681C68.5159 10.9681 68.3419 11.2583 68.3419 11.5484V18.4546C68.3419 20.776 66.544 22.6331 64.3402 22.5751C62.0205 22.5751 60.6866 20.9501 60.6866 18.3966V11.5484C60.6866 11.2003 60.4546 10.9681 60.1647 10.9681C59.9327 10.9681 59.6427 11.2583 59.6427 11.5484V18.5706C59.6427 21.4724 61.3825 23.6197 64.2243 23.6197C65.9641 23.6777 67.588 22.6911 68.3999 21.0662V22.8653C68.3999 23.2134 68.6899 23.3875 68.9219 23.3875C69.2698 23.3875 69.4438 23.0974 69.4438 22.8653H69.3858V11.5484ZM78.955 12.1288C79.187 12.1288 79.4769 11.8967 79.4769 11.6065C79.4769 11.3744 79.187 11.0842 78.955 11.0842H75.3013V7.66013C75.3013 7.36994 75.0114 7.07978 74.7794 7.07978H74.7214C74.4313 7.07978 74.2574 7.36994 74.2574 7.66013V11.0842H72.9815C72.6915 11.0842 72.4595 11.2583 72.4595 11.5484C72.4595 11.8387 72.6915 12.1288 72.9815 12.1288H74.2574V20.1376C74.2574 22.401 75.7073 23.5037 77.3891 23.5037C77.9691 23.5037 78.5491 23.3876 79.071 23.2134C79.2449 23.0974 79.419 22.9233 79.419 22.6911C79.419 22.401 79.187 22.2268 78.955 22.2268C78.5491 22.343 78.0851 22.401 77.6211 22.401C76.2292 22.401 75.3013 21.7625 75.3013 20.0215V12.1288H78.955ZM87.9443 12.1288C88.2342 12.1288 88.4661 11.8967 88.4661 11.6065C88.4661 11.3744 88.2342 11.0842 87.9443 11.0842H84.2905V7.66013C84.2905 7.36994 84.0585 7.07978 83.7686 7.07978H83.7106C83.4206 7.07978 83.2466 7.36994 83.2466 7.66013V11.0842H81.9707C81.7388 11.0842 81.4487 11.2583 81.4487 11.5484C81.4487 11.8387 81.7388 12.1288 81.9707 12.1288H83.2466V20.1376C83.2466 22.401 84.6964 23.5037 86.4363 23.5037C86.9583 23.5037 87.5382 23.3876 88.0602 23.2134C88.2922 23.0974 88.4081 22.9233 88.4081 22.6911C88.4081 22.401 88.2342 22.2268 87.9443 22.2268C87.5382 22.343 87.0743 22.401 86.6104 22.401C85.2184 22.401 84.2905 21.7625 84.2905 20.0215V12.1288H87.9443ZM95.8895 10.736C92.8158 10.736 90.496 13.5216 90.496 17.1779V17.2359C90.496 21.1242 93.0477 23.6777 96.1215 23.6777C97.7454 23.7358 99.4272 23.0394 100.529 21.7045C100.703 21.5885 100.761 21.4144 100.761 21.2984C100.761 21.0081 100.471 20.7179 100.239 20.7179L99.8912 20.8341C99.431 21.3708 98.8622 21.8036 98.2224 22.1038C97.5824 22.4039 96.8861 22.5646 96.1795 22.5751C93.9177 22.5751 91.8879 20.776 91.6559 17.7582H100.703C100.935 17.7582 101.225 17.468 101.225 17.1779C101.225 13.5216 99.1372 10.736 95.8895 10.736ZM91.5979 16.5975C91.7719 13.9279 93.5697 11.8387 95.8316 11.8387C98.4413 11.8387 99.8332 14.102 99.9492 16.5975H91.5979ZM110.099 10.9101C108.01 11.0842 106.271 12.535 105.517 14.6243V11.6065C105.517 11.3744 105.227 11.0842 104.995 11.0842C104.647 11.0842 104.473 11.2583 104.415 11.6065V22.9814C104.415 23.2715 104.647 23.5617 104.937 23.5617C105.227 23.5617 105.459 23.3295 105.517 22.9814V18.4546C105.517 14.4502 107.663 12.535 110.099 12.2449H110.156C110.504 12.2449 110.678 11.8967 110.678 11.6065C110.678 11.2003 110.447 10.9101 110.099 10.9101Z" fill="black"/>
<path d="M129.643 10.2715C128.889 10.2715 128.193 10.8518 128.019 11.6644L126.048 18.2803L124.133 11.6644C123.959 10.8518 123.205 10.2135 122.336 10.2135H122.162C121.292 10.2135 120.538 10.7358 120.364 11.6644L118.45 18.1642L116.594 11.6063C116.362 10.8518 115.724 10.2135 114.912 10.2135H114.855C113.985 10.2135 113.347 10.9679 113.347 11.8965L113.463 12.767L116.421 21.8785C116.652 22.8071 117.406 23.4454 118.334 23.5035H118.45C119.32 23.5035 120.016 22.8651 120.306 21.9365L122.22 15.4366L124.133 21.9365C124.366 22.8651 125.12 23.5035 125.989 23.5035H126.163C127.091 23.5035 127.845 22.8651 128.078 21.8785L131.035 12.651L131.209 11.9545V11.8965C131.209 10.9679 130.513 10.2715 129.643 10.2715ZM138.169 10.2715C136.834 10.2135 135.559 10.5036 134.283 10.9099C133.76 11.142 133.47 11.6644 133.47 12.3027C133.47 13.1733 134.109 13.8117 134.921 13.7536C135.037 13.7536 135.211 13.7536 135.385 13.6375C136.139 13.4054 136.951 13.2893 137.762 13.2893C139.502 13.2893 140.372 14.1018 140.372 15.6687V15.8429C139.444 15.4946 138.4 15.3786 137.415 15.3786C134.573 15.3786 132.601 16.7133 132.601 19.5571C132.601 22.0526 134.514 23.5035 136.718 23.5035C138.11 23.5615 139.444 22.9231 140.372 21.8785C140.43 22.8071 141.126 23.4454 141.996 23.4454C142.924 23.4454 143.678 22.6329 143.678 21.6463V15.8429C143.736 14.392 143.272 12.8831 142.344 11.7804C141.358 10.8518 140.025 10.2715 138.169 10.2715ZM140.43 18.6866C140.43 20.0794 139.27 20.9499 137.705 20.8919C136.603 20.8919 135.849 20.3115 135.849 19.3249V19.2669C135.849 18.1642 136.777 17.4679 138.226 17.4679C138.923 17.4679 139.734 17.7 140.43 17.9902V18.6866ZM155.451 10.2135C154.755 10.2135 154.059 10.6777 153.885 11.4902L151.218 18.9767L148.665 11.5483C148.434 10.7358 147.796 10.2135 146.983 10.2135C146.114 10.2135 145.417 10.9099 145.302 11.8965C145.302 12.1867 145.417 12.4768 145.534 12.767L149.245 21.8785C149.478 22.8071 150.231 23.4454 151.159 23.5035H151.391C152.203 23.4454 153.015 22.8651 153.364 21.9365L156.959 12.825L157.133 11.9545V11.8965C157.133 10.9679 156.436 10.2135 155.451 10.2135ZM164.44 10.1554C160.902 10.1554 158.466 13.1733 158.466 16.8294V17.4098C158.582 20.9499 161.483 23.6775 164.788 23.5035C166.296 23.5035 167.746 22.9811 168.964 21.9365C169.311 21.6463 169.428 21.2981 169.428 20.8919V20.8338C169.428 20.0213 168.847 19.3829 168.093 19.3829C167.804 19.3829 167.514 19.441 167.282 19.6732C166.605 20.2556 165.738 20.5659 164.847 20.5436C163.396 20.6018 162.12 19.5571 161.946 17.9902H168.732C169.601 17.9322 170.298 17.1196 170.239 16.191V15.9009C170.239 12.767 167.629 10.0394 164.44 10.1554ZM161.83 15.8429C162.12 14.1598 163.048 13.1152 164.44 13.1152C165.832 13.1152 166.76 14.2179 166.934 15.8429H161.83Z" fill="black"/>
</g>
<defs>
<clipPath id="clip0_1587_2362">
<rect width="169.59" height="31.9981" fill="white" transform="translate(0.588379 0.500977)"/>
</clipPath>
</defs>
</svg>
