<svg width="85" height="39" viewBox="0 0 85 39" fill="none" xmlns="http://www.w3.org/2000/svg">
<g style="mix-blend-mode:luminosity" opacity="0.5" clip-path="url(#clip0_1587_2375)">
<path fill-rule="evenodd" clip-rule="evenodd" d="M92.1014 20.0507C92.1014 13.4925 88.933 8.31763 82.8773 8.31763C76.7961 8.31763 73.1167 13.4925 73.1167 19.9994C73.1167 27.7104 77.4604 31.6044 83.695 31.6044C86.7356 31.6044 89.0352 30.9127 90.7727 29.9392V24.8156C89.0352 25.6866 87.0422 26.2246 84.5126 26.2246C82.0341 26.2246 79.8367 25.3536 79.5556 22.3307H92.0503C92.0503 21.9976 92.1014 20.6655 92.1014 20.0507ZM79.479 17.617C79.479 14.7221 81.242 13.5181 82.8518 13.5181C84.4104 13.5181 86.0712 14.7221 86.0712 17.617H79.479Z" fill="#635BFF"/>
<path fill-rule="evenodd" clip-rule="evenodd" d="M63.2535 8.31763C60.7495 8.31763 59.1398 9.49605 58.2455 10.3158L57.9133 8.72751H52.292V38.5981L58.6798 37.2403L58.7054 29.9904C59.6252 30.6565 60.9795 31.6044 63.228 31.6044C67.8017 31.6044 71.9665 27.9154 71.9665 19.7945C71.941 12.3653 67.725 8.31763 63.2535 8.31763ZM61.7204 25.9684C60.2129 25.9684 59.3186 25.4304 58.7054 24.7644L58.6798 15.2601C59.3442 14.5172 60.264 14.0048 61.7204 14.0048C64.0456 14.0048 65.6554 16.6179 65.6554 19.9738C65.6554 23.4066 64.0712 25.9684 61.7204 25.9684Z" fill="#635BFF"/>
<path fill-rule="evenodd" clip-rule="evenodd" d="M43.5024 6.80623L49.9158 5.42286V0.222412L43.5024 1.58016V6.80623Z" fill="#635BFF"/>
<path d="M49.9158 8.75317H43.5024V31.1689H49.9158V8.75317Z" fill="#635BFF"/>
<path fill-rule="evenodd" clip-rule="evenodd" d="M36.6291 10.6491L36.2203 8.75333H30.7012V31.1691H37.089V15.9776C38.5965 14.005 41.1517 14.3637 41.9438 14.6455V8.75333C41.1261 8.44591 38.1366 7.88231 36.6291 10.6491Z" fill="#635BFF"/>
<path fill-rule="evenodd" clip-rule="evenodd" d="M23.8533 3.19409L17.6188 4.52623L17.5933 25.0462C17.5933 28.8377 20.4295 31.63 24.2111 31.63C26.3063 31.63 27.8394 31.2458 28.6826 30.7847V25.5842C27.8649 25.9172 23.8278 27.0957 23.8278 23.3042V14.2098H28.6826V8.75319H23.8278L23.8533 3.19409Z" fill="#635BFF"/>
<path fill-rule="evenodd" clip-rule="evenodd" d="M6.58071 15.2601C6.58071 14.261 7.39835 13.8767 8.75257 13.8767C10.6945 13.8767 13.1474 14.4659 15.0893 15.5163V9.49605C12.9685 8.65066 10.8733 8.31763 8.75257 8.31763C3.56565 8.31763 0.116211 11.0331 0.116211 15.5675C0.116211 22.6381 9.82573 21.5109 9.82573 24.5594C9.82573 25.7379 8.80368 26.1221 7.3728 26.1221C5.25204 26.1221 2.54359 25.2511 0.397276 24.0727V30.1698C2.77355 31.1945 5.17538 31.63 7.3728 31.63C12.6875 31.63 16.3413 28.9913 16.3413 24.4057C16.3158 16.7716 6.58071 18.1293 6.58071 15.2601Z" fill="#635BFF"/>
</g>
<defs>
<clipPath id="clip0_1587_2375">
<rect width="92" height="39" fill="white" transform="translate(0.318359)"/>
</clipPath>
</defs>
</svg>
