<svg width="103" height="27" viewBox="0 0 103 27" fill="none" xmlns="http://www.w3.org/2000/svg">
<g style="mix-blend-mode:luminosity" opacity="0.5" clip-path="url(#clip0_1587_2368)">
<path d="M61.5912 8.74707V23.9471H57.1842V21.7271C56.7344 22.4982 56.0812 23.1309 55.2962 23.5561C54.4836 23.984 53.5764 24.2007 52.6582 24.1861C50.7589 24.1861 49.3399 23.6564 48.4012 22.5971C47.4625 21.5377 46.9929 19.9377 46.9922 17.7971V8.74707H51.5182V17.8901C51.5182 19.7287 52.3079 20.6481 53.8872 20.6481C54.8265 20.6481 55.5859 20.3284 56.1652 19.6891C56.7445 19.0497 57.0345 18.2104 57.0352 17.1711V8.74707H61.5912Z" fill="#422466"/>
<path d="M78.8764 1.81396V23.946H74.4104V21.7C73.9478 22.4825 73.2717 23.1169 72.4614 23.529C71.5802 23.9782 70.6024 24.2048 69.6134 24.189C68.3799 24.2079 67.1688 23.858 66.1354 23.184C65.1168 22.5173 64.3224 21.578 63.7524 20.366C63.1824 19.154 62.8978 17.77 62.8984 16.214C62.8984 14.6546 63.1831 13.2806 63.7524 12.092C64.3218 10.9033 65.1104 9.98296 66.1184 9.33096C67.1271 8.6823 68.2914 8.35763 69.6114 8.35696C70.5795 8.34455 71.5364 8.56508 72.4014 8.99996C73.2064 9.39879 73.8821 10.0173 74.3504 10.784V1.81396H78.8764ZM73.5104 19.584C74.1104 18.8146 74.4104 17.7103 74.4104 16.271C74.4104 14.8516 74.1054 13.7576 73.4954 12.989C72.8854 12.2203 72.0311 11.8353 70.9324 11.834C69.8124 11.834 68.9431 12.214 68.3244 12.974C67.7058 13.734 67.3958 14.813 67.3944 16.211C67.3944 17.6496 67.7044 18.764 68.3244 19.554C68.9444 20.344 69.8138 20.7386 70.9324 20.738C72.0518 20.738 72.9111 20.3533 73.5104 19.584Z" fill="#422466"/>
<path d="M96.1616 8.74709V23.9471H91.6946V21.7001C91.2324 22.4826 90.5566 23.117 89.7466 23.5291C88.8654 23.9784 87.8876 24.205 86.8986 24.1891C85.5793 24.1891 84.4149 23.8691 83.4056 23.2291C82.3963 22.5891 81.6069 21.6748 81.0376 20.4861C80.4676 19.2974 80.1829 17.9234 80.1836 16.3641C80.1843 14.8048 80.4689 13.4158 81.0376 12.1971C81.6076 10.9778 82.4019 10.0334 83.4206 9.36409C84.4547 8.6923 85.6656 8.34413 86.8986 8.36409C87.8911 8.348 88.8712 8.58513 89.7466 9.0531C90.5537 9.48297 91.2275 10.1259 91.6946 10.9121V8.74709H96.1616ZM90.7956 19.6001C91.3956 18.8414 91.6956 17.7414 91.6956 16.3001C91.6956 14.8588 91.3956 13.7548 90.7956 12.9881C90.1956 12.2181 89.3363 11.8331 88.2176 11.8331C87.0989 11.8331 86.2296 12.2331 85.6096 13.0331C84.9896 13.8331 84.6796 14.9421 84.6796 16.3601C84.6796 17.7781 84.9846 18.8624 85.5946 19.6131C86.2033 20.3624 87.0776 20.7371 88.2176 20.7371C89.3369 20.7378 90.1963 20.3588 90.7956 19.6001Z" fill="#422466"/>
<path d="M46.0741 24.16H40.4571L34.4181 17.268V24.16H29.8301V1.81396H34.4181V15.386L40.1841 8.79996H45.6841L39.1561 16.177L46.0741 24.16Z" fill="#422466"/>
<path d="M17.2703 24.168L8.47329 14.042L13.2783 24.168H9.94729L5.04729 13.844L7.08429 24.168H5.03829L2.99929 13.828V24.168H2.19629V1.81396H2.99929V12.967L5.06629 1.81396H7.10629L5.03029 13.015L10.0263 1.81396H13.3203L8.34429 12.974L17.3803 1.81396H22.5433L13.1963 13.359L22.5873 24.168H17.2703Z" fill="#422466"/>
<path d="M99.9586 23.922C101.329 23.922 102.441 22.8108 102.441 21.44C102.441 20.0692 101.329 18.958 99.9586 18.958C98.5878 18.958 97.4766 20.0692 97.4766 21.44C97.4766 22.8108 98.5878 23.922 99.9586 23.922Z" fill="#422466"/>
</g>
<defs>
<clipPath id="clip0_1587_2368">
<rect width="102" height="27" fill="white" transform="translate(0.318359)"/>
</clipPath>
</defs>
</svg>
