<svg width="150" height="33" viewBox="0 0 150 33" fill="none" xmlns="http://www.w3.org/2000/svg">
<g style="mix-blend-mode:luminosity" opacity="0.5" clip-path="url(#clip0_1587_2354)">
<path d="M52.9471 18.931L52.053 21.4613H51.9785C51.8295 20.8907 51.5563 20.0225 51.1093 18.9807L46.3163 6.94965H41.6226V26.1248H44.7269V14.2923C44.7269 13.5481 44.7269 12.7047 44.702 11.6628C44.6772 11.1419 44.6275 10.745 44.6027 10.4473H44.6772C44.8262 11.1915 45 11.7372 45.1242 12.0845L50.8858 26.0752H53.0712L58.7832 11.9605C58.9073 11.638 59.0315 10.9931 59.1557 10.4473H59.2302C59.1557 11.8613 59.106 13.1264 59.0812 13.8954V26.0504H62.3841V6.90004H57.8643L52.9471 18.931ZM65.5133 12.3078H68.7418V26.0504H65.5133V12.3078ZM67.1524 6.50314C66.606 6.50314 66.159 6.70159 65.7865 7.04887C65.4139 7.39616 65.2153 7.84267 65.2153 8.38841C65.2153 8.90934 65.4139 9.35585 65.7865 9.70314C66.159 10.0504 66.606 10.2241 67.1524 10.2241C67.6987 10.2241 68.1706 10.0256 68.5183 9.70314C68.8908 9.35585 69.0894 8.90934 69.0894 8.38841C69.0894 7.86748 68.8908 7.42097 68.5183 7.04887C68.1954 6.70159 67.7235 6.50314 67.1524 6.50314ZM80.1904 12.1838C79.5944 12.0597 78.9736 11.9853 78.3775 11.9853C76.9123 11.9853 75.5712 12.3078 74.4537 12.9528C73.3361 13.5977 72.4421 14.4907 71.8709 15.607C71.2749 16.7481 70.9769 18.0628 70.9769 19.576C70.9769 20.8907 71.2749 22.0566 71.8461 23.1233C72.4173 24.1652 73.212 25.0086 74.2798 25.5791C75.2981 26.1497 76.4901 26.4473 77.8312 26.4473C79.3709 26.4473 80.6871 26.1248 81.7302 25.5295L81.755 25.5047V22.5279L81.6308 22.6272C81.159 22.9745 80.6126 23.2721 80.0663 23.4458C79.4951 23.6442 78.9736 23.7434 78.5265 23.7434C77.2351 23.7434 76.2169 23.3714 75.4967 22.5528C74.7517 21.759 74.3792 20.6675 74.3792 19.3031C74.3792 17.8892 74.7517 16.7729 75.5216 15.9543C76.2914 15.1357 77.3096 14.714 78.5514 14.714C79.5944 14.714 80.6623 15.0613 81.6308 15.7559L81.755 15.8551V12.7047L81.7302 12.6799C81.308 12.5062 80.8361 12.3078 80.1904 12.1838ZM90.8444 12.0845C90.0497 12.0845 89.3047 12.3326 88.659 12.8535C88.1126 13.3 87.7401 13.945 87.4173 14.714H87.3924V12.3078H84.1639V26.0504H87.3924V19.0303C87.3924 17.8396 87.6408 16.8473 88.1871 16.1279C88.7335 15.3838 89.4288 15.0117 90.2732 15.0117C90.5712 15.0117 90.8692 15.0861 91.2418 15.1357C91.5894 15.2349 91.8378 15.3341 92.0116 15.4582L92.1358 15.5574V12.3326L92.0613 12.3078C91.8378 12.159 91.3908 12.0845 90.8444 12.0845ZM99.6358 12.0101C97.3759 12.0101 95.563 12.6799 94.2964 13.9946C93.005 15.3093 92.3841 17.1202 92.3841 19.4024C92.3841 21.5357 93.0298 23.2721 94.2716 24.5372C95.5133 25.7776 97.202 26.4225 99.313 26.4225C101.523 26.4225 103.286 25.7528 104.553 24.4132C105.844 23.0737 106.465 21.2876 106.465 19.0799C106.465 16.8969 105.869 15.1605 104.652 13.8954C103.485 12.6303 101.772 12.0101 99.6358 12.0101ZM102.219 22.5776C101.623 23.3465 100.679 23.7186 99.5116 23.7186C98.3444 23.7186 97.4007 23.3465 96.7302 22.5279C96.0596 21.759 95.7368 20.6427 95.7368 19.2287C95.7368 17.7652 96.0845 16.6489 96.7302 15.8551C97.4007 15.0613 98.3196 14.6644 99.4868 14.6644C100.629 14.6644 101.523 15.0365 102.169 15.8055C102.815 16.5745 103.162 17.6907 103.162 19.1543C103.113 20.6427 102.839 21.8086 102.219 22.5776ZM113.667 18.0132C112.649 17.5915 112.003 17.269 111.705 16.9962C111.457 16.7481 111.333 16.4008 111.333 15.9543C111.333 15.5822 111.482 15.2101 111.854 14.9621C112.227 14.714 112.649 14.59 113.27 14.59C113.816 14.59 114.387 14.6892 114.934 14.838C115.48 14.9869 115.977 15.2101 116.374 15.5078L116.498 15.607V12.5807L116.424 12.5559C116.051 12.407 115.555 12.2582 114.959 12.1341C114.363 12.0349 113.816 11.9853 113.369 11.9853C111.83 11.9853 110.563 12.3574 109.57 13.176C108.576 13.945 108.104 14.9869 108.104 16.2024C108.104 16.8473 108.204 17.4179 108.427 17.8892C108.651 18.3605 108.974 18.807 109.421 19.1791C109.868 19.5264 110.513 19.9233 111.407 20.2954C112.152 20.6179 112.724 20.8659 113.071 21.0644C113.419 21.2628 113.642 21.4861 113.816 21.6597C113.94 21.8582 114.015 22.1062 114.015 22.4287C114.015 23.3465 113.32 23.7931 111.904 23.7931C111.358 23.7931 110.786 23.6938 110.116 23.4706C109.445 23.2473 108.825 22.9248 108.303 22.5528L108.179 22.4535V25.6039L108.253 25.6287C108.725 25.852 109.296 26.0008 109.992 26.1745C110.687 26.2985 111.308 26.3977 111.854 26.3977C113.518 26.3977 114.884 26.0256 115.853 25.207C116.846 24.4132 117.368 23.3962 117.368 22.0814C117.368 21.1636 117.119 20.345 116.573 19.7248C115.853 19.1295 114.959 18.5093 113.667 18.0132ZM125.886 12.0101C123.626 12.0101 121.813 12.6799 120.546 13.9946C119.28 15.3093 118.634 17.1202 118.634 19.4024C118.634 21.5357 119.28 23.2721 120.522 24.5372C121.763 25.7776 123.452 26.4225 125.563 26.4225C127.773 26.4225 129.536 25.7528 130.803 24.4132C132.094 23.0737 132.715 21.2876 132.715 19.0799C132.715 16.8969 132.119 15.1605 130.902 13.8954C129.735 12.6303 128.022 12.0101 125.886 12.0101ZM128.444 22.5776C127.848 23.3465 126.904 23.7186 125.737 23.7186C124.545 23.7186 123.626 23.3465 122.955 22.5279C122.285 21.759 121.962 20.6427 121.962 19.2287C121.962 17.7652 122.31 16.6489 122.955 15.8551C123.626 15.0613 124.545 14.6644 125.712 14.6644C126.83 14.6644 127.748 15.0365 128.394 15.8055C129.04 16.5745 129.387 17.6907 129.387 19.1543C129.387 20.6427 129.065 21.8086 128.444 22.5776ZM149.975 14.9621V12.3078H146.722V8.23957L146.623 8.26438L143.543 9.18221L143.469 9.20701V12.3078H138.601V10.5714C138.601 9.77756 138.8 9.1574 139.147 8.7605C139.495 8.3636 140.017 8.16515 140.662 8.16515C141.109 8.16515 141.581 8.26438 142.103 8.48763L142.227 8.56205V5.75895L142.152 5.73415C141.705 5.58531 141.109 5.48608 140.339 5.48608C139.371 5.48608 138.527 5.70934 137.757 6.08143C136.987 6.50314 136.416 7.07368 135.993 7.84267C135.571 8.58686 135.348 9.43027 135.348 10.3977V12.3078H133.088V14.9372H135.348V26.0504H138.601V14.9621H143.469V22.0318C143.469 24.9341 144.834 26.3977 147.566 26.3977C148.013 26.3977 148.485 26.3233 148.932 26.2489C149.404 26.1497 149.752 26.0256 149.95 25.9264L149.975 25.9016V23.2473L149.851 23.3465C149.652 23.4706 149.479 23.5698 149.181 23.6442C148.932 23.7186 148.709 23.7434 148.535 23.7434C147.889 23.7434 147.442 23.5946 147.119 23.2225C146.821 22.8752 146.672 22.3047 146.672 21.4613V14.9621H149.975Z" fill="#737373"/>
<path d="M0 0.5H15.2235V15.7062H0V0.5Z" fill="#F25022"/>
<path d="M16.813 0.5H32.0365V15.7062H16.813V0.5Z" fill="#7FBA00"/>
<path d="M0 17.2937H15.2235V32.4999H0V17.2937Z" fill="#00A4EF"/>
<path d="M16.813 17.2937H32.0365V32.4999H16.813V17.2937Z" fill="#FFB900"/>
</g>
<defs>
<clipPath id="clip0_1587_2354">
<rect width="150" height="32" fill="white" transform="translate(0 0.5)"/>
</clipPath>
</defs>
</svg>
